<svg viewBox="0 0 367 60" xmlns="http://www.w3.org/2000/svg" alt="Commerce.js logo">
    <path d="M126.511 16.4375C122.998 16.4375 120.22 17.6514 118.181 20.0802C116.155 22.4931 115.14 25.8038 115.14 30.0122C115.14 34.34 116.118 37.6887 118.071 40.0562C120.038 42.4089 122.836 43.5847 126.467 43.5847C128.697 43.5847 131.239 43.1702 134.096 42.3401V45.7111C131.881 46.5697 129.147 47 125.899 47C121.191 47 117.554 45.5229 114.989 42.5664C112.439 39.611 111.163 35.4101 111.163 29.9667C111.163 26.5577 111.777 23.5717 113 21.0075C114.238 18.4434 116.017 16.4682 118.335 15.0809C120.666 13.6936 123.406 13 126.555 13C129.906 13 132.836 13.6334 135.344 14.9001L133.769 18.2034C131.348 17.0265 128.929 16.4375 126.511 16.4375Z" fill="currentColor"></path><path d="M159.524 34.4784C159.524 38.4099 158.574 41.4844 156.672 43.6991C154.769 45.9004 152.142 47 148.79 47C146.719 47 144.881 46.4949 143.275 45.4817C141.669 44.4685 140.429 43.0171 139.555 41.1244C138.681 39.2317 138.245 37.016 138.245 34.4784C138.245 30.5469 139.189 27.4878 141.077 25.3009C142.964 23.1006 145.585 22 148.938 22C152.177 22 154.749 23.1222 156.651 25.3667C158.566 27.6122 159.524 30.6498 159.524 34.4784ZM141.88 34.4784C141.88 37.5592 142.472 39.9065 143.655 41.5205C144.839 43.1344 146.578 43.9419 148.875 43.9419C151.17 43.9419 152.91 43.1426 154.093 41.5431C155.291 39.9302 155.888 37.5746 155.888 34.4794C155.888 31.4131 155.291 29.0873 154.093 27.5032C152.91 25.9037 151.155 25.1044 148.832 25.1044C146.537 25.1044 144.803 25.8893 143.633 27.459C142.465 29.0277 141.88 31.3678 141.88 34.4784Z" fill="currentColor"></path><path d="M194.721 47V31.0286C194.721 29.0717 194.328 27.6079 193.542 26.6384C192.756 25.6531 191.537 25.1599 189.882 25.1599C187.708 25.1599 186.101 25.8248 185.064 27.1535C184.026 28.4822 183.507 30.5291 183.507 33.2912V47H180.014V31.0286C180.014 29.0717 179.621 27.6079 178.835 26.6384C178.05 25.6531 176.821 25.1599 175.153 25.1599C172.965 25.1599 171.359 25.8615 170.335 27.2655C169.326 28.6539 168.821 30.9385 168.821 34.1194V47H165.327V22.4492H168.169L168.737 25.8091H168.904C169.563 24.6144 170.491 23.6805 171.682 23.0093C172.888 22.3371 174.235 22.0011 175.721 22.0011C179.326 22.0011 181.682 23.3905 182.791 26.1672H182.959C183.645 24.8825 184.643 23.8669 185.947 23.1203C187.251 22.3738 188.739 22 190.407 22C193.016 22 194.967 22.7172 196.256 24.1506C197.562 25.5693 198.213 27.8466 198.213 30.9825V46.999H194.721V47Z" fill="currentColor"></path><path d="M234.376 47V31.0286C234.376 29.0717 233.983 27.6079 233.198 26.6384C232.412 25.6531 231.192 25.1599 229.536 25.1599C227.363 25.1599 225.756 25.8248 224.719 27.1535C223.681 28.4822 223.161 30.5291 223.161 33.2912V47H219.668V31.0286C219.668 29.0717 219.277 27.6079 218.491 26.6384C217.705 25.6531 216.478 25.1599 214.809 25.1599C212.62 25.1599 211.014 25.8615 209.992 27.2655C208.982 28.6539 208.477 30.9385 208.477 34.1194V47H204.983V22.4492H207.824L208.393 25.8091H208.562C209.221 24.6144 210.146 23.6805 211.338 23.0093C212.545 22.3371 213.892 22.0011 215.378 22.0011C218.981 22.0011 221.339 23.3905 222.446 26.1672H222.616C223.303 24.8825 224.298 23.8669 225.602 23.1203C226.907 22.3738 228.394 22 230.064 22C232.672 22 234.621 22.7172 235.911 24.1506C237.215 25.5693 237.868 27.8466 237.868 30.9825V46.999H234.376V47Z" fill="currentColor"></path><path d="M254.606 47C251.226 47 248.555 45.9147 246.593 43.7432C244.645 41.5717 243.672 38.5566 243.672 34.698C243.672 30.8096 244.576 27.7215 246.384 25.4327C248.206 23.1439 250.648 22 253.709 22C256.575 22 258.842 22.9978 260.511 24.9935C262.182 26.9737 263.016 29.5927 263.016 32.8505V35.1609H247.261C247.33 37.9929 248.006 40.1418 249.286 41.6097C250.578 43.0776 252.395 43.8111 254.731 43.8111C257.194 43.8111 259.628 43.268 262.035 42.1827V45.4395C260.81 45.997 259.649 46.3931 258.55 46.6276C257.465 46.8755 256.15 47 254.606 47ZM253.667 25.0583C251.83 25.0583 250.363 25.6888 249.263 26.951C248.179 28.2122 247.538 29.9579 247.344 32.188H259.302C259.302 29.8848 258.814 28.1237 257.84 26.9068C256.867 25.6744 255.476 25.0583 253.667 25.0583Z" fill="currentColor"></path><path d="M279.55 22C280.594 22 281.531 22.089 282.36 22.2691L281.868 25.7182C280.895 25.4941 280.036 25.3821 279.292 25.3821C277.39 25.3821 275.759 26.1893 274.4 27.8018C273.055 29.4154 272.382 31.4237 272.382 33.8278V47H268.819V22.4481H271.759L272.166 26.9956H272.338C273.21 25.3978 274.263 24.1654 275.493 23.2994C276.724 22.4335 278.075 22 279.55 22Z" fill="currentColor"></path><path d="M295.622 47C292.328 47 289.773 45.9292 287.961 43.7876C286.161 41.6305 285.262 38.5857 285.262 34.6543C285.262 30.62 286.174 27.5022 288.001 25.3009C289.842 23.1006 292.46 22 295.851 22C296.943 22 298.037 22.1245 299.131 22.3744C300.223 22.6234 301.082 22.9175 301.704 23.2539L300.646 26.3573C299.885 26.0353 299.054 25.771 298.155 25.5653C297.255 25.3451 296.46 25.2351 295.766 25.2351C291.144 25.2351 288.831 28.3601 288.831 34.6101C288.831 37.5736 289.392 39.8479 290.513 41.433C291.648 43.0171 293.323 43.8102 295.538 43.8102C297.434 43.8102 299.379 43.3771 301.372 42.511V45.7471C299.852 46.5824 297.933 47 295.622 47Z" fill="currentColor"></path><path d="M316.508 47C313.127 47 310.456 45.9147 308.495 43.7432C306.548 41.5717 305.573 38.5566 305.573 34.698C305.573 30.8096 306.478 27.7215 308.286 25.4327C310.108 23.1439 312.55 22 315.611 22C318.477 22 320.743 22.9978 322.413 24.9935C324.082 26.9737 324.917 29.5927 324.917 32.8505V35.1609H309.163C309.233 37.9929 309.907 40.1418 311.187 41.6097C312.48 43.0776 314.296 43.8111 316.633 43.8111C319.094 43.8111 321.53 43.268 323.936 42.1827V45.4395C322.711 45.997 321.551 46.3931 320.452 46.6276C319.366 46.8755 318.052 47 316.508 47ZM315.569 25.0583C313.733 25.0583 312.264 25.6888 311.166 26.951C310.081 28.2122 309.44 29.9579 309.246 32.188H321.203C321.203 29.8848 320.715 28.1237 319.742 26.9068C318.768 25.6744 317.377 25.0583 315.569 25.0583Z" fill="currentColor"></path><path d="M329.036 43.908C329.036 42.953 329.242 42.232 329.657 41.747C330.083 41.248 330.691 40.998 331.477 40.998C332.278 40.998 332.899 41.248 333.34 41.747C333.796 42.232 334.023 42.953 334.023 43.908C334.023 44.835 333.796 45.549 333.34 46.048C332.885 46.547 332.265 46.797 331.477 46.797C330.773 46.797 330.188 46.575 329.719 46.133C329.263 45.676 329.036 44.935 329.036 43.908Z" fill="currentColor"></path><path d="M338.077 55.702C336.768 55.702 335.705 55.523 334.89 55.167V52.279C335.843 52.564 336.78 52.707 337.704 52.707C338.781 52.707 339.567 52.4 340.063 51.787C340.574 51.187 340.829 50.267 340.829 49.027V21.727H344.265V48.77C344.266 53.391 342.203 55.702 338.077 55.702ZM340.54 15.373C340.54 14.56 340.732 13.968 341.12 13.597C341.506 13.212 341.988 13.019 342.568 13.019C343.119 13.019 343.595 13.211 343.997 13.597C344.396 13.982 344.596 14.574 344.596 15.373C344.596 16.172 344.396 16.771 343.997 17.17C343.596 17.555 343.12 17.748 342.568 17.748C341.988 17.748 341.506 17.556 341.12 17.17C340.733 16.771 340.54 16.172 340.54 15.373Z" fill="currentColor"></path><path d="M366.508 39.9806C366.508 42.2251 365.703 43.9563 364.096 45.1742C362.487 46.3921 360.231 47 357.323 47C354.248 47 351.85 46.4949 350.128 45.4817V42.0924C351.243 42.6787 352.435 43.1416 353.705 43.479C354.989 43.8164 356.223 43.9851 357.408 43.9851C359.242 43.9851 360.653 43.6847 361.64 43.0829C362.628 42.4658 363.121 41.5349 363.121 40.2871C363.121 39.349 362.727 38.5497 361.937 37.8894C361.16 37.2146 359.637 36.4215 357.366 35.5111C355.208 34.6759 353.669 33.9487 352.753 33.3335C351.85 32.703 351.172 31.9901 350.721 31.1981C350.284 30.406 350.065 29.4607 350.065 28.3601C350.065 26.3943 350.833 24.8462 352.372 23.7168C353.91 22.5719 356.019 22 358.698 22C361.195 22 363.636 22.5287 366.02 23.5851L364.772 26.5558C362.443 25.5581 360.335 25.0592 358.444 25.0592C356.779 25.0592 355.524 25.3307 354.676 25.8738C353.831 26.4159 353.408 27.1648 353.408 28.1183C353.408 28.7633 353.563 29.3146 353.873 29.7693C354.198 30.2229 354.713 30.656 355.418 31.0674C356.125 31.4779 357.479 32.0734 359.482 32.8501C362.233 33.8921 364.087 34.9403 365.048 35.9967C366.021 37.0531 366.508 38.381 366.508 39.9806Z" fill="currentColor"></path><path d="M51.9277 0.756117C52.9028 -0.252039 54.4838 -0.252039 55.4594 0.756117L89.1534 35.5982C90.1285 36.6063 90.1285 38.2414 89.1534 39.2502L86.0727 42.4353L48.8476 3.94245L51.9277 0.756117Z" fill="currentColor"></path><path d="M59.0127 22.2828L38.4958 1.07695C37.5207 0.0687988 35.9381 0.0687982 34.9641 1.07813L1.69839 35.4926C0.723292 36.5014 0.723292 38.1365 1.69953 39.1446L20.4522 58.526C21.4273 59.5335 23.006 59.5347 23.9828 58.5271L45.3873 36.4398L66.8549 58.54C67.8283 59.5423 69.4007 59.5435 70.3764 58.5424L82.1003 46.5108L59.0127 22.2828ZM28.9042 36.9559C25.0418 36.9559 22.036 33.7045 22.036 29.8548C22.036 26.0034 25.0418 22.7532 28.9042 22.7532C32.7666 22.7532 35.7725 26.004 35.7725 29.8548C35.7713 33.7056 32.7655 36.9559 28.9042 36.9559Z" fill="currentColor"></path><path d="M31.3667 30.4688C31.3598 30.1357 31.2294 29.8372 30.9747 29.5739C30.7847 29.3768 30.5793 29.2618 30.3604 29.2284C30.1374 29.1921 29.9247 29.205 29.7216 29.2683C29.5214 29.3287 29.2684 29.4266 28.9621 29.5633C28.6813 29.6929 28.4669 29.785 28.3188 29.8384C28.1702 29.8847 28.0397 29.9029 27.9269 29.8935C27.8174 29.88 27.7141 29.8231 27.6171 29.7234C27.4816 29.5832 27.4237 29.4266 27.443 29.253C27.4623 29.0795 27.5014 28.893 27.8236 28.5592L28.4646 27.8965L28.0392 27.4567L27.5689 27.9429C27.5462 27.9528 27.5286 27.9511 27.5156 27.9382L27.1622 27.5528C27.1463 27.5364 27.127 27.5294 27.1038 27.5329C27.0811 27.5294 27.0618 27.5364 27.0459 27.5528L26.6681 27.9429C26.6522 27.9599 26.6443 27.981 26.6443 28.008C26.6443 28.0279 26.6522 28.0461 26.6681 28.0631L27.0357 28.4232C27.0482 28.4367 27.0499 28.4549 27.0402 28.4783C26.8207 28.785 26.7146 29.0988 26.7209 29.419C26.7305 29.7357 26.8582 30.0207 27.1032 30.2741C27.2932 30.4712 27.4986 30.5896 27.7175 30.6289C27.9337 30.6659 28.1464 30.6524 28.3557 30.5896C28.5656 30.5263 28.8203 30.426 29.1203 30.2894C29.3943 30.1726 29.6059 30.0905 29.754 30.0442C29.9026 29.9908 30.0348 29.9709 30.151 29.9838C30.2639 29.9938 30.3655 30.0454 30.4557 30.1392C30.5878 30.2753 30.6474 30.4377 30.6343 30.6242C30.6247 30.8072 30.5493 31.026 30.3587 31.2224L29.4238 32.1544L29.8277 32.6042L30.4698 32.0054C30.4925 31.9954 30.5101 31.9972 30.5232 32.0107L30.8425 32.3508C30.8584 32.3672 30.8766 32.3755 30.8958 32.3755C30.9214 32.3755 30.9429 32.3672 30.9588 32.3508L31.3366 31.9608C31.3525 31.9438 31.3593 31.9245 31.3559 31.9004C31.3587 31.877 31.3525 31.857 31.3366 31.84L31.0127 31.5145C30.9996 31.5016 30.9979 31.4828 31.0076 31.4594C31.2538 31.1321 31.3735 30.8019 31.3667 30.4688Z" fill="currentColor"></path>
</svg>
