<svg viewBox="0 0 282 55" fill="currentColor" xmlns="http://www.w3.org/2000/svg">
<path d="M19.8797 42.0139C7.83141 42.0139 1.35544 38.0417 1.35544 26.3542C1.35544 14.5139 9.63865 13.75 18.9761 13.75C27.1087 13.75 31.175 14.6667 34.1118 20.3958L31.0997 0.763888H21.3858C12.5754 0.763888 0 5.34722 0 28.2639C0 51.4861 11.5212 55 19.5785 55C26.2804 55 34.7142 51.7153 34.7142 40.8681V33.8403C33.8859 39.4931 27.8617 42.0139 19.8797 42.0139Z"/>
<path d="M67.2388 40.9444V14.0556C67.2388 6.1875 68.1424 2.82639 73.7901 0.763888H59.1815C64.8291 2.82639 65.7327 6.1875 65.7327 14.0556V19.7847H39.603V14.0556C39.603 6.1875 40.5066 2.82639 46.1542 0.763888H31.5456C37.1933 2.82639 38.0969 6.1875 38.0969 14.0556V40.9444C38.0969 48.8125 37.1933 52.1736 31.5456 54.2361H46.1542C40.5066 52.1736 39.603 48.8125 39.603 40.9444V35.0625H65.7327V40.9444C65.7327 48.8125 64.8291 52.1736 59.1815 54.2361H73.7901C68.1424 52.1736 67.2388 48.8125 67.2388 40.9444Z"/>
<path d="M88.8369 0C81.5326 0 68.9572 4.50695 68.9572 27.5C68.9572 50.5694 81.5326 55 88.8369 55C96.1412 55 108.717 50.5694 108.717 27.5C108.717 4.50695 96.1412 0 88.8369 0ZM87.9333 40.8681C78.5958 40.8681 70.2373 40.1806 70.2373 29.4097C70.2373 16.5764 77.3157 14.1319 89.7405 14.1319C99.078 14.1319 107.437 14.8194 107.437 25.5903C107.437 38.4236 100.358 40.8681 87.9333 40.8681Z"/>
<path d="M139.353 17.1111C139.277 3.20833 128.811 0.763888 123.991 0.763888H103.886C109.533 2.82639 110.437 6.1875 110.437 14.0556V40.9444C110.437 48.8125 109.533 52.1736 103.886 54.2361H118.494C112.846 52.1736 111.943 48.8125 111.943 40.9444V37.3542H119.548C130.091 37.3542 139.353 30.3264 139.353 17.1111ZM137.847 18.2569C137.847 24.1389 132.952 26.7361 125.798 26.7361C120.979 26.7361 116.988 25.8958 111.943 24.4444V12.9861H129.865C135.362 12.9861 137.847 13.75 137.847 18.2569Z"/>
<path d="M162.527 42.0139C150.479 42.0139 144.003 38.0417 144.003 26.3542C144.003 14.5139 152.286 13.75 161.623 13.75C169.756 13.75 173.822 14.6667 176.759 20.3958L173.747 0.763888H164.033C155.223 0.763888 142.647 5.34722 142.647 28.2639C142.647 51.4861 154.168 55 162.226 55C168.928 55 177.361 51.7153 177.361 40.8681V33.8403C176.533 39.4931 170.509 42.0139 162.527 42.0139Z"/>
<path d="M209.886 40.9444V14.0556C209.886 6.1875 210.79 2.82639 216.437 0.763888H201.829C207.476 2.82639 208.38 6.1875 208.38 14.0556V19.7847H182.25V14.0556C182.25 6.1875 183.154 2.82639 188.801 0.763888H174.193C179.841 2.82639 180.744 6.1875 180.744 14.0556V40.9444C180.744 48.8125 179.841 52.1736 174.193 54.2361H188.801C183.154 52.1736 182.25 48.8125 182.25 40.9444V35.0625H208.38V40.9444C208.38 48.8125 207.476 52.1736 201.829 54.2361H216.437C210.79 52.1736 209.886 48.8125 209.886 40.9444Z"/>
<path d="M231.484 0C224.18 0 211.604 4.50695 211.604 27.5C211.604 50.5694 224.18 55 231.484 55C238.788 55 251.364 50.5694 251.364 27.5C251.364 4.50695 238.788 0 231.484 0ZM230.581 40.8681C221.243 40.8681 212.885 40.1806 212.885 29.4097C212.885 16.5764 219.963 14.1319 232.388 14.1319C241.725 14.1319 250.084 14.8194 250.084 25.5903C250.084 38.4236 243.005 40.8681 230.581 40.8681Z"/>
<path d="M282 17.1111C281.925 3.20833 271.458 0.763888 266.638 0.763888H246.533C252.18 2.82639 253.084 6.1875 253.084 14.0556V40.9444C253.084 48.8125 252.18 52.1736 246.533 54.2361H261.141C255.494 52.1736 254.59 48.8125 254.59 40.9444V37.3542H262.196C272.738 37.3542 282 30.3264 282 17.1111ZM280.494 18.2569C280.494 24.1389 275.599 26.7361 268.446 26.7361C263.626 26.7361 259.635 25.8958 254.59 24.4444V12.9861H272.512C278.009 12.9861 280.494 13.75 280.494 18.2569Z"/>
</svg>
