<svg fill="none" height="66" viewBox="0 0 215 66" width="215" xmlns="http://www.w3.org/2000/svg"><g fill="#150703"><path d="m49.8644 11.2024c.3064-.5461.6355-1.0809.9873-1.60429.3519-.5234.7604-1.00129 1.2257-1.43366.3632-.32997.7604-.62581 1.1917-.88751.4312-.2617.8795-.48926 1.3448-.68269.4767-.20481.959-.3698 1.4471-.49496.488-.13654.9703-.23894 1.447-.30721.783-.10241 1.5151-.10241 2.196 0 .6923.1024 1.3052.32428 1.8386.66563.5334.34134.9817.80785 1.3448 1.39952.3632.5803.6072 1.29144.732 2.13343.0795.47784.0965.95004.0511 1.41664-.034.4665-.1135.9387-.2383 1.4165-.1249.4893-.3121.9558-.5618 1.3996-.2383.4323-.5221.8477-.8512 1.2459-.3178.3869-.6639.7567-1.0384 1.1094-.3632.3527-.732.6884-1.1066 1.007-.4993.4323-1.01.8476-1.5321 1.2459-.5107.3868-1.0384.7623-1.5832 1.1264-.6015.4096-1.2314.8363-1.8896 1.2801-.6582.4437-1.3051.9159-1.9407 1.4166-.6242.4892-1.22 1.0126-1.7875 1.5702-.5561.5575-1.0271 1.1492-1.4129 1.775-.2157.33-.3632.6827-.4426 1.0582-.0681.3754-.1476.7452-.2384 1.1093.3859.0797.7604.1024 1.1236.0683s.7377-.0512 1.1235-.0512h5.4816c.2724 0 .5448.0114.8172.0341.2724.0114.5447.0228.8171.0342l.017-.0171c.227-.2389.4143-.4949.5618-.768.1476-.2845.2894-.5746.4256-.8705l2.9962-.9216c-.1816.3869-.3802.751-.5959 1.0923-.2042.3414-.4539.66-.749.9558-.6129.5917-1.3335 1.0297-2.162 1.3142-.8285.2844-1.657.4494-2.4854.4949-.3405.0228-.681.0114-1.0215-.0341-.3404-.0341-.6809-.0512-1.0214-.0512-.4312 0-.8966 0-1.3959 0-.4994-.0114-1.0158-.0171-1.5492-.0171-.522-.0113-1.0498-.0113-1.5832 0-.522 0-1.0327.0114-1.5321.0342-.3972.0341-.7831.0455-1.1576.0341-.3632-.0114-.7377-.0569-1.1236-.1365l-.034-.1024c.1021-.3983.1929-.7965.2724-1.1948.0794-.3982.2326-.7794.4596-1.1435.4994-.8078 1.1122-1.5531 1.8386-2.2358.7377-.6827 1.5207-1.3313 2.3492-1.9457s1.6683-1.2004 2.5195-1.7579c.8625-.5576 1.6627-1.1208 2.4003-1.6897.42-.3186.8399-.6543 1.2598-1.007.4313-.3527.8342-.7225 1.2087-1.1094.3858-.3868.7377-.7964 1.0554-1.2288.3178-.4438.5845-.916.8001-1.4166.2497-.5917.4029-1.2459.4597-1.9628.0681-.7168.0227-1.4109-.1362-2.0822-.1589-.68268-.4313-1.3028-.8171-1.86033-.3859-.55754-.908-.98422-1.5662-1.28006-.4199-.19343-.8569-.30721-1.3108-.34135-.4426-.04551-.8909-.03982-1.3449.01707-.5788.421-1.0725.91595-1.481 1.48487-.3973.56891-.7661 1.16058-1.1066 1.775z"/><path d="m78.8896 4.54616c.5107 0 1.0158.00569 1.5151.01706.5107.01138 1.0044.12517 1.4811.34135.227.09103.4483.2105.6639.35842.0227 0 .0397-.00569.0511-.01707.8171-.27308 1.6059-.45513 2.3662-.54616.7718-.1024 1.5832-.1536 2.4344-.1536-.3972.21618-.8001.43237-1.2086.64856-.3973.20481-.7945.40962-1.1917.61442-.3405 0-.6753.00569-1.0044.01707-.3291 0-.6639.01138-1.0044.03414-.0908 1.1492-.261 2.28134-.5107 3.39641-.2497 1.10374-.505 2.21874-.7661 3.34524-.295 1.2743-.5844 2.5487-.8682 3.8231-.2723 1.2743-.5617 2.5544-.8682 3.8401-.1589.6827-.3177 1.3597-.4766 2.0311-.1476.6713-.2781 1.354-.3916 2.048-.0227.1935-.0567.404-.1021.6315-.0341.2276-.0568.4495-.0681.6657-.0114.2275-.017.4551-.017.6827.0113.2162-.0114.438-.0681.6656-.0341.1365-.0965.2674-.1873.3925l.1532-.0512c.2838.2504.5959.4324.9363.5462.3405.1138.6866.1934 1.0385.2389.3631.0342.7263.0512 1.0895.0512.3745-.0113.7433-.0113 1.1065 0 .454.0114.9023.0285 1.3449.0512.4539.0114.9079.0114 1.3619 0 .3631 0 .7206-.017 1.0725-.0512.3631-.0341.7263-.0625 1.0895-.0853l.1532-.3243c.2837-.5916.5277-1.2061.732-1.8433.2043-.6371.4653-1.2459.7831-1.8262l2.9961-.9216c-.1248.2162-.2269.4324-.3064.6486-.0794.2161-.1646.438-.2553.6656l-.1873.5291c-.0227.0227-.034.0512-.034.0853l-.0341.0683c-.0227.0683-.0284.091-.017.0683-.1476.4096-.3064.8249-.4767 1.2459-.1589.4096-.3688.7851-.6299 1.1264-.1702.2276-.4028.4324-.6979.6144-.2951.1821-.6129.3414-.9533.4779-.3292.1366-.664.2504-1.0044.3414-.3292.0796-.6242.1365-.8853.1707-.2269.0341-.4539.0625-.6809.0853-.2156.0114-.437.0227-.6639.0341-.0908.0114-.21.0228-.3575.0342-.1476.0113-.21.0113-.1873 0l-.2043.017-.766.0683c-.3973.0228-.7661.0341-1.1066.0341-.3291.0114-.6923.0114-1.0895 0-.4199-.0113-.8341-.0227-1.2427-.0341-.4086-.0228-.8171-.0398-1.2257-.0512-.5561-.0114-1.0952-.0341-1.6172-.0683-.5221-.0341-1.0215-.182-1.4981-.4437-.3405.1251-.6753.2275-1.0044.3072-.3178.0683-.5902.1195-.8172.1536-.2723.0455-.5504.074-.8341.0853-.2724.0114-.5448.0228-.8171.0342-.1135 0-.2214.0057-.3235.017-.1021 0-.2043 0-.3064 0-.0341 0-.0738 0-.1192 0-.0454.0114-.0908.0171-.1362.0171-.034 0-.0624 0-.0851 0h.017l.2384-.0512 1.2427-1.0582c.3632-.091.732-.1422 1.1065-.1536s.7434-.0227 1.1066-.0341h.0851l.034-.0512c.0908-.2276.1305-.4665.1192-.7169-.0114-.2617-.0114-.512 0-.7509.0227-.7396.1248-1.4792.3064-2.2188.1816-.7509.3518-1.4848.5107-2.2017.3291-1.445.6526-2.8787.9704-4.301.3177-1.4336.6469-2.873.9873-4.318.2611-1.1378.5164-2.27.7661-3.3964.261-1.13786.4369-2.29844.5277-3.48178-.2723-.23894-.5447-.421-.8171-.54616-.261-.13654-.5334-.23325-.8171-.29014-.2838-.06827-.5788-.10241-.8853-.10241-.295-.01138-.6185-.01707-.9703-.01707zm10.3334 23.43354c.1134-.0228.1588-.0341.1361-.0341zm2.5535-3.0039c.0113-.0227.0113-.0227 0 0 0 .0228-.0114.0512-.034.0854z"/><path d="m100.85 12.9433c-.193.1024-.38.2276-.562.3755-.261.2048-.5104.4381-.7487.6998-.2384.2503-.454.5063-.6469.768-.3746.4779-.7207 1.007-1.0385 1.5873-.3064.5803-.5844 1.1833-.8341 1.8091-.2384.6258-.4426 1.263-.6129 1.9116-.1589.6371-.2724 1.2629-.3405 1.8774-.068.6485-.0737 1.3483-.017 2.0993.0568.7509.21 1.4621.4597 2.1334.261.6599.6298 1.2288 1.1065 1.7067.488.4779 1.1236.7624 1.9066.8534.2951.0228.5678.0398.8168.0512.261.0114.534-.0171.818-.0853.522-.3755.981-.7965 1.378-1.263.409-.4779.772-.9842 1.09-1.519s.596-1.0923.834-1.6726c.238-.5917.454-1.1891.647-1.7921.25-.7851.454-1.5702.613-2.3553.17-.7851.215-1.593.136-2.4236-.068-.7168-.204-1.3938-.409-2.031-.204-.6372-.493-1.1776-.868-1.6214-.374-.4551-.851-.7908-1.43-1.007-.567-.2275-1.254-.2844-2.06-.1707zm2.315-1.2971c.284-.0341.585-.0569.903-.0683.317-.0114.635 0 .953.0342.329.0341.647.0967.953.1877.307.091.579.2219.817.3926.477.3413.869.7737 1.175 1.2971.318.5234.556 1.0923.715 1.7067.17.6031.261 1.2232.272 1.8604.023.6371-.022 1.2345-.136 1.792-.136.6827-.301 1.3825-.494 2.0993-.192.7055-.431 1.3996-.715 2.0823-.272.6827-.59 1.3426-.953 1.9798s-.777 1.2175-1.243 1.7409c-.306.3413-.618.6371-.936.8875-.306.2389-.647.4892-1.021.7509-.579.3983-1.209.7169-1.89.9558-.681.2276-1.362.4039-2.0428.5291-.4653.091-.9136.1479-1.3448.1707-.4199.0341-.8626.0227-1.3279-.0342-.6469-.0682-1.203-.2503-1.6683-.5461-.4653-.2959-.8512-.6657-1.1576-1.1094-.2951-.4438-.5277-.9387-.698-1.4849-.1588-.5575-.261-1.1321-.3064-1.7238s-.0454-1.1776 0-1.7579.1249-1.1265.2384-1.6385c.1929-.8761.4426-1.7238.749-2.543.3064-.8307.6809-1.6101 1.1235-2.3383.454-.7396.9761-1.4223 1.5662-2.0481.6015-.6258 1.2938-1.1833 2.0769-1.6726.6015-.3755 1.2488-.6656 1.9408-.8704.692-.2162 1.379-.4039 2.06-.5632z"/><path d="m126.59 13.4553c.011.3073.022.5746.034.8022.011.2276.017.4438.017.6486s-.006.421-.017.6485c-.012.2276-.04.495-.085.8022-.193 1.5019-.607 2.9527-1.243 4.3522-.624 1.3995-1.379 2.7023-2.264 3.9084-.488.6486-1.022 1.2915-1.6 1.9286-.568.6372-1.203 1.1777-1.907 1.6214-.772.5007-1.589.9103-2.451 1.2289-.852.3186-1.731.5405-2.639.6656-.227.0342-.448.0512-.664.0512-.204 0-.403-.0284-.596-.0853-.193-.0455-.374-.1309-.545-.256-.158-.1252-.295-.3015-.408-.5291-.182-.3527-.29-.7453-.324-1.1777-.022-.4323-.005-.8704.051-1.3141.069-.4438.154-.8819.256-1.3142.102-.4324.187-.8307.255-1.1948.182-.9216.375-1.8319.579-2.7307.204-.8989.403-1.8092.596-2.7308.125-.6827.249-1.354.374-2.014.137-.6713.227-1.3654.273-2.0822-.171-.1479-.409-.2617-.715-.3414-.295-.0796-.59-.1365-.886-.1706-.295-.0342-.556-.0512-.783-.0512-.215-.0114-.323-.0171-.323-.0171-.136 0-.238 0-.306 0-.069 0-.12.0057-.154.0171-.034 0-.068 0-.102 0s-.091 0-.17 0c.397-.2048.794-.4096 1.192-.6145.408-.2161.811-.4323 1.208-.6485.488 0 .976-.0228 1.464-.0683.488-.0569.971-.0171 1.447.1195.114.0341.239.0796.375.1365l2.094-.5632-1.243 1.1094v.017l-.085.0683c-.046 1.0127-.176 2.0083-.392 2.9868-.215.9672-.431 1.9514-.647 2.9527-.192.8647-.38 1.7295-.561 2.5942-.182.8648-.363 1.7409-.545 2.6284-.045.2276-.091.495-.136.8022-.034.3072-.057.6201-.068.9387 0 .3186.028.6258.085.9216.056.2959.153.5519.289.768.136.2162.324.3755.562.4779s.545.1138.919.0342c.658-.3869 1.249-.8705 1.771-1.4508.522-.5802 1.01-1.1776 1.464-1.792.885-1.1948 1.634-2.4748 2.247-3.8402.624-1.3768 1.033-2.8104 1.226-4.301.034-.3072.056-.5746.068-.8022.022-.2275.034-.4437.034-.6485s-.006-.421-.017-.6486c-.012-.2275-.023-.4949-.034-.8021z"/><path d="m127.441 22.0402c.023-.5006.102-.9785.238-1.4336.136-.4665.301-.933.494-1.3995.647-1.6499 1.555-3.0722 2.724-4.2669s2.61-2.0538 4.324-2.5772c.363-.1138.732-.2105 1.106-.2901.375-.091.749-.1536 1.124-.1878.386-.0341.766-.0284 1.14.0171.386.0341.761.1195 1.124.256.375.1366.681.3584.919.6656.25.2959.432.6315.545 1.007.125.3755.187.7681.187 1.1777.012.4096-.039.7851-.153 1.1264-.193.5803-.465 1.1094-.817 1.5873-.352.4665-.755.8932-1.209 1.28-.454.3869-.947.7339-1.481 1.0412-.522.2958-1.044.5632-1.566.8021-.409.1935-.823.3755-1.243.5462-.42.1593-.845.3186-1.276.4779-.057.0227-.182.0626-.375.1194-.182.0569-.357.1081-.528.1537 0 .0113-.011.017-.034.017-.022 0-.039.0057-.051.0171-.329.1251-.709.2617-1.14.4096-.42.1365-.846.2446-1.277.3243-.012.512.005 1.0752.051 1.6897.057.603.176 1.1833.357 1.7408.193.5576.466 1.0525.818 1.4849.351.421.822.7111 1.412.8704.296.0797.591.1138.886.1024.306-.0113.607-.0398.902-.0853.045-.0114.113-.0398.204-.0853s.182-.0968.273-.1536c.09-.0683.176-.1309.255-.1878.079-.0683.136-.1195.17-.1536.431-.3413.823-.7054 1.175-1.0923.363-.3982.709-.8135 1.038-1.2459l2.996-.9217c-.465.6031-.942 1.1492-1.43 1.6385-.488.4779-1.004.9103-1.549 1.2971-.533.3869-1.112.7282-1.736 1.0241-.613.2958-1.283.5518-2.009.768-.477.1365-.97.2503-1.481.3414-.511.1024-1.021.1422-1.532.1194-.568-.0227-1.061-.1365-1.481-.3413-.409-.1935-.761-.4495-1.056-.7681-.283-.3299-.516-.7054-.698-1.1264-.17-.421-.306-.8648-.408-1.3313-.091-.4665-.148-.9387-.17-1.4166-.023-.4892-.023-.9614 0-1.4166.022-.2844.039-.5575.051-.8192.022-.2617.085-.5291.187-.8022zm3.03-1.0411c.091.0911.176.1878.256.2902.09.1024.187.1991.289.2901l.136.1024v.0171c-.023-.0228-.034-.0341-.034-.0341.011 0 .023.0057.034.017.011.0114.023.0171.034.0171.068.0228.148.0398.238.0512.091.0114.165.0114.222 0h.068c.034 0 .068-.0057.102-.0171h.017.068c.023-.0113.046-.017.068-.017.068-.0228.136-.0455.205-.0683.068-.0228.136-.0455.204-.0683.125-.0455.267-.0967.425-.1536.171-.0569.437-.1422.801-.256l.476-.1707c.193-.0796.38-.1536.562-.2218.193-.0797.38-.1707.562-.2731.635-.3527 1.197-.7737 1.685-1.263.499-.5007.897-1.0923 1.192-1.775.147-.3414.232-.6884.255-1.0411.023-.3528-.006-.7112-.085-1.0753-.193-.8306-.567-1.4393-1.124-1.8262-.556-.3982-1.282-.5177-2.179-.3584-.567.3527-1.112.8363-1.634 1.4507-.511.6031-.97 1.2687-1.379 1.9969-.408.7168-.743 1.4621-1.004 2.2358-.261.7624-.414 1.4792-.46 2.1505zm.647.6486v.0171c0-.0114 0-.0171 0-.0171z"/><path d="m151.853 4.98991c.034.13654.045.26739.034.39255-.011.1593-.04.3129-.085.46082-.034.14792-.063.30152-.085.46082-.125 1.01267-.318 2.00826-.579 2.9868-.261.9785-.517 1.9684-.766 2.9697-.409 1.6613-.806 3.3225-1.192 4.9837s-.783 3.3282-1.192 5.0008c-.192.7851-.414 1.5758-.663 2.3723-.239.7851-.369 1.5873-.392 2.4065 0 .1366.006.2959.017.4779.011.1707.034.3414.068.512.046.1707.114.3243.204.4609.091.1251.21.2161.358.273.113-.1024.204-.1934.272-.273.08-.0797.165-.1821.256-.3073.249-.3185.471-.6428.664-.9728.204-.3413.391-.6941.561-1.0582l2.996-.9216c-.295.6372-.612 1.1947-.953 1.6726-.34.4779-.726.8989-1.157 1.263-.432.3527-.914.6599-1.447.9216-.523.2617-1.113.4893-1.771.6827-.363.1024-.726.1821-1.089.239-.352.0682-.676.0682-.971 0-.283-.0683-.522-.2219-.715-.4609-.181-.2275-.289-.5859-.323-1.0752-.023-.3755-.012-.751.034-1.1265.057-.3754.13-.7509.221-1.1264s.193-.7453.307-1.1094c.113-.3641.221-.7282.323-1.0923l.494-2.031c.352-1.4564.692-2.9015 1.021-4.3351.329-1.4337.675-2.8787 1.039-4.3352.158-.6485.323-1.2971.493-1.9456.182-.6486.352-1.3029.511-1.9628l.136-.66563c.012-.07965.04-.23325.085-.46082.046-.23894.091-.49495.136-.76803.046-.27308.086-.53478.12-.7851s.045-.42669.034-.52909c-.012-.10241-.029-.17637-.051-.22188-.023-.05689-.08-.13085-.171-.22187-.136-.13654-.295-.23895-.476-.30722-.182-.06827-.369-.11378-.562-.13654-.193-.02275-.392-.03413-.596-.03413s-.391.00569-.562.01707c-.136.01137-.272.02844-.408.0512-.125.01138-.25.02275-.375.03413-.045 0-.102.00569-.17.01707-.068 0-.085-.00569-.051-.01707.091-.02275.221-.04551.391-.06827.171-.03413.284-.0512.341-.0512l1.243-1.05818.63-.08534.102-.01706c.181-.02276.363-.03983.544-.05121.182-.01137.358-.02275.528-.03413.17 0 .369.00569.596.01707.227 0 .454.02275.681.06827.238.04551.46.11378.664.20481.204.07964.369.19343.494.34134l.868-.2048zm-4.188-.81924c-.023.01138-.028.01707-.017.01707.023 0 .045-.00569.068-.01707zm-.579 24.93553c-.011.0113-.011.017 0 .017.023-.0114.046-.0227.068-.0341z"/><path d="m154.747 13.2335c.59-.1366 1.174-.2504 1.753-.3414.59-.091 1.186-.1365 1.788-.1365.249 0 .505.0227.766.0682.261.0342.488.1366.681.3073.125.1024.215.2275.272.3754.068.148.114.3073.136.4779.023.1593.034.3243.034.495.012.1707.029.33.051.4779.091.6258.176 1.2516.256 1.8774.079.6258.147 1.2573.204 1.8945.102 1.0013.182 2.0082.238 3.0209.057 1.0013.131 2.0083.222 3.0209l.17 1.7238c.102-.2048.199-.4039.289-.5973.103-.1935.199-.3698.29-.5291.715-1.2516 1.413-2.5032 2.094-3.7548.681-1.263 1.265-2.5772 1.753-3.9426.114-.33.204-.6656.272-1.007.069-.3413.142-.677.222-1.007.079-.3299.181-.6485.306-.9557.136-.3186.329-.6145.579-.8875l2.877-.7681c-.17.1935-.312.404-.426.6315-.102.2162-.193.4438-.272.6827-.068.239-.125.4836-.17.7339-.046.2503-.097.495-.153.7339-.069.3186-.148.6201-.239.9046-.091.2731-.198.5632-.323.8704-.511 1.2971-1.107 2.5431-1.788 3.7378-.669 1.1947-1.345 2.3951-2.025 3.6012-.125.2162-.244.4438-.358.6827-.102.2389-.21.4722-.323.6998-.114.2275-.239.4494-.375.6656s-.295.4096-.477.5803c-.261.2389-.544.4494-.851.6315-.295.1707-.607.3243-.936.4608-.068.5234-.187 1.0866-.358 1.6897-.17.603-.374 1.2004-.612 1.792-.227.5917-.488 1.1549-.784 1.6897-.283.5462-.578 1.0127-.885 1.3995-.306.3755-.664.7055-1.072.99-.397.2958-.829.5461-1.294.7509-.454.2162-.931.3869-1.43.512-.488.1366-.965.2276-1.43.2731-.272.0342-.539.0342-.8 0-.25-.0227-.477-.091-.681-.2048-.193-.1024-.358-.2503-.494-.4437-.125-.1935-.204-.4438-.238-.751l3.03-1.0411c.023.2276.08.4381.17.6315.103.2048.267.3527.494.4437l.392.1195c.034-.0341.062-.0683.085-.1024.034-.0341.068-.0626.102-.0853.193-.1935.357-.404.494-.6315.147-.2162.283-.4381.408-.6657.397-.7282.743-1.4791 1.039-2.2529.306-.7737.544-1.5702.715-2.3894.158-.7737.21-1.5304.153-2.27-.046-.7509-.102-1.519-.17-2.3041-.091-1.0012-.171-2.0025-.239-3.0038-.057-1.0127-.13-2.0254-.221-3.038-.046-.4096-.091-.8136-.136-1.2118-.046-.4096-.097-.8192-.154-1.2289-.022-.1137-.045-.3185-.068-.6144-.022-.3072-.056-.6258-.102-.9558-.045-.3299-.108-.6371-.187-.9216-.068-.2845-.159-.4722-.272-.5632-.193-.1593-.426-.2447-.698-.256-.273-.0114-.522-.0114-.749 0-.273.0227-.545.0569-.818.1024-.261.0341-.522.0796-.783.1365-.034.0114-.068.0228-.102.0341-.022 0-.051 0-.085 0zm1.106 23.2628c.034-.0113.023-.0113-.034 0-.045.0114-.096.0228-.153.0342z"/><path d="m82.3284 34.1429-.3235.0512.4256-.1024.1532-.0854h.2043.0171c.0113-.0113.0283-.017.051-.017.227-.0342.454-.0398.681-.0171.2269.0114.4539.0171.6809.0171.3291 0 .6526.0398.9704.1194.3177.0683.6015.2162.8511.4438l.2384.2219c.2043-.0797.4085-.1536.6128-.2219.2157-.0683.4313-.1365.6469-.2048.5675-.1593 1.1349-.256 1.7024-.2902.5674-.0341 1.1406-.0512 1.7194-.0512-.3973.2162-.8001.4324-1.2087.6486-.3972.2048-.7944.4096-1.1917.6144-.261 0-.522 0-.783 0-.2611-.0113-.5221-.0057-.7831.0171l-.2384.1195c-.034.7282-.1135 1.4564-.2383 2.1846-.1135.7168-.2497 1.4393-.4086 2.1676-.1589.7168-.3348 1.4336-.5277 2.1505-.1816.7054-.3632 1.4109-.5448 2.1163-.2837 1.1037-.5277 2.2131-.732 3.3282-.1929 1.115-.4199 2.2301-.6809 3.3452-.1702.7509-.3405 1.4962-.5107 2.2358-.1589.7282-.2951 1.4735-.4086 2.2358-.0227.1252-.0511.256-.0851.3926-.0227.1365-.0454.2787-.0681.4267-.0113.1365-.017.2787-.017.4266.0113.1366.0454.2617.1021.3755.1703.3186.3972.5462.681.6827.295.1252.6128.2105.9533.256s.6809.0626 1.0214.0512c.3518-.0113.6753-.0057.9703.0171l-2.6727 1.2459c-.295-.0227-.6128-.0284-.9533-.017-.3291.0113-.6639.0056-1.0044-.0171-.3404-.0341-.6639-.1024-.9703-.2048s-.5675-.2731-.7831-.512c-.7263.2617-1.464.438-2.2131.529-.749.0797-1.5661.1537-2.4514.2219.3972-.2048.7945-.4096 1.1917-.6144.4085-.2162.8114-.4324 1.2087-.6486.2496-.0227.4936-.0341.732-.0341.2496-.0114.4993-.0284.749-.0512h.2213c.0681-.0114.1362-.0228.2043-.0341l.0511-.0171c-.0341-.1934-.0454-.4039-.0341-.6315.0114-.2276.0341-.4551.0681-.6827.0341-.2276.0738-.4437.1192-.6486.0454-.2048.0794-.3868.1021-.5461.0114-.0569.0284-.1365.0511-.239.0227-.1137.0454-.2275.0681-.3413.0227-.1252.0454-.2333.0681-.3243s.034-.1479.034-.1707l.4086-1.7067c.1702-.8079.3348-1.6157.4937-2.4236.1589-.8078.3234-1.6214.4937-2.4406-.2043-.2048-.4143-.4096-.6299-.6144-.2043-.2162-.4653-.33-.7831-.3414-.1248 0-.227 0-.3064 0-.0681-.0114-.1305-.017-.1873-.017-.0567 0-.1135.0056-.1702.017-.0568 0-.1305.0057-.2213.0171-.0795.0114-.1589.0227-.2384.0341-.068 0-.1361 0-.2042 0h-.0852c-.2269.0342-.4539.0512-.6809.0512-.1475 0-.3745 0-.6809 0-.3065-.0114-.664-.017-1.0725-.017-.4086-.0114-.8512-.0171-1.3279-.0171-.4766-.0114-.959-.0171-1.447-.0171-.4766 0-.9476.0057-1.4129.0171-.454.0114-.8739.0284-1.2598.0512-.1475.0227-.3234.0512-.5277.0853-.2043.0228-.4199.0399-.6469.0512-.1589.7169-.3178 1.428-.4767 2.1335-.1475.694-.3064 1.3995-.4766 2.1163-.1589.6941-.3121 1.3882-.4597 2.0822-.1475.6941-.2667 1.3996-.3575 2.1164-.0227.1593-.051.3129-.0851.4608-.0227.1479-.0397.2958-.0511.4438-.0113.1479-.0056.2958.0171.4437s.0851.2959.1872.4438c.1703.2503.3972.4267.681.5291.2837.1024.5901.1649.9192.1877.3292.0228.6526.0341.9704.0341.3291-.0113.6242-.0057.8852.0171l-2.6727 1.2459c-.2724-.0227-.5504-.0284-.8341-.017-.2838 0-.5732-.0057-.8683-.0171-.2837-.0114-.5674-.0455-.8511-.1024-.2724-.0569-.5278-.1593-.7661-.3072-.2156-.1252-.3688-.2503-.4596-.3755-.7264.2503-1.4527.4381-2.1791.5632-.7263.1138-1.5151.1991-2.3662.256l2.4003-1.263c.3178-.0227.6412-.0398.9703-.0512.3292-.0113.6413-.0455.9363-.1024-.0227-.2048-.017-.421.0171-.6485.0454-.2276.0851-.4608.1191-.6998.1249-.9671.2894-1.9172.4937-2.8502.2156-.9331.4369-1.8718.6639-2.8162.2724-1.1947.5334-2.3837.7831-3.5671.2497-1.1833.5107-2.3723.7831-3.567.2724-1.1948.5448-2.3895.8171-3.5842.2724-1.2061.4313-2.4293.4767-3.6695-.0114 0-.0227-.0057-.0341-.0171-.1929-.091-.3574-.2105-.4936-.3584-.1362-.1593-.2951-.2958-.4767-.4096-.1248-.0796-.278-.1308-.4596-.1536-.1703-.0341-.3519-.0512-.5448-.0512-.1816-.0114-.3575-.0114-.5277 0-.1703.0114-.3064.0171-.4086.0171-.0567 0-.1362.0057-.2383.017-.1022.0114-.1476.0114-.1362 0h-.1873l2.145-1.1264-.3234.0512.4256-.1024.1532-.0854h.2042.0171c.0113-.0113.0283-.017.051-.017.227-.0342.454-.0398.681-.0171.2383.0114.471.0171.698.0171.295 0 .5844.0284.8682.0853.2837.0455.539.165.766.3584l.3405.3243c.1589-.0569.3121-.1138.4596-.1707.1476-.0569.3008-.1081.4597-.1536.6469-.182 1.2767-.2958 1.8896-.3413.6128-.0569 1.2484-.0854 1.9066-.0854-.3972.2162-.8001.4324-1.2086.6486-.3973.2048-.7945.4096-1.1917.6144-.261 0-.5164 0-.7661 0-.2496-.0113-.505-.0057-.766.0171l-.2894.1536c-.0568 1.1947-.2157 2.3667-.4767 3.5159s-.5277 2.3098-.8001 3.4817l-.5107 2.27.2043-.0853c.2497.2503.4483.4437.5958.5803.1589.1251.3121.2105.4596.256.1589.0455.3462.0626.5618.0512.2157-.0114.5221-.0342.9193-.0683.261-.0455.5504-.0683.8682-.0683h6.7243c.2611 0 .5278-.0113.8001-.0341.2724-.0341.5448-.0626.8172-.0853l.051-.1878c.1816-.7168.3689-1.4393.5618-2.1675.193-.7282.3689-1.4622.5278-2.2017.1702-.7396.3121-1.4792.4255-2.2188.1135-.751.1873-1.5019.2214-2.2529-.0227 0-.0341-.0057-.0341-.0171-.1929-.091-.3575-.2105-.4937-.3584-.1362-.1593-.3007-.2901-.4937-.3925-.1362-.0797-.295-.1309-.4766-.1536-.1703-.0342-.3462-.0512-.5278-.0512-.1702-.0114-.3404-.0114-.5107 0-.1702 0-.3234 0-.4596 0-.0567 0-.1362.0057-.2383.017-.1022.0114-.1476.0114-.1362 0h-.1873zm-3.3537 12.408c.0568-.0114.0284-.0114-.0851 0s-.2043.0227-.2724.0341zm2.9622-12.3397c-.0114 0-.0114 0 0 0 .0226-.0114.0453-.0171.068-.0171-.0227.0114-.0454.0171-.068.0171zm-14.9127 0c-.0114 0-.0114 0 0 0 .0227-.0114.0454-.0171.0681-.0171-.0227.0114-.0454.0171-.0681.0171z"/><path d="m96.5431 42.4888c-.1929.1024-.3802.2276-.5618.3755-.261.2048-.5107.4381-.749.6998-.2383.2503-.454.5063-.6469.768-.3745.4779-.7207 1.007-1.0384 1.5873-.3065.5803-.5845 1.1833-.8342 1.8091-.2383.6258-.4426 1.263-.6129 1.9116-.1588.6372-.2723 1.263-.3404 1.8774-.0681.6486-.0738 1.3483-.017 2.0993.0567.751.2099 1.4621.4596 2.1334.261.66.6299 1.2289 1.1065 1.7068.488.4778 1.1236.7623 1.9067.8533.295.0228.5674.0398.8171.0512.261.0114.5334-.017.8171-.0853.5221-.3755.9817-.7965 1.3789-1.263.4086-.4779.7718-.9842 1.0896-1.519.3177-.5348.5958-1.0923.834-1.6726.238-.5917.454-1.189.647-1.7921.25-.7851.454-1.5702.613-2.3553.17-.7851.215-1.5929.136-2.4236-.068-.7168-.204-1.3938-.409-2.031-.204-.6372-.493-1.1776-.868-1.6214-.3742-.4551-.8509-.7908-1.4297-1.007-.5675-.2275-1.2541-.2844-2.0599-.1706zm2.3152-1.2971c.2837-.0341.5845-.0569.9023-.0683.3174-.0113.6354.0001.9534.0342.329.0341.647.0967.953.1877.307.0911.579.2219.817.3926.477.3413.869.7737 1.175 1.2971.318.5234.556 1.0923.715 1.7067.17.6031.261 1.2232.272 1.8604.023.6372-.022 1.2345-.136 1.7921-.136.6827-.301 1.3824-.494 2.0993-.192.7054-.431 1.3995-.715 2.0822-.272.6827-.59 1.3426-.953 1.9798s-.777 1.2175-1.243 1.7409c-.306.3413-.618.6372-.936.8875-.3063.2389-.6468.4892-1.0213.7509-.5788.3983-1.2087.7169-1.8896.9558-.6809.2276-1.3619.4039-2.0428.5291-.4653.091-.9136.1479-1.3449.1707-.4199.0341-.8625.0227-1.3278-.0342-.6469-.0682-1.203-.2503-1.6684-.5461-.4653-.2958-.8511-.6656-1.1576-1.1094-.295-.4437-.5277-.9387-.6979-1.4849-.1589-.5575-.2611-1.1321-.3065-1.7238-.0454-.5916-.0454-1.1776 0-1.7579s.1249-1.1265.2384-1.6385c.1929-.8761.4426-1.7238.749-2.543.3064-.8306.681-1.61 1.1236-2.3383.4539-.7395.976-1.4222 1.5661-2.048.6015-.6258 1.2938-1.1834 2.0769-1.6727.6015-.3754 1.2484-.6656 1.9407-.8704.6923-.2162 1.3789-.4039 2.0599-.5632z"/><path d="m126.028 41.7891c-.079.0569-.153.1195-.221.1877-.057.0569-.131.1081-.222.1536l-.085.0512c.057-.0341.08-.0398.068-.017-.011.0113-.039.0341-.085.0682-.045.0342-.102.0797-.17.1366-.057.0455-.113.0853-.17.1194-.057.0456-.108.1024-.153.1707-.08.091-.142.1764-.188.256-.034.0797-.073.1707-.119.2731-.113.2617-.193.5405-.238.8363-.034.2845-.097.5689-.187.8534-.273.9444-.528 1.8831-.767 2.8161-.226.933-.533 1.849-.919 2.7479-.022.7509-.102 1.5076-.238 2.2699-.125.7624-.312 1.4963-.562 2.2017-.045.2276-.102.4608-.17.6998-.057.2275-.102.4608-.136.6997-.034.239-.051.4779-.051.7169.011.2275.068.4551.17.6827.125.2617.295.4323.511.512.045-.0455.124-.1422.238-.2902.125-.1479.21-.2503.255-.3072.239-.3186.454-.6485.647-.9899.204-.3413.397-.6941.579-1.0582l2.996-.9216c-.306.6144-.624 1.1663-.953 1.6555-.329.4893-.704.9217-1.124 1.2972-.408.3754-.874.6997-1.396.9728-.51.2617-1.106.4836-1.787.6656-.227.0683-.483.1309-.766.1878-.284.0682-.568.1024-.851.1024-.273 0-.534-.0512-.784-.1536-.238-.0911-.425-.2674-.561-.5291-.091-.1707-.154-.3584-.188-.5632-.022-.2049-.028-.4097-.017-.6145.023-.2048.051-.4096.086-.6144.045-.2048.09-.3982.136-.5803.091-.421.187-.842.289-1.263.114-.421.216-.842.307-1.263l-.273.4097c-.408.603-.868 1.1776-1.379 1.7238-.499.5347-1.044 1.024-1.634 1.4678-.579.4323-1.203.8021-1.873 1.1093-.669.3073-1.373.5234-2.111.6486l.239-.1024c-.136.0569-.261.1024-.375.1365-.113.0342-.249.0626-.408.0854-.125.0569-.278.091-.46.1024-.182.0227-.34.0455-.477.0682-.306.0342-.59.0342-.851 0-.261-.0341-.493-.1137-.698-.2389-.193-.1138-.357-.2788-.493-.4949-.137-.2276-.227-.5178-.273-.8705-.079-.5234-.079-1.0468 0-1.5702.091-.5348.187-1.0582.29-1.5702.227-1.1606.493-2.2984.8-3.4135.306-1.1264.607-2.2586.902-3.3964.125-.4892.238-.9671.34-1.4336.103-.4779.182-.9672.239-1.4678.022-.1366.051-.3073.085-.5121.045-.2162.023-.3811-.068-.4949-.216-.2503-.46-.4153-.732-.495-.273-.091-.562-.1365-.868-.1365-.296 0-.596.0227-.903.0683-.306.0341-.601.0512-.885.0512.397-.2049.795-.4097 1.192-.6145.408-.2162.811-.4323 1.208-.6485h.392c.125 0 .25-.0057.374-.0171.216-.0341.449-.0626.698-.0853.25-.0342.5-.0399.749-.0171.262.0114.511.0512.75.1195.249.0682.471.1706.663.3072l1.584-.4267c-.193.1593-.381.3186-.562.4779-.182.1593-.363.3186-.545.4779l-.051.017c.023.1366.023.3073 0 .5121-.011.1934-.028.3868-.051.5803-.023.1934-.051.3754-.085.5461-.023.1593-.04.2617-.051.3072-.193 1.1151-.46 2.2188-.8 3.3111-.329 1.0923-.63 2.1903-.903 3.294-.124.5234-.244 1.0525-.357 1.5873-.114.5348-.21 1.0752-.289 1.6214-.035.2503-.069.5177-.103.8022-.034.273-.045.5518-.034.8363.023.2844.074.5575.154.8192.09.2503.238.4722.442.6656.125.1138.267.1878.426.2219s.289.0569.391.0683l.477-.1024h.051.017c0-.0114.006-.0171.017-.0171.692-.4665 1.3-1.0127 1.822-1.6385.533-.6372 1.021-1.3085 1.464-2.0139.147-.239.289-.4836.425-.7339.136-.2617.278-.5121.426-.751.147-.2503.306-.4836.476-.6998.182-.2275.386-.4266.613-.5973.398-.2845.829-.5291 1.294-.7339.057-.0797.108-.1536.153-.2219.057-.0796.097-.1479.119-.2048.137-.3186.256-.6486.358-.9899.102-.3527.199-.6941.289-1.0241.08-.2958.148-.5859.205-.8704.068-.2845.142-.5746.221-.8704.057-.2162.119-.4267.187-.6315.068-.2162.125-.4324.17-.6486.057-.2617.108-.5177.154-.768.045-.2617.119-.5177.221-.7681.079-.1934.187-.3754.323-.5461.137-.1821.284-.3414.443-.4779.034-.0228.091-.0626.17-.1195.091-.0682.171-.1308.239-.1877.079-.0569.141-.1024.187-.1366.057-.0341.068-.0398.034-.017l.068-.0683zm-2.979.8533s.011-.0056.034-.017c-.011 0-.017.0057-.017.017 0 0-.006 0-.017 0zm-.153 15.5314c-.012 0-.017.0057-.017.0171 0 0-.006 0-.017 0 .011 0 .022-.0057.034-.0171z"/><path d="m136.787 41.9598-1.771 1.6043-.323 2.543c.045-.0682.091-.1365.136-.2048.046-.0682.097-.1365.153-.2048.227-.2844.488-.5348.784-.7509.306-.2276.629-.421.97-.5803.34-.1707.686-.3129 1.038-.4267.363-.1138.715-.2162 1.056-.3072.249-.0569.493-.1081.732-.1536.238-.0456.482-.0911.732-.1366l.34-.0512c.046 0 .114-.0057.205-.0171.09-.0227.113-.0284.068-.017-.057.0227-.12.0398-.188.0512-.056 0-.113.0057-.17.017l-.289.7851c-.273.0911-.551.1707-.834.239-.284.0683-.574.1252-.869.1707l-.408.0682c-.25.2504-.465.5234-.647.8193-.17.2958-.335.5973-.494.9045-.147.3073-.301.6145-.459.9217-.159.2958-.347.5803-.562.8534-.159.1934-.358.3641-.596.512-.227.1365-.454.256-.681.3584l-.272.1195h.017c-.114.1137-.216.2901-.307.5291-.079.2275-.153.4721-.221.7338-.057.2617-.108.5234-.153.7851-.046.2617-.085.4779-.119.6486-.125.5462-.256 1.0866-.392 1.6214-.136.5234-.261 1.0582-.374 1.6043-.091.4097-.159.8022-.205 1.1777-.034.3755-.096.7339-.187 1.0752-.079.3414-.204.6714-.375.99-.17.3072-.425.603-.766.8875l-.102.1024-2.877.768c.057-.0455.108-.091.153-.1365.046-.0456.097-.0854.154-.1195.056-.0569.113-.1138.17-.1707s.113-.1138.17-.1707c.159-.2389.278-.4949.358-.768.09-.2845.159-.5689.204-.8534.057-.2958.102-.5916.136-.8875.034-.2958.08-.5803.136-.8533.171-.8193.358-1.6385.562-2.4577.204-.8193.397-1.6385.579-2.4578.057-.2503.125-.4721.204-.6656.08-.2048.187-.3868.324-.5461l-.239.0853.698-5.4274c-.283-.2276-.573-.3812-.868-.4609-.284-.0796-.607-.1081-.97-.0853l-.647.0512h-.051l-.153.0171-.103.017c-.045 0-.056-.0056-.034-.017.057-.0228.12-.0342.188-.0342h.204c.023 0 .017.0057-.017.0171-.034 0-.063 0-.085 0-.08 0-.165.0114-.256.0341h-.068c-.068.0114-.119.0171-.153.0171-.023 0-.045 0-.068 0-.011 0-.034 0-.068 0s-.085 0-.153 0c.397-.2048.794-.4096 1.191-.6144.409-.2162.812-.4324 1.209-.6486h.409c.374-.0682.76-.1081 1.157-.1194.409-.0114.795.017 1.158.0853l.102-.1024z"/><path d="m143.596 55.4942c.046.421.199.8192.46 1.1947.272.3641.596.6827.97.9558.375.2617.778.4665 1.209.6144.443.1366.863.1935 1.26.1707.261-.2617.471-.5177.63-.768.17-.2617.312-.5746.425-.9387.057-.1821.097-.3812.119-.5974.034-.2162.063-.421.086-.6144.045-.7055-.029-1.3142-.222-1.8262-.193-.5234-.459-.9899-.8-1.3996-.34-.421-.726-.8021-1.157-1.1435-.432-.3527-.852-.7111-1.26-1.0752-.409-.3755-.783-.7738-1.124-1.1947-.329-.4324-.573-.9331-.732-1.502-.102-.3641-.142-.7282-.119-1.0923.023-.3755.079-.7453.17-1.1094.114-.4779.29-.8932.528-1.2459.25-.3641.545-.677.885-.9387.341-.2731.715-.5063 1.124-.6998.408-.1934.828-.3754 1.26-.5461.624-.239 1.231-.3926 1.821-.4608.602-.0683 1.175-.0399 1.719.0853.545.1252 1.062.3584 1.55.6998.488.3299.93.7737 1.327 1.3312l-2.996 1.1435c-.431-.603-.908-1.0752-1.43-1.4166-.51-.3413-1.14-.5404-1.889-.5973-.239.2048-.437.4665-.596.7851-.148.3072-.261.6372-.341.9899-.079.3527-.119.7054-.119 1.0582.012.3527.057.677.136.9728.08.2503.182.4893.307.7168.125.2276.267.4495.425.6657.398.5234.852.9956 1.362 1.4166.522.421 1.016.859 1.481 1.3142.477.4551.88.9557 1.209 1.5019.329.5348.505 1.1833.528 1.9457.011.2958-.006.5973-.051.9045-.034.2959-.091.5917-.171.8875-.113.4779-.317.916-.612 1.3142-.295.3983-.653.751-1.073 1.0582-.408.3072-.862.5746-1.362.8022-.499.2275-1.01.4039-1.532.5291-.511.1365-1.021.2219-1.532.256-.511.0455-.982.0398-1.413-.0171-.386-.0455-.777-.1593-1.175-.3413-.385-.1707-.743-.3926-1.072-.6657-.329-.273-.607-.5859-.834-.9387-.227-.3527-.363-.7339-.409-1.1435z"/></g></svg>