<svg fill="none" height="70" viewBox="0 0 214 70" width="214" xmlns="http://www.w3.org/2000/svg"><g fill="#000"><path clip-rule="evenodd" d="m74.3552 35h-25.3552v33h113v-33h-23.577v-33h-64.0678zm.996-32.01334v33.00004h-25.3551v31.0266h111.0079v-31.0266h-23.577v-33.00004z" fill-rule="evenodd"/><path d="m108.205 19.2527h-4.227l3.352-12.15724h-2.099l-13.1186 11.49314-.8163 2.9743h9.5039l-1.516 5.5156h2.478l1.545-5.5156h4.257zm-4.169-9.2118-2.565 9.2118h-8.0176z"/><path d="m109.157 26.241-.262.8375h9.329l.233-.8375h-.933c-1.108 0-2.099-.3176-2.099-1.6171 0-.3465.058-.7219.175-1.184l4.635-16.63321h-1.049l-8.018 2.74333-.437 1.53048 4.752-1.47273c.233-.08663.496-.17326.729-.17326.35 0 .612.20214.612.57759 0 .1155-.029.2887-.087.4909l-3.615 13.0236c-.671 2.4257-2.158 2.7144-3.353 2.7144z"/><path d="m70.4224 50.6855c1.0481 0 1.8755-.2096 2.4819-.6289.6139-.4192.9209-1.1754.9209-2.2685 0-1.1755-.4268-1.9766-1.2803-2.4033-.4567-.2246-1.0669-.3369-1.8305-.3369h-5.4581v5.6376zm-7.4009-7.5581h7.6367c1.2578 0 2.2948.1835 3.1108.5503 1.5498.7038 2.3248 2.0028 2.3248 3.897 0 .9883-.2059 1.7969-.6177 2.4258-.4043.6289-.9733 1.1343-1.7071 1.5161.6439.262 1.1268.6064 1.4488 1.0332.3294.4268.5128 1.1193.5503 2.0776l.0786 2.2124c.0224.629.0748 1.0969.1572 1.4039.1348.524.3744.861.7188 1.0107v.3706h-2.7403c-.0748-.1423-.1347-.3257-.1797-.5503-.0449-.2246-.0823-.6588-.1123-1.3027l-.1347-2.7515c-.0524-1.0781-.453-1.8006-1.2017-2.1675-.4268-.2021-1.0968-.3032-2.0102-.3032h-5.0875v7.0752h-2.2348z"/><path d="m84.8023 47.3276c.8535 0 1.6808.2022 2.4819.6065.8011.3968 1.4113.9134 1.8306 1.5498.4043.6064.6738 1.314.8086 2.1225.1198.5541.1797 1.4375.1797 2.6504h-8.8159c.0374 1.2204.3257 2.2012.8647 2.9424.5391.7337 1.3739 1.1006 2.5044 1.1006 1.0557 0 1.898-.3481 2.5269-1.0444.3593-.4043.6139-.8723.7636-1.4038h1.9878c-.0524.4417-.2283.9358-.5278 1.4824-.292.539-.6214.9808-.9883 1.3252-.6139.5989-1.3738 1.0032-2.2798 1.2129-.4866.1198-1.0369.1797-1.6508.1797-1.4974 0-2.7665-.5428-3.8072-1.6285-1.0407-1.0931-1.561-2.6204-1.561-4.582 0-1.9316.5241-3.5002 1.5723-4.7056 1.0481-1.2054 2.4182-1.8081 4.1103-1.8081zm3.2232 5.3233c-.0824-.876-.2733-1.576-.5728-2.1001-.554-.9733-1.4787-1.46-2.7739-1.46-.9284 0-1.7071.3369-2.336 1.0108-.6289.6663-.962 1.5161-.9995 2.5493z"/><path d="m97.9244 47.249c1.3552 0 2.4556.3295 3.3016.9883.854.6589 1.367 1.7931 1.539 3.4028h-1.966c-.119-.7412-.393-1.3551-.8194-1.8418-.4268-.4941-1.1118-.7412-2.0552-.7412-1.2877 0-2.2086.6289-2.7627 1.8867-.3593.8161-.539 1.8231-.539 3.021 0 1.2054.2545 2.2199.7636 3.0435.5092.8236 1.3103 1.2354 2.4034 1.2354.8385 0 1.5011-.2546 1.9878-.7637.4945-.5166.8345-1.2204 1.0215-2.1113h1.966c-.225 1.5947-.786 2.7626-1.685 3.5039-.898.7337-2.0475 1.1005-3.4476 1.1005-1.5722 0-2.8263-.5727-3.7622-1.7182-.9358-1.153-1.4038-2.5905-1.4038-4.3125 0-2.1113.5129-3.7547 1.5386-4.9302 1.0257-1.1754 2.3322-1.7632 3.9194-1.7632z"/><path d="m105.476 47.6533h2.055v11.9717h-2.055zm0-4.5259h2.055v2.2911h-2.055z"/><path d="m116.364 58.2661c.943 0 1.725-.3931 2.347-1.1792.629-.7936.943-1.9765.943-3.5488 0-.9583-.138-1.7819-.415-2.4707-.525-1.3252-1.483-1.9878-2.875-1.9878-1.401 0-2.359.7-2.875 2.1001-.278.7487-.416 1.6995-.416 2.8525 0 .9284.138 1.7183.416 2.3697.524 1.2428 1.482 1.8642 2.875 1.8642zm-5.234-10.6128h1.965v1.5947c.405-.5465.846-.9695 1.326-1.269.681-.4492 1.482-.6738 2.403-.6738 1.363 0 2.519.5241 3.47 1.5722.951 1.0407 1.426 2.5306 1.426 4.4698 0 2.6204-.685 4.4922-2.055 5.6152-.868.7113-1.879 1.0669-3.032 1.0669-.906 0-1.666-.1984-2.28-.5952-.359-.2246-.76-.6102-1.201-1.1568v6.1431h-2.022z"/><path d="m129.789 47.3276c.853 0 1.681.2022 2.482.6065.801.3968 1.411.9134 1.83 1.5498.405.6064.674 1.314.809 2.1225.12.5541.18 1.4375.18 2.6504h-8.816c.037 1.2204.325 2.2012.864 2.9424.54.7337 1.374 1.1006 2.505 1.1006 1.056 0 1.898-.3481 2.527-1.0444.359-.4043.614-.8723.763-1.4038h1.988c-.052.4417-.228.9358-.528 1.4824-.292.539-.621.9808-.988 1.3252-.614.5989-1.374 1.0032-2.28 1.2129-.486.1198-1.037.1797-1.651.1797-1.497 0-2.766-.5428-3.807-1.6285-1.04-1.0931-1.561-2.6204-1.561-4.582 0-1.9316.524-3.5002 1.573-4.7056 1.048-1.2054 2.418-1.8081 4.11-1.8081zm3.223 5.3233c-.082-.876-.273-1.576-.573-2.1001-.554-.9733-1.478-1.46-2.774-1.46-.928 0-1.707.3369-2.336 1.0108-.629.6663-.962 1.5161-.999 2.5493z"/><path d="m139.474 55.8516c.06.6738.229 1.1904.506 1.5498.509.6513 1.392.977 2.65.977.749 0 1.408-.161 1.977-.4829.569-.3294.853-.8348.853-1.5161 0-.5166-.228-.9097-.685-1.1792-.292-.1647-.868-.3556-1.729-.5728l-1.606-.4043c-1.026-.2545-1.782-.539-2.269-.8535-.868-.5465-1.302-1.3027-1.302-2.2685 0-1.138.408-2.0589 1.224-2.7627.823-.7038 1.928-1.0557 3.313-1.0557 1.811 0 3.118.5316 3.919 1.5947.502.6739.745 1.4001.73 2.1788h-1.909c-.038-.4568-.199-.8723-.483-1.2466-.464-.5316-1.269-.7974-2.415-.7974-.763 0-1.344.146-1.74.438-.39.292-.584.6776-.584 1.1567 0 .5241.258.9434.775 1.2578.299.1872.741.3519 1.325.4942l1.336.3257c1.453.3519 2.426.6925 2.92 1.0219.786.5166 1.179 1.329 1.179 2.4371 0 1.0706-.408 1.9952-1.224 2.7739-.808.7786-2.044 1.1679-3.706 1.1679-1.789 0-3.058-.4042-3.807-1.2128-.741-.8161-1.138-1.8231-1.19-3.021z"/><path d="m85.1512 31c-.4651.6718-.8301 1.3921-1.095 2.1609-.2584.7623-.3876 1.5537-.3876 2.3741 0 .8075.1357 1.5892.407 2.345s.6299 1.4664 1.0756 2.1318h-.4942c-.2649-.3682-.5006-.7267-.7074-1.0756-.2067-.3424-.3811-.6912-.5232-1.0465-.1422-.3618-.2487-.7365-.3198-1.1241-.0711-.394-.1066-.8204-.1066-1.2791 0-.4457.0355-.8624.1066-1.25.0775-.3941.1873-.772.3295-1.1337.1421-.3618.3133-.7139.5135-1.0563.2068-.3488.4425-.6977.7074-1.0465z"/><path d="m90.3646 35.6319c0-.2843-.0388-.5524-.1163-.8043-.0775-.2584-.1906-.4813-.3392-.6686-.1421-.1938-.3197-.3456-.5329-.4555-.2067-.1162-.4425-.1744-.7074-.1744-.3036 0-.5652.0614-.7849.1841-.2196.1163-.4005.2778-.5426.4845-.1422.2068-.2455.449-.3101.7268-.0646.2713-.0905.5653-.0775.8818 0 .3166.0419.5976.1259.8431.0905.239.2132.4425.3682.6104.1551.168.336.2972.5427.3876.2067.084.4328.126.6783.126.2713 0 .5136-.0549.7268-.1647s.3908-.2584.5329-.4458c.1421-.1938.2487-.4199.3198-.6783.0775-.2648.1163-.5491.1163-.8527zm0-4.4478h.5814v6.9769h-.5814v-.8818h-.0194c-.084.168-.1938.3166-.3295.4458-.1292.1227-.2745.2261-.436.31-.1551.084-.3166.1486-.4845.1938-.168.0453-.3327.0679-.4942.0679-.407 0-.7526-.0679-1.0369-.2035-.2842-.1357-.52-.3198-.7073-.5524-.1809-.239-.3134-.52-.3973-.843-.084-.323-.126-.6686-.126-1.0368 0-.3489.0452-.6848.1356-1.0078.0905-.323.2262-.604.407-.8431.1874-.2454.4199-.4392.6977-.5814.2843-.1485.617-.2228.9981-.2228.3553 0 .6945.0807 1.0175.2422.3294.1551.5878.3876.7752.6977z"/><path d="m96.1431 35.3024c0-.2455-.0355-.4748-.1066-.688-.0646-.2196-.1647-.407-.3004-.562-.1292-.1615-.2939-.2875-.4942-.3779-.2003-.0969-.4296-.1454-.688-.1454s-.4877.0485-.688.1454c-.1938.0969-.3618.2261-.5039.3876-.1356.1615-.2455.3488-.3294.562-.084.2132-.1389.4393-.1648.6783zm-3.2753.4845c0 .2714.0355.5298.1066.7752.0711.2391.1744.449.3101.6299.1421.1744.3198.3165.533.4264.2131.1033.4586.155.7364.155.3811 0 .7074-.1001.9787-.3004.2713-.2002.4522-.4845.5427-.8527h.6492c-.0711.239-.1647.4619-.281.6686-.1163.2003-.2617.3779-.4361.533-.1744.1485-.3811.2648-.6201.3488-.2391.084-.5169.126-.8334.126-.4005 0-.7461-.0679-1.0368-.2035-.2907-.1357-.5298-.3198-.7171-.5524-.1874-.239-.3263-.5168-.4167-.8333-.0904-.323-.1356-.6686-.1356-1.0369 0-.3682.0516-.7138.155-1.0368.1098-.323.2616-.604.4554-.843.2003-.2455.4425-.4361.7268-.5718.2842-.1421.6072-.2131.969-.2131.6912 0 1.2339.239 1.6279.717.3941.4716.5879 1.1596.5815 2.064z"/><path d="m98.0779 38.161v-6.9769h.5814v6.9769z"/><path d="m100.153 38.161v-5.0195h.581v5.0195zm-.03-6.1145v-.8624h.64v.8624z"/><path d="m105.867 34.721c-.104-.3747-.281-.6654-.533-.8721-.252-.2132-.572-.3198-.96-.3198-.297 0-.552.0614-.765.1841-.213.1228-.388.2875-.523.4942-.136.2003-.236.4296-.301.688-.064.252-.097.5072-.097.7656 0 .2648.029.5232.087.7752.065.2519.165.478.301.6783.136.2002.31.3617.523.4845.213.1163.472.1744.775.1744.433 0 .779-.1195 1.037-.3585.265-.2391.433-.5685.504-.9884h.62c-.051.2778-.135.5329-.252.7655-.11.2261-.255.4231-.436.5911-.174.1615-.384.2875-.63.3779-.245.0905-.526.1357-.843.1357-.4 0-.746-.0679-1.037-.2035-.29-.1357-.529-.3198-.717-.5524-.187-.239-.326-.52-.416-.843-.091-.323-.136-.6686-.136-1.0368 0-.3489.049-.6816.145-.9981.104-.323.252-.6073.446-.8528.194-.2454.433-.4392.717-.5814.291-.1485.624-.2228.998-.2228.582 0 1.05.1389 1.405.4166.362.2778.588.7106.679 1.2985z"/><path d="m107.709 38.161v-5.0195h.581v5.0195zm-.03-6.1145v-.8624h.64v.8624z"/><path d="m111.863 38.2967c-.323-.0065-.627-.0646-.911-.1744-.278-.1099-.524-.2746-.737-.4942-.207-.2197-.371-.4942-.494-.8237s-.184-.7138-.184-1.1531c0-.3683.048-.7106.145-1.0272.097-.323.243-.604.436-.843.194-.2391.436-.4264.727-.5621.291-.1421.63-.2131 1.018-.2131.394 0 .736.071 1.027.2131.29.1357.533.323.726.5621.194.2325.336.5103.427.8333.097.323.145.6686.145 1.0369 0 .4005-.055.7623-.165 1.0853-.109.323-.268.6008-.474.8333-.201.2326-.446.4135-.737.5427-.284.1227-.601.1841-.949.1841zm1.705-2.6454c0-.2972-.032-.575-.097-.8334s-.165-.4813-.3-.6686c-.136-.1938-.31-.3456-.524-.4554-.213-.1099-.474-.1648-.784-.1648-.304 0-.566.0614-.785.1841-.214.1163-.388.2746-.524.4749-.135.1938-.235.4199-.3.6783-.065.2519-.097.5135-.097.7849 0 .3101.036.5975.107.8624.077.2584.187.4813.329.6686.142.1874.32.3327.533.4361.213.1033.459.155.737.155.303 0 .562-.0581.775-.1744.219-.1228.397-.2843.533-.4845.135-.2003.235-.4264.3-.6783.065-.252.097-.5136.097-.7849z"/><path d="m118.749 33.1415h.581v5.0195h-.581v-.6977c-.078.0905-.165.1841-.262.281s-.21.1874-.339.2714c-.123.0775-.268.1421-.436.1938-.168.0581-.362.0872-.581.0872-.336 0-.617-.0452-.843-.1357-.226-.0969-.411-.2293-.553-.3973-.135-.1679-.235-.3617-.3-.5814-.058-.2261-.087-.4716-.087-.7364v-3.3044h.581v3.2947c0 .4328.1.7655.301.9981.2.2261.529.3391.988.3391.239 0 .452-.0452.639-.1357.194-.0969.356-.2293.485-.3972.129-.168.229-.3683.3-.6008.071-.2326.107-.4878.107-.7656z"/><path d="m121.168 36.5912c.091.4328.252.7397.485.9206.239.1744.578.2616 1.017.2616.213 0 .398-.0258.553-.0775s.281-.1195.377-.2035c.104-.0904.181-.1906.233-.3004s.078-.2261.078-.3488c0-.2455-.081-.4264-.243-.5427-.155-.1227-.352-.2164-.591-.281-.239-.0711-.497-.1292-.775-.1744-.278-.0517-.536-.126-.775-.2229s-.44-.2358-.601-.4167c-.155-.1809-.233-.436-.233-.7655 0-.4199.152-.7623.456-1.0272.31-.2713.746-.4069 1.308-.4069.543 0 .982.1227 1.318.3682.342.239.549.6428.62 1.2113h-.591c-.052-.3877-.2-.659-.446-.814-.239-.1615-.542-.2423-.911-.2423-.368 0-.649.0808-.843.2423-.193.155-.29.3617-.29.6201 0 .2262.077.4006.232.5233.162.1163.362.2132.601.2907.239.0711.497.1357.775.1938.278.0582.536.1421.775.252.239.1033.436.2455.591.4263.162.1809.243.4329.243.7559 0 .239-.052.4522-.155.6395-.104.1809-.246.3327-.427.4555-.181.1227-.397.2131-.649.2713-.245.0646-.517.0969-.814.0969s-.562-.0452-.794-.1357c-.227-.084-.42-.2035-.582-.3585-.161-.1551-.287-.3359-.378-.5427-.09-.2067-.142-.4296-.155-.6686z"/><path d="m125.616 40.0118c.465-.6718.827-1.3889 1.085-2.1512.265-.7687.398-1.5633.398-2.3838 0-.8075-.136-1.5891-.407-2.345-.272-.7558-.63-1.4664-1.076-2.1318h.494c.265.3682.501.7268.708 1.0756.206.3424.378.6945.513 1.0562.142.3553.249.73.32 1.1241.077.3876.116.8107.116 1.2694 0 .4457-.039.8656-.116 1.2597-.071.3876-.178.7623-.32 1.1241-.142.3617-.316.7138-.523 1.0562-.207.3488-.439.6977-.698 1.0465z"/></g></svg>