<svg fill="none" height="74" viewBox="0 0 215 74" width="215" xmlns="http://www.w3.org/2000/svg"><g fill="#150703"><path d="m60.8718 25.49 2.3096-15.0126c2.7221.7424 5.1142 1.1548 7.1764 1.1548 5.6091 0 10.0634-1.3198 13.2804-3.95934 1.9796-1.64974 2.9695-2.88704 2.9695-3.62942 0-.24746-.165-.41243-.4949-.41243-.4125 0-.7424 0-.9899.08248-3.2994.90736-6.9289 1.40228-10.8057 1.40228-1.0724 0-2.3097-.08249-3.712-.32995-1.4022-.24746-2.9695-.41243-4.7017-.82486-.9074-.16498-1.6497-.41244-2.1447-.49493-.4949-.08249-.8248-.08249-.9073-.08249-.33 0-.5774.6599-.7424 1.97969l-1.8972 13.94027c-.0825.9074-.2475 2.0622-.4949 3.382l-.8249 4.8667c-.2474 1.6497-.4949 2.5571-.4949 2.8045 0 .4125.165.6599.5774.6599.7424 0 1.3198-.6599 1.8147-1.9797.9074-2.3921 2.3921-4.2068 4.3718-5.4441 2.0622-1.3198 4.3718-1.9797 6.9289-1.9797 3.2995 0 5.9391 1.4848 7.9187 4.4543 1.4023 2.0622 2.0622 5.6091 2.0622 10.5583 0 5.6916-.6599 10.0634-1.8972 13.1154-1.8147 4.3718-5.1967 6.5165-10.1459 6.5165-.9073 0-1.8972-.0825-2.887-.3299-.9898-.2475-1.9797-.5775-3.052-1.0724-2.4746-1.1548-3.7119-2.5571-3.7119-4.2893 0-.8249.6599-1.4848 2.0622-1.9797 2.557-.9898 3.8768-2.3921 3.8768-4.2893 0-1.4023-.4124-2.5571-1.3198-3.4644-.8248-.9074-1.9796-1.4023-3.3819-1.4023-1.5673 0-2.8046.7424-3.7944 2.2271-.9074 1.4023-1.3198 2.8871-1.3198 4.4543 0 3.7119 1.4023 6.6814 4.2068 8.9086 2.5571 2.0622 5.6916 3.052 9.486 3.052 5.5266 0 10.2284-1.8147 14.1053-5.6091 3.7944-3.7119 5.6916-8.4961 5.6916-14.1052 0-5.0317-1.5673-9.2386-4.7843-12.703-3.2995-3.5469-7.5063-5.2792-12.538-5.2792-2.3921 0-4.5368.4125-6.434 1.3198-1.4847.7424-3.2994 2.0622-5.4441 3.9594z"/><path d="m105.667 48.6393c0 2.0173-.161 3.3084-.484 3.9002-.403.7531-.968 1.1297-1.667 1.1297-1.211 0-2.152-.6187-2.825-1.8829-.565-1.049-.8604-2.2056-.8604-3.4967s.2694-2.4746.7804-3.5774c.645-1.3449 1.56-2.0174 2.716-2.0174 1.13 0 1.856.7801 2.152 2.3402.054.2958.108.7531.135 1.3448.027.5918.053 1.3449.053 2.2595zm-3.012 10.8129v-.5379h-1.829c-.565 0-.8878-.2421-.9954-.7263-.0269-.1345-.0538-.6186-.0538-1.4256v-5.2989c.9412 1.856 2.0982 2.7974 3.4702 2.7974 1.371 0 2.555-.6455 3.523-1.9635.915-1.2373 1.372-2.5553 1.372-3.954 0-1.4256-.43-2.7974-1.318-4.0885-.968-1.4256-2.152-2.1518-3.55-2.1518-1.292 0-2.448.9414-3.4703 2.7974v-2.7974c-1.1566.1614-2.7705.2421-4.8685.2421v.511l1.6407.0538c.8339.0269 1.2373.6187 1.2373 1.7753l.0269 11.9426v1.1297c0 .7801-.3227 1.1836-.9952 1.1836h-1.7752v.5379l3.7926-.0538z"/><path d="m115.515 54.1533v-.5379h-1.426c-.376 0-.618-.2152-.726-.6725-.027-.0807-.027-.2152-.027-.4034v-10.1943c-.86.1345-1.614.242-2.259.3227-.646.0807-1.211.1076-1.668.1076h-.753l-.027.5111.619.0269c1.425.0538 2.152.5917 2.152 1.6408v6.7782c0 .7801-.054 1.2642-.189 1.4525-.215.3497-.43.5111-.672.5111h-1.641v.4841l3.335-.0538z"/><path d="m123.857 46.4067c0 .4842-.054.7801-.161.9146-.108.1883-.377.2689-.834.2689h-4.304c0-3.2546.888-4.8954 2.69-4.8954.941 0 1.641.4035 2.098 1.2373.35.6725.538 1.5063.538 2.5015zm-5.218 1.7753 7.719.0538c-.726-3.954-2.42-5.9444-5.056-5.9444-1.48 0-2.717.6724-3.712 2.0173-.888 1.2104-1.318 2.5822-1.318 4.1154 0 1.587.511 2.9856 1.506 4.1692 1.076 1.2642 2.394 1.8828 3.954 1.8828 1.318 0 2.421-.4842 3.308-1.4525.888-.9414 1.318-2.0711 1.318-3.3891l-.484-.0269c-.08 1.1566-.484 2.1518-1.21 2.9857-.78.8876-1.722 1.3448-2.824 1.3448-1.023 0-1.803-.4034-2.367-1.2104-.565-.8069-.888-1.9635-.861-3.4429z"/><path d="m137.266 49.2041-.484-.0269c-.242 1.5332-.619 2.6091-1.13 3.2547-.78.9414-1.748 1.4256-2.905 1.4256-2.098 0-3.147-1.7215-3.147-5.1375 0-4.0347 1.049-6.0521 3.147-6.0521.458 0 .942.1345 1.453.4035.592.2959.887.6725.887 1.1028 0 .2421-.107.4035-.349.4842l-.323.1076c-.619.2152-.941.6993-.941 1.4525 0 .9683.484 1.4524 1.425 1.4524.511 0 .915-.1882 1.211-.5379.268-.3228.403-.7532.403-1.2642 0-.9952-.35-1.856-1.076-2.5553-.672-.6725-1.533-1.0221-2.582-1.0221-1.211 0-2.286.4034-3.228 1.2373-.726.6186-1.291 1.3718-1.721 2.2594-.458.8876-.673 1.8021-.673 2.7436 0 1.5332.511 2.878 1.56 4.0347 1.103 1.2642 2.394 1.9097 3.847 1.9097.834 0 1.587-.2152 2.286-.6455.699-.4035 1.237-.9953 1.641-1.7484.323-.6187.538-1.5601.672-2.8243z"/><path d="m145.726 46.4067c0 .4842-.054.7801-.161.9146-.108.1883-.377.2689-.834.2689h-4.304c0-3.2546.888-4.8954 2.69-4.8954.941 0 1.641.4035 2.098 1.2373.35.6725.538 1.5063.538 2.5015zm-5.218 1.7753 7.72.0538c-.727-3.954-2.421-5.9444-5.057-5.9444-1.48 0-2.717.6724-3.712 2.0173-.888 1.2104-1.318 2.5822-1.318 4.1154 0 1.587.511 2.9856 1.506 4.1692 1.076 1.2642 2.394 1.8828 3.954 1.8828 1.318 0 2.421-.4842 3.309-1.4525.887-.9414 1.318-2.0711 1.318-3.3891l-.485-.0269c-.08 1.1566-.484 2.1518-1.21 2.9857-.78.8876-1.721 1.3448-2.824 1.3448-1.022 0-1.802-.4034-2.367-1.2104-.565-.8069-.888-1.9635-.861-3.4429z"/><path d="m156.876 44.0666v-1.7483h-.43c-.108.8607-.377 1.2911-.807 1.2911-.162 0-.485-.1883-.969-.5649-.672-.511-1.425-.78-2.259-.78-.915 0-1.695.2958-2.34.8876-.619.5918-.915 1.3449-.915 2.2594 0 1.6408 1.157 2.8243 3.443 3.5505 1.937.6187 3.093 1.076 3.47 1.3718.511.4035.78.9415.78 1.6139 0 .6456-.269 1.1566-.78 1.5063-.457.3228-1.022.4841-1.695.4841-2.313 0-3.9-1.5869-4.787-4.7878h-.485l.027 2.4477-.053 2.905h.457l.134-.538c.189-.7262.458-1.1028.807-1.1028.162 0 .592.2421 1.264.7263.807.5917 1.641.8876 2.529.8876 1.022 0 1.883-.3228 2.609-.9952.726-.6725 1.076-1.5332 1.076-2.5822 0-1.2104-.646-2.2056-1.937-2.9857-.834-.511-2.017-.9683-3.55-1.3718-1.507-.3765-2.26-1.0221-2.26-1.9635 0-.5649.215-1.049.619-1.3718.403-.3228.888-.4573 1.452-.4573 1.91 0 3.336 1.3987 4.25 4.223h.458z"/><path d="m101.388 28.399h-1.7218v-2.9588c0-.8607.2958-1.6139.8878-2.2325.565-.6187 1.291-.9414 2.179-.9414.188 0 .403 0 .618.0269s.457.0807.753.1614c.727.1613 1.103.3765 1.103.6186 0 .1345-.188.2421-.565.3228-.78.1614-1.183.6186-1.183 1.3987 0 .4034.134.7262.43.9952.269.269.592.4035.995.4035.404 0 .753-.1614 1.049-.5111.242-.3497.377-.7531.377-1.2104 0-.8876-.377-1.587-1.13-2.0711-.618-.4035-1.398-.6187-2.34-.6187-1.372 0-2.555.4035-3.5235 1.2104-1.049.8607-1.587 1.9636-1.587 3.3085v2.1249h-2.8512v.8069h2.8512v8.3653c0 1.1297-.3765 1.6945-1.1028 1.6945h-1.6677v.4842h6.698l-.027-.5111h-1.049c-.619 0-.9148-.5379-.9148-1.6407v-8.3922h3.0398c.43 0 .78.1345 1.022.3766.269.2421.403.5648.403.9414l-.027 6.7783c0 1.2911-.296 1.9366-.86 1.9366h-1.265v.5111l3.121-.0538 3.173.0538v-.538h-1.425c-.377 0-.619-.2152-.726-.6724-.027-.0807-.027-.2152-.027-.4035v-10.1943c-.834.1345-1.641.2421-2.421.3228s-1.533.1076-2.286.1076z"/><path d="m112.825 31.2233v-3.0933c-.511.0807-1.157.1614-1.91.2152s-1.641.0807-2.663.0807v.5648h.834c.511 0 .941.1883 1.264.5918.35.4035.511.8607.511 1.3987l-.027 7.0472c0 .4304-.027.7263-.08.8877-.135.242-.404.3765-.78.3765h-1.561v.4842l3.47-.0538 3.228.0538v-.4842l-1.049-.0269c-.511 0-.861-.0807-1.022-.2421-.162-.1613-.242-.4841-.242-.9683v-3.8464c0-1.2642.269-2.3939.834-3.3891.726-1.2911 1.56-1.9367 2.501-1.9367.619 0 1.103.269 1.506.8339.323.4572.511 1.0221.511 1.6945v6.4286c0 .9415-.295 1.4256-.86 1.4256l-1.426.0269v.5111h6.509v-.4842h-.887c-.619 0-.995-.0538-1.13-.1614-.188-.1613-.269-.511-.269-1.049v-5.8368c0-1.1566-.296-2.0981-.888-2.8243-.645-.8069-1.533-1.2104-2.662-1.2104-1.48 0-2.717 1.0221-3.685 3.0664z"/><path d="m130.415 31.9764c0 .4842-.054.78-.161.9145-.108.1883-.377.269-.834.269h-4.304c0-3.2546.888-4.8954 2.69-4.8954.941 0 1.641.4035 2.098 1.2373.35.6724.538 1.5063.538 2.5015zm-5.218 1.7753 7.72.0538c-.727-3.954-2.421-5.9445-5.057-5.9445-1.48 0-2.717.6725-3.712 2.0174-.888 1.2104-1.318 2.5822-1.318 4.1153 0 1.587.511 2.9857 1.506 4.1692 1.076 1.2642 2.394 1.8829 3.954 1.8829 1.318 0 2.421-.4842 3.309-1.4525.887-.9414 1.318-2.0712 1.318-3.3892l-.485-.0268c-.08 1.1566-.484 2.1518-1.21 2.9856-.78.8876-1.721 1.3449-2.824 1.3449-1.022 0-1.802-.4035-2.367-1.2104s-.888-1.9635-.861-3.4429z"/></g></svg>