<svg fill="none" height="70" viewBox="0 0 214 70" width="214" xmlns="http://www.w3.org/2000/svg"><g fill="#000"><path d="m53.3853 45.628c-.3109 0-.4664-.4947-.4664-1.4841.0283-1.0177.2827-2.2615.7632-3.7315.5089-1.4699 1.1873-2.8834 2.0354-4.2403.848-1.3851 1.8374-2.6713 2.9682-3.8586 1.159-1.2156 2.4028-2.2756 3.7314-3.1802 2.8552-1.894 5.6537-2.841 8.3958-2.841 2.742 0 4.7915.7632 6.1484 2.2897s2.0071 3.6891 1.9505 6.4877c-.0565 2.7703-.5653 5.4558-1.5265 8.0565-.9328 2.5725-2.1767 4.9894-3.7314 7.2509-1.5265 2.2332-3.2933 4.2827-5.3004 6.1484-1.9788 1.8375-4.0424 3.4205-6.1908 4.7491-4.5512 2.7421-8.7632 4.1131-12.636 4.1131-3.6467 0-6.3746-1.3852-8.1838-4.1555-1.6678-2.5724-2.4452-6.0777-2.3321-10.5159.1696-6.8127 2.9399-14.2332 8.3109-22.2615 3.3922-5.1166 7.364-9.6113 11.9152-13.4841 7.4346-6.38866 14.6149-9.583 21.5407-9.583 3.0247 0 5.3992.65017 7.1236 1.95053 1.5265 1.18727 2.2615 2.5159 2.205 3.98587 0 1.4134-.311 2.5018-.9329 3.265-1.0742 1.3004-2.1343 1.9505-3.1802 1.9505-1.0177 0-1.7809-.2685-2.2898-.8056-.4805-.5371-.7067-1.2721-.6784-2.205.0283-.9328.7067-1.795 2.0353-2.5865.9329-.4806 1.4135-1.0601 1.4417-1.73855.0283-.70671-.4381-1.32862-1.3993-1.86572-.9611-.53711-2.4735-.80566-4.5371-.80566s-4.2685.4947-6.6148 1.4841c-2.318.9894-4.5654 2.34633-6.7421 4.07063-2.1766 1.6962-4.2544 3.7032-6.2332 6.0212-1.9788 2.2898-3.8304 4.735-5.5547 7.3357-1.6961 2.6007-3.2509 5.2863-4.6643 8.0566-1.3852 2.7703-2.5725 5.4841-3.5619 8.1413-2.0919 5.6255-3.1661 10.0495-3.2226 13.2721-.0565 3.1943.3392 5.5406 1.1873 7.0389.8763 1.4699 2.0777 2.2049 3.6042 2.2049 1.5548 0 2.9965-.2261 4.3251-.6784 1.3286-.4806 2.7421-1.2862 4.2403-2.417 3.1095-2.3463 6.5159-6.1484 10.2191-11.4064 3.1661-4.5795 5.3003-9.0742 6.4028-13.4841.3675-1.3851.5654-2.6855.5936-3.901.0283-3.2509-1.2579-4.8763-3.8586-4.8763-1.5265 0-3.1944.636-5.0036 1.9081-1.8091 1.2438-3.2932 2.417-4.4522 3.5194-1.1308 1.0742-2.1909 2.2474-3.1803 3.5195-2.2049 2.8268-3.5194 5.5406-3.9434 8.1413-.1414.7633-.3817 1.1449-.7209 1.1449z"/><path d="m98.3249 34.6857h2.8791v-8.7428h5.201c5.538 0 8.034-3.3897 8.034-7.6208 0-4.2312-2.496-7.574-8.08-7.574h-8.0341zm2.8791-11.3143v-10.0519h5.062c3.866 0 5.341 2.1273 5.341 5.0026s-1.475 5.0493-5.295 5.0493z"/><path d="m118.052 34.6857h2.74v-17.9532h-2.74zm1.393-20.9454c1.068 0 1.951-.8416 1.951-1.8702 0-1.0285-.883-1.8701-1.951-1.8701s-1.95.8416-1.95 1.8701c0 1.0286.882 1.8702 1.95 1.8702z"/><path d="m132.633 35.0597c3.622 0 6.269-1.8233 7.105-4.535l-2.647-.7481c-.696 1.8702-2.31 2.8052-4.458 2.8052-3.216 0-5.433-2.0922-5.561-5.9376h12.945v-1.1689c0-6.6857-3.947-8.9766-7.662-8.9766-4.83 0-8.034 3.8338-8.034 9.3506 0 5.5169 3.157 9.2104 8.312 9.2104zm-5.561-10.8c.186-2.7935 2.148-5.2831 5.283-5.2831 2.972 0 4.876 2.2442 4.876 5.2831z"/><path d="m150.776 35.0597c3.947 0 6.548-2.4311 7.012-5.6103h-2.74c-.511 1.9636-2.136 3.1324-4.272 3.1324-3.251 0-5.341-2.7117-5.341-6.8727 0-4.0675 2.136-6.7325 5.341-6.7325 2.414 0 3.854 1.4961 4.272 3.1325h2.74c-.464-3.3662-3.297-5.6104-7.059-5.6104-4.83 0-8.034 3.8338-8.034 9.3039 0 5.3766 3.065 9.2571 8.081 9.2571z"/><path d="m168.616 35.0597c3.622 0 6.269-1.8233 7.105-4.535l-2.647-.7481c-.696 1.8702-2.31 2.8052-4.458 2.8052-3.216 0-5.433-2.0922-5.561-5.9376h12.945v-1.1689c0-6.6857-3.947-8.9766-7.662-8.9766-4.83 0-8.034 3.8338-8.034 9.3506 0 5.5169 3.157 9.2104 8.312 9.2104zm-5.561-10.8c.186-2.7935 2.148-5.2831 5.283-5.2831 2.972 0 4.876 2.2442 4.876 5.2831z"/><path d="m98.0246 45.626h2.7864c-.128-3.6117-3.4365-6.3117-8.034-6.3117-4.551 0-8.1268 2.6649-8.1268 6.6857 0 3.226 2.3219 5.1429 6.037 6.2182l2.9257.8415c2.5077.7013 4.7368 1.5897 4.7368 3.9741 0 2.6182-2.5077 4.348-5.8049 4.348-2.8328 0-5.3405-1.2623-5.5727-3.974h-2.9721c.2786 3.9273 3.4365 6.5922 8.5448 6.5922 5.4798 0 8.5912-3.039 8.5912-6.9195 0-4.4883-4.2259-5.9376-6.6872-6.5922l-2.4148-.6545c-1.7647-.4676-4.5975-1.4026-4.5975-3.9741 0-2.2909 2.0898-3.974 5.2476-3.974 2.8793 0 5.0619 1.3792 5.3405 3.7403z"/><path d="m112.321 63.9532c3.623 0 6.27-1.8233 7.106-4.535l-2.648-.7481c-.696 1.8702-2.31 2.8052-4.458 2.8052-3.216 0-5.433-2.0922-5.561-5.9376h12.945v-1.1689c0-6.6857-3.947-8.9766-7.662-8.9766-4.83 0-8.034 3.8338-8.034 9.3507 0 5.5168 3.158 9.2103 8.312 9.2103zm-5.561-10.7999c.186-2.7936 2.148-5.2832 5.283-5.2832 2.972 0 4.876 2.2442 4.876 5.2832z"/><path d="m130.975 45.626h-3.808v-4.3013h-2.74v4.3013h-2.694v2.3376h2.694v11.2208c0 3.1325 2.507 4.6286 4.829 4.6286 1.022 0 1.672-.187 2.044-.3273l-.558-2.4779c-.232.0468-.603.1403-1.207.1403-1.207 0-2.368-.3741-2.368-2.7117v-10.4728h3.808z"/></g></svg>