<svg fill="none" height="70" viewBox="0 0 214 70" width="214" xmlns="http://www.w3.org/2000/svg"><g fill="#000"><path clip-rule="evenodd" d="m59.1903 58.3332.6146-1.4016c6.3665-14.5189 17.3573-27.0091 28.1265-36.3851h-24.0385l2.2817-6.1451h32.7645l-1.9537 5.2616-.2039.1704c-13.2788 11.0921-23.7431 24.6047-29.307 37.8862l-.2571.6136zm31.4529-38.7867c-.3933.3291-.7872.6624-1.1815 1-10.7297 9.185-21.769 21.4838-28.2937 35.7867-.1515.3323-.3007.6656-.4473 1h5.8314c5.6373-13.4566 16.2117-27.0935 29.5883-38.2673l1.3607-3.6645h-30.6311l-1.5391 4.1451zm1.7144 38.7867.6145-1.4016c6.3665-14.5189 17.3569-27.0091 28.1269-36.3851h-24.0388l2.2817-6.1451h32.7641l-1.953 5.2616-.204.1704c-13.279 11.0921-23.743 24.6047-29.307 37.8862l-.257.6136zm31.4524-38.7867c-.393.3291-.787.6624-1.181 1-10.73 9.185-21.769 21.4838-28.2937 35.7867-.1516.3323-.3007.6656-.4473 1h5.8314c5.6376-13.4566 16.2116-27.0935 29.5886-38.2673l1.36-3.6645h-30.631l-1.5388 4.1451z" fill-rule="evenodd"/><path d="m118 59v-9.9806h3.658c.649 0 1.183.0739 1.6.2218.427.1478.76.3511 1.002.6099.25.2587.421.5591.514.901.102.3327.153.6839.153 1.0535 0 .5545-.116 1.012-.348 1.3724-.222.3604-.514.6469-.876.8594-.362.2033-.774.3466-1.238.4297-.454.0832-.913.1248-1.377.1248h-2.142v4.4081zm3.116-5.2121c.445 0 .844-.0277 1.196-.0832.353-.0554.649-.1571.89-.3049.251-.1571.441-.3651.571-.6238.139-.268.208-.6146.208-1.0397 0-.6284-.208-1.1043-.626-1.4278-.408-.3234-1.061-.4851-1.961-.4851h-2.448v3.9645z"/><path d="m130.963 44.338c-.352.1478-.709.2449-1.071.2911-.361.0462-.723.0831-1.085.1109-.64.0462-1.14.1894-1.502.4297-.352.2403-.529.6053-.529 1.0951 0 .2218.042.4158.126.5822.092.1571.208.2911.347.402.149.1016.316.1802.501.2356.195.0463.39.0694.584.0694.334 0 .659-.0416.974-.1248s.593-.2079.835-.3743c.25-.1756.449-.3927.598-.6515.148-.268.222-.5822.222-.9426zm-1.405-.4159c.158-.0185.343-.0462.557-.0832.222-.0369.403-.0878.542-.1524.139-.0647.223-.171.251-.3189.037-.1571.055-.3003.055-.4297 0-.4251-.139-.7716-.417-1.0396-.269-.2773-.728-.4159-1.377-.4159-.288 0-.552.0277-.793.0832-.241.0462-.454.134-.64.2633-.176.1202-.324.2865-.445.4991-.111.2033-.185.462-.223.7762h-.848c.028-.4251.125-.7855.292-1.0812.167-.3049.38-.5498.64-.7347.269-.194.575-.3327.918-.4158.352-.0924.723-.1386 1.113-.1386.361 0 .7.0415 1.015.1247.325.0739.603.1987.835.3743.241.1663.426.3927.556.6792.139.2865.209.6377.209 1.0535v3.9091c0 .3235.056.5314.167.6238.12.0832.357.0601.709-.0693v.6515c-.065.0185-.162.0462-.292.0832-.12.0369-.241.0554-.362.0554-.129 0-.255-.0138-.375-.0416-.139-.0184-.251-.06-.334-.1247-.083-.0739-.153-.1571-.209-.2495-.046-.1017-.078-.208-.097-.3189-.019-.1201-.028-.2449-.028-.3742-.352.3881-.756.6838-1.21.8871s-.946.305-1.474.305c-.316 0-.622-.0416-.919-.1248-.287-.0831-.542-.2125-.765-.3881-.222-.1756-.398-.3881-.528-.6376-.13-.2588-.195-.5638-.195-.9149 0-1.2199.839-1.9407 2.518-2.1625z"/><path d="m139.362 34.6543c0-.4343-.055-.8363-.167-1.206-.102-.3789-.255-.7023-.459-.9703-.204-.2772-.459-.4944-.765-.6515s-.654-.2357-1.043-.2357c-.352 0-.677.0647-.974.1941-.296.1201-.556.3003-.779.5406-.222.2403-.398.536-.528.8872-.121.3419-.181.7393-.181 1.1921-.019.4528.018.8779.111 1.2753.093.3882.241.7301.445 1.0258s.464.5314.779.707c.316.1663.691.2495 1.127.2495.38 0 .719-.0786 1.015-.2357.306-.1663.561-.3835.765-.6515.214-.2772.376-.596.487-.9565.112-.3696.167-.7578.167-1.1644zm0-3.6179h.835v6.4874c0 .4805-.051.938-.153 1.3723-.093.4436-.264.8317-.515 1.1644-.25.3327-.593.5961-1.029.7901-.436.2034-.997.305-1.683.305-.529 0-.983-.0693-1.363-.2079-.381-.1294-.691-.2957-.932-.4991-.242-.2033-.427-.4297-.557-.6792-.12-.2403-.185-.4667-.195-.6792h.891c.065.268.167.4851.306.6515.139.1756.301.3096.487.402.194.1016.408.1709.639.2079.232.037.473.0555.724.0555.565 0 1.02-.0971 1.363-.2911.343-.1941.603-.4482.779-.7625.176-.3142.287-.6699.334-1.0673.055-.3974.079-.804.069-1.2199-.269.4436-.64.7809-1.113 1.0119-.463.2218-.95.3327-1.46.3327-.547 0-1.025-.1016-1.433-.3049-.399-.2126-.732-.4898-1.001-.8317-.26-.3512-.455-.7578-.585-1.2199-.129-.4621-.194-.9426-.194-1.4417 0-.5267.06-1.0211.181-1.4832.12-.4621.31-.8594.57-1.1921.269-.3419.607-.6099 1.015-.804s.904-.2911 1.489-.2911c.231 0 .468.0323.709.097s.473.1571.696.2773c.231.1201.44.2726.626.4574.194.1848.352.3928.472.6238h.028z"/><path d="m146.352 25.2163c0-.3512-.051-.6792-.153-.9842-.093-.3142-.236-.5822-.431-.804-.186-.231-.422-.4112-.709-.5406-.288-.1386-.617-.208-.988-.208s-.7.0694-.988.208c-.278.1386-.519.3234-.723.5545-.195.231-.352.499-.473.804-.121.3049-.199.6284-.236.9703zm-4.701.6931c0 .3881.051.7578.153 1.109.102.3419.25.6422.445.901.204.2495.459.4528.765.6099.306.1479.658.2218 1.057.2218.547 0 1.015-.1432 1.405-.4297.389-.2865.649-.6931.779-1.2199h.932c-.102.342-.237.6608-.404.9565-.167.2865-.375.5406-.626.7624-.25.2126-.547.3789-.89.499-.343.1202-.742.1802-1.196.1802-.575 0-1.071-.097-1.488-.2911-.418-.194-.761-.4574-1.03-.7901-.269-.3419-.468-.7393-.598-1.1921-.13-.4621-.195-.9565-.195-1.4833 0-.5267.074-1.0211.223-1.4832.157-.4621.375-.8641.654-1.206.287-.3512.635-.6238 1.043-.8178.408-.2033.872-.305 1.391-.305.992 0 1.771.3419 2.337 1.0258.565.6746.844 1.6588.834 2.9526z"/><path d="m148.173 19.1289c.13.6192.362 1.0582.696 1.3169.343.2495.83.3743 1.46.3743.306 0 .571-.037.793-.1109.223-.0739.404-.171.543-.2911.148-.1294.259-.2726.333-.4297.075-.1571.112-.3235.112-.499 0-.3512-.116-.61-.348-.7763-.223-.1756-.505-.3096-.849-.402-.343-.1017-.714-.1848-1.112-.2495-.399-.074-.77-.1802-1.113-.3189-.343-.1386-.631-.3373-.863-.596-.222-.2588-.333-.6238-.333-1.0951 0-.6007.218-1.0905.653-1.4694.446-.3881 1.071-.5822 1.878-.5822.779 0 1.41.1756 1.892.5268.492.3419.788.9195.89 1.7327h-.848c-.074-.5545-.288-.9426-.64-1.1644-.343-.231-.779-.3466-1.308-.3466-.528 0-.932.1156-1.21.3466-.278.2218-.417.5175-.417.8872 0 .3234.111.5729.334.7485.232.1664.519.305.862.4159.343.1016.714.194 1.113.2772s.77.2033 1.113.3604c.343.1479.626.3512.848.61.232.2587.348.6191.348 1.0812 0 .3419-.074.6469-.223.9149-.148.2587-.352.4759-.612.6515-.259.1756-.57.305-.932.3881-.352.0924-.741.1386-1.168.1386s-.807-.0646-1.141-.194c-.324-.1202-.602-.2911-.834-.5129s-.413-.4806-.543-.7763-.204-.6145-.222-.9565z"/></g></svg>