<svg fill="none" height="54" viewBox="0 0 215 54" width="215" xmlns="http://www.w3.org/2000/svg"><g fill="#150703"><path d="m28.9486 45.916.0169-.017c-.3251-.7591-.3924-1.6513-.2018-2.6766.1681-.9234.496-1.7391.9837-2.4472.4932-.7138 1.0957-1.2689 1.8076-1.6654.7174-.4022 1.4993-.6033 2.3457-.6033.6278 0 1.1574.1274 1.589.3823.4316.2493.7259.5722.8828.9687l.4288-.3484c.4708-.3908.7987-.7477.9837-1.0706.1906-.3229.2859-.6628.2859-1.0197 0-.2322-.0477-.4305-.143-.5948-.0897-.1643-.1821-.3172-.2774-.4588-.0953-.1473-.1458-.3116-.1514-.4929 0-.2152.0757-.4022.227-.5608.1514-.1643.3588-.2492.6222-.2549.2859 0 .5269.1218.7231.3654.2017.2379.3026.5721.3026 1.0026.0056.6005-.1569 1.1642-.4876 1.691-.3307.5211-.8968 1.1046-1.6983 1.7504l-.6895.5608c.0056.0567.0084.1162.0084.1785-.0224.4588-.1961.7024-.5212.7307-.3139.017-.6474.1246-1.0005.3229l-4.3383 3.5348c.1345.6968.4147 1.2208.8407 1.572.426.3456.9445.5184 1.5554.5184.4933 0 .9417-.1133 1.3452-.3399.4036-.2266.7259-.524.9669-.8922s.3671-.7704.3784-1.2066c.0056-.3003-.0393-.5495-.1346-.7478-.0897-.1983-.1289-.4248-.1177-.6798.0056-.2436.0953-.4588.2691-.6458.1737-.1926.4091-.2889.7062-.2889.2803 0 .5017.0935.6642.2804.1682.187.2494.4674.2438.8413-.0168.7591-.227 1.47-.6305 2.1328-.398.6571-.9585 1.1896-1.6816 1.5974-.7174.4079-1.5638.6118-2.5391.6118-.7566 0-1.418-.1359-1.9841-.4078-.5605-.2776-1.0005-.6656-1.32-1.1641-.4989.4361-.8464.8468-1.0426 1.232-.1961.3853-.2942.7705-.2942 1.1557 0 .2492.0504.4532.1513.6118.1009.1642.2018.3144.3027.4503.1065.136.1597.2918.1597.4674 0 .2096-.0785.3908-.2354.5438-.1569.1586-.3559.2379-.5969.2379-.2859 0-.5241-.1161-.7147-.3484-.1962-.2266-.2942-.5863-.2942-1.0791 0-.6401.1877-1.2633.5633-1.8694.3699-.6061.95-1.2264 1.7403-1.8609zm1.7236-2.8126c-.0897.5382-.1205 1.031-.0925 1.4785l4.0272-3.2884c.0337-.1699.0561-.3455.0673-.5268.0448-1.116-.3335-1.6739-1.135-1.6739-.639 0-1.2275.3568-1.7656 1.0706-.5325.7138-.8996 1.6938-1.1014 2.94z"/><path d="m46.3761 40.002c.9753.0283 1.7039.3852 2.186 1.0706.4876.6798.6417 1.5805.4624 2.7021-.1289.8441-.4064 1.5833-.8324 2.2178-.4259.6288-.9556 1.1159-1.589 1.4615-.6334.3399-1.334.4985-2.1019.4758-.9304-.0226-1.6479-.3653-2.1523-1.0281-.5045-.6628-.6642-1.5692-.4793-2.7191.129-.8158.398-1.5437.8072-2.1838.4147-.6401.9388-1.1386 1.5722-1.4955.6334-.3626 1.3424-.5297 2.1271-.5013zm-1.7151 7.2311c.3699.017.7342-.1331 1.0929-.4504.3644-.3229.6867-.7704.9669-1.3425.2803-.5778.482-1.2406.6054-1.9884.1681-.912.1401-1.5918-.0841-2.0393s-.5549-.6854-.9921-.7138c-.3868-.0226-.7651.136-1.135.4759-.3644.3342-.6867.7959-.9669 1.385-.2803.5835-.4792 1.2349-.5969 1.9544-.1682.929-.1374 1.6088.0924 2.0393s.5689.6571 1.0174.6798z"/><path d="m51.5098 41.0471-.6221-.1359c-.1682-.0737-.2522-.1841-.2522-.3314 0-.221.1457-.3314.4371-.3314h.6895c.2242 0 .4147-.0963.5717-.2889l.8912-1.1047c.1233-.1699.2718-.2549.4456-.2549.2074 0 .3111.1048.3111.3144 0 .136-.0393.3399-.1177.6118l-.227.7478h1.5974c.185 0 .2774.0849.2774.2549 0 .1473-.0616.2634-.1849.3484-.1177.0849-.2747.1274-.4708.1274h-1.4377l-1.3116 4.4016c-.1682.5495-.213.9233-.1345 1.1216.084.1926.255.2889.5128.2889.4204 0 .8464-.2464 1.278-.7392.1233-.1303.2298-.1898.3195-.1785.1401.0057.1933.0991.1597.2804-.0673.2663-.2326.5353-.496.8073-.2579.2662-.583.49-.9753.6712-.3868.1813-.81.2719-1.2696.2719-1.1546 0-1.4965-.7477-1.0257-2.2432l1.1434-3.7983c.0841-.2719.1177-.4673.1009-.5863-.0112-.1189-.0812-.2039-.2102-.2549z"/><path d="m57.6026 44.7604c-.1458.4362-.2495.7817-.3111 1.0366-.0617.255-.0925.4617-.0925.6203 0 .1473.0196.2748.0589.3824.0392.1076.0588.2323.0588.3739 0 .2322-.1205.4164-.3615.5523-.241.136-.5661.2039-.9753.2039-.3475 0-.5521-.1104-.6137-.3313-.0617-.221-.0169-.5977.1345-1.1302l1.9169-6.9082c.7511-2.7021 2.5167-4.0532 5.2968-4.0532.5325 0 .9332.0907 1.2023.272.2746.1756.4119.3993.4119.6712 0 .221-.0756.4022-.227.5439-.1457.1416-.3531.2124-.6221.2124-.241 0-.4737-.068-.6979-.2039-.2186-.1417-.4372-.2833-.6557-.4249-.213-.1416-.44-.2124-.6811-.2124-.4764 0-.9108.1841-1.3031.5523-.3924.3625-.7035.9573-.9333 1.7844l-1.2107 4.2656c.5942-1.0537 1.2444-1.8099 1.9506-2.2688.7118-.4588 1.3676-.6882 1.9674-.6882.6221 0 .9808.2237 1.0761.6712.0953.4419.014 1.0339-.2438 1.776l-1.0678 3.1524c-.1457.4249-.2045.7223-.1765.8922.0336.17.1317.2549.2943.2549.0952 0 .1989-.0311.311-.0934.1177-.0623.2551-.1756.412-.3399.1345-.1247.2438-.1643.3279-.119.1457.068.1485.2408.0084.5183-.2074.3626-.4876.6543-.8407.8753-.3532.2209-.7511.3313-1.1939.3313-.4989 0-.8128-.1671-.9417-.5013-.1233-.3342-.0812-.8101.1261-1.4275l1.1098-3.3139c.1794-.5495.2355-.9319.1682-1.1471-.0617-.221-.2326-.3314-.5129-.3314-.3026 0-.653.1359-1.0509.4078-.398.2719-.7875.6713-1.1687 1.1981-.3755.5269-.6922 1.1755-.95 1.9459z"/><path d="m70.4804 45.3637c-.0897.4418-.2943.8582-.6138 1.2491-.3139.3908-.7343.7081-1.2611.9517-.5213.2436-1.1323.3653-1.8329.3653-.8968 0-1.561-.269-1.9926-.8072-.4316-.5381-.6109-1.2774-.5381-2.2178.0505-.6627.2018-1.2887.454-1.8778.2523-.5948.5802-1.1188.9837-1.572.4092-.4532.8688-.8101 1.3789-1.0707.5156-.2605 1.0593-.3908 1.631-.3908.6278 0 1.0986.1784 1.4125.5353.3195.3512.4989.7846.5381 1.3001.0224.1756.0981.2662.227.2719.1401 0 .2158.0679.227.2039.0056.1869-.1373.3286-.4288.4249-.241.0849-.5633.2011-.9668.3483-.398.1473-.8268.3031-1.2864.4674s-.908.3257-1.3452.4843-.8156.2946-1.135.4079c0 .0227-.0028.0453-.0085.068-.0672.7987.0449 1.402.3363 1.8099.2915.4022.7119.6033 1.2612.6033.4652 0 .9108-.1388 1.3368-.4164s.7651-.6939 1.0173-1.2491c.1457-.2039.2831-.3002.412-.2889.1793.0114.2438.1445.1934.3994zm-2.0935-4.7075c-.3083 0-.625.1388-.9501.4164-.3195.2776-.6081.6571-.866 1.1386-.2578.4815-.4428 1.031-.5549 1.6485.3027-.1133.6446-.2408 1.0258-.3824.3867-.1473.765-.2917 1.135-.4333.3755-.1473.7006-.2748.9753-.3824.056-.2153.084-.4872.084-.8157 0-.3513-.0756-.6373-.227-.8583-.1513-.2209-.3587-.3314-.6221-.3314z"/><path d="m72.2031 41.7609c-.0728-.0227-.1205-.0737-.1429-.153-.0168-.0793.0056-.1784.0673-.2974.2129-.3795.5072-.6911.8828-.9347.3811-.2435.7875-.3653 1.219-.3653.583 0 .8744.2719.8744.8157 0 .1983-.0364.4248-.1093.6798-.0672.2492-.1513.5211-.2522.8157.3924-.7251.824-1.2887 1.2948-1.6909.4764-.4079.9472-.6118 1.4125-.6118.3755 0 .6585.1161.8491.3483.1906.2323.2831.541.2775.9262-.0112.4249-.1261.7619-.3447 1.0112-.213.2436-.4597.3654-.7399.3654-.1906 0-.3335-.0482-.4288-.1445-.0897-.0963-.1345-.2124-.1345-.3484 0-.1133.0168-.2237.0504-.3313.0337-.1133.0505-.2351.0505-.3654 0-.2663-.1121-.3994-.3363-.3994-.3588 0-.7819.3229-1.2696.9687-.4876.6401-.9164 1.5521-1.2863 2.7361-.1346.4022-.2298.7222-.2859.9602-.0504.2379-.0757.4475-.0757.6288 0 .1982.0477.3483.143.4503.1009.0963.1513.2124.1513.3484 0 .2039-.1429.3824-.4288.5353-.2858.1473-.6502.2209-1.093.2209-.3811 0-.6053-.1302-.6726-.3908-.0672-.2663-.0056-.6685.185-1.2066l1.2948-3.9002c.1569-.4646.2242-.7903.2017-.9772-.0224-.187-.1205-.2804-.2942-.2804-.1009 0-.2074.034-.3195.1019-.1121.0624-.2522.1785-.4204.3484-.1345.119-.241.1643-.3195.136z"/><path d="m86.1332 40.6732c-.3588 0-.7175.1445-1.0762.4334-.3531.2832-.6642.6826-.9332 1.1981-.2635.5098-.4372 1.1075-.5213 1.7929-.1233.9404-.0533 1.6428.2102 2.1073.269.4589.6754.6883 1.2191.6883.4147 0 .8099-.1303 1.1854-.3909.3756-.2606.6726-.6571.8912-1.1896.0673-.102.129-.1813.185-.2379.0617-.0567.1317-.085.2102-.085.0841 0 .1485.0453.1934.136.0504.0849.0504.2096 0 .3738-.1121.4192-.3167.8158-.6138 1.1897-.2914.3682-.6726.6684-1.1434.9007-.4708.2322-1.0229.3483-1.6563.3483-.9136 0-1.5834-.3144-2.0094-.9431-.4204-.6345-.5521-1.5069-.3952-2.6172.1121-.7987.3728-1.5295.7819-2.1923.4092-.6684.9305-1.2009 1.5638-1.5974.6334-.3966 1.3368-.5948 2.1103-.5948.7007 0 1.2219.1784 1.5639.5353.3475.3512.5128.7591.496 1.2236-.0112.3569-.1121.6288-.3027.8157-.1905.187-.4091.2804-.6558.2804-.1905 0-.3447-.051-.4624-.1529-.1121-.1077-.1653-.2493-.1597-.4249.0056-.1416.028-.2804.0672-.4164.0393-.1359.0589-.2832.0589-.4418 0-.2153-.0701-.3909-.2102-.5268-.1401-.1417-.3391-.2125-.5969-.2125z"/><path d="m93.4552 40.002c.9753.0283 1.704.3852 2.186 1.0706.4877.6798.6418 1.5805.4624 2.7021-.1289.8441-.4063 1.5833-.8323 2.2178-.426.6288-.9557 1.1159-1.589 1.4615-.6334.3399-1.3341.4985-2.1019.4758-.9305-.0226-1.6479-.3653-2.1524-1.0281-.5044-.6628-.6642-1.5692-.4792-2.7191.1289-.8158.3979-1.5437.8071-2.1838.4148-.6401.9389-1.1386 1.5722-1.4955.6334-.3626 1.3424-.5297 2.1271-.5013zm-1.7151 7.2311c.3699.017.7343-.1331 1.093-.4504.3643-.3229.6866-.7704.9669-1.3425.2802-.5778.482-1.2406.6053-1.9884.1681-.912.1401-1.5918-.0841-2.0393s-.5549-.6854-.9921-.7138c-.3867-.0226-.7651.136-1.135.4759-.3643.3342-.6866.7959-.9669 1.385-.2802.5835-.4792 1.2349-.5969 1.9544-.1682.929-.1373 1.6088.0925 2.0393s.5689.6571 1.0173.6798z"/><path d="m101.649 40.002c.976.0283 1.704.3852 2.186 1.0706.488.6798.642 1.5805.463 2.7021-.129.8441-.407 1.5833-.833 2.2178-.426.6288-.955 1.1159-1.589 1.4615-.633.3399-1.334.4985-2.1015.4758-.9305-.0226-1.6479-.3653-2.1524-1.0281-.5044-.6628-.6642-1.5692-.4792-2.7191.1289-.8158.3979-1.5437.8071-2.1838.4148-.6401.9389-1.1386 1.5722-1.4955.6338-.3626 1.3428-.5297 2.1268-.5013zm-1.7148 7.2311c.3698.017.7338-.1331 1.0928-.4504.365-.3229.687-.7704.967-1.3425.28-.5778.482-1.2406.605-1.9884.169-.912.141-1.5918-.084-2.0393-.224-.4475-.555-.6854-.992-.7138-.387-.0226-.765.136-1.135.4759-.364.3342-.6864.7959-.9667 1.385-.2802.5835-.4792 1.2349-.5969 1.9544-.1682.929-.1373 1.6088.0925 2.0393s.5689.6571 1.0173.6798z"/><path d="m112.601 46.6043c-.134.4135-.364.7421-.689.9857-.32.2435-.695.3568-1.127.3398-.325-.017-.586-.1246-.782-.3229-.19-.2039-.347-.5268-.471-.9686l-.597-2.0054c-.476.1247-.992.2408-1.547.3484-.134.4929-.221.8356-.26 1.0282-.034.1926-.051.3512-.051.4758 0 .153.017.2804.051.3824.033.0963.05.2096.05.3399 0 .2152-.117.388-.353.5183-.235.1303-.546.1954-.933.1954-.331 0-.533-.1048-.605-.3144-.073-.2152-.048-.5409.075-.9771l1.968-7.1122c.381-1.3765 1.023-2.3877 1.925-3.0335.908-.6514 2.057-.9772 3.447-.9772.538 0 .936.0907 1.194.272.263.1812.395.4022.395.6627 0 .2153-.076.3966-.227.5439-.146.1416-.356.2124-.631.2124-.246 0-.479-.068-.697-.2039-.219-.1417-.435-.2805-.648-.4164-.207-.1416-.429-.2124-.664-.2124-.493 0-.95.1869-1.37.5608-.415.3682-.737.9828-.967 1.8439-.196.7194-.384 1.385-.564 1.9968-.173.6061-.327 1.1471-.462 1.623.471-.7591 1.043-1.3539 1.715-1.7844.678-.4306 1.351-.6345 2.018-.6118.51.017.897.1642 1.16.4418.269.2776.376.66.32 1.1471-.056.5042-.325.9772-.807 1.4191-.477.4418-1.194.8412-2.153 1.1981l.564 1.7504c.089.2889.187.49.294.6033.106.1133.23.1728.37.1784.235.017.451-.1246.647-.4248.101-.1133.199-.1586.294-.136.157.0397.197.1841.118.4334zm-5.036-2.2433-.017.0595c1.424-.3059 2.447-.6798 3.069-1.1216.622-.4475.975-.9347 1.059-1.4615.045-.2889.003-.5184-.126-.6883-.123-.17-.317-.2634-.58-.2804-.381-.0227-.801.1218-1.261.4333-.46.3059-.888.728-1.286 1.2661-.393.5325-.679 1.1301-.858 1.7929z"/><path d="m117.194 38.5404c-.303 0-.536-.0849-.698-.2549-.163-.1756-.235-.3908-.219-.6458.017-.3172.154-.6118.412-.8837.264-.2775.594-.4163.992-.4163.32 0 .555.0878.707.2634.157.1756.227.3937.21.6543-.017.3285-.157.6259-.421.8922-.257.2606-.585.3908-.983.3908zm-1.076 7.0612c-.152.4305-.211.7336-.177.9092.034.17.132.2549.294.2549.096 0 .199-.0311.311-.0934.118-.0624.255-.1785.412-.3484.135-.119.244-.1558.328-.1105.152.068.154.2379.009.5098-.208.3626-.491.6543-.85.8753-.353.2209-.745.3313-1.177.3313-.487 0-.804-.1671-.95-.5013-.14-.3399-.095-.8242.135-1.453l1.295-3.5858c.162-.4419.229-.7534.201-.9347s-.126-.2719-.294-.2719c-.101 0-.21.034-.328.1019-.117.068-.258.187-.42.3569-.14.1133-.255.1501-.345.1105-.157-.068-.16-.2351-.008-.5014.224-.3682.518-.6656.883-.8922.37-.2322.756-.3483 1.16-.3483.459 0 .768.1727.925.5183.157.3399.115.8412-.126 1.504z"/><path d="m119.307 41.7439c-.068-.0283-.104-.0878-.11-.1785-.005-.0963.028-.2039.101-.3228.236-.3739.544-.6713.925-.8923.381-.2265.774-.3398 1.177-.3398.628 0 .942.269.942.8072 0 .2153-.056.4758-.168.7817-.107.3003-.247.6713-.421 1.1132.606-.9914 1.247-1.6881 1.926-2.0903.683-.4079 1.294-.6118 1.832-.6118.623 0 .981.2209 1.077.6627.095.4419.014 1.0339-.244 1.776l-1.076 3.1609c-.14.4249-.197.7223-.168.8922.033.17.128.2549.285.2549.096 0 .199-.0283.311-.0849.113-.0624.25-.1785.412-.3484.129-.119.236-.1586.32-.119.146.068.148.2379.008.5098-.213.3796-.496.677-.849.8922-.347.2153-.737.3229-1.168.3229-.499 0-.813-.1671-.942-.5013-.123-.3342-.081-.8101.126-1.4275l1.101-3.3139c.185-.5495.244-.9319.177-1.1471-.062-.221-.235-.3314-.521-.3314-.292 0-.637.1359-1.034.4078-.393.2663-.782.6685-1.169 1.2066-.381.5325-.706 1.1953-.975 1.9884-.169.5041-.283.8667-.345 1.0876-.056.2153-.084.3881-.084.5183 0 .136.022.2606.067.3739.045.1077.067.2351.067.3824 0 .2266-.123.4107-.37.5523-.241.136-.569.2039-.983.2039-.679 0-.827-.5013-.446-1.504l1.413-4.0276c.168-.4645.238-.7846.21-.9602s-.126-.2634-.294-.2634c-.101 0-.211.034-.328.1019-.118.068-.261.1841-.429.3484-.146.119-.264.1586-.353.119z"/><path d="m133.631 47.7599c-.336 1.4332-.961 2.4982-1.874 3.1949-.914.6968-2.049 1.0452-3.405 1.0452-.595 0-1.046-.0963-1.354-.2889s-.462-.439-.462-.7393c0-.2096.072-.3852.218-.5268.14-.1416.334-.2124.58-.2124.252 0 .488.0765.706.2294.225.153.446.3059.665.4589.218.1529.454.2294.706.2294.521 0 1.003-.1955 1.446-.5863.443-.3852.771-1.0112.984-1.8779l.807-3.178c-.919 1.6145-2.001 2.4217-3.246 2.4217-.532 0-.95-.1954-1.252-.5863-.303-.3908-.415-.9913-.337-1.8014.062-.7024.247-1.3822.555-2.0393.309-.6628.718-1.2576 1.228-1.7844s1.098-.9432 1.765-1.2491c.673-.3116 1.402-.4673 2.186-.4673.667 0 1.169.0708 1.505.2124.337.1416.494.3172.471.5268-.017.17-.078.2946-.185.3739-.101.0793-.176.2181-.227.4164zm-4.153-2.3707c-.062.5665-.014.9687.143 1.2066.157.2322.359.3484.605.3484.342 0 .698-.1728 1.068-.5184.37-.3455.718-.7959 1.043-1.351.325-.5552.597-1.15.815-1.7844.219-.6345.351-1.2378.395-1.8099.051-.5099-.117-.7648-.504-.7648s-.779.1331-1.177.3994c-.398.2606-.768.6146-1.11 1.0621-.342.4419-.628.9404-.857 1.4956-.225.5551-.365 1.1272-.421 1.7164z"/><path d="m141.469 47.3011c.348 0 .628-.0964.841-.289.213-.1982.319-.4446.319-.7392 0-.2379-.081-.4759-.243-.7138-.163-.2379-.496-.558-1.001-.9602-.577-.4531-.978-.8383-1.202-1.1556-.224-.3172-.334-.6939-.328-1.1301.011-.6345.291-1.1783.841-1.6315.549-.4588 1.306-.6882 2.27-.6882.74 0 1.309.1529 1.706.4588.398.3002.597.6515.597 1.0537 0 .4588-.176.6882-.529.6882-.152 0-.286-.0481-.404-.1444-.118-.102-.235-.2833-.353-.5438-.297-.6062-.712-.9092-1.244-.9092-.398 0-.718.1133-.959.3399-.241.2209-.361.5013-.361.8412 0 .2549.081.5126.244.7732.168.2606.512.6062 1.034 1.0367.616.4815 1.023.8837 1.219 1.2066.202.3229.297.6769.286 1.0621-.023.6005-.297 1.0962-.824 1.487-.527.3909-1.236.5863-2.127.5863-.808 0-1.43-.1727-1.867-.5183-.437-.3512-.656-.7392-.656-1.1641.006-.2039.054-.3654.143-.4843.096-.1247.224-.187.387-.187.308 0 .572.2351.79.7053.185.3739.395.6373.631.7902.235.153.499.2295.79.2295z"/><path d="m151.863 45.3637c-.09.4418-.294.8582-.614 1.2491-.314.3908-.734.7081-1.261.9517-.521.2436-1.132.3653-1.833.3653-.896 0-1.561-.269-1.992-.8072-.432-.5381-.611-1.2774-.538-2.2178.05-.6627.201-1.2887.454-1.8778.252-.5948.58-1.1188.983-1.572.41-.4532.869-.8101 1.379-1.0707.516-.2605 1.06-.3908 1.631-.3908.628 0 1.099.1784 1.413.5353.319.3512.499.7846.538 1.3001.022.1756.098.2662.227.2719.14 0 .216.0679.227.2039.005.1869-.137.3286-.429.4249-.241.0849-.563.2011-.967.3483-.398.1473-.827.3031-1.286.4674-.46.1643-.908.3257-1.345.4843-.438.1586-.816.2946-1.135.4079 0 .0227-.003.0453-.009.068-.067.7987.045 1.402.336 1.8099.292.4022.712.6033 1.262.6033.465 0 .91-.1388 1.336-.4164s.765-.6939 1.018-1.2491c.145-.2039.283-.3002.412-.2889.179.0114.244.1445.193.3994zm-2.093-4.7075c-.309 0-.625.1388-.95.4164-.32.2776-.609.6571-.866 1.1386-.258.4815-.443 1.031-.555 1.6485.302-.1133.644-.2408 1.025-.3824.387-.1473.765-.2917 1.135-.4333.376-.1473.701-.2748.976-.3824.056-.2153.084-.4872.084-.8157 0-.3513-.076-.6373-.227-.8583-.152-.2209-.359-.3314-.622-.3314z"/><path d="m157.384 40.6732c-.359 0-.717.1445-1.076.4334-.353.2832-.664.6826-.933 1.1981-.264.5098-.438 1.1075-.522 1.7929-.123.9404-.053 1.6428.211 2.1073.269.4589.675.6883 1.219.6883.414 0 .81-.1303 1.185-.3909.376-.2606.673-.6571.891-1.1896.068-.102.129-.1813.185-.2379.062-.0567.132-.085.211-.085.084 0 .148.0453.193.136.05.0849.05.2096 0 .3738-.112.4192-.317.8158-.614 1.1897-.291.3682-.672.6684-1.143.9007-.471.2322-1.023.3483-1.657.3483-.913 0-1.583-.3144-2.009-.9431-.42-.6345-.552-1.5069-.395-2.6172.112-.7987.373-1.5295.782-2.1923.409-.6684.93-1.2009 1.564-1.5974.633-.3966 1.336-.5948 2.11-.5948.7 0 1.222.1784 1.564.5353.347.3512.513.7591.496 1.2236-.011.3569-.112.6288-.303.8157-.191.187-.409.2804-.656.2804-.19 0-.344-.051-.462-.1529-.112-.1077-.166-.2493-.16-.4249.006-.1416.028-.2804.067-.4164.04-.1359.059-.2832.059-.4418 0-.2153-.07-.3909-.21-.5268-.14-.1417-.339-.2125-.597-.2125z"/><path d="m160.795 41.7609c-.073-.0227-.121-.0737-.143-.153-.017-.0793.005-.1784.067-.2974.213-.3795.507-.6911.883-.9347.381-.2435.787-.3653 1.219-.3653.583 0 .874.2719.874.8157 0 .1983-.036.4248-.109.6798-.067.2492-.151.5211-.252.8157.392-.7251.824-1.2887 1.295-1.6909.476-.4079.947-.6118 1.412-.6118.376 0 .659.1161.849.3483.191.2323.283.541.278.9262-.012.4249-.126.7619-.345 1.0112-.213.2436-.46.3654-.74.3654-.191 0-.333-.0482-.429-.1445-.089-.0963-.134-.2124-.134-.3484 0-.1133.017-.2237.05-.3313.034-.1133.051-.2351.051-.3654 0-.2663-.112-.3994-.337-.3994-.358 0-.782.3229-1.269.9687-.488.6401-.917 1.5521-1.287 2.7361-.134.4022-.229.7222-.285.9602-.051.2379-.076.4475-.076.6288 0 .1982.048.3483.143.4503.101.0963.151.2124.151.3484 0 .2039-.143.3824-.429.5353-.285.1473-.65.2209-1.093.2209-.381 0-.605-.1302-.672-.3908-.067-.2663-.006-.6685.185-1.2066l1.295-3.9002c.156-.4646.224-.7903.201-.9772-.022-.187-.12-.2804-.294-.2804-.101 0-.207.034-.319.1019-.113.0624-.253.1785-.421.3484-.134.119-.241.1643-.319.136z"/><path d="m173.44 45.3637c-.089.4418-.294.8582-.613 1.2491-.314.3908-.735.7081-1.262.9517-.521.2436-1.132.3653-1.832.3653-.897 0-1.561-.269-1.993-.8072-.432-.5381-.611-1.2774-.538-2.2178.05-.6627.202-1.2887.454-1.8778.252-.5948.58-1.1188.984-1.572.409-.4532.868-.8101 1.378-1.0707.516-.2605 1.06-.3908 1.632-.3908.627 0 1.098.1784 1.412.5353.319.3512.499.7846.538 1.3001.023.1756.098.2662.227.2719.14 0 .216.0679.227.2039.006.1869-.137.3286-.429.4249-.241.0849-.563.2011-.967.3483-.398.1473-.826.3031-1.286.4674s-.908.3257-1.345.4843-.816.2946-1.135.4079c0 .0227-.003.0453-.009.068-.067.7987.045 1.402.337 1.8099.291.4022.712.6033 1.261.6033.465 0 .911-.1388 1.337-.4164s.765-.6939 1.017-1.2491c.146-.2039.283-.3002.412-.2889.179.0114.244.1445.193.3994zm-2.093-4.7075c-.308 0-.625.1388-.95.4164-.32.2776-.608.6571-.866 1.1386s-.443 1.031-.555 1.6485c.303-.1133.644-.2408 1.026-.3824.386-.1473.765-.2917 1.135-.4333.375-.1473.7-.2748.975-.3824.056-.2153.084-.4872.084-.8157 0-.3513-.076-.6373-.227-.8583-.151-.2209-.359-.3314-.622-.3314z"/><path d="m176.014 41.0471-.622-.1359c-.168-.0737-.252-.1841-.252-.3314 0-.221.146-.3314.437-.3314h.689c.225 0 .415-.0963.572-.2889l.891-1.1047c.124-.1699.272-.2549.446-.2549.207 0 .311.1048.311.3144 0 .136-.039.3399-.118.6118l-.227.7478h1.598c.185 0 .277.0849.277.2549 0 .1473-.061.2634-.185.3484-.117.0849-.274.1274-.471.1274h-1.437l-1.312 4.4016c-.168.5495-.213.9233-.134 1.1216.084.1926.255.2889.513.2889.42 0 .846-.2464 1.277-.7392.124-.1303.23-.1898.32-.1785.14.0057.193.0991.16.2804-.068.2663-.233.5353-.496.8073-.258.2662-.583.49-.976.6712-.386.1813-.81.2719-1.269.2719-1.155 0-1.497-.7477-1.026-2.2432l1.144-3.7983c.084-.2719.117-.4673.1-.5863-.011-.1189-.081-.2039-.21-.2549z"/><path d="m182.489 47.3011c.347 0 .628-.0964.841-.289.213-.1982.319-.4446.319-.7392 0-.2379-.081-.4759-.244-.7138-.162-.2379-.496-.558-1-.9602-.577-.4531-.978-.8383-1.202-1.1556-.225-.3172-.334-.6939-.328-1.1301.011-.6345.291-1.1783.84-1.6315.55-.4588 1.306-.6882 2.271-.6882.739 0 1.308.1529 1.706.4588.398.3002.597.6515.597 1.0537 0 .4588-.176.6882-.529.6882-.152 0-.286-.0481-.404-.1444-.118-.102-.235-.2833-.353-.5438-.297-.6062-.712-.9092-1.244-.9092-.398 0-.718.1133-.959.3399-.241.2209-.361.5013-.361.8412 0 .2549.081.5126.243.7732.169.2606.513.6062 1.034 1.0367.617.4815 1.023.8837 1.22 1.2066.201.3229.297.6769.285 1.0621-.022.6005-.297 1.0962-.823 1.487-.527.3909-1.236.5863-2.128.5863-.807 0-1.429-.1727-1.866-.5183-.437-.3512-.656-.7392-.656-1.1641.006-.2039.053-.3654.143-.4843.095-.1247.224-.187.387-.187.308 0 .571.2351.79.7053.185.3739.395.6373.631.7902.235.153.499.2295.79.2295z"/><path clip-rule="evenodd" d="m51.2837 16.852c-.0895.2395-.1784.4859-.2668.7389h-.0627c-.4177 1.1343-.9155 1.9678-1.523 2.5065-.5603.4967-1.214.7428-1.9844.7428-2.1552 0-2.9158-1.9239-2.9158-5.3869 0-3.7084.3676-5.81757 1.1028-9.13714.053-.23964.108-.48558.1649-.73889h-6.8458v.21375c.8321.02216 1.5961.14764 2.098.52514.4667.35101.7068.91993.5643 1.8263-.5682 3.57214-7.5284 17.75184-13.1698 24.05794-.2327.2601-.4631.5069-.6908.7389h10.9448c-.3102-.1808-.5661-.4299-.7727-.7389-1.4544-2.1748-.4697-7.3219 1.1953-12.6001h2.789c-.0209.247-.0413.4934-.061.7389-.2193 2.7285-.3616 5.3375-.3616 7.2987 0 3.7195.5071 5.7717 2.1129 5.7717 1.5083 0 2.9075-1.7729 4.2442-4.4287.2748-.546.5469-1.1293.8168-1.7422-.0654.6816-.0942 1.3219-.0838 1.9143.0485 2.7536.9445 4.4704 2.9455 4.4704 1.8342 0 3.7766-2.3171 5.5379-5.3972.3227-.5643.6393-1.1542.948-1.7602-.1089.6923-.1878 1.3568-.2314 1.9828-.2117 3.0411.4102 5.1746 2.4793 5.1746 1.3536 0 2.943-2.0495 4.4614-4.8049.316-.5734.6289-1.1774.9359-1.7999-.1061.7125-.1796 1.3871-.217 2.0131-.1637 2.7388.3625 4.5489 1.8586 4.5489 1.7724 0 3.3238-2.3251 4.5744-4.9222.4787-.9943.9134-2.0284 1.2995-2.9871-.2544 1.0996-.4645 2.1928-.5896 3.2007-.3321 2.676-.0654 4.7514 1.5615 4.7514 1.3794 0 3.0037-2.1285 4.5482-4.9635.3304-.6063.6571-1.245.9769-1.9021-.1185.7335-.2087 1.447-.261 2.1193-.2105 2.7061.1929 4.7463 1.8395 4.7463 1.8179 0 3.2314-2.3412 4.4535-4.985.362-.783.7071-1.5926 1.041-2.3758.0849-.1991.1691-.3965.2526-.5913-.2421 1.0411-.4565 2.1383-.5825 3.1741-.3139 2.5796-.0797 4.778 1.6389 4.778 1.4395 0 3.1367-2.3088 4.735-5.3232.3265-.6157.6488-1.2607.9639-1.9216-.1125.746-.1961 1.4619-.2473 2.1338-.2278 2.9928.1891 5.111 1.5676 5.111 2.8667 0 6.9292-9.7969 8.9442-15.2936.094-.2561.183-.5029.268-.7389h-1.352c-.719 1.9667-1.944 3.7623-3.4232 3.7623-1.5288 0-1.864-1.2846-1.5765-3.2202.0151-.1017.032-.2052.0504-.3105.0544-.3095.1229-.6338.2034-.9705.3217-1.3441.8354-2.8861 1.4072-4.477.9327-2.56698 2.0307-5.36732 3.2057-7.34144.155-.26162.313-.50874.471-.73888h-6.4234v.17101c.7299 0 1.2502.2023 1.6004.56787 1.5251 1.59191-.1742 6.27974-1.8274 10.84034-.1186.3271-.2369.6535-.3538.9781-.0891.2476-.1774.494-.2644.7389h-.0043c-.383 1.1141-.983 2.2282-1.7155 2.9848-.5605.5789-1.1986.9485-1.8764.9485-1.0987 0-1.7748-.8123-1.7748-2.3514 0-1.8608.7078-4.4999 2.281-6.642.2637-.359.5516-.704.8646-1.029.0079-.0082.0158-.0164.0237-.0246l-.169-.171-.0021.0015c-.4709.3571-.7983.5066-1.1397.5643-.1478.025-.2982.0327-.464.0327-.5598 0-1.0227-.1784-1.5255-.3722-.5978-.2305-1.2521-.4828-2.1932-.4828-2.1539 0-4.3079 1.7903-5.9287 5.8023-.0963.2384-.1908.4847-.2832.7389h-.0043c-.3877 1.1277-.9838 2.1991-1.7086 2.908-.5393.5275-1.1498.8543-1.7988.8543-.9719 0-1.7326-.513-1.7326-2.0949 0-2.1674 1.3727-5.2185 2.5634-6.9567.1951-.2848.3852-.5343.5637-.7389h-5.2822v.2138c.5644 0 .9615.1692 1.2143.5251.2393.3369.3492.841.3492 1.527 0 3.2065-2.2819 7.6529-4.7329 7.6529-.9719 0-1.6903-.6841-1.6903-2.4797 0-.007 0-.0139 0-.0209.0013-.406.0384-.8264.1049-1.252.0455-.2908.1047-.5841.1756-.8769.4208-1.737 1.2531-3.4573 2.0685-4.5504.2212-.2965.4412-.5468.6513-.7389h-4.9441v.2138c.0436 0 .0861.0008.1276.0023.5715.0215.9463.1912 1.1531.5228.4467.7162.1098 2.1876-.7203 4.5504-.0779.2218-.1601.4514-.2465.689-.0053.0147-.0107.0295-.0161.0443-.0007.0018-.0014.0037-.002.0056-.0824.2254-.1633.451-.2428.6766-.3909.9106-.9155 1.7389-1.5275 2.3076-.5194.4826-1.1018.7781-1.719.7781-1.3522 0-2.4087-.6841-2.4087-2.7362 0-.124.0029-.2487.0085-.3743.0065-.1466.0168-.2944.0307-.4433.029-.3107.0737-.6264.1325-.9474.1969-1.0736.5524-2.206 1.0115-3.4081h3.1271l.7184-1.8812h-3.1271l1.3523-3.42024h-.2536c-.3254.38904-.6443.74797-.9624 1.08412-1.1215 1.18522-2.2331 2.08732-3.5827 3.02742-.2138.149-.4336.2989-.6603.451-.1222.082-.2465.1647-.373.2482l.8168-2.2455h-.0422c-.3716.4201-.6979.6115-.9907.6984-.2467.0731-.4695.0722-.6755.0713-.0223-.0001-.0445-.0002-.0664-.0002-.399 0-.7133-.1048-1.0451-.2155-.3709-.1237-.7637-.2548-1.3213-.2548-2.1455 0-3.6933 2.0787-5.1 5.8451zm33.0256 0c-.1231.3166-.2297.6319-.318.938-.112.3886-.1944.7624-.243 1.1053-.0337.2374-.0512.4599-.0512.6623 0 1.1543.5493 1.8383 1.4368 1.8383 2.3241 0 4.5215-4.8738 4.5215-7.097 0-1.1116-.6338-1.6246-1.3945-1.6246-1.6519 0-3.1502 2.1168-3.9516 4.1777zm-24.7796-3.4081-.9486 2.6079h-.2113c.0018-.0257.0035-.0512.0051-.0766.0151-.2369.0196-.4574.0144-.6623-.0064-.2577-.0282-.4907-.0635-.7009-.2081-1.2388-.8876-1.6812-1.6886-1.6812-1.8171 0-3.2961 2.3942-3.3384 4.9594-.0422 2.2232 1.141 3.463 3.0426 3.463.9028 0 1.706-.3931 2.3805-1.0374.6332-.6048 1.1531-1.431 1.5356-2.3611.0421-.1216.0845-.2429.1271-.3638l.0016-.0044c.004-.0112.008-.0224.0119-.0335.0842-.236.1674-.4699.2493-.701.3388-.9564.6551-1.8644.9272-2.6693.087-.2574.1695-.5043.2468-.7388zm1.272.7388h-.7619l-.9486 2.608h-1.5076l.057-.7924c.0794-1.1043-.0941-1.6894-.285-1.9777-.1606-.2423-.3834-.3509-.7184-.3509-.57 0-1.1972.3808-1.7252 1.1868-.5194.7929-.8632 1.8934-.8822 3.046v.0019c-.0187.9813.2339 1.6439.6026 2.0542.3622.4031.9196.6557 1.709.6557 1.297 0 2.4869-1.118 3.2317-2.9201.0407-.1175.0817-.2346.1228-.3513l.001-.0027c.403-1.129.7822-2.2094 1.1048-3.1575zm.387-3.1585.3839-1.05543h-1.417l-.218.24653c-.2896.3274-.4997.4336-.6361.477-.1455.0464-.2681.0463-.4996.0461-.0167-.0001-.034-.0001-.0518-.0001-.2793 0-.4917-.0705-.851-.1899l-.0247-.0083c-.3727-.1238-.843-.2721-1.4907-.2721-1.4344 0-2.598.7552-3.5586 1.9862-.8731 1.1188-1.6239 2.6836-2.3217 4.5978h-.0572l-.1772.4812c-.381 1.0346-.8056 1.7279-1.2646 2.1583-.4385.411-.9362.6098-1.5576.6098-.4283 0-.741-.0944-.9797-.2439-.2393-.1499-.4531-.3858-.6346-.7468-.378-.7516-.5704-1.9511-.5704-3.6573 0-3.8956.4092-5.97141 1.2496-9.71244l.2027-.90247h-8.4925v1.67232l.7118.01896c.7834.02086 1.3354.13928 1.6503.35729.1373.09503.2259.20656.2791.35387.0565.15665.0902.40266.0302.78486-.1317.82717-.6762 2.39761-1.5557 4.44221-.8687 2.0195-2.0346 4.4348-3.3627 6.9203-2.6672 4.9917-5.9438 10.1817-8.7394 13.0308l-1.2355 1.2592h15.4298l-2.3651-1.3789c-.4025-.2347-.7186-.6736-.9126-1.4018-.1957-.7347-.2471-1.6984-.1605-2.8565.1633-2.1806.8022-4.8884 1.6667-7.7018h1.4582c-.2173 2.7161-.3592 5.3237-.3592 7.2987 0 1.8683.1241 3.4163.4929 4.5175.1866.5573.4542 1.0579.8524 1.4228.4156.3808.9264.5703 1.4987.5703 1.1343 0 2.1012-.716 2.9074-1.6652.4919-.5792.9645-1.2924 1.4207-2.1.1105.8921.3357 1.6856.71 2.3296.6089 1.048 1.5866 1.6493 2.8846 1.6493 1.2605 0 2.4225-.812 3.4289-1.8808.7069-.7508 1.3966-1.6918 2.0572-2.7419.0172 1.017.1547 1.9404.4656 2.6919.2315.5594.5709 1.052 1.054 1.4029.4885.3548 1.0732.5279 1.7281.5279.5945 0 1.1471-.2545 1.6328-.606.4894-.3542.9651-.8455 1.4219-1.4152.4595-.5732.9192-1.2503 1.3719-1.9961.0243.7832.123 1.4874.3158 2.0759.1707.5207.4302.9978.8222 1.3486.4059.3633.9091.5501 1.4743.5501.8421 0 1.5892-.3832 2.225-.9212.6349-.5371 1.2079-1.2686 1.7221-2.0726.1646-.2574.3254-.5257.4822-.802-.0032.2313.0005.4552.012.6704.0422.7918.1921 1.5573.5583 2.1455.3983.6395 1.027 1.0226 1.8462 1.0226.5944 0 1.147-.2545 1.6328-.606.4894-.3542.9651-.8455 1.4219-1.4152.4785-.5969.9571-1.3064 1.4279-2.0888.0067.6063.0561 1.1707.1596 1.6723.1314.6369.3635 1.2412.7693 1.6959.4284.4802 1.0055.7418 1.6921.7418.8518 0 1.5907-.3796 2.2136-.923.6179-.539 1.1619-1.2725 1.6481-2.0756.1544-.2551.3056-.5217.4535-.7966-.0004.1623.0026.3213.0096.4765.0364.8139.1818 1.6142.5541 2.2325.4045.6716 1.0556 1.0862 1.9246 1.0862.5939 0 1.1456-.2534 1.6308-.6041.4886-.3532.9629-.8431 1.4181-1.4113.5415-.6759 1.0829-1.4969 1.6129-2.405-.0006.8931.0737 1.6971.244 2.3602.1377.5362.353 1.0403.6957 1.4209.3629.403.8461.6393 1.4177.6393.5907 0 1.1369-.2617 1.6123-.6151.4803-.3569.9481-.8514 1.3979-1.4238.9003-1.1455 1.8056-2.703 2.659-4.3921 1.711-3.3856 3.276-7.4269 4.23-10.0885l.356-.9907h-2.905l-.176.483c-.341.9336-.79 1.7896-1.299 2.3976-.517.6185-1.008.8817-1.4382.8817-.2572 0-.4182-.0491-.5193-.1043-.0956-.0521-.1736-.1286-.2393-.2509-.1486-.2765-.2263-.7751-.1512-1.5603.1482-1.5491.832-3.7078 1.681-6.0693 1.061-2.92093 2.3-6.03698 3.59-7.91317l.798-1.16054h-8.5525v1.64879h.7311c.4426 0 .7234.09049.9039.2038.173.10857.3074.27113.4042.52237.2117.54973.2119 1.44316-.0241 2.68121-.3787 1.98734-1.2771 4.46674-2.1876 6.97974-.1522.4199-.3046.8407-.4551 1.2603h-.0107l-.1707.4964c-.3166.921-.7847 1.8178-1.3304 2.4691-.5587.6667-1.1025.9678-1.5709.9678-.3538 0-.573-.1206-.7238-.3151-.1704-.2201-.3199-.6241-.3199-1.2974 0-2.0116.9129-5.0672 2.9603-7.1784l.5064-.5221-1.1289-1.1421-.5076.3851c-.3036.2304-.4983.3319-.6473.3832-.142.0489-.2851.0674-.5195.0674-.4198 0-.7595-.1303-1.2901-.3337-.0392-.015-.0794-.0304-.1207-.0462-.5869-.224-1.3088-.4752-2.3079-.4752-2.6699 0-5.0488 2.2528-6.7161 6.5412h-.0201l-.1706.4964c-.3158.9185-.7712 1.7686-1.2961 2.3743-.5332.6151-1.0576.8916-1.5207.8916-.3652 0-.577-.0949-.705-.2288-.1323-.1384-.2965-.4451-.2965-1.1272 0-1.1096.4181-2.5589 1.0259-3.9502.605-1.3851 1.3506-2.6056 1.9186-3.2568l1.0705-1.2275h-16.3259l1.3523-3.42022h-1.6723l-.219.2619c-1.1688 1.39751-2.2474 2.39132-3.5395 3.35872zm12.7721.5036-.638.583c-.5453.4983-1.2444 1.5555-1.8112 2.8729-.5621 1.3063-.9483 2.7634-.9483 4.0181 0 .8155.1658 1.2483.329 1.4626.1391.1826.3294.2782.6302.2782.3882 0 .8308-.1768 1.3076-.5754.4749-.3969.9384-.9783 1.3472-1.6833.8221-1.418 1.347-3.2037 1.347-4.6553 0-.6525-.1132-.9653-.2204-1.1076-.0721-.0957-.2087-.2056-.612-.2056h-.7311zm-6.226.9876-.6368 1.6673h-3.1228c-.6016 1.6559-.9579 3.1134-.9579 4.4343 0 .9043.2313 1.3666.477 1.609.2491.246.6369.3883 1.2006.3883.4632 0 .9875-.2765 1.5207-.8916.3989-.4602.7576-1.0616 1.0455-1.7269.0777-.2202.1567-.4403.237-.6601.3678-1.0102.6555-1.8591.8509-2.5656.1977-.7151.2873-1.238.2873-1.6095 0-.369-.0868-.476-.1203-.5078-.0442-.0419-.1914-.1374-.6276-.1374zm66.3882 6.1963c.049-.2821.118-.5821.206-.8919.09-.3154.199-.6409.327-.9678.801-2.0609 2.299-4.1777 3.951-4.1777.761 0 1.395.513 1.395 1.6246 0 2.2232-2.198 7.097-4.522 7.097-.887 0-1.437-.684-1.437-1.8383 0-.2538.028-.5393.08-.8459zm-1.855-.6427c.058-.1661.114-.3257.17-.4781 0-.0023.001-.0046.002-.0068.006-.0162.012-.0323.018-.0484.086-.2347.173-.4626.263-.6837 1.621-4.012 3.775-5.8023 5.928-5.8023.942 0 1.596.2523 2.194.4828.503.1938.965.3722 1.525.3722.166 0 .316-.0077.464-.0327.342-.0577.669-.2072 1.14-.5643l.002-.0015.169.171c-.008.0082-.016.0164-.024.0246-.313.325-.601.67-.864 1.029-1.574 2.1421-2.281 4.7812-2.281 6.642 0 1.5391.676 2.3514 1.774 2.3514.707 0 1.369-.401 1.946-1.0219.701-.7542 1.276-1.8328 1.646-2.9114h.005c.092-.2518.186-.4982.282-.7389 1.407-3.5176 3.277-5.8023 5.887-5.8023.914 0 1.745.2613 2.531.5085.557.1752 1.091.3432 1.616.4061.14.0167.279.0259.417.0259.111 0 .214-.004.314-.0158.076-.0089.151-.0221.226-.0413.099-.0248.199-.0597.306-.1078-.065-.0136-.134-.0243-.207-.0322-.101-.0111-.21-.0166-.325-.0166v-.2138h1c.072-.0467.148-.0984.228-.1555.007-.0051.014-.0103.022-.0155l.169.171h3.737c-.19.2153-.384.4638-.577.7389-1.225 1.7464-2.423 4.5638-2.423 6.7429 0 1.7101.845 2.437 2.155 2.437.962 0 1.963-.5668 2.793-1.4222.665-.6852 1.221-1.5557 1.559-2.4684h.016c.088-.253.177-.4994.266-.7389 1.407-3.7664 2.955-5.8451 5.1-5.8451.558 0 .951.1311 1.322.2548.331.1107.646.2155 1.045.2155.022 0 .044.0001.066.0002.206.0009.429.0018.676-.0713.292-.0869.619-.2783.99-.6984h.043l-1.944 5.3441h-.212c.002-.0257.004-.0512.006-.0766.015-.2369.019-.4574.014-.6623-.006-.2577-.028-.4908-.064-.7009-.208-1.2388-.887-1.6812-1.688-1.6812-1.568 0-2.885 1.7836-3.243 3.9212-.001.0067-.002.0134-.004.0201-.054.3327-.086.6738-.092 1.0181-.042 2.2232 1.141 3.463 3.043 3.463.898 0 1.697-.3885 2.369-1.0262.632-.5995 1.151-1.4191 1.535-2.3431.046-.131.092-.262.139-.393l.002-.0044c.004-.0112.008-.0225.012-.0337.082-.2323.166-.4661.251-.7008.117-.3246.235-.651.353-.9781 1.654-4.5606 3.353-9.24843 1.828-10.84034-.35-.36557-.871-.56787-1.601-.56787v-.17101h6.424c-.152.22109-.308.46811-.467.73888-1.16 1.97493-2.489 5.21324-3.779 8.86644-.106.3013-.213.6055-.318.912.307-.1168.607-.2315.895-.3454 1.607-.6366 2.823-1.2444 2.823-2.0061 0-.0571-.004-.11-.014-.1589-.073-.3901-.436-.5251-1-.5251v-.2138h7.184v.2993c-.526 0-1.139.1629-1.846.4396-.888.3478-1.923.8754-3.12 1.4849-.633.3224-1.311.6678-2.036 1.0216-.644.3142-1.324.6351-2.044.9526-.219.0966-.441.1929-.667.2885-.002.0009-.004.0017-.006.0026l.042.0855c1.049-.4408 2.024-.6322 2.829-.5838 1.302.0784 2.157.7853 2.157 2.0802 0 .5719-.166 1.1858-.333 1.8053-.171.6308-.343 1.2675-.343 1.8714 0 1.0261.507 1.4109 1.268 1.4109 1.69 0 3-3.2492 3.676-5.1304h1.353c-.084.2372-.173.4839-.266.7389-2.052 5.629-6.146 15.2936-8.693 15.2936-2.873 0-1.141-5.8145.803-11.7999.549-1.7101.803-2.608.803-3.292 0-1.0261-.592-1.6246-1.564-1.6246-1.19 0-2.259.8751-2.924 1.963-.343.5606-.579 1.1776-.669 1.7605-.027.1735-.041.344-.041.509 0 .8123.338 1.4109 1.099 1.4109.301 0 .565-.0941.793-.2422.542-.3508.888-1.0043 1.066-1.4252h.254c-.013.0313-.025.0625-.037.0937-.074.1875-.147.3733-.217.5574-.161.4219-.312.8348-.454 1.2381-.84 2.3882-1.366 4.4448-1.79 6.1054-.775 3.0333-1.213 4.7459-2.615 4.7459-1.525 0-1.999-2.0393-1.737-5.0693.055-.6348.143-1.3131.259-2.0252-.316.6192-.641 1.2212-.972 1.7958-1.746 3.0309-3.667 5.2987-5.481 5.2987-2.225 0-3.084-2.123-2.931-5.4338.029-.6165.093-1.2741.189-1.9669-.296.6036-.6 1.1931-.91 1.7591-1.751 3.1964-3.7 5.6416-5.576 5.6416-3.507 0-2.493-7.5674.55-16.0325.873-2.425 1.246-4.0143.986-4.9088-.042-.1448-.101-.2715-.177-.3805-.011-.0157-.022-.031-.034-.0459-.065-.0838-.141-.1562-.229-.2175-.064.0871-.127.1749-.19.2634-.06.0856-.12.1719-.179.2589-.018.0267-.036.0535-.054.0804-2.585 3.8554-3.767 8.9741-4.718 13.0963-.429 1.8607-.812 3.5184-1.255 4.7652-1.818 5.1304-4.353 7.2253-9.339 7.2253-.746 0-1.69-.0503-2.642-.2087-.265-.0441-.531-.0966-.794-.1587-.024-.0057-.048-.0115-.072-.0174v-.0855c.008-.0059.017-.0119.025-.0178.216-.1568.427-.327.631-.509 2.021-1.8025 3.437-4.7683 4.153-7.3906.079-.2863.148-.5685.21-.8446.003-.0151.007-.0301.01-.0452h.084c.004.0071.007.0142.01.0212.118.2434.285.4672.497.6607.486.4438 1.209.729 2.113.729 1.393 0 2.419-.6579 3.167-1.6427.545-.718.943-1.6098 1.228-2.5471-.603.863-1.155 1.5498-1.752 2.0247-.615.4898-1.278.7542-2.093.7542-1.48 0-2.233-.8804-2.521-2.1986-.096-.4401-.141-.9291-.143-1.4503-.203.4549-.411.9076-.621 1.3539-1.884 3.9913-4.039 7.4682-5.805 7.4682-1.719 0-1.953-2.1984-1.639-4.778.126-1.0358.34-2.133.582-3.1741-.083.1948-.167.3922-.252.5913-.334.7832-.679 1.5928-1.041 2.3758-1.222 2.6438-2.636 4.985-4.454 4.985-1.869 0-2.136-2.6308-1.721-5.8802.096-.7493.227-1.5316.384-2.3221-.361.725-.725 1.424-1.091 2.0863-1.887 3.4187-3.813 5.8594-5.665 5.8594-1.352 0-1.986-1.1543-1.986-3.5912 0-3.212 1.291-8.6351 2.427-13.0333.218-.8446.431-1.6514.627-2.3975.084-.3183.165-.6256.242-.92.026-.0973.051-.1932.075-.2876.003-.0118.006-.0236.01-.0354h-.085l-9.128 19.8375h-.169l.296-19.923h-.084c-.231.5928-.456 1.1981-.674 1.8119-2.263 6.3695-3.754 13.6552-1.924 17.3722.13.265.277.5118.442.7389h-10.522c.204-.232.411-.4788.619-.7389 5.052-6.3061 11.18-20.4858 11.382-24.05794.041-.90637-.261-1.47529-.77-1.8263-.386-.26584-.89-.40669-1.452-.47449-.223-.0269-.455-.0423-.693-.04945-.014-.00042-.028-.00082-.043-.00118l.043-.21377h6.423l.38 15.22013h.042l7.311-15.22013h6.804l-.043.21377c-.577 0-1.136.18789-1.668.52512-2.773 1.76013-4.797 7.58844-4.797 12.00154 0 1.9239.887 3.0782 2.24 3.0782.723 0 1.338-.2896 1.871-.7952.621-.5894 1.132-1.4722 1.573-2.5317zm-.682-.267c-.359.8567-.746 1.5461-1.175 2.0345-.491.5587-1.002.8206-1.587.8206-.447 0-.789-.1792-1.042-.5209-.268-.3635-.467-.961-.467-1.8185 0-2.5142.692-5.5376 1.815-7.9173.56-1.18879 1.211-2.17964 1.904-2.86264.694-.68436 1.374-1.00784 2.015-1.00784h.6l.334-1.69153h-8.153l-6.238 12.98711-.324-12.98711h-7.736l-.33 1.66876.869.02253c.798.02072 1.389.13742 1.757.37235.168.10743.286.23749.365.40447.081.17138.141.42299.124.79823-.047.80998-.463 2.36277-1.196 4.40597-.723 2.0162-1.724 4.4293-2.882 6.9139-2.324 4.9904-5.235 10.1785-7.739 13.0236l-1.083 1.23h14.731l6.153-13.3728c-.086.3652-.171.7312-.254 1.0967-.697 3.0767-1.265 6.1859-1.265 8.3735 0 1.2561.158 2.3087.578 3.0695.218.3936.511.7193.891.9425.38.2227.805.3181 1.248.3181 1.151 0 2.201-.6933 3.124-1.6389.808-.8283 1.601-1.9338 2.371-3.2012-.053.9827-.021 1.8939.137 2.6589.131.6369.363 1.2412.769 1.6959.429.4802 1.006.7418 1.692.7418.852 0 1.591-.3796 2.214-.923.618-.539 1.162-1.2725 1.648-2.0756.154-.2551.306-.5217.454-.7966-.001.1623.002.3213.009.4765.037.8139.182 1.6142.554 2.2325.405.6716 1.056 1.0862 1.925 1.0862.594 0 1.146-.2534 1.631-.6041.488-.3532.963-.8431 1.418-1.4113.551-.6879 1.102-1.526 1.641-2.4532-.829 2.6015-2.318 5.3339-4.306 6.7614l-.308.2209v1.0486l.559.1366c1.301.3177 2.674.4054 3.68.4054 2.595 0 4.653-.5463 6.306-1.844 1.641-1.2879 2.79-3.2441 3.721-5.8708.396-1.1148.74-2.526 1.097-4.0617.061-.2589.121-.5219.183-.7885.307-1.3294.634-2.7471 1.024-4.1937.754-2.7938 1.725-5.6263 3.175-8.0084-.03.2938-.093.649-.197 1.0743-.172.7009-.442 1.5495-.807 2.5644-1.531 4.2594-2.572 8.3433-2.774 11.3941-.1 1.5132-.001 2.862.416 3.8632.213.5111.521.961.955 1.2825.441.3262.964.4843 1.54.4843 1.266 0 2.418-.8227 3.408-1.899.745-.8088 1.466-1.8355 2.152-2.9794.053 1.2599.287 2.3757.783 3.2291.609 1.048 1.587 1.6493 2.885 1.6493 1.26 0 2.422-.812 3.429-1.8808.674-.7167 1.333-1.6066 1.966-2.5994-.009.9841.08 1.8623.302 2.5711.162.5177.409.9952.788 1.3485.394.3679.888.5606 1.446.5606.429 0 .824-.1136 1.174-.3475.34-.2274.6-.5435.809-.8942.406-.6806.7-1.6325.993-2.7238.113-.4182.228-.8675.35-1.347.489-1.9118 1.101-4.3043 2.167-7.1238-.928 2.8681-1.813 5.7432-2.128 7.9357-.162 1.1235-.194 2.1828.075 2.994.139.4216.372.8133.743 1.0961.374.2856.825.4105 1.31.4105.568 0 1.085-.2766 1.521-.622.445-.353.884-.8405 1.31-1.4039.853-1.1287 1.731-2.6665 2.57-4.3435 1.683-3.3614 3.268-7.4006 4.246-10.1522l.351-.9886h-2.904l-.175.4866c-.336.9351-.813 2.1601-1.397 3.1421-.292.4917-.592.887-.886 1.1517-.294.265-.527.35-.706.35-.267 0-.365-.0671-.402-.1039-.036-.037-.135-.1687-.135-.5681 0-.4813.138-1.0132.313-1.6596l.016-.0604c.159-.5869.348-1.284.348-1.9567 0-.6611-.179-1.2554-.547-1.7335-.325-.4215-.763-.7099-1.257-.8832.396-.1988.776-.3921 1.139-.5769.386-.197.754-.3843 1.102-.5582.8-.3992 1.49-.7239 2.091-.9489.607-.2271 1.072-.3321 1.431-.3321h.731v-1.7771h-8.379c1.047-2.67107 2.06-4.85152 2.924-6.10747l.798-1.16054h-8.553v1.64879h.731c.443 0 .724.09049.904.2038.173.10857.308.27113.404.52237.212.54973.212 1.44316-.024 2.68121-.378 1.98744-1.277 4.46694-2.187 6.97994-.211.583-.423 1.1677-.63 1.7486-.045.127-.09.2541-.135.3812-.745 1.786-1.93 2.8926-3.22 2.8926-.789 0-1.347-.2526-1.709-.6557-.369-.4103-.621-1.0729-.603-2.0542v-.0019c.019-1.1526.363-2.2531.883-3.046.528-.806 1.155-1.1868 1.725-1.1868.335 0 .558.1086.718.3509.191.2883.365.8734.285 1.9777l-.057.7924h1.508l2.481-6.82193h-1.417l-.218.24653c-.289.3274-.499.4336-.636.477-.145.0464-.268.0463-.499.0461l-.052-.0001c-.28 0-.492-.0705-.851-.1899l-.025-.0083c-.373-.1238-.843-.2721-1.491-.2721-1.434 0-2.598.7552-3.558 1.9862-.873 1.1188-1.624 2.6836-2.322 4.5978h-.008l-.178.4797c-.34.9168-.929 1.7911-1.62 2.4282-.701.6462-1.431.9827-2.048.9827-.525 0-.846-.1433-1.041-.3496-.2-.2112-.383-.6076-.383-1.3485 0-1.1226.363-2.4935.918-3.8025.554-1.3056 1.265-2.4715 1.897-3.1878l1.085-1.2304h-3.01l.166-.4653c.236-.66568.743-1.29434 1.38-1.78222.639-.48981 1.343-.78752 1.905-.85434l.645-.07684v-1.56616l-.687-.04211c-.95-.05829-1.851-1.11232-1.726-2.21413l.093-.8227h-1.544l-.175.48816c-.219.61336-.681 1.21771-1.283 1.67458-.602.45695-1.293.72806-1.935.74472l-.713.01848v1.61527l.672.05512c1.045.08574 1.843 1.19238 1.739 2.45147l-.063.776h-.529l-.391-.3951-.503.3596c-.017.0122-.034.024-.05.0355h-1.509v.3958c-.425-.0614-.887-.2063-1.451-.3833l-.07-.0221c-.747-.2341-1.636-.5034-2.626-.5034-1.652 0-3.02.7832-4.136 2.0414-1.013 1.142-1.841 2.6984-2.538 4.4998h-.02l-.17.4964c-.317.921-.785 1.8178-1.331 2.4691-.558.6667-1.102.9678-1.571.9678-.353 0-.573-.1206-.723-.3151-.171-.2201-.32-.6241-.32-1.2974 0-2.0116.913-5.0672 2.96-7.1784l.506-.5221-1.128-1.1421-.508.3851c-.304.2304-.498.3319-.647.3832-.142.0489-.285.0674-.52.0674-.42 0-.759-.1303-1.29-.3337-.039-.015-.079-.0304-.121-.0462-.587-.224-1.308-.4752-2.308-.4752-2.768 0-5.224 2.4224-6.898 7.0252-.054.1486-.109.3045-.165.466zm48.53-6.2883c-.248.6502-.498 1.3258-.748 2.021.396-.1681.747-.3319 1.04-.4963.31-.1738.511-.3247.627-.4487.022-.0232.039-.0434.052-.0606-.061-.0084-.14-.0137-.24-.0137h-.731zm.442 8.6303c.228-.7877.319-1.2515.319-1.6125 0-.3706-.105-.5727-.209-.68-.102-.1055-.287-.2058-.624-.2058-.69 0-1.41.432-1.991 1.1658-.579.7319-.912 1.632-.912 2.3279 0 .3185.069.4976.126.5773.024.0343.047.0522.072.0641.025.0126.076.0306.17.0306.227 0 .447-.1141.673-.3662.229-.2555.402-.5881.514-.8531l.19-.4481zm-36.299 7.5673c.081-.1615.161-.3244.242-.4884.07.1702.15.3334.242.4883zm.615.2025.103.2204c.218.4657.783.9214 1.742.9813-.793-.1608-1.411-.5799-1.845-1.2017zm-30.099 5.4371.239-16.1159c-.761 2.4122-1.373 4.8734-1.705 7.1493-.259 1.7726-.344 3.4095-.209 4.8113.135 1.4083.488 2.5231 1.058 3.3062zm-74.7165-16.4989c-.0874.2461-.1742.4925-.2604.7389h2.2819c.1707-1.8998.3606-3.7802.5438-5.4846.0596-.5538.1184-1.089.1756-1.6003.0269-.24.0534-.4748.0795-.70365.0013-.01177.0027-.02353.004-.03527h-.0845c-.2907.67792-.5891 1.40162-.8904 2.15762-.6167 1.5469-1.2461 3.2286-1.8495 4.9273zm.777 0h.5777c.0668-.7234.136-1.4413.206-2.1448-.2634.7042-.5257 1.4222-.7837 2.1448zm43.8193 3.5975c.0981.1247.2391.2076.4791.2076.3244 0 .7286-.1737 1.194-.6031.4579-.4225.906-1.0311 1.3024-1.7374.8048-1.4339 1.2941-3.0801 1.2941-4.0177 0-.4136-.1154-.6194-.2086-.7177-.0932-.0982-.2387-.168-.4549-.168-.3767 0-.8051.1799-1.2704.5842-.4626.402-.9083.9816-1.2994 1.6577-.7935 1.3718-1.2629 2.9632-1.2629 3.9025 0 .4686.1123.7469.2266.8919zm50.3462 0c.098.1247.239.2076.479.2076.325 0 .729-.1737 1.194-.6031.458-.4225.906-1.0311 1.303-1.7374.804-1.4339 1.294-3.0801 1.294-4.0177 0-.4136-.116-.6194-.209-.7177-.093-.0982-.239-.168-.455-.168-.377 0-.805.1799-1.27.5842-.463.402-.909.9816-1.3 1.6577-.793 1.3718-1.263 2.9632-1.263 3.9025 0 .4686.113.7469.227.8919zm14.275.0593c.115.1522.267.2338.492.2338.299 0 .694-.1612 1.16-.5714.456-.4016.912-.9827 1.32-1.6639.827-1.3826 1.352-3.0018 1.352-4.0374 0-.4678-.1-.7309-.2-.862-.077-.1001-.206-.1947-.505-.1947-.404 0-.845.1781-1.311.5602-.465.3816-.911.9336-1.302 1.585-.791 1.319-1.262 2.8869-1.262 3.9137 0 .5368.125.863.256 1.0367zm15.258-13.52067c-.004.00051-.009.00103-.013.00156-.326.0403-.674.13768-1.024.28365-.888.37065-1.787 1.05462-2.375 1.91305-.198.28951-.361.59885-.476.92271h-.211c.002-.0249.004-.0498.005-.0746.01-.15613.008-.31241-.005-.46733-.015-.18007-.044-.35829-.086-.53222-.185-.75122-.623-1.42234-1.247-1.81624-.313-.19716-.672-.32486-1.07-.35839l-.006-.00045v-.21377c.006-.00015.012-.00031.018-.00049.382-.01198.766-.09272 1.138-.22888.894-.32774 1.715-.97661 2.256-1.76084.2-.29026.363-.59907.476-.917h.211c-.002.0248-.005.04959-.007.07437-.014.16912-.011.33741.007.50296.018.16173.051.32083.097.47552.21.70963.698 1.32635 1.314 1.67733.3.17065.63.27848.973.3036.008.00061.017.00118.025.00169zm-16.245 12.48397c0 1.2826.591 2.0094 1.479 2.0094 2.197 0 4.563-4.5746 4.563-7.0116 0-1.1116-.464-1.7956-1.436-1.7956-2.494 0-4.606 4.4036-4.606 6.7978z" fill-rule="evenodd"/></g></svg>