<svg fill="none" height="70" viewBox="0 0 214 70" width="214" xmlns="http://www.w3.org/2000/svg"><g fill="#150703"><path d="m22.5203 32.4642c.324 0 .623-.0249.8224-.0748.2492-.0997.324-.2492.2991-.5483-.0249-.5981-.4985-1.5202-.4985-2.4922 0-2.0436 2.4673-3.0655 5.2337-3.0655 2.268 0 3.24.6729 3.24 2.3428 0 1.5202-.3988 2.5919-.3988 3.2648 0 .2741.0748.4237.324.4984.1495.025.3738.0499.648.0499.2741 0 .4984-.0249.7227-.0499.3489-.0498.5483-.1246.5982-.4486.1744-1.4953.2243-2.8411.2243-4.1371 0-6.0811-1.3209-10.6169-5.6824-14.4799-.1993-.1745-.3738-.2492-.5732-.2492-.1993 0-.3489.0747-.5981.2492-4.7103 3.8879-5.8817 9.1964-5.8817 14.4799 0 1.3707.0997 2.7166.2243 4.0624.0498.4486.2492.5483.5981.5732.2243.0249.4486.0249.6979.0249zm1.0966-7.078c-.1745 0-.2991-.1246-.2991-.3489 0-2.5919 1.3458-7.1278 3.6885-9.0967.2243-.1744.324-.2741.4486-.2741s.2243.1246.3988.2741c1.6698 1.62 3.4143 5.0593 3.4143 8.0001 0 .3489-.0498.5483-.4236.5483-.4486 0-1.1963-.1246-2.567-.1246-2.4923 0-4.1123 1.0218-4.6605 1.0218z"/><path d="m43.032 17.1868c-1.8193 0-3.1901 1.1713-3.6636 1.1713-.1744 0-.2243-.1744-.2243-.4237 0-.3489-.1495-.4984-.4735-.5233-.2243-.025-.3988-.025-.5732-.025-.1745 0-.324 0-.5234.025-.3738.0249-.648.1744-.6978.7975-.1994 2.4175-.2742 4.6854-.2742 6.729 0 2.6917.1496 5.0094.3489 6.8537.0499.5234.2742.6231.6231.648.1745.0249.3988.0249.5981.0249.1745 0 .324 0 .4736-.0249.3987-.0499.5483-.2243.5483-.6729 0-.4735-.349-4.3365-.349-6.9783 0-3.1153.4237-4.0125 1.0966-4.6605.648-.6231 1.5452-.972 2.4923-.972 1.8193 0 2.1682 1.4206 2.1682 3.7882 0 4.8848-.5483 8.4238-.5483 8.9721 0 .2742.1246.4486.4237.4985.2492.0249.5234.0498.7975.0498.1745 0 .3489 0 .4985-.0249.2741-.0249.4984-.1994.5483-.5483.1495-.9969.5483-4.81.5483-8.1496 0-4.8848-1.3708-6.5546-3.8381-6.5546z"/><path d="m55.5717 32.4642c.324 0 .6231-.0249.8224-.0748.2493-.0997.324-.2492.2991-.5483-.0249-.5981-.4984-1.5202-.4984-2.4922 0-2.0436 2.4673-3.0655 5.2337-3.0655 2.2679 0 3.2399.6729 3.2399 2.3428 0 1.5202-.3988 2.5919-.3988 3.2648 0 .2741.0748.4237.324.4984.1495.025.3739.0499.648.0499s.4985-.0249.7228-.0499c.3489-.0498.5482-.1246.5981-.4486.1744-1.4953.2243-2.8411.2243-4.1371 0-6.0811-1.3209-10.6169-5.6823-14.4799-.1994-.1745-.3739-.2492-.5732-.2492-.1994 0-.349.0747-.5982.2492-4.7103 3.8879-5.8817 9.1964-5.8817 14.4799 0 1.3707.0997 2.7166.2243 4.0624.0499.4486.2493.5483.5982.5732.2243.0249.4486.0249.6978.0249zm1.0966-7.078c-.1745 0-.2991-.1246-.2991-.3489 0-2.5919 1.3458-7.1278 3.6885-9.0967.2243-.1744.324-.2741.4486-.2741.1247 0 .2243.1246.3988.2741 1.6698 1.62 3.4144 5.0593 3.4144 8.0001 0 .3489-.0499.5483-.4237.5483-.4486 0-1.1963-.1246-2.567-.1246-2.4923 0-4.1122 1.0218-4.6605 1.0218z"/><path d="m74.289 32.6885c2.6169 0 4.2867-1.5452 4.2867-3.5141 0-.6729-.1246-1.1962-.4237-1.6199-.0498-.0748-.1246-.1246-.2243-.1246-.1745 0-.2492.0997-.2991.2492-.4984 1.62-1.3458 2.9907-3.2897 2.9907-2.4175 0-3.0904-2.3427-3.0904-5.3334 0-3.9627 1.3209-6.1808 3.0654-6.1808 1.7945 0 1.9191 1.9938 2.0437 4.0624.0249.324.1744.4486.4486.4486.5483 0 1.5452-.8972 1.5452-1.7944 0-2.6418-1.2461-4.7353-3.863-4.7353-3.0904 0-5.4829 2.5919-5.4829 8.8226 0 4.2118 1.5452 6.729 5.2835 6.729z"/><path d="m84.7352 13.7475c-.2243 0-.9969.2243-1.7445.7476-.4736.324-.5733.3988-.648 1.5951-.0499.947-.1246 1.3458-.5732 1.3458-.2243 0-.6231-.0249-.9969-.0249-.324 0-.5234.1495-.6231.5981-.0498.1994-.0997.4984-.0997.7477v.299c.0249.2991.0997.349.3489.349s.7726-.025 1.0717-.025c.3738 0 .5234.1745.4735.648-.0997.972-.1994 2.8162-.1994 4.8599 0 2.5919.1496 5.4829.7228 7.4019.0748.2742.2991.349.648.349.5233 0 .9221-.0997 1.4455-.3739.1744-.0997.2492-.2243.2492-.3987 0-.0748-.0249-.1994-.0499-.324-.4984-2.592-.8224-6.106-.8224-8.8226 0-1.0966.0499-2.0685.1246-2.7664.0499-.4236.1496-.7227.5234-.7227.6978 0 1.4455.1495 1.9689.1495.1744 0 .324-.0747.3738-.299.0498-.2493.0748-.4985.0748-.7726 0-.1496 0-.324-.025-.4985-.0498-.2991-.1744-.4237-.3987-.4237-.5982 0-1.5452.0748-1.944.0748-.324 0-.4236-.0997-.4236-.324 0-1.0717.8473-2.6667.8473-3.0654 0-.1745-.0997-.324-.324-.324z"/><path d="m92.2042 32.6137c1.6698 0 2.7414-1.271 3.4891-1.271.2492 0 .324.1495.324.4735 0 .3988.1744.5483.4486.5732.2492.025.5234.025.7975.025.1994 0 .3988 0 .5732-.025.2742-.0249.4736-.1993.5234-.6729.2991-2.2928.4237-4.4611.4237-6.5296 0-2.4923-.1495-4.8599-.3739-6.9036-.0747-.6978-.3489-.8224-.8224-.8722-.1994-.025-.324-.025-.5234-.025-.1993 0-.3738 0-.5233.025-.3739.0747-.5483.1993-.5483.5981 0 .5234.5483 3.1651.5483 6.754 0 2.6418-.3988 4.0374-1.3209 4.8598-.5234.5234-1.2212.8973-2.1932.8973-1.5452 0-2.3925-.972-2.3925-4.1372 0-3.4891.6479-7.8505.6479-8.4237 0-.2991-.1495-.4736-.4486-.5234-.1246-.0249-.324-.0499-.5483-.0499s-.4984.025-.6729.0499c-.3987.0498-.5732.2741-.648.7975-.1744 1.0467-.4984 4.9097-.4984 7.701 0 4.2618.8723 6.6792 3.7384 6.6792z"/><path d="m106.516 32.4642c.847 0 3.29-.0498 3.913-.2243.398-.0748.548-.2991.548-.6729 0-.2243-.224-1.8443-.224-3.0655 0-1.2461.124-3.1651.124-5.9066 0-3.4891-1.196-5.458-4.685-5.458-2.642 0-4.486 1.2711-4.486 2.6169 0 .299.149.6978.349.9221.124.1246.224.1745.324.1745.124 0 .224-.0499.349-.1745.872-.9221 1.969-1.5203 3.264-1.5203 1.944 0 2.817.9471 2.817 2.7913 0 .5234-.125.8723-.723.972-4.212.5483-6.879 2.1433-6.879 5.3583 0 2.7415 1.67 4.187 5.309 4.187zm2.293-3.0655c0 .648-.225 1.0468-1.595 1.0468-2.667 0-3.838-.4735-3.838-2.268 0-2.1931 1.969-3.3645 4.785-3.3645.498 0 .648.2243.648.7975z"/><path d="m117.191 31.9658c0-.6979-.424-4.0375-.424-9.5204 0-6.0562.449-9.4456.449-9.8693 0-.3489-.225-.4735-.449-.4984-.124-.025-.324-.025-.523-.025-.2 0-.324 0-.524.025-.324.0498-.498.0996-.573.623-.448 3.6387-.673 8.025-.673 12.1123 0 2.4923.1 4.8599.349 6.9035.05.5732.349.6979.698.7228.199.0249.449.0249.673.0249.199 0 .374 0 .523-.0249.299-.0249.474-.1496.474-.4735z"/><path d="m123.762 31.9658c0-.6979-.423-4.0375-.423-9.5204 0-6.0562.448-9.4456.448-9.8693 0-.3489-.224-.4735-.448-.4984-.125-.025-.324-.025-.524-.025-.199 0-.324 0-.523.025-.324.0498-.499.0996-.573.623-.449 3.6387-.673 8.025-.673 12.1123 0 2.4923.099 4.8599.349 6.9035.049.5732.348.6979.697.7228.2.0249.449.0249.673.0249.2 0 .374 0 .524-.0249.299-.0249.473-.1496.473-.4735z"/><path d="m126.545 30.8692c-.05.2243-.074.5483-.074.8723 0 .1744 0 .4236.024.5981.05.2991.125.4735.524.4735 7.526 0 9.47-5.9814 9.47-14.5298 0-.5483-.049-.8224-.473-.8722-.175-.025-.399-.025-.623-.025-.274 0-.573 0-.823.025-.249.0249-.473.1495-.473.4735 0 .3489.124 1.595.124 2.6168 0 2.0188-.224 4.0873-.548 5.2088-.124.3988-.299.5234-.573.5234-1.421 0-4.287-1.8692-4.287-7.4767 0-.2742.025-.7228.025-.8225 0-.4237-.174-.4735-.423-.5233-.125-.025-.349-.0499-.574-.0499-.274 0-.523 0-.698.0249-.548.0499-.573.3739-.573 1.1963 0 4.9845 1.845 7.9503 5.707 9.4207.15.0498.25.1246.25.2492 0 .5483-.723 1.1464-1.869 1.5701-.948.3489-2.144.5732-3.465.5732-.374 0-.573.0499-.648.4736z"/><path d="m150.111 15.168c1.969 0 2.742 2.0188 2.742 3.3646 0 .1744-.025.3489-.025.5732 0 .2492.15.3987.399.3987.274 0 .847-.3987 1.171-.7227.349-.3489.573-.648.573-1.1963 0-1.9689-1.719-4.5109-4.81-4.5109-4.561 0-7.302 5.3334-7.302 11.9627 0 4.7851 2.193 7.7011 6.904 7.7011 4.012 0 6.031-1.944 6.031-5.0593 0-1.4206-.075-2.7913-.075-4.0624 0-.3489-.224-.4984-.498-.4984-.499 0-.923.3489-2.717.6729-1.321.2492-1.371.324-1.371.972 0 .3489.2.5483.598.5483 1.571 0 1.894.5732 1.894 1.8692 0 2.3427-1.221 3.4392-3.763 3.4392-2.816 0-4.71-1.5451-4.71-6.0312 0-5.8069 2.293-9.4207 4.959-9.4207z"/><path d="m163.517 30.6449c-2.268 0-3.165-1.944-3.165-5.5079 0-3.8131 1.122-6.0063 3.24-6.0063 1.944 0 3.165 2.1683 3.165 6.0063 0 3.5639-.897 5.5079-3.24 5.5079zm-.149 2.0436c3.389 0 5.582-2.1433 5.582-7.402 0-5.0094-1.545-8.1496-5.308-8.1496-3.639 0-5.533 3.2898-5.533 8.1496 0 5.2587 1.894 7.402 5.259 7.402z"/><path d="m176.052 30.6449c-2.268 0-3.166-1.944-3.166-5.5079 0-3.8131 1.122-6.0063 3.24-6.0063 1.944 0 3.166 2.1683 3.166 6.0063 0 3.5639-.898 5.5079-3.24 5.5079zm-.15 2.0436c3.39 0 5.583-2.1433 5.583-7.402 0-5.0094-1.546-8.1496-5.309-8.1496-3.638 0-5.533 3.2898-5.533 8.1496 0 5.2587 1.895 7.402 5.259 7.402z"/><path d="m188.885 30.4455c-2.218 0-3.489-1.2711-3.489-5.0343 0-4.3615 1.171-6.3054 3.065-6.3054 1.471 0 3.29 1.4953 3.29 4.8848 0 5.9315-.374 6.4549-2.866 6.4549zm-.075 2.1433c1.819 0 3.265-.324 3.913-.5732.374-.1745.573-.4735.623-.7975.324-1.8692.449-4.6107.449-7.4518 0-4.2368-.275-8.8475-.549-10.9659-.074-.5732-.249-.6729-.523-.7227-.199-.025-.399-.025-.623-.025s-.449 0-.673.025c-.274.0249-.399.1246-.399.4984 0 .6729.524 3.0655.524 5.5328 0 .2492-.1.3489-.25.3489-.074 0-.174-.0249-.249-.0748-.772-.4984-1.744-1.2461-3.115-1.2461-2.816 0-4.686 2.7166-4.686 8.5982 0 4.1123 1.571 6.8537 5.558 6.8537z"/><path d="m53.9773 57.4614c6.6294 0 9.1466-1.62 9.1466-5.6325 0-1.9938-.8723-3.5639-2.8412-4.9595-.1495-.1246-.2243-.2243-.2243-.3489 0-.1496.1246-.2742.324-.4486 1.1714-.9471 2.0436-2.1932 2.0436-3.9627 0-1.0717-.3239-1.8941-.9221-2.4923-1.0966-1.0965-2.9658-1.4205-5.6823-1.4205-1.4455 0-2.9159.0498-3.6138.1246-.3738.0249-.6479.1994-.6978.5981-.4735 3.0406-.7227 6.4051-.7227 10.1434 0 2.4674.0747 5.0842.3738 7.7509.0499.4486.3489.5483.648.5732.5732.0499 1.3458.0748 2.1682.0748zm-.4486-10.4923c-.4236 0-.5233-.2991-.5233-.7976 0-2.2181.1495-5.2586.5233-5.7072.3988-.4237 1.5203-.4735 2.7913-.4735 2.1932 0 3.8381.4984 3.8381 2.3178 0 2.6168-3.0904 4.6605-6.6294 4.6605zm2.3926 8.3739c-1.6698 0-2.0187-.1246-2.4175-.5483-.5234-.6231-.623-2.0436-.623-3.863 0-1.1464.1993-1.4953 1.3956-1.9688 1.4455-.5982 2.8162-.9222 3.4642-.9222 1.4455 0 3.1901 1.7446 3.1901 3.7882 0 2.6169-2.2679 3.5141-5.0094 3.5141z"/><path d="m68.3229 56.7387c0-.4985-.9221-3.8879-.9221-8.374 0-3.3147.6729-3.9627 1.3707-3.9627.648 0 1.3957.0997 1.8443.0997.1994 0 .3738-.0747.4486-.4984.0498-.2492.0748-.5981.0748-1.0966 0-.648-.1745-.7975-.5483-.7975-.5982 0-1.296.2492-2.1683.972-.1246.0997-.2492.1495-.3489.1495-.1495 0-.2741-.0997-.2741-.4486 0-.2492-.0499-.4237-.324-.4735-.1496-.025-.2742-.025-.4237-.025-.2991 0-.5982.025-.7726.0748-.1994.0499-.3739.2492-.4735.648-.1994.7726-.4237 2.567-.4237 6.8786 0 2.8661.1744 5.5078.4735 6.7789.0748.4237.2991.623.6231.6729.1993.0249.4486.0249.6978.0249.2741 0 .5483-.0249.7227-.0498.324-.0499.4237-.2493.4237-.5732z"/><path d="m82.0532 53.723c0-.947-.2741-1.4205-.5483-1.4205-.0996 0-.1495.0498-.1993.1495-.8225 2.1433-1.8941 3.1153-3.8381 3.1153-1.9439 0-2.8661-1.271-2.8661-2.7415 0-.4486.1745-.7975.5234-1.0966 2.1433-1.7694 6.9783-1.595 6.9783-5.9813 0-2.4923-1.7944-3.6387-3.8381-3.6387-3.4891 0-6.2057 2.567-6.2057 7.9502 0 4.6107 1.4705 7.5515 5.3334 7.5515 2.5421 0 4.6605-1.5452 4.6605-3.8879zm-2.0685-7.8754c0 2.1184-3.4144 3.1651-5.1091 4.2617-.0997.0498-.1745.0748-.2742.0748-.2492 0-.3738-.2742-.3738-.5733 0-3.0405 1.3957-5.5327 3.9627-5.5327 1.1215 0 1.7944.6729 1.7944 1.7695z"/><path d="m89.2722 57.3866c.8473 0 3.2897-.0498 3.9128-.2243.3988-.0747.5483-.299.5483-.6729 0-.2243-.2243-1.8442-.2243-3.0654 0-1.2462.1246-3.1652.1246-5.9066 0-3.4892-1.1963-5.4581-4.6854-5.4581-2.6418 0-4.4861 1.2711-4.4861 2.6169 0 .2991.1496.6978.349.9221.1246.1246.2243.1745.324.1745.1246 0 .2243-.0499.3489-.1745.8723-.9221 1.9688-1.5202 3.2648-1.5202 1.944 0 2.8162.947 2.8162 2.7913 0 .5233-.1246.8723-.7227.9719-4.2119.5483-6.8786 2.1434-6.8786 5.3584 0 2.7414 1.6698 4.1869 5.3085 4.1869zm2.2928-3.0654c0 .648-.2243 1.0467-1.595 1.0467-2.6667 0-3.8381-.4735-3.8381-2.2679 0-2.1932 1.9689-3.3646 4.7852-3.3646.4984 0 .6479.2244.6479.7976z"/><path d="m101.742 55.3679c-2.2185 0-3.4896-1.271-3.4896-5.0343 0-4.3614 1.1714-6.3054 3.0656-6.3054 1.47 0 3.29 1.4954 3.29 4.8848 0 5.9315-.374 6.4549-2.866 6.4549zm-.075 2.1434c1.819 0 3.265-.324 3.913-.5733.373-.1744.573-.4735.623-.7975.324-1.8692.448-4.6106.448-7.4518 0-4.2368-.274-8.8475-.548-10.9659-.075-.5732-.249-.6729-.523-.7227-.2-.0249-.399-.0249-.623-.0249-.225 0-.449 0-.673.0249-.274.0249-.399.1246-.399.4984 0 .6729.523 3.0655.523 5.5328 0 .2492-.099.3489-.249.3489-.075 0-.174-.0249-.249-.0747-.773-.4985-1.745-1.2462-3.115-1.2462-2.8167 0-4.6859 2.7166-4.6859 8.5983 0 4.1122 1.5701 6.8537 5.5579 6.8537z"/><path d="m115.978 57.3866c.274 0 .523 0 .698-.0249.299-.0249.473-.2243.473-.623 0-.8973-.523-3.4892-.523-5.483 0-1.7944 1.146-2.3178 2.043-2.3178 2.318 0 4.511 2.3677 5.184 7.6512.05.4735.15.6231.598.7228.225.0498.449.0747.673.0747.249 0 .499 0 .673-.0498.349-.0249.524-.2742.524-.7726 0-3.6138-2.268-7.4269-4.786-8.7478-.174-.0747-.249-.2243-.249-.3489s.075-.2492.249-.3988c2.567-2.218 4.636-6.2306 4.636-8.2493 0-.299-.125-.4486-.424-.4984-.149-.0249-.374-.0499-.623-.0499-.324 0-.698 0-.947.0499-.249.0498-.399.1246-.448.4735-.798 4.0125-3.091 7.3023-6.405 8.673-.25.0997-.349.1495-.474.1495-.15 0-.224-.1246-.224-.3489 0-3.514 1.046-7.3521 1.046-8.2742 0-.4985-.149-.6231-.548-.6729-.199-.0249-.448-.0499-.698-.0499-.274 0-.598.025-.722.0499-.399.0747-.549.1744-.623.8473-.374 2.592-.748 7.2525-.748 11.7385 0 1.919.075 3.8131.224 5.4829.075.7228.349.9471.848.972.149.0249.348.0249.573.0249z"/><path d="m136.09 42.1092c-1.82 0-3.191 1.1713-3.664 1.1713-.175 0-.224-.1744-.224-.4236 0-.349-.15-.4985-.474-.5234-.224-.0249-.399-.0249-.573-.0249-.175 0-.324 0-.523.0249-.374.0249-.648.1744-.698.7975-.2 2.4175-.274 4.6854-.274 6.7291 0 2.6916.149 5.0094.348 6.8536.05.5234.275.6231.624.648.174.0249.398.0249.598.0249.174 0 .324 0 .473-.0249.399-.0498.548-.2243.548-.6729 0-.4735-.348-4.3365-.348-6.9783 0-3.1153.423-4.0125 1.096-4.6605.648-.623 1.545-.9719 2.492-.9719 1.82 0 2.169 1.4205 2.169 3.7882 0 4.8848-.549 8.4237-.549 8.972 0 .2742.125.4486.424.4985.249.0249.523.0498.798.0498.174 0 .348 0 .498-.0249.274-.0249.498-.1994.548-.5483.15-.9969.549-4.81.549-8.1496 0-4.8848-1.371-6.5546-3.838-6.5546z"/><path d="m145.223 56.963c0-.5733-.374-2.8661-.374-6.2556 0-4.8598.275-7.5515.275-8.0001 0-.299-.15-.3987-.424-.4237-.175-.0249-.349-.0249-.524-.0249-.199 0-.373 0-.548.0249-.324.025-.498.0997-.573.5483-.324 2.3427-.474 5.3085-.474 8.1746 0 2.1184.1 4.162.25 5.8568.05.3987.249.4735.523.4984.224.0249.449.0499.698.0499s.523-.025.748-.0499c.224-.0249.423-.1246.423-.3987zm-1.022-16.4987c.997 0 1.421-.5732 1.421-1.3458 0-.7975-.424-1.3957-1.421-1.3957-.922 0-1.42.5982-1.42 1.3957 0 .7726.498 1.3458 1.42 1.3458z"/><path d="m154.235 37.025c-.175-.0997-.598-.2991-1.346-.2991-2.343 0-3.365 1.9689-3.564 4.9098-.05.5483-.174.7975-.473.7975-.225 0-.623-.0499-.947-.0499-.2 0-.3.0997-.374.3739-.075.324-.15.7476-.15 1.1215 0 .1495 0 .2492.025.3738s.1.1745.299.1745c.15 0 .573-.025.947-.025s.573.1496.549.5982c-.075 1.3956-.1 3.3147-.1 5.2835 0 2.592.075 5.2338.149 6.8039.025.2741.299.324.648.3489.175.0249.399.0249.623.0249.424 0 .823-.0997 1.022-.1745.2-.0747.274-.3239.225-.623-.424-3.2649-.624-6.3054-.624-9.1216 0-.8474.025-1.6449.05-2.4673.025-.5234.125-.7976.524-.7976.573 0 1.345.1246 1.869.1246.174 0 .324-.0747.374-.299.074-.2991.099-.6231.099-.8972 0-.1496 0-.324-.025-.4736-.049-.299-.199-.3738-.423-.3738-.399 0-1.321.0249-1.795.0249-.324 0-.448-.1495-.448-.4735 0-1.919.548-3.0156 1.595-3.0156.498 0 .822.2492.997.2492.124 0 .249-.1246.299-.324.075-.2243.224-.8972.249-1.1713.025-.3489-.1-.5234-.274-.6231z"/><path d="m164.852 53.723c0-.947-.274-1.4205-.548-1.4205-.1 0-.15.0498-.199.1495-.823 2.1433-1.895 3.1153-3.839 3.1153s-2.866-1.271-2.866-2.7415c0-.4486.175-.7975.524-1.0966 2.143-1.7694 6.978-1.595 6.978-5.9813 0-2.4923-1.794-3.6387-3.838-3.6387-3.489 0-6.206 2.567-6.206 7.9502 0 4.6107 1.471 7.5515 5.334 7.5515 2.542 0 4.66-1.5452 4.66-3.8879zm-2.068-7.8754c0 2.1184-3.415 3.1651-5.109 4.2617-.1.0498-.175.0748-.275.0748-.249 0-.373-.2742-.373-.5733 0-3.0405 1.395-5.5327 3.962-5.5327 1.122 0 1.795.6729 1.795 1.7695z"/></g></svg>