<svg fill="none" height="77" viewBox="0 0 214 77" width="214" xmlns="http://www.w3.org/2000/svg" xmlns:xlink="http://www.w3.org/1999/xlink"><clipPath id="a"><path d="m0 0h214v77h-214z"/></clipPath><g clip-path="url(#a)" fill="#000"><path clip-rule="evenodd" d="m106.5 2.46268-69.4808 35.90622 69.4808 35.9062 69.481-35.9062zm0-2.593784-74.5 38.500004 74.5 38.5 74.5-38.5z" fill-rule="evenodd"/><path d="m84.0752 38.1416v1.8584h-10.4092c-.0143-.4655.0609-.9131.2256-1.3428.265-.709.6875-1.4072 1.2676-2.0947.5872-.6875 1.4323-1.4824 2.5351-2.3848 1.7116-1.4036 2.8682-2.5136 3.4698-3.33.6015-.8236.9023-1.6006.9023-2.3311 0-.7663-.2757-1.4108-.8271-1.9336-.5443-.5299-1.2569-.7949-2.1377-.7949-.931 0-1.6758.2793-2.2344.8379s-.8415 1.332-.8486 2.3203l-1.9873-.2041c.136-1.4824.6481-2.6104 1.5361-3.3838.888-.7806 2.0804-1.1709 3.5771-1.1709 1.5111 0 2.7071.4189 3.5879 1.2568.8809.8379 1.3213 1.8763 1.3213 3.1153 0 .6302-.1289 1.2496-.3867 1.8584-.2578.6087-.6875 1.2496-1.2891 1.9228-.5944.6732-1.5862 1.597-2.9756 2.7715-1.1601.974-1.9049 1.6364-2.2343 1.9873-.3295.3438-.6016.6911-.8164 1.042z"/><path d="m92.293 35.8428 1.9336-.2578c.222 1.0957.5979 1.887 1.1279 2.374.5371.4798 1.1888.7197 1.9551.7197.9095 0 1.6758-.3151 2.2988-.9453.6306-.6302.9456-1.4108.9456-2.3418 0-.888-.29-1.6185-.8704-2.1914-.5801-.5801-1.3177-.8701-2.2129-.8701-.3652 0-.82.0716-1.3643.2148l.2149-1.6972c.1289.0143.2327.0214.3115.0214.8236 0 1.5648-.2148 2.2236-.6445.6589-.4297.9883-1.0921.9883-1.9873 0-.709-.2399-1.2962-.7197-1.7617s-1.0993-.6983-1.8584-.6983c-.752 0-1.3786.2364-1.8799.709-.5013.4727-.8235 1.1817-.9668 2.127l-1.9336-.3438c.2364-1.2962.7735-2.2988 1.6114-3.0078.8378-.7161 1.8798-1.0742 3.1259-1.0742.8594 0 1.6508.1862 2.3741.5586.7233.3652 1.2743.8665 1.6543 1.5039.387.6374.58 1.3141.58 2.0303 0 .6803-.183 1.2998-.548 1.8584s-.906 1.0026-1.6219 1.332c.9309.2148 1.6539.6624 2.1699 1.3428.516.6732.773 1.5182.773 2.5351 0 1.375-.501 2.5423-1.503 3.502-1.003.9525-2.2706 1.4287-3.8032 1.4287-1.3821 0-2.5315-.4118-3.4482-1.2354-.9095-.8235-1.4287-1.8906-1.5576-3.2011z"/><path d="m103.615 40.2686 4.566-16.2852h1.547l-4.555 16.2852z"/><path d="m116.85 40v-3.7705h-6.832v-1.7725l7.186-10.205h1.579v10.205h2.127v1.7725h-2.127v3.7705zm0-5.543v-7.1006l-4.931 7.1006z"/><path d="m130.707 44.3721v-5.586c-.301.4226-.723.7735-1.268 1.0528-.537.2793-1.11.4189-1.718.4189-1.354 0-2.521-.5407-3.502-1.6221-.974-1.0813-1.461-2.5638-1.461-4.4472 0-1.1459.197-2.1735.591-3.083.401-.9095.977-1.597 1.729-2.0625.759-.4727 1.59-.709 2.492-.709 1.411 0 2.521.5944 3.33 1.7832v-1.5254h1.741v15.7803zm-5.962-10.1084c0 1.4681.308 2.5709.924 3.3086.616.7304 1.353 1.0957 2.213 1.0957.823 0 1.532-.3474 2.127-1.042.594-.7018.891-1.7653.891-3.1905 0-1.5182-.315-2.6604-.945-3.4267-.623-.7663-1.357-1.1494-2.202-1.1494-.838 0-1.551.358-2.138 1.0742-.58.709-.87 1.819-.87 3.3301z"/><path d="m139.902 38.2705.28 1.708c-.545.1146-1.032.1719-1.461.1719-.702 0-1.246-.111-1.633-.333s-.659-.5121-.817-.8701c-.157-.3653-.236-1.128-.236-2.2881v-6.5635h-1.418v-1.5039h1.418v-2.8252l1.923-1.1602v3.9854h1.944v1.5039h-1.944v6.6709c0 .5514.032.9059.097 1.0635.071.1575.182.2829.333.376.157.0931.379.1396.666.1396.215 0 .497-.0251.848-.0752z"/><path d="m97.8662 57.3075 1.7369.4167c-.3641 1.3548-1.0207 2.3893-1.9697 3.1036-.943.7086-2.098 1.0629-3.4648 1.0629-1.4146 0-2.5665-.2721-3.4558-.8163-.8834-.5499-1.5579-1.3435-2.0234-2.3809-.4596-1.0374-.6894-2.1513-.6894-3.3417 0-1.2981.2596-2.429.7789-3.3927.5253-.9694 1.2683-1.7035 2.2293-2.2023.9669-.5045 2.0294-.7568 3.1873-.7568 1.3131 0 2.4173.3175 3.3126.9523.8953.6349 1.519 1.5278 1.8712 2.6785l-1.7101.3827c-.3044-.907-.746-1.5674-1.325-1.9813-.579-.4138-1.3071-.6207-2.1845-.6207-1.0087 0-1.8533.2296-2.5337.6888-.6745.4591-1.149 1.077-1.4236 1.8536-.2745.771-.4118 1.5674-.4118 2.3894 0 1.06.1612 1.9869.4835 2.7805.3282.788.8356 1.3775 1.522 1.7686.6864.3912 1.4295.5868 2.2293.5868.9729 0 1.7965-.2665 2.471-.7993.6745-.5329 1.1311-1.3237 1.3698-2.3724z"/><path d="m100.31 66 5.041-12.4655h1.871l5.372 12.4655h-1.979l-1.531-3.7754h-5.488l-1.441 3.7754zm3.787-5.1189h4.45l-1.37-3.4522c-.417-1.0487-.728-1.9104-.931-2.5849-.167.7992-.403 1.5929-.707 2.3808z"/><path d="m114.982 61.9655v-12.4655h4.951c.871 0 1.537.0397 1.996.119.645.1021 1.185.2976 1.621.5868.435.2834.784.683 1.047 1.1989.269.5158.403 1.0827.403 1.7006 0 1.0601-.355 1.9585-1.065 2.6955-.711.7312-1.994 1.0969-3.85 1.0969h-3.367v5.0678zm1.736-6.5389h3.394c1.122 0 1.919-.1984 2.39-.5952.472-.3968.707-.9551.707-1.6751 0-.5215-.14-.9665-.42-1.335-.275-.3741-.639-.6207-1.093-.7397-.292-.0737-.832-.1106-1.62-.1106h-3.358z"/></g></svg>