<svg fill="none" height="55" viewBox="0 0 215 55" width="215" xmlns="http://www.w3.org/2000/svg"><g fill="#150703"><path clip-rule="evenodd" d="m184.481 1.1355s0 2.78562-.577 5.66296c-.406 2.02321-1.097 4.09174-2.274 5.26914-1.178 1.1773-3.246 1.8686-5.269 2.2744-2.878.5773-5.663.5773-5.663.5773s2.785 0 5.663.5772c2.023.4059 4.091 1.0971 5.269 2.2745 1.177 1.1773 1.868 3.2459 2.274 5.2691.577 2.8773.577 5.6629.577 5.6629s0-2.7856.578-5.6629c.406-2.0232 1.097-4.0918 2.274-5.2691 1.177-1.1774 3.246-1.8686 5.269-2.2745 2.878-.5772 5.663-.5772 5.663-.5772s-2.785 0-5.663-.5773c-2.023-.4058-4.092-1.0971-5.269-2.2744-1.177-1.1774-1.868-3.24593-2.274-5.26914-.578-2.87734-.578-5.66296-.578-5.66296zm0 7.99089c-.042.13451-.086.26812-.132.40055-.426 1.23146-1.031 2.45496-1.918 3.34176-.887.8867-2.11 1.4918-3.342 1.9181-.132.0458-.266.09-.4.1325.134.0425.268.0866.4.1324 1.232.4263 2.455 1.0314 3.342 1.9182s1.492 2.1103 1.918 3.3417c.046.1324.09.266.132.4005.043-.1345.087-.2681.133-.4005.426-1.2314 1.031-2.4549 1.918-3.3417s2.11-1.4919 3.342-1.9182c.132-.0458.266-.0899.4-.1324-.134-.0425-.268-.0867-.4-.1325-1.232-.4263-2.455-1.0314-3.342-1.9181-.887-.8868-1.492-2.1103-1.918-3.34176-.046-.13243-.09-.26604-.133-.40055z" fill-rule="evenodd"/><path d="m45.79 33.4246c0 3.24-1.95 6.42-7.14 6.42-4.98 0-7.65-3.51-7.65-9.93 0-8.07 2.85-13.92 8.07-13.92 4.71 0 6.3 4.68 6.3 8.61 0 .57-.24 1.08-.9 1.44-.18.15-1.11.42-1.38.42s-.42-.18-.42-.51c0-.139.0079-.3098.0157-.4755.0072-.1563.0143-.3081.0143-.4245 0-2.94-.81-6.54-3.72-6.54-3.24 0-5.22 4.62-5.22 10.92 0 4.8 1.5 7.68 5.22 7.68 3.06 0 4.86-2.07 5.52-5.28.06-.24.21-.39.39-.39.51 0 .9.57.9 1.98z"/><path d="m52.1434 37.5132c.052.6498.0872 1.0905.0872 1.3114 0 .39-.21.54-.57.57-.18.03-.39.03-.63.03-.27 0-.57 0-.81-.03-.42-.03-.78-.18-.84-.87-.3-2.46-.42-5.31-.42-8.31 0-4.92.27-10.2.81-14.58.09-.63.3-.69.69-.75.24-.03.39-.03.63-.03s.48 0 .63.03c.27.03.54.18.54.6 0 .1066-.0236.3695-.061.7853-.1413 1.572-.479 5.3295-.479 11.0947 0 4.8645.2771 8.3275.4228 10.1486z"/><path clip-rule="evenodd" d="m66.7108 33.3046c.33 0 .66.57.66 1.71 0 2.82-2.55 4.68-5.61 4.68-4.65 0-6.42-3.54-6.42-9.09 0-6.48 3.27-9.57 7.47-9.57 2.46 0 4.62 1.38 4.62 4.38 0 3.6064-2.7153 4.6516-5.2588 5.6305-1.1802.4543-2.3235.8943-3.1412 1.5695-.42.36-.63.78-.63 1.32 0 1.77 1.11 3.3 3.45 3.3s3.63-1.17 4.62-3.75c.06-.12.12-.18.24-.18zm-6.1748-3.6315c2.0204-1.0327 4.3448-2.2209 4.3448-4.1385 0-1.32-.81-2.13-2.16-2.13-3.09 0-4.77 3-4.77 6.66 0 .36.15.69.45.69.12 0 .21-.03.33-.09.5058-.3274 1.139-.651 1.8052-.9915z" fill-rule="evenodd"/><path clip-rule="evenodd" d="m80.7705 39.1546c-.75.21-3.69.27-4.71.27-4.38 0-6.39-1.74-6.39-5.04 0-3.87 3.21-5.79 8.28-6.45.72-.12.87-.54.87-1.17 0-2.22-1.05-3.36-3.39-3.36-1.56 0-2.88.72-3.93 1.83-.15.15-.27.21-.42.21-.12 0-.24-.06-.39-.21-.24-.27-.42-.75-.42-1.11 0-1.62 2.22-3.15 5.4-3.15 4.2 0 5.64 2.37 5.64 6.57 0 1.9711-.0535 3.5889-.0966 4.892-.0291.8785-.0534 1.6139-.0534 2.218 0 1.029.1323 2.2932.2117 3.0517.034.3251.0583.5573.0583.6383 0 .45-.18.72-.66.81zm-3.87-2.16c1.65 0 1.92-.48 1.92-1.26v-4.56c0-.69-.18-.96-.78-.96-3.39 0-5.76 1.41-5.76 4.05 0 2.16 1.41 2.73 4.62 2.73z" fill-rule="evenodd"/><path d="m89.1769 22.0705c.8199-.4177 2.0332-1.0359 3.4834-1.0359 2.97 0 4.62 2.01 4.62 7.89 0 4.02-.48 8.61-.66 9.81-.06.42-.33.63-.66.66-.18.03-.39.03-.6.03-.33 0-.66-.03-.96-.06-.36-.06-.51-.27-.51-.6 0-.1657.0416-.558.1038-1.1458.1859-1.7544.5562-5.2498.5562-9.6542 0-2.85-.42-4.56-2.61-4.56-1.14 0-2.22.42-3 1.17-.81.78-1.32 1.86-1.32 5.61 0 2.2341.2073 5.1938.3306 6.9545.0523.7454.0894 1.2759.0894 1.4455 0 .54-.18.75-.66.81-.18.03-.36.03-.57.03-.24 0-.51 0-.72-.03-.42-.03-.69-.15-.75-.78-.24-2.22-.42-5.01-.42-8.25 0-2.46.09-5.19.33-8.1.06-.75.39-.93.84-.96.24-.03.42-.03.63-.03s.42 0 .69.03c.39.03.57.21.57.63 0 .3.06.51.27.51.1926 0 .5084-.1609.9266-.3741z"/><path d="m115.018 39.4659c-.482.0056-.965.0112-1.443.0187-2.28 0-4.5-.03-6.15-.09-.66-.03-1.02-.15-1.05-.87-.06-1.47-.09-3.09-.09-4.8 0-5.34.36-11.34 1.5-16.41.12-.54.39-.78.81-.81.9-.09 2.67-.12 4.5-.12 2.31 0 4.71.03 6.15.15.42.03.57.21.57.42 0 .39-.3 1.56-.54 2.13-.09.21-.24.33-.48.33-.097 0-.219-.0376-.358-.0803-.076-.0235-.157-.0485-.242-.0697-1.05-.27-2.7-.63-5.58-.63-1.32 0-1.83.18-2.19.6-.72.87-1.08 4.05-1.08 6.48 0 .78.21 1.02.84 1.02.437 0 .952-.0884 1.566-.1936.904-.155 2.02-.3464 3.414-.3464 1.41 0 2.61.27 2.61.93 0 .39-.15 1.08-.33 1.56-.15.36-.3.42-.54.42-.151 0-.417-.0641-.769-.1492-.7-.1689-1.745-.4208-2.921-.4208-3.09 0-4.29.81-4.29 3.9 0 4.32.33 4.74 2.31 4.74 3.03 0 5.73-.27 7.35-.78.058-.0174.11-.0337.158-.0486.201-.0624.327-.1014.472-.1014.21 0 .36.09.48.39.18.45.3 1.65.3 2.07 0 .39-.27.63-.75.66-1.329.0675-2.776.0844-4.227.1013z"/><path clip-rule="evenodd" d="m132.831 39.1546c-.75.21-3.69.27-4.71.27-4.38 0-6.39-1.74-6.39-5.04 0-3.87 3.21-5.79 8.28-6.45.72-.12.87-.54.87-1.17 0-2.22-1.05-3.36-3.39-3.36-1.56 0-2.88.72-3.93 1.83-.15.15-.27.21-.42.21-.12 0-.24-.06-.39-.21-.24-.27-.42-.75-.42-1.11 0-1.62 2.22-3.15 5.4-3.15 4.2 0 5.64 2.37 5.64 6.57 0 1.9711-.054 3.5889-.097 4.892-.029.8785-.053 1.6139-.053 2.218 0 1.029.132 2.2932.212 3.0517.034.3251.058.5573.058.6383 0 .45-.18.72-.66.81zm-3.87-2.16c1.65 0 1.92-.48 1.92-1.26v-4.56c0-.69-.18-.96-.78-.96-3.39 0-5.76 1.41-5.76 4.05 0 2.16 1.41 2.73 4.62 2.73z" fill-rule="evenodd"/><path d="m137.101 33.0946c.15 0 .3.12.36.36.42 2.07 1.56 3.75 4.29 3.75 2.07 0 2.97-.9 2.97-2.34 0-1.35-.66-2.25-3.3-3.54-3.09-1.5-4.71-2.73-4.71-5.43 0-2.82 2.04-4.92 5.58-4.92 1.56 0 3.12.45 3.99 1.05.39.24.57.45.57.84 0 .42-.66 1.53-1.05 1.98-.12.15-.27.24-.42.24s-.27-.06-.42-.24c-.75-.9-1.62-1.35-3.06-1.35-1.65 0-2.67.9-2.67 2.13 0 1.44.84 2.04 3.42 3.36 3.03 1.53 4.71 2.79 4.71 5.79 0 3.15-2.1 4.92-5.7 4.92-3.66 0-5.49-2.04-5.49-4.29 0-.84.21-1.59.48-2.01.12-.18.3-.3.45-.3z"/><path d="m152.752 37.8026c.054.5341.092.9109.092 1.112 0 .33-.24.45-.51.48s-.6.06-.9.06-.57-.03-.84-.06c-.33-.03-.57-.12-.63-.6-.18-2.04-.3-4.5-.3-7.05 0-3.45.18-7.02.57-9.84.09-.54.3-.63.69-.66.21-.03.42-.03.66-.03.21 0 .42 0 .63.03.33.03.51.15.51.51 0 .1258-.018.3982-.045.8162-.091 1.3755-.285 4.327-.285 8.8138 0 2.891.226 5.1193.358 6.418z"/><path d="m153.324 17.4346c0 .93-.51 1.62-1.71 1.62-1.11 0-1.71-.69-1.71-1.62 0-.96.6-1.68 1.71-1.68 1.2 0 1.71.72 1.71 1.68z"/><path d="m160.425 37.5132c.052.6498.087 1.0905.087 1.3114 0 .39-.21.54-.57.57-.18.03-.39.03-.63.03-.27 0-.57 0-.81-.03-.42-.03-.78-.18-.84-.87-.3-2.46-.42-5.31-.42-8.31 0-4.92.27-10.2.81-14.58.09-.63.3-.69.69-.75.24-.03.39-.03.63-.03s.48 0 .63.03c.27.03.54.18.54.6 0 .1066-.024.3695-.061.7853-.141 1.572-.479 5.3295-.479 11.0947 0 4.8645.277 8.3275.423 10.1486z"/><path d="m163.772 38.5546c0-.39.03-.78.09-1.05.09-.51.33-.57.78-.57 1.59 0 3.03-.27 4.17-.69 1.38-.51 2.25-1.23 2.25-1.89 0-.15-.12-.24-.3-.3-4.65-1.77-6.87-5.34-6.87-11.34 0-.99.03-1.38.69-1.44.21-.03.51-.03.84-.03.27 0 .54.03.69.06.3.06.51.12.51.63 0 .0451-.004.1497-.01.2802-.008.2163-.02.5039-.02.7098 0 6.75 3.45 9 5.16 9 .33 0 .54-.15.69-.63.39-1.35.66-3.84.66-6.27 0-.7764-.06-1.6603-.104-2.3123-.026-.381-.046-.6828-.046-.8377 0-.39.27-.54.57-.57s.66-.03.99-.03c.27 0 .54 0 .75.03.51.06.57.39.57 1.05 0 10.29-2.34 17.49-11.4 17.49-.48 0-.57-.21-.63-.57-.03-.21-.03-.51-.03-.72z"/></g></svg>