<svg fill="none" height="44" viewBox="0 0 214 44" width="214" xmlns="http://www.w3.org/2000/svg"><g fill="#150703"><path d="m21.3539 18.96c0-2 2.56-4.04 6.56-4.04 2.92 0 4.8.56 4.8 2.48 0 2.12-2.28 3.44-6.12 5.96-2.68-1.36-5.24-2.52-5.24-4.4zm1.12 18.44c5.84 0 10.52-3.88 10.52-7.64 0-2.92-2.76-4.6-5.6-6.04 2.36-1.32 7.72-3.52 7.72-7.4 0-2.36-2.56-3.72-6.24-3.72-6 0-9.12 3-9.12 6.12 0 2.48 2.08 4.04 4.44 5.4-4.92 2.56-9.04 5.04-9.04 7.92 0 2.6 3.56 5.36 7.32 5.36zm1.04-2.56c-3.8 0-6.08-1.16-6.08-3.32s3.16-4.16 7.48-6.96c2.92 1.6 5.92 3 5.92 5.52 0 3.04-2.56 4.76-7.32 4.76z"/><path d="m59.388 27.8c0-2.96-2.68-3.96-6.36-3.8v-.44c4.08-1.24 7.28-3.16 7.28-6.36 0-2.8-1.76-4.56-5.72-4.56-5.36 0-7.88 3.36-9.2 7.96l1.36.12c1.4-3.92 3.68-6.04 7.24-6.04 2.72 0 3.8.92 3.8 2.88 0 2.64-2.8 4.96-9 6.4l-.24 1.4c1.32-.2 2.92-.32 4.36-.32 2.56 0 3.52 1.24 3.52 3.12 0 3.04-3.64 6.16-15.84 7.76l-.08 1.6c14.24-1.36 18.88-5.16 18.88-9.72z"/><path d="m58.4458 43.68c5.12-11.08 11.2-23.44 16.8-34.68h-2.32c-5.24 11.2-11.32 23.56-16.92 34.68z"/><path d="m75.5958 37h10.52l.32-1.36-2.84-.36c-.76-.12-.88-.28.56-6.16 3.6.04 3.72.2 3.68.96l-.28 2.28h.96c.48-1.92 1.48-5.92 1.92-7.76h-.96l-.88 2.24c-.32.72-.52.88-4.08.92.2-.88.44-1.84.72-2.92 2-8 2.92-10.88 3.28-12.08l-1.32-.12c-5.08 4.8-11.68 10.6-16.76 15.16l.2 1.4c3-.04 7.56-.08 10.88-.08h.2c-1.44 5.84-1.64 6-2.64 6.12l-3.16.4zm6.92-11.04c-.16.64-.32 1.24-.44 1.8h-.12c-3.32 0-7.16.04-9.76.16l-.08-.24c3.96-3.56 8.88-8.04 12.56-11.32l.24.12c-.6 2.4-1.36 5.32-2.4 9.48z"/><path d="m93.6439 22.96c3.52-2.88 6.2-5.56 6.2-8.44 0-1.24-.56-1.92-1.72-1.92-.92 0-1.6.48-2.16 1.08 1 .96 1.28 1.68 1.28 2.4 0 1.28-1.04 3.2-4.12 6.04zm6.32 0c3.5201-2.88 6.2001-5.56 6.2001-8.44 0-1.24-.56-1.92-1.72-1.92-.92 0-1.6.48-2.16 1.08 1 .96 1.28 1.68 1.28 2.4 0 1.28-1.04 3.2-4.1201 6.04z"/><path d="m120.038 24.96c1.64-6.44 2.24-8.96 2.56-10.28.96-.08 2.4-.2 3.56-.2 5.08 0 7.92 2.16 7.92 7.32 0 8.52-4.04 13.6-16.68 13.72.32-1.2.8-3.28 2.64-10.56zm7.44-11.96h-10.56l-.4 1.44 2.8.28c.84.12.8.32-1.8 10.72-2.32 9.16-2.32 9.68-3.32 9.76l-2.96.32-.36 1.48h11.04c8.36 0 14.92-6.64 14.92-15.32 0-5.48-2.88-8.68-9.36-8.68z"/><path d="m145.898 13.84c1.44 0 2.36-.72 2.36-2.24 0-1.08-.68-1.64-1.64-1.64-1.4 0-2.32.68-2.32 2.16 0 1.16.64 1.72 1.6 1.72zm-3.08 7.76c0 2.04-3.8 8.68-3.8 12.44 0 1.76 1.08 3.36 2.52 3.36 1.56 0 2.88-1.48 5.08-4.8l-.8-.88c-1.64 2.28-2.36 3.16-3.12 3.16-.96 0-1.32-.92-1.32-2.16 0-2.96 3.48-9.72 3.48-12.08 0-1.6-.96-2.96-2.08-2.96-1.56 0-2.88 1.48-5.08 4.8l.84.88c1.64-2.28 2.32-3.16 3.12-3.16.72 0 1.16.6 1.16 1.4z"/><path d="m162.047 37.4c1.56 0 2.88-1.48 5.08-4.8l-.84-.88c-1.6 2.28-2.32 3.16-3.08 3.16-1 0-1.32-1.04-1.32-2.48 0-2.92 2.64-11.76 3.56-14.6-10.72.04-16.84 7.24-16.84 14.64 0 3.28 1.6 5 3.28 5 2.12 0 4.92-3.44 9.48-12.6l.6.16c-1.08 3.28-2.16 7.08-2.16 8.72 0 1.96.96 3.68 2.24 3.68zm-9.8-2.52c-1.28 0-2-.76-2-2.48 0-4.56 4.6-11.48 12.88-12.44-5.56 10.96-8.88 14.92-10.88 14.92z"/><path d="m194.921 22.08c0 2.08-3.88 8.4-3.88 11.8 0 1.84 1.08 3.52 2.52 3.52 1.56 0 2.88-1.48 5.12-4.8l-.84-.88c-1.64 2.28-2.32 3.16-3.12 3.16-.92 0-1.24-.92-1.24-2.16 0-2.72 3.4-9.44 3.4-11.76 0-1.6-1.56-3.28-3.32-3.28-2.84 0-5.4 3.68-9.32 12.6l-.52-.2c1.16-3.44 2.64-7.56 2.64-9.12 0-1.6-1.56-3.28-3.32-3.28-2.76 0-5.16 3.72-9.04 12.56l-.6-.16c1-3.4 2.16-7.16 2.16-8.76 0-1.96-.96-3.64-2.08-3.64-1.56 0-2.84 1.48-5.08 4.8l.84.88c1.64-2.28 2.32-3.16 3.12-3.16s1.08.88 1.08 2.04c0 2.04-2.32 9.84-4.08 14.76h2.52c5.32-13.44 8.2-16.76 10.48-16.76 1.32 0 2.04.84 2.04 1.84 0 1.92-2.96 9.16-4.92 14.92h2.6c5.36-13.52 8.44-16.76 10.8-16.76 1.32 0 2.04.84 2.04 1.84z"/></g></svg>