<svg fill="none" height="52" viewBox="0 0 215 52" width="215" xmlns="http://www.w3.org/2000/svg"><g fill="#150703"><path d="m40.1378 25.1364c5.2734 0 7.4628-3.4041 7.4628-7.7004 0-7.1369-3.084-10.3063-8.9695-10.3063-.6121 0-1.2713.02348-1.7892.07043-.259.02348-.4708.18782-.5415.53997-.3531 1.78423-.8004 4.7893-.8004 9.6724 0 4.8832.259 6.644.5886 7.3248.1177.2348.306.3287.7062.3522.4002.0234 1.5067.0469 3.343.0469zm-.6356-1.972c-.4003 0-.8476-.047-1.1536-.3522-.6827-.6573-.7298-2.9815-.7298-5.8927 0-3.7797.1883-6.7613.8946-7.4656.2119-.21129.5885-.30519.8475-.30519 3.649 0 6.0974 2.51199 6.0974 8.05249 0 4.0146-1.954 5.9632-5.9561 5.9632z"/><path d="m53.3438 25.066c.2119-.047.306-.1174.306-.3991 0-.4696-.5414-3.8033-.5414-8.2873 0-5.3528.8004-8.2404.8004-8.87427 0-.23477-.0706-.3052-.259-.35215-.2354-.02348-.4943-.04696-.7298-.04696-.2354 0-.4473.02348-.6121.04696-.306.07043-.4708.18781-.5414.61039-.2119 1.00951-.7298 4.31973-.7298 9.64893 0 2.9816.1883 6.3388.4473 7.2778.0706.2583.1883.3287.4237.3757.2119.0235.4709.0469.7063.0469.259 0 .4944 0 .7298-.0469z"/><path d="m65.5951 10.4634c.0941.1174.2118.1643.306.1643.1648 0 .2825-.0939.3767-.2112.4237-.49306.871-1.31475.871-1.73733 0-.21129-.1177-.39911-.3295-.53997-1.0124-.77473-2.6838-1.33817-4.4495-1.33817-3.6019 0-5.3441 2.25377-5.3441 4.90667 0 3.1459 2.0718 4.4136 5.1793 5.5405 2.1894.7513 3.4607 1.7373 3.4607 3.3807 0 1.8546-1.5538 2.6763-3.6019 2.6763-2.3072 0-3.9787-1.479-4.5908-3.7797-.047-.1644-.1412-.2583-.306-.2583-.1177 0-.2119.0704-.2825.2113-.2119.4461-.3296.9156-.3296 1.5495 0 2.3476 1.9775 4.2962 5.4147 4.2962 4.1434 0 5.8384-2.1833 5.8384-4.8597 0-2.9346-2.1658-4.2493-5.1792-5.3527-2.4955-.9391-3.5313-1.7842-3.5313-3.545 0-1.61988 1.0829-2.77025 3.2017-2.77025 1.2242 0 2.5661.58692 3.2959 1.66685z"/><path d="m72.4429 25.1129c.2354 0 .4237 0 .6827-.0234.2354-.047.3296-.1409.3296-.4461 0-.5634-.565-3.1459-.565-5.3058 0-1.5494 1.0123-2.4415 4.5201-2.4415 2.3777 0 3.5548.8216 3.5548 2.2068 0 1.5964-.5179 4.8597-.5179 5.5405 0 .3052.1412.3991.4002.4461.259.0469.4708.0469.6592.0469.1883 0 .4002-.0235.6356-.0469.3531-.047.4944-.1879.6121-.7043.2119-.8922.4709-3.7798.4709-6.9727 0-5.3292-.4473-8.6629-.7299-9.64893-.0941-.42258-.2354-.56344-.5414-.61039-.259-.04696-.4709-.04696-.6827-.04696-.1884 0-.4003.02348-.5886.07043-.2119.07043-.2825.18782-.2825.42259 0 .84516.6827 3.75626.6827 7.48906 0 .3991-.0941.5635-.3531.5635-.4238 0-1.4125-.54-3.4607-.54-2.0717 0-3.2253.4695-3.908.4695-.2589 0-.4473-.1173-.4473-.4225 0-3.0285.8946-6.94917.8946-7.53609 0-.25824-.0706-.37563-.2354-.44606-.1413-.04695-.4473-.07043-.7298-.07043-.259 0-.565.02348-.8004.09391-.2119.07043-.3296.16434-.4473.58692-.2825 1.0095-.8476 4.31975-.8476 9.62545 0 3.1929.259 6.0805.4709 6.9727.0706.4695.2119.5634.4708.6338.259.047.518.0939.7534.0939z"/><path d="m98.5985 25.3947c.1883.1408.3767.2112.5886.2112.1883 0 .3766-.0704.565-.2112 2.7309-2.2069 4.6139-6.4327 4.6139-12.3019 0-1.9486-.117-3.49803-.329-5.14141-.047-.53997-.259-.75126-.612-.77474-.165-.02347-.377-.02347-.589-.02347-.165 0-.329 0-.471.02347-.353.04696-.471.16434-.471.44606 0 .46954.424 3.00499.424 6.24479 0 4.2259-1.789 7.4422-2.8955 8.8508-.1177.1409-.2119.2348-.3296.2348-.0942 0-.1883-.0705-.2825-.2348-1.7421-3.3102-2.4484-5.1649-2.4484-8.9447 0-3.94407.1883-5.65787.1883-6.12741 0-.3052-.1177-.46954-.4943-.51649-.1884-.02348-.4238-.04695-.6828-.04695-.2354 0-.4943.02347-.7298.04695-.3531.04695-.4473.16434-.4473.46954 0 .46953.1648 2.88766.1648 6.17436 0 3.8033-.6121 5.611-2.5896 8.8977-.0942.1409-.1648.2348-.259.2348-.0941 0-.1883-.0939-.3295-.2348-1.2949-1.5494-2.7309-4.531-2.7309-8.8272 0-3.2164.3531-5.89271.3531-6.19791s-.1413-.49301-.565-.53997c-.1413-.02347-.3061-.02347-.4944-.02347-.1648 0-.3531 0-.5415.02347-.2589.02348-.5179.18782-.565.49302-.2119 1.7138-.306 3.31026-.306 5.51706 0 5.7048 1.8833 10.0481 4.5201 12.2314.2589.1878.4708.2582.6591.2582.1884 0 .3532-.0704.5415-.2347.8004-.7043 2.3071-3.052 2.9899-5.0241.0706-.2347.1412-.3756.2589-.3756s.1648.1409.2354.3756c.6828 2.2303 2.213 4.3667 3.0605 5.0476z"/><path d="m108.65 25.1129c.306 0 .589-.0234.777-.0704.235-.0939.306-.2348.282-.5165-.023-.5634-.47-1.4321-.47-2.3477 0-1.9251 2.33-2.8876 4.943-2.8876 2.143 0 3.061.6339 3.061 2.2068 0 1.4321-.377 2.4416-.377 3.0755 0 .2582.071.3991.306.4695.142.0235.353.047.612.047s.471-.0235.683-.047c.33-.047.518-.1174.565-.4226.165-1.4086.212-2.6763.212-3.8971 0-5.7284-1.248-10.0011-5.368-13.64005-.188-.16434-.353-.23477-.541-.23477s-.33.07043-.565.23477c-4.45 3.66235-5.556 8.66295-5.556 13.64005 0 1.2912.094 2.5589.212 3.8267.047.4226.235.5165.565.54.212.0234.424.0234.659.0234zm1.036-6.6674c-.165 0-.283-.1174-.283-.3287 0-2.4415 1.272-6.7143 3.485-8.56899.212-.16434.306-.25824.423-.25824.118 0 .212.11738.377.25824 1.577 1.52599 3.225 4.76579 3.225 7.53609 0 .3286-.047.5165-.4.5165-.424 0-1.13-.1174-2.425-.1174-2.354 0-3.884.9625-4.402.9625z"/><path d="m131.322 10.4634c.094.1174.212.1643.306.1643.164 0 .282-.0939.376-.2112.424-.49306.871-1.31475.871-1.73733 0-.21129-.117-.39911-.329-.53997-1.012-.77473-2.684-1.33817-4.45-1.33817-3.602 0-5.344 2.25377-5.344 4.90667 0 3.1459 2.072 4.4136 5.18 5.5405 2.189.7513 3.46 1.7373 3.46 3.3807 0 1.8546-1.553 2.6763-3.602 2.6763-2.307 0-3.978-1.479-4.59-3.7797-.047-.1644-.142-.2583-.306-.2583-.118 0-.212.0704-.283.2113-.212.4461-.33.9156-.33 1.5495 0 2.3476 1.978 4.2962 5.415 4.2962 4.144 0 5.839-2.1833 5.839-4.8597 0-2.9346-2.166-4.2493-5.18-5.3527-2.495-.9391-3.531-1.7842-3.531-3.545 0-1.61988 1.083-2.77025 3.202-2.77025 1.224 0 2.566.58692 3.296 1.66685z"/><path d="m138.169 25.1129c.236 0 .424 0 .683-.0234.236-.047.33-.1409.33-.4461 0-.5634-.565-3.1459-.565-5.3058 0-1.5494 1.012-2.4415 4.52-2.4415 2.378 0 3.555.8216 3.555 2.2068 0 1.5964-.518 4.8597-.518 5.5405 0 .3052.141.3991.4.4461.259.0469.471.0469.659.0469.189 0 .4-.0235.636-.0469.353-.047.494-.1879.612-.7043.212-.8922.471-3.7798.471-6.9727 0-5.3292-.448-8.6629-.73-9.64893-.094-.42258-.235-.56344-.542-.61039-.259-.04696-.47-.04696-.682-.04696-.189 0-.4.02348-.589.07043-.212.07043-.282.18782-.282.42259 0 .84516.682 3.75626.682 7.48906 0 .3991-.094.5635-.353.5635-.423 0-1.412-.54-3.46-.54-2.072 0-3.226.4695-3.908.4695-.259 0-.448-.1173-.448-.4225 0-3.0285.895-6.94917.895-7.53609 0-.25824-.071-.37563-.236-.44606-.141-.04695-.447-.07043-.729-.07043-.259 0-.565.02348-.801.09391-.212.07043-.329.16434-.447.58692-.283 1.0095-.848 4.31975-.848 9.62545 0 3.1929.259 6.0805.471 6.9727.071.4695.212.5634.471.6338.259.047.518.0939.753.0939z"/><path d="m158.581 25.1599c1.507-.0235 3.06-.0235 4.449-.0939.377-.0235.589-.2113.589-.5165 0-.3287-.094-1.2678-.236-1.6199-.094-.2348-.211-.3052-.376-.3052-.142 0-.259.0469-.495.1174-1.271.3991-3.39.6104-5.767.6104-1.554 0-1.813-.3287-1.813-3.7094 0-2.4181.941-3.0519 3.366-3.0519 1.389 0 2.543.446 2.896.446.188 0 .306-.0469.424-.3287.141-.3756.259-.9156.259-1.2208 0-.5164-.942-.7277-2.048-.7277-1.837 0-3.061.4225-3.908.4225-.495 0-.66-.1878-.66-.7982 0-1.9016.283-4.39013.848-5.07096.282-.32867.683-.46953 1.718-.46953 2.261 0 3.555.28172 4.379.49301.189.04695.353.11738.471.11738.188 0 .306-.0939.377-.25824.188-.44606.424-1.36165.424-1.66685 0-.16434-.118-.3052-.448-.32868-1.13-.09391-3.013-.11738-4.826-.11738-1.436 0-2.825.02347-3.531.0939-.33.02348-.542.2113-.636.63388-.894 3.96757-1.177 8.66297-1.177 12.84177 0 1.3382.024 2.606.071 3.7563.023.5635.306.6574.824.6809 1.295.0469 3.037.0704 4.826.0704z"/><path d="m167.011 7.7401c-.565 3.7798-.8 7.4656-.8 10.7054 0 2.2773.118 4.3432.306 6.057.047.4696.353.54.683.5635.212 0 .447.0235.683.0235.235 0 .447-.0235.612-.0235.282-.0235.447-.1409.447-.3991 0-.3052-.447-2.7233-.447-3.6389 0-1.4556.659-1.9721 2.307-1.9721 2.307 0 4.755 1.8547 5.226 5.5405.047.3287.188.4696.589.4931.212.0234.47.0234.706.0234.259 0 .471 0 .612-.0234.353-.0235.565-.2113.565-.5635 0-2.0659-1.671-5.024-4.52-6.4092-.118-.0469-.165-.1408-.165-.2347s.047-.1878.165-.2583c2.284-1.3381 3.814-3.2867 3.814-5.7753 0-3.66234-2.566-4.83618-6.098-4.83618-.847 0-3.343.11738-4.096.23476-.33.04696-.541.16434-.589.49302zm1.272 8.9916c0-3.1694.376-7.04303.988-7.65342.307-.3052 1.225-.44606 2.284-.44606 2.448 0 4.12.93907 4.12 3.19288 0 3.1459-3.743 5.6813-6.804 5.6813-.4 0-.588-.1408-.588-.7747z"/><path d="m90.1391 33.9402c.0941.1174.2119.1643.306.1643.1648 0 .2825-.0939.3767-.2112.4238-.4931.8711-1.3147.8711-1.7373 0-.2113-.1178-.3991-.3296-.54-1.0123-.7747-2.6838-1.3382-4.4495-1.3382-3.6019 0-5.344 2.2538-5.344 4.9067 0 3.1459 2.0717 4.4136 5.1792 5.5405 2.1894.7513 3.4607 1.7373 3.4607 3.3807 0 1.8546-1.5538 2.6763-3.6019 2.6763-2.3072 0-3.9786-1.479-4.5907-3.7797-.0471-.1644-.1413-.2583-.3061-.2583-.1177 0-.2119.0704-.2825.2113-.2119.4461-.3296.9156-.3296 1.5495 0 2.3477 1.9776 4.2962 5.4147 4.2962 4.1434 0 5.8384-2.1833 5.8384-4.8597 0-2.9346-2.1658-4.2493-5.1792-5.3527-2.4955-.9391-3.5313-1.7842-3.5313-3.545 0-1.6199 1.0829-2.7702 3.2017-2.7702 1.2242 0 2.5661.5869 3.2959 1.6668z"/><path d="m96.6753 48.5897c.3061 0 .5886-.0234.7769-.0704.2354-.0939.3061-.2348.2825-.5165-.0235-.5634-.4708-1.4321-.4708-2.3477 0-1.9251 2.3306-2.8876 4.9441-2.8876 2.142 0 3.06.6339 3.06 2.2068 0 1.4321-.376 2.4416-.376 3.0755 0 .2582.07.3991.306.4695.141.0235.353.047.612.047s.47-.0235.682-.047c.33-.0469.518-.1174.565-.4226.165-1.4086.212-2.6763.212-3.8971 0-5.7284-1.247-10.0011-5.367-13.64-.189-.1644-.353-.2348-.542-.2348-.188 0-.329.0704-.565.2348-4.4493 3.6623-5.5557 8.6629-5.5557 13.64 0 1.2912.0941 2.5589.2118 3.8267.0471.4226.2355.5165.565.54.2119.0234.4238.0234.6592.0234zm1.0359-6.6674c-.1648 0-.2825-.1174-.2825-.3287 0-2.4415 1.2712-6.7143 3.4843-8.569.212-.1643.306-.2582.424-.2582.117 0 .212.1174.376.2582 1.578 1.526 3.226 4.7658 3.226 7.5361 0 .3286-.047.5165-.401.5165-.423 0-1.13-.1174-2.424-.1174-2.3547 0-3.8849.9625-4.4028.9625z"/><path d="m112.59 48.6132c.189 0 .448-.0235.542-.0469.424-.047.635-.1879.635-.4931 0-.3521-.776-3.2398-.776-4.9536 0-1.0799.635-1.3616 1.954-1.3616 1.883 0 3.272.1643 3.86.1643.212 0 .354-.0939.448-.3052.188-.446.282-1.1738.282-1.6434 0-.3052-.282-.4225-.612-.4225-1.93 0-3.578.4695-4.802.4695-.848 0-1.06-.2582-1.06-1.2443 0-2.5355.189-5.3292.73-5.8692.33-.3286.847-.4226 2.095-.4226 1.648 0 2.66.2348 3.178.3522.118.0235.283.047.401.047.117 0 .259-.047.329-.2113.189-.4461.306-1.0565.306-1.526 0-.2348-.07-.4461-.471-.4696-.847-.0469-2.118-.0939-3.413-.0939-1.366 0-2.755.0235-3.814.0939-.259.0235-.518.1644-.589.493-.659 2.8407-.894 6.4092-.894 9.5551 0 3.3807.259 6.2683.518 7.2778.117.4461.447.54.682.5635.071.0234.283.0469.471.0469z"/><path d="m128.197 48.6367c1.507-.0235 3.061-.0235 4.45-.0939.376-.0235.588-.2113.588-.5165 0-.3287-.094-1.2678-.235-1.6199-.094-.2348-.212-.3052-.377-.3052-.141 0-.259.0469-.494.1174-1.271.3991-3.39.6104-5.768.6104-1.554 0-1.813-.3287-1.813-3.7094 0-2.4181.942-3.0519 3.367-3.0519 1.389 0 2.542.446 2.895.446.189 0 .306-.0469.424-.3287.141-.3756.259-.9156.259-1.2208 0-.5164-.942-.7277-2.048-.7277-1.836 0-3.06.4225-3.908.4225-.494 0-.659-.1878-.659-.7982 0-1.9016.282-4.3901.847-5.071.283-.3286.683-.4695 1.719-.4695 2.26 0 3.555.2817 4.379.493.188.047.353.1174.471.1174.188 0 .306-.0939.376-.2582.189-.4461.424-1.3617.424-1.6669 0-.1643-.118-.3052-.447-.3287-1.13-.0939-3.014-.1173-4.826-.1173-1.436 0-2.825.0234-3.532.0939-.329.0234-.541.2112-.635.6338-.895 3.9676-1.177 8.663-1.177 12.8418 0 1.3382.023 2.606.07 3.7563.024.5635.306.6574.824.6809 1.295.0469 3.037.0704 4.826.0704z"/></g></svg>