<svg fill="none" height="70" viewBox="0 0 214 70" width="214" xmlns="http://www.w3.org/2000/svg"><g fill="#000"><path d="m80.1765 34.0333v-.7793h-4.994c-.9744 0-1.4616-.9844-1.4616-2.9532l.0406-9.3516h1.9895c3.1669 0 4.7503 2.42 4.7503 7.2598h.8121l.0406-15.9551h-.8933c0 3.0762-.4466 5.127-1.3804 6.1524-.9338 1.1074-1.9895 1.6816-3.1669 1.6816h-2.1519v-10.86915c0-.65625.1218-1.10742.3654-1.3125.2436-.24609.6902-.36914 1.3805-.36914h3.8977c1.9083 0 3.5324.69727 4.9128 2.0918 1.0963 1.10739 1.9083 2.46099 2.4767 4.06059.203.5332.3654 1.1894.5278 1.9687s.3248 1.6817.4872 2.7071h.6903l-.2031-11.81257-11.3684.04102-13.0737-.08203v.86133h3.7354c1.421 0 2.1112.65625 2.1112 2.00977l.0406 21.08208c0 1.7637-.4872 2.666-1.4616 2.666h-4.4256v.7793z"/><path d="m96.4754 21.5235v-5.3321c-2.1925.4102-4.182.6153-5.9279.6153h-1.1774l-.0406.7793.9744.041c.5278.041.9745.082 1.3399.123s.6496.1231.8526.2461c.6496.3281.9744.9844.9744 1.9688v10.3359c0 1.1895-.0812 1.9278-.2842 2.2149-.2842.5332-.609.7793-1.015.7793h-2.4767v.7383l5.2376-.0821 5.3595.0821v-.8204h-2.7204c-.5684 0-.9338-.3281-1.0962-1.0254-.0406-.123-.0406-.3281-.0406-.6152v-5.209c0-1.7637.3654-3.6094 1.015-5.5371.8932-2.543 1.9895-3.8145 3.4102-3.8145.203 0 .447.0821.772.2461.325.2051.487.3692.487.4922 0 .082-.244.3281-.731.7793-.528.4512-.771 1.1485-.771 2.0918 0 .5332.203.9844.568 1.3535.406.3692.853.5332 1.34.5332.69 0 1.218-.2871 1.583-.8613.366-.5742.528-1.1895.528-1.8047 0-1.0664-.365-1.9277-1.055-2.584-.691-.6152-1.584-.9023-2.68-.9023-.853 0-1.6241.3281-2.3143 1.0254-.6903.6972-1.3399 1.5996-1.7053 2.8301z"/><path d="m115.294 21.9336c0 .7383-.081 1.1895-.244 1.3945-.162.2872-.568.4102-1.258.4102h-6.497c0-4.9629 1.34-7.4648 4.061-7.4648 1.421 0 2.476.6152 3.166 1.8867.528 1.0254.812 2.2969.812 3.8144zm-7.877 2.7071 11.653.082c-1.096-6.0293-3.654-9.0645-7.633-9.0645-2.233 0-4.101 1.0254-5.603 3.0762-1.34 1.8457-1.99 3.9375-1.99 6.2754 0 2.4199.772 4.5527 2.274 6.3574 1.624 1.9278 3.613 2.8711 5.968 2.8711 1.99 0 3.655-.7383 4.994-2.2148 1.34-1.4356 1.99-3.1582 1.99-5.168l-.731-.041c-.122 1.7637-.731 3.2813-1.827 4.5527-1.178 1.3536-2.599 2.0508-4.263 2.0508-1.543 0-2.721-.6152-3.573-1.8457-.853-1.2305-1.34-2.9941-1.299-5.25z"/><path d="m131.895 21.7285c0 .7383-.082 1.1895-.244 1.3946-.162.2871-.568.4101-1.259.4101h-6.496c0-4.9629 1.34-7.4648 4.06-7.4648 1.421 0 2.477.6152 3.167 1.8867.528 1.0254.812 2.2969.812 3.8145zm-7.877 2.7071 11.653.082c-1.097-6.0293-3.655-9.0645-7.634-9.0645-2.233 0-4.1 1.0254-5.603 3.0762-1.339 1.8457-1.989 3.9375-1.989 6.2754 0 2.4199.771 4.5528 2.274 6.3575 1.624 1.9277 3.613 2.8711 5.968 2.8711 1.99 0 3.654-.7383 4.994-2.2149 1.34-1.4355 1.99-3.1582 1.99-5.168l-.731-.041c-.122 1.7637-.731 3.2813-1.827 4.5528-1.178 1.3535-2.599 2.0507-4.264 2.0507-1.542 0-2.72-.6152-3.573-1.8457-.852-1.2304-1.339-2.9941-1.299-5.25z"/><path d="m49.0828 59.8h3.5794c.7724 0 1.4414-.0345 2.0069-.1035.5793-.0689 1.0552-.2069 1.4276-.4138.3724-.2207.6483-.5241.8276-.9103.1931-.4.2897-.9242.2897-1.5725 0-.6207-.1035-1.1172-.3104-1.4897-.2069-.3862-.5034-.6827-.8896-.8896-.3863-.2069-.8483-.3449-1.3863-.4138-.5379-.0828-1.1379-.1242-1.8-.1242h-3.7449zm0-7.1174h3.5587c.731 0 1.3448-.062 1.8414-.1862.4966-.1241.8966-.3034 1.2-.5379.3035-.2483.5173-.5449.6414-.8897.1379-.3586.2069-.7655.2069-1.2207 0-.469-.0759-.8621-.2276-1.1793-.1517-.3311-.3931-.5932-.7241-.7863-.3311-.2069-.7656-.3517-1.3035-.4345-.5241-.0965-1.1724-.1448-1.9449-.1448h-3.2483zm-1.4069 8.3174v-14.8968h5.3794c.869 0 1.6138.0897 2.2345.269s1.1242.4345 1.5104.7655c.4.331.6896.731.869 1.2.1793.4552.2689.9587.2689 1.5104 0 .5241-.0689.9793-.2069 1.3655-.1379.3725-.3172.6897-.5379.9518-.2207.2482-.4759.4483-.7655.6-.2759.1379-.5656.2345-.869.2896v.0414c1.0345.1517 1.8.5587 2.2966 1.2207.5103.6621.7655 1.4897.7655 2.4828 0 .7725-.1241 1.4276-.3724 1.9656-.2345.5379-.5655.9724-.9931 1.3035-.4276.331-.9449.5724-1.5518.7241-.5931.1379-1.2414.2069-1.9448.2069z"/><path d="m68.2416 57.2897c-.6897-.0138-1.338-.138-1.9449-.3725-.5931-.2344-1.1172-.5862-1.5724-1.0552-.4414-.4689-.7931-1.0551-1.0552-1.7586s-.3931-1.5242-.3931-2.4621c0-.7862.1034-1.5173.3103-2.1931.2069-.6897.5173-1.2897.9311-1.8001.4138-.5103.931-.9103 1.5517-1.2.6207-.3035 1.3449-.4552 2.1725-.4552.8414 0 1.5724.1517 2.1931.4552.6207.2897 1.138.6897 1.5518 1.2.4138.4966.7172 1.0897.9103 1.7794.2069.6896.3104 1.4276.3104 2.2138 0 .8552-.1173 1.6276-.3517 2.3173-.2345.6896-.5725 1.2828-1.0138 1.7793-.4276.4966-.9518.8828-1.5725 1.1586-.6069.2621-1.2828.3932-2.0276.3932zm3.6414-5.6484c0-.6345-.0689-1.2276-.2069-1.7794-.1379-.5517-.3517-1.0276-.6414-1.4276-.2896-.4138-.662-.7379-1.1172-.9724s-1.0138-.3517-1.6759-.3517c-.6483 0-1.2069.131-1.6759.3931-.4552.2483-.8276.5862-1.1173 1.0138-.2896.4138-.5034.8966-.6413 1.4483-.138.5379-.2069 1.0966-.2069 1.6759 0 .6621.0758 1.2759.2275 1.8414.1656.5517.4 1.0276.7035 1.4276s.6828.7104 1.138.9311c.4551.2207.9793.331 1.5724.331.6483 0 1.2-.1241 1.6552-.3724.469-.2621.8483-.6069 1.1379-1.0345.2897-.4276.5035-.9104.6414-1.4483.138-.538.2069-1.0966.2069-1.6759z"/><path d="m82.428 61.2897c-.6897-.0138-1.338-.138-1.9449-.3725-.5931-.2344-1.1172-.5862-1.5724-1.0552-.4414-.4689-.7931-1.0551-1.0552-1.7586s-.3931-1.5242-.3931-2.4621c0-.7862.1034-1.5173.3103-2.1931.2069-.6897.5173-1.2897.9311-1.8001.4138-.5103.931-.9103 1.5517-1.2.6207-.3035 1.3449-.4552 2.1725-.4552.8414 0 1.5724.1517 2.1931.4552.6207.2897 1.138.6897 1.5518 1.2.4138.4966.7172 1.0897.9103 1.7794.2069.6896.3104 1.4276.3104 2.2138 0 .8552-.1173 1.6276-.3517 2.3173-.2345.6896-.5725 1.2828-1.0139 1.7793-.4276.4966-.9517.8828-1.5724 1.1586-.6069.2621-1.2828.3932-2.0276.3932zm3.6414-5.6484c0-.6345-.0689-1.2276-.2069-1.7794-.1379-.5517-.3517-1.0276-.6414-1.4276-.2896-.4138-.662-.7379-1.1172-.9724s-1.0138-.3517-1.6759-.3517c-.6483 0-1.2069.131-1.6759.3931-.4552.2483-.8276.5862-1.1173 1.0138-.2896.4138-.5034.8966-.6414 1.4483-.1379.5379-.2069 1.0966-.2069 1.6759 0 .6621.0759 1.2759.2276 1.8414.1656.5517.4 1.0276.7035 1.4276.3034.4.6828.7104 1.1379.9311.4552.2207.9794.331 1.5725.331.6483 0 1.2-.1241 1.6552-.3724.469-.2621.8483-.6069 1.1379-1.0345.2897-.4276.5035-.9104.6414-1.4483.138-.538.2069-1.0966.2069-1.6759z"/><path d="m92.2695 57v-14.8968h1.2414v9.2691l5.2552-5.0897h1.6969l-4.0141 3.869 4.4901 6.8484h-1.3866l-4.0139-5.9794-2.0276 1.9242v4.0552z"/><path d="m106.463 61h-1.242v-10.7174h1.242v1.6138h.041c.317-.6207.773-1.0897 1.366-1.4069.593-.3311 1.241-.4966 1.945-.4966.496 0 .917.0552 1.262.1655.345.1104.634.2621.869.4552.248.1793.448.3931.6.6414.165.2483.303.5173.413.8069.359-.7034.835-1.2207 1.428-1.5517.607-.3449 1.297-.5173 2.069-.5173.731 0 1.31.1242 1.738.3724.441.2345.779.5518 1.014.9518.234.3862.386.8345.455 1.3448.083.5104.124 1.0345.124 1.5725v6.7656h-1.241v-7.407c0-.7724-.166-1.3794-.497-1.8207-.317-.4414-.917-.6621-1.8-.6621-.455 0-.896.1034-1.324.3103-.414.1931-.779.4966-1.097.9104-.137.1793-.255.3931-.351.6414-.083.2345-.152.4827-.207.7448s-.097.5242-.124.7862c-.014.2621-.021.5035-.021.7242v5.7725h-1.241v-7.407c0-.7724-.166-1.3794-.497-1.8207-.317-.4414-.917-.6621-1.8-.6621-.455 0-.897.1034-1.324.3103-.414.1931-.779.4966-1.097.9104-.138.1793-.255.3931-.351.6414-.083.2345-.152.4827-.207.7448-.056.2621-.097.5242-.125.7862-.013.2621-.02.5035-.02.7242z"/><path d="m132.325 51.3723c-.524.2207-1.055.3655-1.593.4345s-1.076.1241-1.613.1655c-.952.069-1.697.2828-2.235.6414-.524.3586-.786.9035-.786 1.6345 0 .3311.062.6207.186.869.138.2345.31.4345.517.6.221.1517.469.269.745.3518.29.0689.579.1034.869.1034.497 0 .979-.0621 1.448-.1862s.883-.3104 1.242-.5586c.372-.2621.669-.5863.889-.9725.221-.4.331-.8689.331-1.4069zm-2.089-.6207c.234-.0276.51-.0689.827-.1241.331-.0552.6-.1311.807-.2276.207-.0966.331-.2552.373-.4759.055-.2345.082-.4483.082-.6414 0-.6345-.206-1.1517-.62-1.5517-.4-.4138-1.083-.6207-2.049-.6207-.427 0-.82.0414-1.179.1241-.358.069-.676.2-.952.3931-.262.1793-.482.4276-.662.7449-.165.3034-.276.6896-.331 1.1586h-1.262c.042-.6345.186-1.1724.435-1.6138.248-.4552.565-.8207.951-1.0966.4-.2896.856-.4965 1.366-.6207.524-.1379 1.076-.2069 1.655-.2069.538 0 1.042.0621 1.511.1862.482.1104.896.2966 1.241.5587.359.2482.634.5862.828 1.0138.206.4276.31.9517.31 1.5724v5.8346c0 .4828.083.7931.248.931.179.1242.531.0897 1.055-.1034v.9724c-.096.0276-.241.069-.434.1242-.179.0551-.359.0827-.538.0827-.193 0-.379-.0207-.559-.062-.207-.0276-.372-.0897-.496-.1863-.124-.1103-.228-.2344-.311-.3724-.069-.1517-.117-.3103-.144-.4758-.028-.1794-.042-.3656-.042-.5587-.524.5793-1.124 1.0207-1.8 1.3242-.676.3034-1.407.4552-2.193.4552-.469 0-.924-.0621-1.366-.1862-.427-.1242-.806-.3173-1.137-.5794-.332-.262-.594-.5793-.787-.9517-.193-.3862-.289-.8414-.289-1.3656 0-1.8207 1.248-2.8966 3.745-3.2276z"/><path d="m140.801 61h-1.241v-10.7174h1.241v2.0069h.042c.345-.8552.786-1.4483 1.324-1.7793.552-.3449 1.276-.5173 2.172-.5173v1.3449c-.703-.0138-1.282.0965-1.738.331-.455.2345-.82.5517-1.096.9517-.262.4001-.448.8759-.559 1.4277-.096.5379-.145 1.1034-.145 1.6965z"/><path d="m148.995 57v-14.8968h1.241v9.2691l5.255-5.0897h1.697l-4.014 3.869 4.49 6.8484h-1.386l-4.014-5.9794-2.028 1.9242v4.0552z"/></g></svg>