<svg fill="none" height="70" viewBox="0 0 215 70" width="215" xmlns="http://www.w3.org/2000/svg"><g fill="#150703"><path d="m84.9636 34.7904c2.5084 0 4.5151-1.3656 6.1874-2.5641.6967-4.4594.864-4.9332 2.0067-5.4906l.3344-.1672v-.1115c-2.2854.0836-4.961.0836-8.9744 0v.1115l3.7904.8361c2.6478.7525 2.9544 1.1985 2.9544 2.5642 0 1.7279-.9477 2.3969-2.9544 2.3969-3.6511 0-9.504-1.6444-9.504-3.679 0-4.0692 4.0413-8.7515 10.368-8.7515 2.7593 0 3.3167 1.2821 3.1773 2.8707l-.1951 2.0625h.1115l1.6444-6.048c-1.0034-.6689-2.7314-1.31-4.9889-1.31-7.135 0-10.3959 5.5464-10.3959 11.0927 0 3.7068 2.1461 6.1873 6.4382 6.1873z"/><path d="m98.3905 18.6531c0-.5574-.5575-.9754-1.4215-.9754-.5295 0-1.5329.2508-2.4805.8082l-.0278-.0557c1.0312-1.728 2.0345-2.8707 2.8707-2.8707.6967 0 1.3099.7246 1.3099 1.7837 0 2.7314-2.6756 10.2844-2.6756 12.6534 0 1.1706.5017 1.5608 1.087 1.5608.6967 0 1.1427-.5296 2.146-2.9265l.0558.0279c-1.3378 4.961-2.3133 6.1316-3.5954 6.1316-1.1706 0-2.0903-1.2263-2.0903-2.8707 0-3.233 4.8217-11.0369 4.8217-13.2666z"/><path d="m102.477 31.9197c-1.783 0-3.177-.6689-3.177-1.9788 0-2.9822 2.731-6.2431 6.466-6.2431 1.895 0 3.261.6131 3.261 1.8952 0 3.0101-2.592 6.3267-6.55 6.3267zm3.094-11.1484c-3.595 0-6.4661 4.2085-6.4661 8.3613 0 3.7347 1.5891 5.6578 3.6791 5.6578 3.595 0 6.466-4.2085 6.466-8.3891 0-3.7069-1.589-5.63-3.679-5.63z"/><path d="m116.008 20.7713c-3.484 0-5.407 2.2297-5.407 4.4036 0 2.8429 6.215 3.7348 6.243 5.9366-.028 1.1148-.725 1.6165-2.537 1.6165-3.344 0-4.905-.3623-4.487-4.32l-.111-.0279c-.307 1.5608-.725 3.0937-1.255 4.5151.753.7246 1.951 1.8952 3.568 1.8952 2.954 0 6.02-3.6232 6.02-5.2955 0-2.9543-7.274-2.3411-7.274-4.2642 0-.9476 1.505-1.9231 4.376-1.9231 2.48 0 3.177.641 2.731 3.1215h.111c.363-2.0903.641-3.3445 1.171-5.0725-.613-.2508-1.895-.5853-3.149-.5853z"/><path d="m125.296 20.7713c-3.483 0-5.407 2.2297-5.407 4.4036 0 2.8429 6.216 3.7348 6.244 5.9366-.028 1.1148-.725 1.6165-2.537 1.6165-3.344 0-4.905-.3623-4.487-4.32l-.111-.0279c-.307 1.5608-.725 3.0937-1.255 4.5151.753.7246 1.951 1.8952 3.568 1.8952 2.954 0 6.02-3.6232 6.02-5.2955 0-2.9543-7.274-2.3411-7.274-4.2642 0-.9476 1.505-1.9231 4.375-1.9231 2.481 0 3.178.641 2.732 3.1215h.111c.363-2.0903.641-3.3445 1.171-5.0725-.613-.2508-1.895-.5853-3.15-.5853z"/><path d="m128.732 39.4449c2.62 0 4.209-3.2609 6.773-8.9745 1.143-2.5641 2.926-6.2431 4.097-9.3367-.836-.1115-2.313-.223-3.205-.223.083 3.4002-.139 7.2464-2.536 12.7091l-.112-.0278c-.139-3.1216-.808-6.3546-1.338-8.6958-.473-2.5641-1.031-4.1249-1.839-4.1249-.892 0-1.561 1.3378-2.954 5.7415l.083.0278c1.254-2.5084 1.923-2.7313 2.927-2.7313.947 0 1.532.4459 1.588 1.1427.363 2.146-1.477 5.2955-1.839 8.4449l3.149.9476c-1.059 2.2854-2.564 2.4248-3.902 2.4248-1.059 0-2.425-.3066-3.149-.5853l-.585 2.7592c1.114.3345 2.062.5017 2.842.5017z"/><path d="m87.62 57.4002-2.4527-.3344c-1.087-.1672-1.1984-.5296.5853-7.7481 1.1706.6131 2.592 1.0033 3.7347 1.0033 3.0658 0 5.6857-3.1773 5.6857-6.1595 0-2.0346-1.087-3.3724-4.5708-3.3724h-8.1384l-.0278.1115 1.0869.1672c1.2542.1951 1.3378.3902-.5853 8.222-1.8673 7.3858-2.0624 7.6645-3.2887 7.8875l-1.2821.2229-.0279.1115c1.2821-.0557 7.5531-.0557 9.2811 0zm-.5575-8.1662c-.4738 0-.864-.0278-1.2542-.0836l.0279-.1393c1.6723-6.6054 2.0625-7.4973 2.4527-8.0269 3.5675.3624 4.4593.9198 4.4593 2.5363 0 2.7313-2.5084 5.7135-5.6857 5.7135z"/><path d="m102.812 57.7904c1.171 0 2.007-1.1427 3.317-6.048l-.056-.0278c-1.115 2.6756-1.505 3.233-2.146 3.233-.613 0-1.115-.5017-1.115-1.4214 0-2.0346 1.449-7.4973 2.258-9.6434-7.3305-.1951-10.8144 4.7102-10.8144 9.5598 0 2.8707.9477 4.3757 2.0068 4.3757 1.5329 0 3.5117-3.2888 7.5526-11.0926l.168.1114c-.837 2.2297-2.732 6.7448-2.732 8.3056 0 1.4493.669 2.6477 1.561 2.6477zm-6.5496-3.1215c-1.087 0-1.8395-.4181-1.8395-1.2263 0-2.3133 2.7592-5.7693 9.3921-7.0793-3.483 6.5497-6.1312 8.3056-7.5526 8.3056z"/><path d="m111.573 54.8918c-.558 0-1.115-.0557-1.756-.2229 1.867-5.6021 4.209-7.776 5.853-7.776 1.003 0 1.533.4738 1.533 1.1427 0 2.9543-2.091 6.8562-5.63 6.8562zm.613 2.8986c2.954 0 5.184-5.9644 5.184-10.1171 0-1.9789-.502-3.902-1.756-3.902-1.867 0-3.567 2.8707-6.131 10.814l-.168-.0279c.363-2.1182.976-5.4906.976-6.6333 0-2.815-.669-4.1528-1.589-4.1528-1.198 0-1.923 1.6444-3.149 5.9365l.083.0279c1.087-2.6756 1.868-2.9264 2.871-2.9264 1.087 0 1.617.5016 1.617 1.1705 0 2.0346-4.125 9.2811-5.881 14.1864.195-.0279 3.456-.0279 3.762 0 .474-2.815 1.059-5.184 1.673-7.135.613 1.5329 1.31 2.7592 2.508 2.7592z"/><path d="m124.286 46.3076c1.086 0 1.477.5574 1.477 1.1148 0 .8919-2.286 2.0904-7.442 3.2052 1.003-2.3133 3.428-4.32 5.965-4.32zm-3.234 11.4828c2.509 0 5.184-3.0379 6.271-6.9956l-.083-.0279c-.753 2.3969-4.125 4.0971-6.355 4.0971-1.31 0-3.066-.6132-3.066-2.0346 0-.6968.168-1.3936.446-2.0903 6.271-.9476 9.309-2.0346 9.309-3.8184 0-1.3935-1.365-3.1494-3.707-3.1494-2.731 0-6.271 3.8741-6.271 8.2777 0 3.9019 1.45 5.7414 3.456 5.7414z"/><path d="m137.325 43.8549c-2.676.0279-4.07 3.038-6.606 12.4584l-.167-.0279c.474-2.7592 1.31-6.8284 1.31-8.3613 0-2.815-.669-4.1528-1.561-4.1528-1.198 0-1.923 1.6444-3.149 5.9365l.083.0279c1.087-2.6756 1.868-2.9264 2.871-2.9264 1.087 0 1.589.5016 1.589 1.1705 0 1.3657-3.54 6.2153-4.599 9.5319.195-.0279 3.177-.0279 3.484 0 2.62-8.4449 3.456-10.3959 6.41-10.0893.139-1.3935.251-2.4247.335-3.5675z"/><path clip-rule="evenodd" d="m109.078 4.73535c-37.2795 0-67.4007 27.07945-67.991 60.49125h135.982c-.59-33.4118-30.711-60.49125-67.991-60.49125zm68.991 60.49125c-.589-34.0518-31.252-61.49125-68.991-61.49125-37.7388 0-68.4014 27.43945-68.9912 61.49125-.0058.3327-.0087.666-.0087 1h137.9999c0-.334-.003-.6673-.009-1z" fill-rule="evenodd"/></g></svg>