<svg fill="none" height="70" viewBox="0 0 215 70" width="215" xmlns="http://www.w3.org/2000/svg"><g fill="#150703"><path d="m52.1646 14.6046-.2585.0408.3402-.0817.1225-.068h.1633.0136c.009-.0091.0227-.0136.0408-.0136.1815-.0272.3629-.0318.5444-.0136.1814.0091.3629.0136.5443.0136.2631 0 .5217.0317.7757.0953.2541.0544.4809.1723.6805.3538l.1905.1769c.1633-.0635.3266-.1225.4899-.1769.1724-.0545.3448-.1089.5171-.1633.4537-.127.9073-.2042 1.3609-.2314.4537-.0272.9118-.0408 1.3745-.0408-.3175.1724-.6396.3448-.9662.5171-.3175.1633-.6351.3266-.9526.49-.2087 0-.4174 0-.626 0-.2087-.0091-.4174-.0046-.626.0136l-.1906.0952c-.0272.5807-.0907 1.1613-.1905 1.742-.0907.5715-.1996 1.1476-.3266 1.7283-.127.5716-.2676 1.1431-.4219 1.7147-.1451.5625-.2903 1.125-.4355 1.6875-.2268.88-.4218 1.7646-.5851 2.6537-.1543.8891-.3357 1.7783-.5444 2.6674-.1361.5988-.2722 1.193-.4083 1.7827-.127.5807-.2358 1.1749-.3266 1.7828-.0181.0998-.0408.2041-.068.313-.0182.1089-.0363.2223-.0545.3402-.009.1089-.0136.2223-.0136.3402.0091.1089.0363.2087.0817.2994.1361.2541.3175.4355.5443.5444.2359.0998.49.1678.7621.2041.2722.0363.5444.0499.8166.0409.2812-.0091.5398-.0046.7757.0136l-2.1366.9934c-.2359-.0181-.4899-.0227-.7621-.0136-.2631.0091-.5308.0045-.8029-.0136-.2722-.0272-.5308-.0817-.7757-.1633-.245-.0817-.4537-.2178-.626-.4083-.5807.2087-1.1704.3493-1.7692.4219-.5988.0635-1.252.1225-1.9597.1769.3176-.1633.6351-.3266.9526-.4899.3267-.1724.6487-.3448.9663-.5171.1996-.0182.3946-.0273.5852-.0273.1996-.009.3991-.0226.5987-.0408h.177c.0544-.0091.1088-.0181.1633-.0272l.0408-.0136c-.0272-.1542-.0363-.3221-.0272-.5035.009-.1815.0272-.3629.0544-.5444.0272-.1814.059-.3538.0953-.5171s.0635-.3085.0816-.4355c.0091-.0454.0227-.1089.0409-.1905.0181-.0908.0362-.1815.0544-.2722.0181-.0998.0363-.186.0544-.2586.0182-.0726.0272-.1179.0272-.1361l.3267-1.3609c.136-.6441.2676-1.2883.3946-1.9324.127-.6442.2586-1.2929.3947-1.9461-.1633-.1633-.3312-.3266-.5036-.4899-.1633-.1724-.3719-.2631-.626-.2722-.0998 0-.1814 0-.2449 0-.0545-.0091-.1044-.0136-.1497-.0136-.0454 0-.0908.0045-.1361.0136-.0454 0-.1043.0045-.1769.0136-.0635.0091-.127.0182-.1906.0272-.0544 0-.1088 0-.1633 0h-.068c-.1815.0273-.3629.0409-.5444.0409-.1179 0-.2994 0-.5443 0-.245-.0091-.5308-.0136-.8574-.0136-.3266-.0091-.6804-.0137-1.0615-.0137-.381-.009-.7666-.0136-1.1567-.0136-.3811 0-.7576.0046-1.1296.0136-.3629.0091-.6985.0227-1.007.0409-.118.0181-.2586.0408-.4219.068-.1633.0182-.3357.0318-.5171.0408-.127.5716-.2541 1.1387-.3811 1.7012-.1179.5534-.2449 1.1159-.381 1.6875-.127.5534-.2495 1.1068-.3675 1.6602-.1179.5535-.2132 1.116-.2857 1.6875-.0182.1271-.0409.2495-.0681.3675-.0181.1179-.0317.2359-.0408.3538s-.0046.2359.0136.3538c.0181.118.068.2359.1497.3539.1361.1996.3175.3402.5443.4218.2269.0817.4718.1316.7349.1497.2631.0182.5217.0273.7757.0273.2631-.0091.499-.0046.7077.0136l-2.1366.9934c-.2177-.0181-.44-.0227-.6668-.0136-.2269 0-.4582-.0045-.6941-.0136-.2268-.0091-.4536-.0363-.6804-.0817-.2178-.0453-.4219-.127-.6124-.2449-.1724-.0998-.2949-.1996-.3675-.2994-.5806.1996-1.1613.3493-1.7419.4491-.5807.0907-1.2112.1588-1.8916.2041l1.9188-1.007c.254-.0182.5126-.0318.7757-.0409.2631-.009.5126-.0363.7485-.0816-.0181-.1633-.0136-.3357.0136-.5172.0363-.1814.0681-.3674.0953-.5579.0998-.7712.2313-1.5288.3946-2.2727.1724-.744.3493-1.4924.5308-2.2455.2177-.9526.4264-1.9007.626-2.8442.1996-.9436.4083-1.8917.626-2.8443s.4355-1.9052.6532-2.8578c.2178-.9617.3448-1.937.3811-2.9259-.0091 0-.0182-.0046-.0272-.0137-.1543-.0725-.2858-.1678-.3947-.2857-.1089-.1271-.2359-.2359-.3811-.3267-.0998-.0635-.2222-.1043-.3674-.1224-.1361-.0273-.2812-.0409-.4355-.0409-.1451-.009-.2858-.009-.4219 0-.136.0091-.2449.0136-.3266.0136-.0453 0-.1088.0046-.1905.0137-.0816.009-.1179.009-.1089 0h-.1497l1.7148-.8982-.2586.0408.3402-.0817.1225-.068h.1633.0136c.0091-.0091.0227-.0136.0408-.0136.1815-.0272.3629-.0318.5444-.0136.1905.0091.3765.0136.558.0136.2358 0 .4672.0227.694.068.2268.0363.431.1316.6124.2858l.2722.2586c.127-.0454.2495-.0907.3674-.1361.118-.0454.2404-.0862.3675-.1225.5171-.1451 1.0206-.2359 1.5105-.2722.49-.0453.998-.068 1.5242-.068-.3175.1724-.6396.3448-.9662.5171-.3175.1633-.6351.3266-.9526.49-.2087 0-.4128 0-.6124 0-.1996-.0091-.4037-.0046-.6124.0136l-.2314.1224c-.0453.9527-.1723 1.8871-.381 2.8035-.2087.9163-.4219 1.8417-.6396 2.7762l-.4083 1.81.1633-.0681c.1996.1996.3584.3538.4763.4627.127.0998.2495.1679.3675.2042.127.0362.2767.0499.4491.0408.1723-.0091.4173-.0272.7348-.0545.2087-.0362.4401-.0544.6941-.0544h5.3755c.2087 0 .4219-.0091.6396-.0272.2178-.0272.4355-.0499.6532-.0681l.0409-.1497c.1451-.5715.2948-1.1476.4491-1.7283.1542-.5806.2948-1.1658.4218-1.7555.1361-.5897.2495-1.1795.3403-1.7692.0907-.5988.1496-1.1976.1769-1.7963-.0182 0-.0273-.0046-.0273-.0137-.1542-.0725-.2857-.1678-.3946-.2857-.1089-.1271-.2404-.2314-.3947-.313-.1088-.0636-.2359-.1044-.381-.1225-.1361-.0272-.2767-.0409-.4219-.0409-.1361-.009-.2722-.009-.4083 0-.136 0-.2585 0-.3674 0-.0454 0-.1089.0046-.1905.0137-.0817.009-.118.009-.1089 0h-.1497zm-2.6809 9.8936c.0453-.0091.0227-.0091-.0681 0-.0907.0091-.1633.0182-.2177.0272zm2.3679-9.8392c-.009 0-.009 0 0 0 .0182-.0091.0363-.0136.0545-.0136-.0182.0091-.0363.0136-.0545.0136zm-11.9213 0c-.0091 0-.0091 0 0 0 .0181-.0091.0362-.0136.0544-.0136-.0182.0091-.0363.0136-.0544.0136z"/><path d="m71.3472 30.9488c-.245.4627-.5126.9027-.803 1.3201-.2903.4173-.6214.8074-.9934 1.1703-.4264.4083-.93.7213-1.5106.9391-.5716.2177-1.1431.3629-1.7147.4354-.1089.0182-.2268.0273-.3539.0273-.127.009-.254 0-.381-.0273-.127-.0181-.2495-.0544-.3674-.1088-.1089-.0454-.2042-.118-.2858-.2178-.1543-.1905-.2359-.4128-.245-.6668-.0091-.2631 0-.5081.0272-.7349.0454-.4718.1407-.9299.2858-1.3745.1543-.4445.2813-.8982.3811-1.3609l.0544-.2994c-.3538.5535-.7303 1.0797-1.1295 1.5787-.3902.4899-.8302.9526-1.3201 1.3881-.2177.1996-.4582.381-.7213.5443-.2631.1543-.5262.2949-.7893.4219-.127.0635-.254.1225-.381.1769-.118.0454-.2405.0953-.3675.1497-.0544.0182-.1315.0499-.2313.0953-.0907.0363-.1769.068-.2586.0952-.0816.0273-.1451.0454-.1905.0545-.0363.0181-.0318.009.0136-.0272.0726-.0454.1769-.0998.313-.1633-.2177.0816-.4627.1633-.7349.2449-.2631.0907-.5353.1633-.8165.2178-.2722.0635-.5444.0952-.8165.0952-.2631.0091-.5081-.0317-.7349-.1225-.1543-.0635-.2903-.1542-.4083-.2721-.1089-.118-.2041-.2495-.2858-.3947-.0726-.1542-.1361-.313-.1905-.4763-.0454-.1633-.0817-.3221-.1089-.4763-.1542-.7621-.1814-1.5106-.0816-2.2455s.2676-1.4697.5035-2.2046c.2813-.8801.6442-1.7238 1.0887-2.5313.4446-.8074.9662-1.5468 1.565-2.2182.5988-.6805 1.2747-1.2702 2.0278-1.7692.7621-.508 1.5922-.9072 2.4904-1.1976.7802-.254 1.5559-.4037 2.3271-.449.7802-.0454 1.5559.0907 2.3271.4082.1815.0726.3402.1588.4763.2586.1452.0998.2858.2087.4219.3266l.4899-.1497c-.0453.0726-.0862.1452-.1225.2177-.0363.0726-.0771.1452-.1224.2178-.0908.6441-.2223 1.2747-.3947 1.8916-.1633.617-.3402 1.2384-.5307 1.8644-.1089.3539-.2132.7077-.313 1.0615-.0998.3539-.2405.6986-.4219 1.0343l-.0136.0136.0408.1497c.0272.2087.0181.4173-.0272.626-.0363.1996-.0771.4037-.1225.6124-.0635.2994-.1406.6033-.2314.9118-.0816.2994-.1633.5988-.2449.8982-.0726.2994-.1406.6033-.2041.9118-.0545.3085-.0862.6215-.0953.939 0 .1815.0272.372.0816.5716.0545.1996.1724.3447.3539.4355.2903-.2994.5489-.6306.7757-.9935s.4355-.7258.626-1.0887zm-5.0217-4.5181c.1905-.617.3674-1.2339.5307-1.8508.1724-.617.304-1.2475.3947-1.8917h-.0272c0-.009 0-.0136 0-.0136.009-.009.0136-.0181.0136-.0272-.5353-.4445-1.0797-.753-1.6331-.9254-.5534-.1814-1.184-.2177-1.8916-.1089-.2541.1089-.5036.2541-.7485.4355-.2359.1815-.4673.3811-.6941.5988-.2268.2178-.44.4446-.6396.6805-.1905.2358-.3629.4581-.5171.6668-.372.499-.7304 1.0751-1.0751 1.7283-.3448.6442-.6396 1.3246-.8846 2.0413-.245.7077-.4219 1.4244-.5307 2.1502-.0998.7259-.0953 1.4154.0136 2.0686.0544.2994.127.6079.2177.9254s.2631.5806.5171.7893c.2087.1542.4355.2223.6805.2041h.1089l.2721-.0816.2586-.1905c.3266-.2722.626-.5625.8982-.871.2812-.3175.5489-.6487.8029-.9934.1996-.2722.3947-.5535.5852-.8438.1996-.2903.381-.5852.5444-.8846.0997-.1814.2041-.3629.313-.5443.1088-.1815.2313-.3539.3674-.5172.2087-.2358.4582-.4354.7485-.5988.0544-.0362.0998-.0635.1361-.0816.0453-.0272.0907-.0499.1361-.0681-.0091 0-.0182.0046-.0273.0137 0 0-.0045 0-.0136 0-.0181.009-.0226.009-.0136 0 .0182-.0091.0363-.0182.0545-.0273.0272-.0181.0544-.0317.0816-.0408.0272-.0181.0499-.0317.0681-.0408.009-.0091.068-.0408.1769-.0953.1179-.0635.2041-.1043.2585-.1225h.0136c.0091-.009.0227-.0136.0409-.0136.0907-.2359.1678-.4763.2313-.7212.0726-.2541.1497-.5036.2314-.7485zm-.8982 1.6875c.0091 0 .0227-.0091.0408-.0272l-.0544.0272zm.0544-.0408-.0544.0272c.0181 0 .0363-.0091.0544-.0272zm-.1225.0816.0409-.0272-.0545.0272z"/><path d="m73.4778 21.2865c.4354 0 .8482-.0136 1.2384-.0408.3992-.0363.7847 0 1.1567.1089l2.2183-.5852c-.2087.1996-.4401.381-.6941.5443-.254.1543-.4536.3539-.5988.5988-.1089.1815-.1588.3856-.1497.6124s-.0045.4401-.0408.6396c-.0726.4083-.1815.812-.3266 1.2112-.1361.3902-.245.7939-.3266 1.2112l-.0409.2586.3811-.558c.7802-1.1159 1.6557-2.0277 2.6265-2.7354.9708-.7167 2.1321-1.2111 3.4839-1.4833.2086-.0454.4219-.0817.6396-.1089s.4309-.0272.6396 0c.4083.0363.7213.1542.939.3538.2268.1996.3811.4446.4627.7349.0817.2903.1089.617.0817.9799-.0182.3538-.0681.7076-.1497 1.0615-.0726.3538-.1588.694-.2586 1.0206s-.1814.6033-.245.8302c-.0453.1723-.0952.3447-.1496.5171-.0545.1633-.1089.3357-.1634.5171-.1179.372-.2358.744-.3538 1.116-.1179.3629-.2313.7348-.3402 1.1159-.0544.1814-.1134.3992-.1769.6532-.0545.254-.127.4763-.2178.6668-.127.3811-.2449.7894-.3538 1.2248-.1089.4265-.1406.8483-.0953 1.2657.0182.1633.059.3402.1225.5307.0726.1815.1905.313.3539.3947.2993-.2903.5488-.617.7484-.9799.1996-.3719.4038-.7348.6124-1.0887l2.3952-.7349c-.1542.2541-.3039.5081-.4491.7621-.1452.2541-.3039.5036-.4763.7485-.1633.2359-.3448.4627-.5444.6805-.1996.2086-.4264.3946-.6804.5579-.2087.1361-.4264.2541-.6532.3539-.2178.0998-.4446.1996-.6805.2994-.0272.009-.0725.0226-.1361.0408-.0544.0181-.1043.0363-.1497.0544-.0453.0182-.0816.0318-.1088.0409-.0182.009-.0136.0045.0136-.0137.127-.0635.254-.1224.381-.1769.127-.0453.2541-.0907.3811-.1361-.0363.0091-.0726.0182-.1089.0273-.0363.009-.0771.0226-.1225.0408-.0453.0091-.0952.0227-.1497.0408-.1723.0726-.381.1497-.626.2314-.2359.0907-.4808.1633-.7349.2177-.254.0635-.5035.0953-.7484.0953-.245 0-.4537-.0545-.6261-.1633-.127-.0817-.2222-.1906-.2857-.3267-.0635-.136-.1089-.2812-.1361-.4354-.0182-.1633-.0272-.3221-.0272-.4763 0-.1634.009-.3085.0272-.4355.0363-.3266.0998-.6487.1905-.9663.0907-.3175.186-.635.2858-.9526.1724-.5716.3447-1.1431.5171-1.7147.1724-.5806.3493-1.1568.5308-1.7283.0725-.245.1361-.4582.1905-.6396.0635-.1815.1179-.3584.1633-.5308.0544-.1814.1043-.3674.1497-.558.0544-.1995.1179-.4309.1905-.694.0545-.1996.1044-.4264.1497-.6804.0545-.2632.0862-.5263.0953-.7894.0181-.2721.0091-.5352-.0272-.7893-.0273-.254-.0998-.4718-.2178-.6532-.1089-.1905-.2722-.3312-.4899-.4219-.2087-.0907-.4854-.1134-.8301-.068-.3176.1814-.626.4082-.9254.6804-.2904.2722-.5671.5716-.8302.8982-.2631.3175-.5126.6442-.7485.9798-.2268.3357-.4309.6578-.6124.9663-.1814.2903-.3493.5579-.5035.8029-.1452.2359-.3085.4536-.4899.6532-.1724.1905-.372.3675-.5988.5308-.2178.1633-.4899.313-.8165.4491l-.0409.0272c-.1723.626-.3493 1.252-.5307 1.878-.1724.6169-.3493 1.2384-.5308 1.8644l-.5307 1.8644c0 .0273-.0091.059-.0272.0953-.1905.1814-.3811.3538-.5716.5171s-.381.3312-.5716.5036l-2.2999.6124c.1815-.1543.372-.2994.5716-.4355.2087-.127.372-.2949.4899-.5035.1543-.2722.2541-.5671.2994-.8846.0545-.3176.127-.6306.2178-.939l1.1703-4.1235.1089-.0272c-.0272-.0636-.0408-.1679-.0408-.313.009-.1543.0181-.3085.0272-.4628.0181-.1633.0363-.3084.0544-.4354.0182-.1361.0318-.2268.0408-.2722.0545-.4627.1543-.9027.2994-1.3201.1543-.4264.2768-.8664.3675-1.32.0363-.2359.0544-.49.0544-.7621.0091-.2722.0635-.5217.1633-.7485-.1633-.1361-.3266-.2404-.4899-.313-.1542-.0726-.3175-.1225-.4899-.1497-.1633-.0272-.3357-.0408-.5172-.0408-.1814 0-.3765.0045-.5851.0136-.118.0181-.2359.0272-.3539.0272-.1179 0-.2359 0-.3538 0z"/><path d="m99.8322 15.598c-.1361-.0726-.2677-.1542-.3947-.2449-.127-.0998-.2631-.1588-.4083-.177-.3447-.0544-.6986-.068-1.0615-.0408-.3538.0182-.7031.0227-1.0478.0136l2.1365-.9934c.3811 0 .7531-.0136 1.1156-.0408.372-.0273.74-.0046 1.103.068.109.0181.249.0499.422.0953.172.0362.322.0816.449.136l.775-.1769-.721.5716c-.018.4083-.063.8165-.136 1.2248-.073.3992-.154.7984-.245 1.1976-.091.3901-.186.7848-.286 1.184-.1.3991-.19.7983-.272 1.1975-.072.3539-.136.7168-.19 1.0887-.055.3629-.186.6986-.395 1.0071 0 .0091.004.0136.014.0136-.01 0-.019.0045-.028.0136 0 0-.009.0091-.027.0272-.054.4809-.131.9572-.231 1.429-.1.4627-.218.9254-.354 1.3881-.1271.4627-.2632.9254-.4084 1.3881-.1361.4627-.2631.9254-.381 1.3881l-.1361.0408c.0816.0726.1179.1769.1089.313 0 .1361-.0091.254-.0273.3538-.0272.3176-.0725.6442-.136.9799-.0636.3357-.1361.6577-.2178.9662-.0454.1633-.0953.3266-.1497.4899-.0453.1543-.0907.3176-.1361.49-.0453.1633-.0862.3311-.1225.5035-.0362.1633-.068.3357-.0952.5171-.0182.127-.0363.2813-.0545.4627-.009.1724-.0045.3448.0137.5172.0272.1633.0725.3175.136.4627.0726.1451.186.2495.3403.313.2994-.3085.5534-.6442.7621-1.0071.2086-.3629.44-.7167.6936-1.0615l2.396-.7349c-.127.1543-.241.3221-.341.5036-.099.1814-.199.3538-.299.5171-.417.6442-.907 1.193-1.47 1.6467-.5623.4536-1.2155.7847-1.9595.9934-.1633.0454-.3583.0953-.5852.1497-.2177.0635-.44.0998-.6668.1089-.2268.0181-.4445 0-.6532-.0544-.1996-.0454-.3675-.1543-.5035-.3267-.1906-.2449-.2904-.5489-.2994-.9118 0-.3629.0408-.7394.1224-1.1295.0817-.3901.1815-.7666.2994-1.1295.118-.372.2042-.685.2586-.939l.0817-.3811c-.3811.5988-.7894 1.184-1.2248 1.7556-.4265.5715-.9254 1.0614-1.497 1.4697-.4083.2903-.8211.5353-1.2384.7349-.4083.1905-.8483.3674-1.3201.5307-.1089.0454-.2177.0817-.3266.1089-.1089.0363-.2223.0635-.3402.0817l-.4083.0816c-.0816.0182-.1406.0272-.1769.0272-.0272.0091-.059.0182-.0953.0273-.0272.009-.0635.0136-.1088.0136-.0454.009-.1225.0226-.2314.0408-.3901.0635-.7575.059-1.1023-.0136-.3448-.0635-.6487-.2631-.9118-.5988-.3085-.3901-.5035-.8483-.5852-1.3745-.0816-.5262-.0952-1.066-.0408-1.6195.0544-.5625.1542-1.1114.2994-1.6466.1452-.5444.2948-1.0252.4491-1.4426.3266-.8982.7076-1.7328 1.1431-2.504.4446-.7712.9572-1.4698 1.5378-2.0958.5897-.626 1.2566-1.1658 2.0005-1.6194.7531-.4627 1.6013-.8256 2.5449-1.0887.6351-.1815 1.2747-.2904 1.9188-.3267.6442-.0453 1.2702.0091 1.8781.1634.009-.0454.0136-.0908.0136-.1361.009-.0454.0227-.0908.0408-.1361.0817-.4083.1724-.8075.2722-1.1976.0998-.3992.195-.7984.2858-1.1976.0998-.3992.1814-.7984.2449-1.1976.0726-.4082.118-.821.1361-1.2384zm-2.8987 12.2208c.2449-.8619.4944-1.7238.7484-2.5857.2541-.871.431-1.7555.5308-2.6537-.254-.2087-.5353-.3902-.8438-.5444-.3084-.1633-.635-.2858-.9798-.3674-.3357-.0908-.6759-.1361-1.0207-.1361-.3447-.0091-.6804.0317-1.007.1225-.1542.0453-.313.127-.4763.2449-.1633.1089-.3221.2314-.4763.3675-.1452.1361-.2858.2767-.4219.4218-.1361.1452-.2495.2722-.3402.3811-.4083.4627-.7893.9753-1.1432 1.5378-.3447.5534-.6532 1.1341-.9254 1.7419-.2722.5988-.5035 1.2158-.694 1.8508-.1815.6351-.313 1.2611-.3947 1.8781-.0454.3266-.068.7076-.068 1.1431.009.4264.0635.8347.1633 1.2248.1088.3901.2812.7258.5171 1.0071.245.2812.5897.44 1.0343.4763.0726-.0091.1406-.0182.2041-.0273.0726-.009.1452-.0226.2178-.0408.5897-.3992 1.0977-.8846 1.5241-1.4561.4355-.5807.8393-1.1704 1.2112-1.7692.1452-.2359.2858-.4718.4219-.7076.1452-.245.2949-.4764.4491-.6941s.3266-.4173.5171-.5988c.1996-.1905.431-.3538.6941-.4899.1633-.1179.3493-.2268.558-.3266z"/><path d="m112.368 14.6318h1.115c.391-.0091.758.0363 1.103.1361.136.0363.254.0907.354.1633.099.0635.199.1451.299.2449l.041.0409c.027-.0182.054-.0272.082-.0272.036-.0091.072-.0227.108-.0409.799-.2631 1.624-.4264 2.477-.4899s1.692-.0363 2.518.0817c.245.0272.494.0725.748.136.254.0545.495.1271.722.2178.344.127.675.3039.993.5307.318.2178.581.4854.789.803.263.3992.436.8301.517 1.2928.091.4627.105.9254.041 1.3881-.063.4536-.199.8937-.408 1.3201-.2.4264-.458.8074-.776 1.1431-.236.245-.499.4672-.789.6668s-.585.3766-.885.5308c-.054.0363-.113.068-.176.0953-.055.0181-.114.0408-.177.068-.064.0363-.15.0771-.259.1225-.109.0453-.163.0726-.163.0816-.118.0454-.236.0908-.354.1361-.118.0454-.241.0907-.368.1361-.027.0907-.018.1769.028.2586.045.0726.104.1361.177.1905.226.1179.449.2359.666.3538.227.1089.436.2314.626.3675.2.1361.386.2903.558.4627.182.1724.345.3719.49.5988.291.4536.486.948.586 1.4833.099.5353.117 1.0751.054 1.6195-.064.5353-.204 1.0569-.422 1.565s-.499.9572-.844 1.3473c-.199.2268-.422.4355-.667.626-.244.1905-.489.3674-.734.5307-.454.3085-.958.5761-1.511.803-.553.2177-1.13.3992-1.728.5443-.59.1361-1.184.2314-1.783.2858-.59.0635-1.157.0862-1.701.068-.418-.0181-.844-.0408-1.279-.068-.436-.0272-.858-.0998-1.266-.2177-.127-.0363-.254-.0817-.381-.1361-.118-.0635-.236-.1316-.354-.2042-.626.245-1.261.4174-1.905.5172-.635.0998-1.288.1497-1.96.1497.318-.1633.635-.3266.953-.4899.326-.1724.648-.3448.966-.5172.254 0 .504-.0045.749-.0136.254-.0091.508-.0272.762-.0544h.054v-.0136c.073-.4627.118-.9209.136-1.3745.027-.4627.086-.9254.177-1.3881.127-.6986.277-1.3881.449-2.0686.173-.6895.336-1.379.49-2.0685.054-.2541.095-.5126.123-.7757.036-.2631.077-.5262.122-.7894.045-.2631.104-.5171.177-.7621.073-.254.181-.4989.327-.7348l.054-.0136c-.064-.1815-.091-.372-.082-.5716.018-.2087.055-.4173.109-.626.055-.2087.114-.4128.177-.6124.073-.2087.132-.4037.177-.5852.181-.7802.354-1.5559.517-2.3271s.259-1.5605.286-2.368c-.018 0-.045-.009-.082-.0272-.09-.0272-.172-.0726-.245-.1361-.072-.0635-.145-.127-.217-.1905-.064-.0635-.136-.1225-.218-.1769-.073-.0635-.154-.1089-.245-.1361-.29-.0816-.599-.1179-.926-.1089-.317.0091-.621.0136-.911.0136zm.421 15.2419c-.081.4627-.136.93-.163 1.4017-.018.4718-.068.9436-.15 1.4154.227.1905.454.3356.681.4354.236.0998.499.177.789.2314.127.0181.254.0317.381.0408s.254.0227.381.0408h.096c.027 0 .054.0046.081.0137h.068c.154.009.3.0226.436.0408.145.0091.295.0136.449.0136.163.0091.354.0136.571.0136.227 0 .454-.0045.681-.0136.227-.0182.444-.0454.653-.0817.218-.0363.404-.0907.558-.1633.463-.2177.853-.5126 1.17-.8845.327-.3811.586-.803.776-1.2657.2-.4627.331-.9481.395-1.4561.072-.5081.077-1.0025.013-1.4834-.072-.4899-.222-.9481-.449-1.3745-.227-.4355-.53-.812-.912-1.1295-.072-.0635-.167-.1361-.285-.2178-.118-.0816-.227-.1497-.327-.2041-.082-.0454-.19-.0907-.327-.1361-.127-.0453-.254-.0998-.381-.1633-.118-.0635-.226-.1361-.326-.2177-.091-.0908-.145-.1951-.164-.313-.499.0363-.993.0272-1.483-.0273-.49-.0544-.984-.0635-1.483-.0272-.1.0091-.2.0182-.3.0272-.09.0091-.186.0137-.285.0137-.037.2268-.068.4536-.096.6804-.027.2177-.063.4355-.109.6532-.154.6805-.317 1.3654-.489 2.055-.173.6895-.323 1.3835-.45 2.0821zm5.594-6.4642c.236-.127.471-.2313.707-.313.236-.0816.422-.1452.558-.1905l.422-.1361.191-.1225c.181-.127.344-.2676.49-.4219.154-.1542.294-.322.421-.5035.354-.5353.572-1.1023.654-1.7011.09-.6079.054-1.2203-.109-1.8372-.173-.6169-.481-1.1023-.926-1.4561-.435-.3539-.939-.6124-1.51-.7758-.563-.1723-1.161-.2676-1.797-.2857-.626-.0182-1.211 0-1.755.0544 0 0-.005.0045-.014.0136-.018.2903-.04.5852-.068.8846-.027.2994-.068.5988-.122.8982-.046.2631-.095.5216-.15.7757-.054.254-.113.5126-.177.7757-.063.2631-.122.5353-.177.8165-.054.2813-.122.5534-.204.8165-.063.2178-.136.4491-.218.6941-.072.245-.118.4899-.136.7349-.009.2359.032.4581.123.6668s.272.3811.544.5171c.1.0454.254.0726.463.0817s.426.0091.653 0c.236-.0091.463-.0181.681-.0272.217-.0182.385-.0227.503-.0136zm2.286-.2858c-.018 0-.027.0046-.027.0136z"/><path d="m131.264 21.2593c-.154.0817-.304.1815-.449.2994-.208.1633-.408.3493-.599.558-.19.1996-.362.4037-.517.6124-.299.381-.576.8029-.83 1.2656-.245.4627-.467.9435-.667 1.4425-.19.499-.354 1.0071-.49 1.5242-.127.5081-.217 1.0071-.272 1.497-.054.5171-.059 1.0751-.013 1.6739.045.5988.167 1.1658.367 1.7011.209.5262.504.9798.885 1.3609.39.381.898.6079 1.524.6804.236.0182.453.0318.653.0409.209.009.426-.0137.653-.0681.418-.2994.785-.6351 1.103-1.007.326-.3811.617-.7848.871-1.2112s.476-.871.666-1.3337c.191-.4718.363-.9481.518-1.4289.199-.626.362-1.2521.489-1.8781.137-.626.173-1.2701.109-1.9324-.054-.5716-.163-1.1114-.326-1.6195-.164-.508-.395-.939-.694-1.2928-.3-.3629-.681-.6306-1.144-.8029-.453-.1815-1.002-.2269-1.646-.1361zm1.851-1.0343c.227-.0272.467-.0453.721-.0544s.508 0 .762.0272c.264.0272.518.0771.763.1497s.462.1769.653.313c.381.2722.694.617.939 1.0343.254.4173.444.871.571 1.3609.136.4808.209.9753.218 1.4833.018.5081-.018.9844-.109 1.429-.109.5443-.24 1.1023-.394 1.6739-.155.5625-.345 1.1159-.572 1.6602-.218.5444-.472 1.0706-.762 1.5787-.29.508-.622.9707-.994 1.3881-.244.2722-.494.508-.748.7076-.245.1906-.517.3902-.817.5988-.462.3176-.966.5716-1.51.7621-.544.1815-1.089.3221-1.633.4219-.372.0726-.731.118-1.075.1361-.336.0272-.69.0181-1.062-.0272-.517-.0545-.961-.1996-1.333-.4355s-.681-.5308-.926-.8846c-.236-.3538-.422-.7485-.558-1.184-.127-.4445-.208-.9027-.245-1.3744-.036-.4718-.036-.9391 0-1.4018.037-.4627.1-.8981.191-1.3064.154-.6986.354-1.3745.599-2.0277.244-.6623.544-1.2838.898-1.8645.363-.5897.78-1.134 1.252-1.633.481-.499 1.034-.9436 1.66-1.3337.481-.2994.998-.5307 1.551-.694.554-.1724 1.103-.3221 1.647-.4491z"/><path d="m153.999 20.7013c-.064.0454-.123.0953-.177.1497-.046.0454-.105.0862-.177.1225l-.068.0408c.045-.0272.063-.0317.054-.0136-.009.0091-.031.0273-.068.0545-.036.0272-.081.0635-.136.1088-.045.0363-.091.0681-.136.0953-.045.0363-.086.0817-.122.1361-.064.0726-.114.1406-.15.2041-.027.0635-.059.1361-.095.2178-.091.2086-.155.4309-.191.6668-.027.2268-.077.4536-.15.6804-.217.7531-.421 1.5016-.612 2.2455-.181.744-.426 1.4743-.735 2.191-.018.5988-.082 1.2022-.19 1.81-.1.6079-.25 1.1931-.449 1.7556-.037.1814-.082.3674-.137.5579-.045.1815-.081.3675-.108.558-.028.1905-.041.381-.041.5716.009.1814.054.3629.136.5443.1.2087.236.3448.408.4083.036-.0363.1-.1134.191-.2314.099-.1179.167-.1996.204-.2449.19-.2541.363-.5172.517-.7893.163-.2722.317-.5535.463-.8438l2.395-.7349c-.245.49-.499.93-.762 1.3201s-.563.7349-.899 1.0343c-.326.2994-.698.5579-1.115.7757-.409.2086-.885.3856-1.429.5307-.182.0545-.386.1044-.613.1497-.227.0545-.453.0817-.68.0817-.218 0-.427-.0409-.626-.1225-.191-.0726-.34-.2132-.449-.4219-.073-.1361-.123-.2858-.15-.4491-.018-.1633-.023-.3266-.014-.4899.018-.1633.041-.3266.068-.4899.037-.1633.073-.3176.109-.4627.073-.3357.15-.6714.232-1.0071.09-.3357.172-.6713.245-1.007l-.218.3266c-.327.4808-.694.939-1.102 1.3745-.4.4264-.835.8165-1.307 1.1703-.463.3448-.962.6397-1.497.8846-.535.245-1.098.4174-1.687.5172l.19-.0817c-.109.0454-.209.0817-.299.1089-.091.0272-.2.0499-.327.068-.1.0454-.222.0726-.367.0817-.146.0181-.273.0363-.381.0544-.245.0272-.472.0272-.681 0s-.394-.0907-.558-.1905c-.154-.0907-.286-.2223-.394-.3947-.109-.1814-.182-.4128-.218-.694-.064-.4174-.064-.8347 0-1.252.072-.4265.149-.8438.231-1.2521.182-.9254.395-1.8326.64-2.7217.245-.8982.485-1.8009.721-2.7082.1-.3901.191-.7712.272-1.1431.082-.3811.145-.7712.191-1.1704.018-.1089.041-.245.068-.4083.036-.1724.018-.3039-.055-.3946-.172-.1996-.367-.3312-.585-.3947-.218-.0726-.449-.1089-.694-.1089-.236 0-.476.0182-.721.0545-.245.0272-.481.0408-.708.0408.318-.1633.635-.3266.953-.4899.326-.1724.648-.3448.966-.5172h.313c.1 0 .2-.0045.299-.0136.173-.0272.359-.0499.558-.068.2-.0272.4-.0318.599-.0136.209.0091.408.0408.599.0952.2.0545.376.1361.531.245l1.265-.3402c-.154.127-.304.254-.449.381s-.29.2541-.435.3811l-.041.0136c.018.1089.018.2449 0 .4083-.009.1542-.023.3084-.041.4627-.018.1542-.041.2994-.068.4354-.018.1271-.032.2087-.041.245-.154.8891-.367 1.7692-.639 2.6401-.263.871-.504 1.7465-.722 2.6265-.099.4174-.195.8392-.285 1.2657-.091.4264-.168.8573-.232 1.2928-.027.1996-.054.4128-.081.6396-.028.2178-.037.44-.028.6669.018.2268.059.4445.123.6532.072.1996.19.3765.354.5307.099.0907.213.1497.34.1769.127.0273.231.0454.313.0545l.381-.0817h.041.013c0-.0091.005-.0136.014-.0136.553-.372 1.039-.8074 1.456-1.3064.427-.5081.817-1.0434 1.17-1.6059.118-.1905.232-.3856.341-.5852.109-.2086.222-.4082.34-.5988.118-.1996.245-.3855.381-.5579.145-.1815.308-.3402.49-.4763.317-.2268.662-.4219 1.034-.5852.046-.0635.086-.1225.123-.1769.045-.0635.077-.118.095-.1633.109-.2541.204-.5172.286-.7893.081-.2813.158-.5535.231-.8166.064-.2359.118-.4672.163-.694.055-.2268.114-.4582.177-.6941.046-.1724.096-.3402.15-.5035.054-.1724.1-.3448.136-.5172.045-.2086.086-.4128.123-.6124.036-.2086.095-.4128.176-.6124.064-.1542.15-.2993.259-.4354.109-.1452.227-.2722.354-.3811.027-.0181.072-.0499.136-.0952.073-.0545.136-.1044.19-.1497.064-.0454.114-.0817.15-.1089.046-.0272.055-.0318.027-.0136l.055-.0545zm-2.382.6805s.009-.0045.027-.0136c-.009 0-.013.0045-.013.0136 0 0-.005 0-.014 0zm-.122 12.3841c-.009 0-.014.0045-.014.0136 0 0-.004 0-.014 0 .01 0 .019-.0046.028-.0136z"/><path d="m156.864 21.2865c.436 0 .848-.0136 1.239-.0408.399-.0363.784 0 1.156.1089l2.219-.5852c-.209.1996-.44.381-.694.5443-.254.1543-.454.3539-.599.5988-.109.1815-.159.3856-.15.6124s-.004.4401-.041.6396c-.072.4083-.181.812-.326 1.2112-.136.3902-.245.7939-.327 1.2112l-.041.2586.381-.558c.78-1.1159 1.656-2.0277 2.627-2.7354.971-.7167 2.132-1.2111 3.484-1.4833.208-.0454.422-.0817.639-.1089.218-.0272.431-.0272.64 0 .408.0363.721.1542.939.3538.227.1996.381.4446.463.7349.081.2903.108.617.081.9799-.018.3538-.068.7076-.149 1.0615-.073.3538-.159.694-.259 1.0206s-.181.6033-.245.8302c-.045.1723-.095.3447-.15.5171-.054.1633-.109.3357-.163.5171-.118.372-.236.744-.354 1.116-.118.3629-.231.7348-.34 1.1159-.054.1814-.113.3992-.177.6532-.054.254-.127.4763-.218.6668-.127.3811-.245.7894-.354 1.2248-.108.4265-.14.8483-.095 1.2657.018.1633.059.3402.123.5307.072.1815.19.313.354.3947.299-.2903.548-.617.748-.9799.2-.3719.404-.7348.612-1.0887l2.396-.7349c-.155.2541-.304.5081-.45.7621-.145.2541-.303.5036-.476.7485-.163.2359-.345.4627-.544.6805-.2.2086-.427.3946-.681.5579-.208.1361-.426.2541-.653.3539-.218.0998-.444.1996-.68.2994-.028.009-.073.0226-.136.0408-.055.0181-.105.0363-.15.0544-.045.0182-.082.0318-.109.0409-.018.009-.014.0045.014-.0137.127-.0635.254-.1224.381-.1769.127-.0453.254-.0907.381-.1361-.037.0091-.073.0182-.109.0273-.036.009-.077.0226-.123.0408-.045.0091-.095.0227-.149.0408-.173.0726-.381.1497-.626.2314-.236.0907-.481.1633-.735.2177-.254.0635-.504.0953-.749.0953s-.453-.0545-.626-.1633c-.127-.0817-.222-.1906-.285-.3267-.064-.136-.109-.2812-.137-.4354-.018-.1633-.027-.3221-.027-.4763 0-.1634.009-.3085.027-.4355.037-.3266.1-.6487.191-.9663.091-.3175.186-.635.286-.9526.172-.5716.344-1.1431.517-1.7147.172-.5806.349-1.1568.531-1.7283.072-.245.136-.4582.19-.6396.064-.1815.118-.3584.163-.5308.055-.1814.105-.3674.15-.558.055-.1995.118-.4309.191-.694.054-.1996.104-.4264.149-.6804.055-.2632.087-.5263.096-.7894.018-.2721.009-.5352-.028-.7893-.027-.254-.099-.4718-.217-.6532-.109-.1905-.273-.3312-.49-.4219-.209-.0907-.486-.1134-.83-.068-.318.1814-.626.4082-.926.6804-.29.2722-.567.5716-.83.8982-.263.3175-.513.6442-.748.9798-.227.3357-.431.6578-.613.9663-.181.2903-.349.5579-.503.8029-.146.2359-.309.4536-.49.6532-.173.1905-.372.3675-.599.5308-.218.1633-.49.313-.817.4491l-.04.0272c-.173.626-.35 1.252-.531 1.878-.173.6169-.349 1.2384-.531 1.8644l-.531 1.8644c0 .0273-.009.059-.027.0953-.19.1814-.381.3538-.571.5171-.191.1633-.381.3312-.572.5036l-2.3.6124c.182-.1543.372-.2994.572-.4355.208-.127.372-.2949.49-.5035.154-.2722.254-.5671.299-.8846.054-.3176.127-.6306.218-.939l1.17-4.1235.109-.0272c-.027-.0636-.041-.1679-.041-.313.009-.1543.018-.3085.027-.4628.018-.1633.037-.3084.055-.4354.018-.1361.032-.2268.041-.2722.054-.4627.154-.9027.299-1.3201.154-.4264.277-.8664.367-1.32.037-.2359.055-.49.055-.7621.009-.2722.063-.5217.163-.7485-.163-.1361-.326-.2404-.49-.313-.154-.0726-.317-.1225-.49-.1497-.163-.0272-.335-.0408-.517-.0408-.181 0-.376.0045-.585.0136-.118.0181-.236.0272-.354.0272s-.236 0-.354 0z"/><path d="m183.219 15.598c-.136-.0726-.268-.1542-.395-.2449-.127-.0998-.263-.1588-.408-.177-.345-.0544-.699-.068-1.062-.0408-.354.0182-.703.0227-1.048.0136l2.137-.9934c.381 0 .753-.0136 1.116-.0408.372-.0273.739-.0046 1.102.068.109.0181.25.0499.422.0953.172.0362.322.0816.449.136l.776-.1769-.721.5716c-.019.4083-.064.8165-.137 1.2248-.072.3992-.154.7984-.245 1.1976-.09.3901-.185.7848-.285 1.184-.1.3991-.191.7983-.272 1.1975-.073.3539-.137.7168-.191 1.0887-.054.3629-.186.6986-.395 1.0071 0 .0091.005.0136.014.0136-.009 0-.018.0045-.027.0136 0 0-.009.0091-.027.0272-.055.4809-.132.9572-.232 1.429-.1.4627-.218.9254-.354 1.3881-.127.4627-.263.9254-.408 1.3881-.136.4627-.263.9254-.381 1.3881l-.136.0408c.082.0726.118.1769.109.313 0 .1361-.009.254-.027.3538-.028.3176-.073.6442-.137.9799-.063.3357-.136.6577-.217.9662-.046.1633-.095.3266-.15.4899-.045.1543-.091.3176-.136.49-.045.1633-.086.3311-.123.5035-.036.1633-.068.3357-.095.5171-.018.127-.036.2813-.054.4627-.009.1724-.005.3448.013.5172.028.1633.073.3175.136.4627.073.1451.186.2495.341.313.299-.3085.553-.6442.762-1.0071.208-.3629.44-.7167.694-1.0615l2.395-.7349c-.127.1543-.24.3221-.34.5036-.1.1814-.2.3538-.3.5171-.417.6442-.907 1.193-1.469 1.6467-.563.4536-1.216.7847-1.96.9934-.163.0454-.358.0953-.585.1497-.218.0635-.44.0998-.667.1089-.227.0181-.445 0-.653-.0544-.2-.0454-.368-.1543-.504-.3267-.19-.2449-.29-.5489-.299-.9118 0-.3629.041-.7394.122-1.1295.082-.3901.182-.7666.3-1.1295.118-.372.204-.685.258-.939l.082-.3811c-.381.5988-.789 1.184-1.225 1.7556-.426.5715-.925 1.0614-1.497 1.4697-.408.2903-.821.5353-1.238.7349-.409.1905-.849.3674-1.32.5307-.109.0454-.218.0817-.327.1089-.109.0363-.222.0635-.34.0817l-.408.0816c-.082.0182-.141.0272-.177.0272-.028.0091-.059.0182-.096.0273-.027.009-.063.0136-.108.0136-.046.009-.123.0226-.232.0408-.39.0635-.757.059-1.102-.0136-.345-.0635-.649-.2631-.912-.5988-.308-.3901-.503-.8483-.585-1.3745s-.095-1.066-.041-1.6195c.054-.5625.154-1.1114.299-1.6466.146-.5444.295-1.0252.45-1.4426.326-.8982.707-1.7328 1.143-2.504.444-.7712.957-1.4698 1.537-2.0958.59-.626 1.257-1.1658 2.001-1.6194.753-.4627 1.601-.8256 2.545-1.0887.635-.1815 1.275-.2904 1.919-.3267.644-.0453 1.27.0091 1.878.1634.009-.0454.013-.0908.013-.1361.009-.0454.023-.0908.041-.1361.082-.4083.173-.8075.272-1.1976.1-.3992.195-.7984.286-1.1976.1-.3992.182-.7984.245-1.1976.073-.4082.118-.821.136-1.2384zm-2.899 12.2208c.245-.8619.494-1.7238.748-2.5857.254-.871.431-1.7555.531-2.6537-.254-.2087-.535-.3902-.844-.5444-.308-.1633-.635-.2858-.979-.3674-.336-.0908-.676-.1361-1.021-.1361-.345-.0091-.681.0317-1.007.1225-.154.0453-.313.127-.476.2449-.164.1089-.323.2314-.477.3675-.145.1361-.286.2767-.422.4218-.136.1452-.249.2722-.34.3811-.408.4627-.789.9753-1.143 1.5378-.345.5534-.653 1.1341-.925 1.7419-.273.5988-.504 1.2158-.694 1.8508-.182.6351-.313 1.2611-.395 1.8781-.046.3266-.068.7076-.068 1.1431.009.4264.063.8347.163 1.2248.109.3901.281.7258.517 1.0071.245.2812.59.44 1.035.4763.072-.0091.14-.0182.204-.0273.072-.009.145-.0226.217-.0408.59-.3992 1.098-.8846 1.525-1.4561.435-.5807.839-1.1704 1.211-1.7692.145-.2359.286-.4718.422-.7076.145-.245.295-.4764.449-.6941s.326-.4173.517-.5988c.199-.1905.431-.3538.694-.4899.163-.1179.349-.2268.558-.3266z"/><path d="m46.9835 53.5269c-.0636.245-.1407.5217-.2314.8302-.0907.2994-.1724.6079-.245.9254-.0725.3175-.127.6305-.1633.939-.0272.3085-.0136.5897.0409.8438.0544.2631.1633.4581.3266.5851.1724.1271.3674.2087.5852.245.2268.0363.4581.0363.694 0 .245-.0272.4673-.068.6668-.1225.5172-.127 1.0298-.3085 1.5379-.5443.508-.2359.9571-.5444 1.3472-.9254.1633-.1633.3085-.3357.4355-.5172.127-.1905.2495-.3856.3675-.5852.1179-.1996.2313-.3946.3402-.5851.1088-.1996.2268-.3947.3538-.5852l-2.3952.7349c-.0998.1542-.1996.322-.2994.5035-.0997.1814-.2041.3674-.313.5579-.0998.1906-.2086.3766-.3266.558-.1179.1724-.2449.3312-.381.4763-.1815-.0544-.3221-.1724-.4219-.3538-.0726-.1361-.1179-.2994-.1361-.4899-.0091-.1996-.0045-.3992.0136-.5988.0272-.2087.059-.4083.0953-.5988.0363-.1996.0726-.372.1089-.5171.1814-.744.381-1.4834.5988-2.2183.2268-.7439.4445-1.4834.6532-2.2182.2177-.7349.4128-1.4743.5852-2.2183.1723-.7439.2994-1.497.381-2.2591.118-.1451.1406-.3039.0681-.4763l.939-.8301-1.3609.3674-.1769-.1224c-.2087-.118-.4264-.186-.6533-.2042-.2268-.0272-.4627-.0317-.7076-.0136-.2359.0091-.4718.0318-.7077.0681-.2359.0272-.4672.0408-.694.0408-.3176.1724-.6397.3447-.9663.5171-.3175.1633-.635.3266-.9526.4899h.1225c.0544 0 .1134-.0045.1769-.0136h.068.0137.0408c.0181-.009.0363-.0136.0544-.0136h.1089c.0181-.0091.0136-.0091-.0136 0l.1089-.0136h.0272.0136c.0091-.0091.0227-.0136.0408-.0136l.1361-.0136h.0953l.4218-.0408c.3085-.0091.5489.0226.7213.0952s.3538.1951.5444.3675c-.0636.0725-.0318.1179.0952.1361.0091 0 .0136.0045.0136.0136h.0272c.0091.009.0137.0136.0137.0136-.0454.6713-.1361 1.3336-.2722 1.9869-.1361.6532-.2903 1.3019-.4627 1.946-.1724.6442-.3584 1.2883-.558 1.9325-.1905.6351-.372 1.2747-.5443 1.9188zm2.0413-13.2414 4.1643-3.6199-2.2455 5.4571h-1.8644zm-2.5585 4.9128h.0136c-.0453 0-.0816.0046-.1088.0136h.0408c.0181-.009.0363-.0136.0544-.0136zm.3675-.0408-.0817.0136h.0408c.0091-.0091.0227-.0136.0409-.0136z"/><path d="m55.3878 44.2865c.4354 0 .8482-.0136 1.2384-.0408.3992-.0363.7847 0 1.1567.1089l2.2183-.5852c-.2087.1996-.4401.381-.6941.5443-.254.1543-.4536.3539-.5988.5988-.1089.1815-.1588.3856-.1497.6124s-.0045.4401-.0408.6397c-.0726.4082-.1815.8119-.3266 1.2111-.1361.3902-.245.7939-.3266 1.2112l-.0409.2586.3811-.558c.7802-1.1159 1.6557-2.0277 2.6265-2.7353.9708-.7168 2.1321-1.2112 3.4839-1.4834.2086-.0454.4218-.0817.6396-.1089.2177-.0272.4309-.0272.6396 0 .4083.0363.7213.1542.939.3538.2268.1996.3811.4446.4627.7349.0817.2903.1089.617.0817.9799-.0182.3538-.0681.7076-.1497 1.0615-.0726.3538-.1588.694-.2586 1.0206s-.1814.6033-.245.8302c-.0453.1723-.0952.3447-.1497.5171-.0544.1633-.1088.3357-.1633.5171-.1179.372-.2358.744-.3538 1.116-.1179.3629-.2313.7348-.3402 1.1159-.0544.1814-.1134.3992-.1769.6532-.0545.254-.127.4763-.2178.6668-.127.3811-.2449.7894-.3538 1.2248-.1089.4265-.1406.8483-.0953 1.2657.0182.1633.059.3402.1225.5307.0726.1815.1905.313.3538.3947.2994-.2903.5489-.617.7485-.9799.1996-.3719.4038-.7348.6124-1.0887l2.3952-.7349c-.1542.2541-.3039.5081-.4491.7621-.1452.2541-.3039.5036-.4763.7485-.1633.2359-.3448.4627-.5444.6805-.1996.2086-.4264.3946-.6804.5579-.2087.1361-.4264.2541-.6532.3539-.2178.0998-.4446.1996-.6805.2994-.0272.009-.0726.0226-.1361.0408-.0544.0181-.1043.0363-.1497.0544-.0453.0182-.0816.0318-.1088.0409-.0182.009-.0136.0045.0136-.0137.127-.0635.254-.1224.381-.1769.127-.0453.2541-.0907.3811-.1361-.0363.0091-.0726.0182-.1089.0273-.0363.009-.0771.0226-.1225.0408-.0453.0091-.0952.0227-.1497.0408-.1724.0726-.381.1497-.626.2314-.2359.0907-.4808.1633-.7349.2177-.254.0635-.5035.0953-.7484.0953-.245 0-.4537-.0545-.6261-.1633-.127-.0817-.2222-.1906-.2857-.3267-.0636-.136-.1089-.2812-.1361-.4354-.0182-.1633-.0272-.3221-.0272-.4763 0-.1634.009-.3085.0272-.4355.0363-.3266.0998-.6487.1905-.9663.0907-.3175.186-.635.2858-.9526.1724-.5716.3447-1.1431.5171-1.7147.1724-.5806.3493-1.1568.5308-1.7283.0725-.245.1361-.4582.1905-.6396.0635-.1815.1179-.3584.1633-.5308.0544-.1814.1043-.3674.1497-.558.0544-.1995.1179-.4309.1905-.694.0545-.1996.1044-.4264.1497-.6804.0544-.2632.0862-.5263.0953-.7894.0181-.2721.009-.5352-.0272-.7893-.0273-.254-.0998-.4718-.2178-.6532-.1089-.1905-.2722-.3312-.4899-.4219-.2087-.0907-.4854-.1134-.8301-.068-.3176.1814-.6261.4082-.9254.6804-.2904.2722-.5671.5716-.8302.8982-.2631.3175-.5126.6442-.7485.9798-.2268.3357-.4309.6578-.6124.9663-.1814.2903-.3493.5579-.5035.8029-.1452.2359-.3085.4536-.4899.6532-.1724.1905-.372.3675-.5988.5308-.2178.1633-.4899.313-.8165.4491l-.0409.0272c-.1724.626-.3493 1.252-.5307 1.878-.1724.6169-.3493 1.2384-.5308 1.8644l-.5307 1.8644c0 .0273-.0091.059-.0272.0953-.1906.1814-.3811.3538-.5716.5171s-.3811.3312-.5716.5036l-2.2999.6124c.1815-.1543.372-.2994.5716-.4355.2087-.127.372-.2949.4899-.5035.1543-.2722.2541-.5671.2994-.8846.0544-.3176.127-.6306.2178-.939l1.1703-4.1235.1089-.0272c-.0272-.0636-.0408-.1679-.0408-.313.009-.1543.0181-.3085.0272-.4627.0181-.1634.0363-.3085.0544-.4355.0182-.1361.0318-.2268.0408-.2722.0545-.4627.1543-.9027.2994-1.3201.1543-.4264.2768-.8664.3675-1.32.0363-.2359.0544-.49.0544-.7621.0091-.2722.0635-.5217.1633-.7485-.1633-.1361-.3266-.2404-.4899-.313-.1542-.0726-.3175-.1225-.4899-.1497-.1633-.0272-.3357-.0408-.5172-.0408-.1814 0-.3765.0045-.5851.0136-.118.0181-.2359.0272-.3539.0272-.1179 0-.2359 0-.3538 0z"/><path d="m87.8193 48.5461h.7621c.3085-.0091.626 0 .9526.0272.3267.0272.6397.0817.9391.1633.3084.0817.5579.2087.7484.3811.49-.1815.989-.3221 1.497-.4219.5081-.0998 1.0298-.1497 1.565-.1497-.3175.1724-.6396.3448-.9662.5171-.3175.1633-.6351.3267-.9526.49-.127 0-.254 0-.3811 0-.127 0-.254.009-.381.0272l-.0544.0408c.0362.1361.0499.2903.0408.4627-.0091.127-.0272.2722-.0545.4355-.0272.1633-.0635.3085-.1088.4355-.0726.4082-.1679.8074-.2858 1.1976-.1089.3901-.1996.7893-.2722 1.1975-.0726.4355-.1633.8801-.2722 1.3337-.1088.4446-.313.8392-.6124 1.184-.2994.3357-.6532.6033-1.0615.8029-.4082.1996-.8165.3856-1.2248.558-.5443.2177-1.1386.381-1.7827.4899-.6351.1179-1.2838.1769-1.9461.1769-.6623.0091-1.3155-.0408-1.9597-.1497-.635-.0998-1.2202-.2586-1.7555-.4763-.4083-.1633-.7984-.3629-1.1704-.5988-.3719-.2359-.7122-.5081-1.0206-.8165-.5172-.5172-.9345-1.1069-1.2521-1.7692-.3084-.6714-.5352-1.3699-.6804-2.0958-.1361-.7348-.1996-1.4788-.1905-2.2318s.068-1.4698.1769-2.1502c.2087-1.2611.5806-2.4768 1.1159-3.6472s1.2475-2.2182 2.1366-3.1436c.1724-.1724.3493-.3357.5308-.49.1814-.1542.3629-.3084.5443-.4627.499-.4173 1.066-.7711 1.7011-1.0614.6442-.2904 1.2702-.5399 1.878-.7485.5625-.1996 1.1387-.3629 1.7284-.49.5988-.136 1.1976-.2268 1.7963-.2721.6079-.0545 1.2112-.059 1.81-.0136.6079.0453 1.2067.1451 1.7964.2994.2177.0544.4446.1224.6804.2041.245.0726.4809.1633.7077.2722.2359.1088.4491.2404.6396.3946.1996.1452.3629.3221.4899.5308.0908.1451.1271.2994.1089.4627-.0181.1542-.0272.3084-.0272.4627 0 .381-.0272.7621-.0817 1.1431-.0453.3811-.068.7712-.068 1.1704l-2.4224.8301c0-.3901.0227-.7757.0681-1.1567.0544-.3811.0816-.7667.0816-1.1568 0-.1361.0091-.2767.0272-.4219.0182-.1542-.009-.2948-.0816-.4218-.127-.1996-.2858-.372-.4763-.5172-.1815-.1451-.3811-.2676-.5988-.3674-.2178-.1089-.4446-.1996-.6805-.2722-.2268-.0726-.4491-.1361-.6668-.1905-.4899-.127-1.0161-.2178-1.5786-.2722-.5535-.0635-1.1069-.068-1.6603-.0136-.5534.0454-1.0887.1588-1.6059.3402-.5171.1815-.9843.44-1.4017.7757-.753.6079-1.4108 1.3155-1.9733 2.123-.5625.7984-1.0206 1.6512-1.3745 2.5585-.3538.9072-.6033 1.8508-.7484 2.8306-.1452.9708-.1815 1.9325-.1089 2.8851.0726.9254.2404 1.7828.5035 2.5721.2722.7893.6442 1.4879 1.1159 2.0957.4809.5988 1.0706 1.0978 1.7692 1.497.7077.3992 1.5378.6759 2.4904.8302.4899.0725 1.0071.1179 1.5514.136.5444.0091 1.0661-.0362 1.565-.136.0454-.0454.0862-.0817.1225-.1089.0454-.0363.0908-.0862.1361-.1497.1543-.1633.2722-.3538.3538-.5716.0908-.2268.1634-.4445.2178-.6532.0726-.2813.1315-.5625.1769-.8438.0454-.2903.1043-.5761.1769-.8573.1089-.4083.2223-.8438.3402-1.3065.1271-.4717.2087-.9254.245-1.3609.0272-.3901-.0817-.6804-.3266-.8709-.245-.1905-.5489-.3221-.9118-.3947-.3538-.0726-.7213-.1043-1.1023-.0952-.3811 0-.6895 0-.9254 0zm-.694 8.3558c-.0091.0091-.0046.0091.0136 0 .0181-.009.0363-.0181.0544-.0272-.0363.0182-.059.0272-.068.0272z"/><path d="m93.5427 51.5128c.0181-.3992.0816-.7802.1905-1.1431.1089-.372.2404-.744.3947-1.1159.5171-1.3156 1.2429-2.4496 2.1774-3.4023.9345-.9526 2.0867-1.6376 3.4566-2.0549.2901-.0907.5851-.1678.8851-.2313.299-.0726.598-.1225.898-.1497.308-.0273.612-.0227.911.0136.309.0272.608.0952.899.2041.299.1089.544.2858.735.5307.199.2359.344.5036.435.803.1.2994.15.6124.15.939.009.3266-.032.626-.123.8982-.154.4627-.372.8845-.653 1.2656-.281.372-.603.7122-.966 1.0207-.363.3084-.758.5851-1.184.8301-.418.2359-.835.4491-1.252.6396-.327.1542-.658.2994-.9936.4355-.3357.127-.6759.254-1.0207.381-.0454.0182-.1452.0499-.2994.0953-.1452.0454-.2858.0862-.4219.1225 0 .0091-.0091.0136-.0272.0136s-.0317.0045-.0408.0136c-.2631.0998-.5671.2087-.9118.3266-.3357.1089-.6759.1951-1.0207.2586-.0091.4083.0046.8573.0408 1.3473.0454.4808.1407.9435.2858 1.3881.1543.4445.372.8392.6533 1.1839.2812.3357.6577.5671 1.1295.6941.2359.0635.4718.0907.7077.0816.2449-.009.4853-.0317.7212-.068.0363-.0091.0908-.0317.1633-.068.0726-.0363.1452-.0772.2178-.1225.0726-.0545.1406-.1044.2041-.1497.0635-.0545.1089-.0953.1356-.1225.345-.2722.658-.5625.94-.871.29-.3175.567-.6487.83-.9934l2.395-.7349c-.372.4809-.753.9163-1.143 1.3065-.39.381-.803.7258-1.239 1.0342-.426.3085-.889.5807-1.388.8166-.4898.2359-1.0251.44-1.6057.6124-.381.1088-.7757.1996-1.184.2721-.4082.0817-.8165.1134-1.2248.0953-.4536-.0181-.8483-.1089-1.1839-.2722-.3266-.1542-.6079-.3583-.8438-.6124-.2268-.2631-.4128-.5625-.558-.8982-.136-.3356-.2449-.6895-.3266-1.0614-.0725-.372-.1179-.7485-.1361-1.1296-.0181-.3901-.0181-.7666 0-1.1295.0182-.2268.0318-.4446.0409-.6532.0181-.2087.068-.4219.1497-.6397zm2.4224-.8301c.0725.0726.1406.1497.2041.2313.0726.0817.1497.1588.2313.2314l.1089.0817v.0136c-.0181-.0182-.0272-.0273-.0272-.0273.0091 0 .0181.0046.0272.0137.0091.009.0182.0136.0272.0136.0545.0181.118.0317.1905.0408.0726.0091.1316.0091.177 0h.0544c.0272 0 .0544-.0046.0817-.0136h.0136.0544c.0181-.0091.0363-.0136.0544-.0136.0545-.0182.1089-.0363.1633-.0545.0545-.0181.1089-.0363.1633-.0544.0998-.0363.2133-.0771.3403-.1225.1361-.0453.3493-.1134.6396-.2041l.381-.1361c.1543-.0635.304-.1225.4491-.1769.1543-.0635.304-.1361.4491-.2178.5077-.2812.9567-.6169 1.3477-1.007.399-.3992.716-.871.952-1.4153.118-.2722.186-.5489.204-.8302.018-.2812-.004-.567-.068-.8573-.154-.6623-.453-1.1477-.898-1.4562-.444-.3175-1.025-.4128-1.7418-.2858-.4536.2813-.8891.6669-1.3065 1.1568-.4082.4808-.7757 1.0116-1.1023 1.5922-.3266.5716-.5942 1.1658-.8029 1.7828-.2087.6078-.3312 1.1794-.3674 1.7147zm.5171.5171v.0136c0-.009 0-.0136 0-.0136z"/><path d="m112.031 43.8374-1.415 1.2793-.259 2.0277c.037-.0544.073-.1089.109-.1633.036-.0545.077-.1089.123-.1633.181-.2268.39-.4264.626-.5988.245-.1815.503-.3357.775-.4627.272-.1361.549-.2495.83-.3402.291-.0908.572-.1724.844-.245.2-.0454.395-.0862.585-.1225.191-.0363.386-.0726.586-.1088l.272-.0409c.036 0 .09-.0045.163-.0136.073-.0181.091-.0227.054-.0136-.045.0182-.095.0318-.149.0408-.046 0-.091.0046-.136.0136l-.232.6261c-.217.0725-.44.136-.666.1905-.227.0544-.459.0998-.695.1361l-.326.0544c-.2.1996-.372.4173-.517.6532-.136.2359-.268.4763-.395.7213-.118.245-.24.4899-.367.7349-.127.2359-.277.4627-.449.6804-.127.1543-.286.2903-.477.4083-.181.1089-.363.2041-.544.2858l-.218.0952h.014c-.091.0908-.173.2314-.245.4219-.064.1815-.123.3765-.177.5852-.046.2087-.086.4173-.123.626-.036.2087-.068.381-.095.5171-.1.4355-.204.8665-.313 1.2929-.109.4173-.209.8437-.299 1.2792-.073.3266-.127.6396-.164.939-.027.2994-.077.5852-.149.8574-.064.2722-.164.5353-.3.7893-.136.245-.34.4808-.612.7077l-.082.0816-2.3.6124c.046-.0363.087-.0726.123-.1089s.077-.068.122-.0952c.046-.0454.091-.0908.136-.1361.046-.0454.091-.0907.136-.1361.128-.1905.223-.3947.286-.6124.073-.2268.127-.4536.164-.6804.045-.2359.081-.4718.108-.7077.028-.2359.064-.4627.109-.6804.136-.6533.286-1.3065.449-1.9597.164-.6533.318-1.3065.463-1.9597.045-.1996.1-.3765.163-.5307.064-.1634.15-.3085.259-.4355l-.191.068.558-4.3276c-.226-.1815-.458-.3039-.694-.3674-.226-.0636-.485-.0862-.775-.0681l-.517.0408h-.041l-.123.0136-.081.0137c-.037 0-.046-.0046-.028-.0137.046-.0181.096-.0272.15-.0272h.163c.019 0 .014.0046-.013.0136-.027 0-.05 0-.068 0-.064 0-.132.0091-.204.0273h-.055c-.054.009-.095.0136-.122.0136-.018 0-.037 0-.055 0-.009 0-.027 0-.054 0s-.068 0-.123 0c.318-.1633.635-.3267.953-.49.327-.1723.649-.3447.966-.5171h.327c.299-.0544.608-.0862.925-.0953.327-.009.635.0136.926.0681l.081-.0817z"/><path d="m117.523 44.1777c.227 0 .454-.0046.681-.0137.226-.0181.453-.0272.68-.0272s.445.0182.653.0545c.218.0272.427.0862.626.1769l1.552-.3539c-.1.0817-.204.1634-.313.245-.1.0726-.204.1452-.313.2177l-.055.0545c.009.0181-.013.0453-.068.0816-.045.0363-.077.0635-.095.0817-.082.0998-.136.1951-.163.2858-.055.1905-.091.3856-.109.5852-.009.1905-.023.3855-.041.5851-.018.2631-.064.5308-.136.803-.064.2631-.132.5262-.204.7893l-.123.5443.218-.313c.635-.88 1.329-1.624 2.082-2.2318.753-.617 1.656-1.0978 2.708-1.4426.173-.0544.372-.1134.599-.1769s.463-.1179.708-.1633.49-.0726.735-.0816c.254-.0091.49.0181.707.0816.227.0544.422.1497.585.2858.173.127.3.3085.381.5444.091.254.137.5262.137.8165s-.028.5852-.082.8846c-.045.2994-.109.5988-.191.8981-.081.2994-.154.5898-.217.871.099-.1451.199-.2858.299-.4219.109-.136.213-.2721.313-.4082.681-.8891 1.497-1.6331 2.45-2.2319.952-.6078 1.991-1.0025 3.116-1.184.209-.0453.417-.0816.626-.1088.209-.0363.417-.0545.626-.0545.372 0 .667.0726.885.2178.217.1451.376.3311.476.5579.109.2269.172.49.191.7894.018.2903.009.5897-.028.8981-.036.3085-.09.6079-.163.8982-.064.2904-.122.5489-.177.7757-.036.1452-.072.2904-.109.4355-.036.1361-.077.2813-.122.4355l-.245.8574c-.136.4899-.286.9798-.449 1.4697-.1.2903-.191.5897-.272.8982-.073.2994-.164.5943-.273.8846-.045.1814-.095.3584-.149.5307-.055.1724-.109.3493-.164.5308-.045.1724-.099.381-.163.626-.054.2449-.095.4944-.122.7485-.019.254-.01.499.027.7349.036.2358.127.4264.272.5715.045.0545.118.0953.218.1225l.217-.245c.236-.2812.44-.5806.613-.8981.172-.3267.34-.6487.503-.9663l2.396-.7348c-.255.4989-.509.9435-.763 1.3336-.245.3811-.526.7213-.843 1.0207-.309.2903-.667.5443-1.075.7621-.4.2087-.876.3901-1.429.5443-.254.0726-.527.1361-.817.1906-.281.0544-.549.0635-.803.0272-.245-.0363-.453-.1361-.626-.2994-.172-.1633-.277-.4264-.313-.7893-.027-.2631-.023-.5262.014-.7893.045-.2722.1-.5399.163-.803.073-.2631.15-.5216.231-.7757.091-.2631.173-.5171.245-.7621.155-.5262.318-1.0524.49-1.5786.173-.5353.336-1.0706.49-1.6058.164-.5353.309-1.0706.436-1.6059.136-.5444.24-1.0932.313-1.6467.036-.3084.05-.6169.041-.9254-.01-.3084-.073-.5761-.191-.8029-.109-.2359-.281-.4083-.517-.5171-.236-.118-.554-.1361-.953-.0545-.281.1633-.549.3584-.803.5852-.245.2178-.476.4536-.694.7077-.217.254-.422.5171-.612.7893-.191.2631-.372.5307-.544.8029-.182.2813-.345.5716-.49.871-.146.2994-.332.5716-.558.8165-.218.2359-.468.431-.749.5852-.272.1542-.553.2949-.844.4219l-1.143 3.8241-.612 2.1502c0 .0272-.009.0589-.027.0952-.2.1905-.4.3765-.599.558-.191.1724-.386.3493-.585.5307l-2.3.6124c.09-.0816.186-.1633.286-.2449.108-.0726.213-.1497.313-.2314.099-.0726.19-.1542.272-.2449.09-.0817.168-.1769.231-.2858.172-.3176.29-.6578.354-1.0207.063-.372.145-.7349.245-1.0887l1.238-4.1235.096-.0272c-.055-.2087-.064-.4219-.028-.6396.046-.2268.087-.4446.123-.6532.081-.49.19-.9799.326-1.4698.137-.4899.223-.9844.259-1.4834.018-.2631.005-.5126-.041-.7485-.036-.2449-.113-.4536-.231-.626-.118-.1723-.281-.2994-.49-.381-.2-.0907-.454-.1225-.762-.0953-.291.1452-.576.3539-.858.626-.281.2722-.553.5716-.816.8982-.254.3176-.495.6442-.721.9799-.227.3356-.427.635-.599.8981-.154.2359-.304.4673-.449.6941s-.313.44-.504.6396c-.19.1905-.399.3584-.626.5035-.218.1452-.449.2677-.694.3675-.19.6623-.394 1.3246-.612 1.9869-.209.6623-.386 1.3336-.531 2.0141-.073.3357-.141.6487-.204.939-.055.2903-.136.5625-.245.8165-.109.2541-.259.49-.449.7077-.182.2177-.436.4219-.762.6124 0 .0091-.005.0136-.014.0136-.072.0544-.145.1043-.218.1497-.072.0544-.149.1043-.231.1497h-1.279c-.027.0181-.068.0454-.123.0817-.054.0362-.113.0725-.177.1088-.063.0454-.127.0862-.19.1225-.064.0454-.114.0817-.15.1089-.009.009-.013.009-.013 0 .009-.0091.018-.0182.027-.0272l.095-.1225c.027-.0272.059-.0545.095-.0817.046-.0272.087-.0499.123-.068.127-.0908.245-.186.354-.2858.108-.0998.217-.2041.326-.313.218-.2994.354-.6306.409-.9935.063-.3719.131-.7348.204-1.0887.154-.7348.344-1.4561.571-2.1638.236-.7076.458-1.4244.667-2.1502l.15-.0408-.096-.0272c0-.3176.023-.6306.069-.939.054-.3085.113-.617.176-.9254.073-.3085.146-.6124.218-.9118.082-.3085.15-.6215.204-.939.028-.1271.041-.2586.041-.3947s.005-.2722.014-.4083.022-.2721.041-.4082c.027-.1361.072-.2631.136-.3811-.155-.1361-.313-.2404-.477-.313-.154-.0726-.317-.1225-.49-.1497-.163-.0272-.335-.0408-.517-.0408-.181 0-.372.0045-.571.0136-.118.0181-.232.0272-.34.0272-.109 0-.223 0-.341 0zm17.365 13.1189c.009 0 .018-.0045.027-.0136-.018.0091-.027.0136-.027.0136z"/><path d="m154.37 53.9488c-.245.4627-.513.9027-.803 1.3201-.29.4173-.621.8074-.993 1.1703-.427.4083-.93.7213-1.511.9391-.572.2177-1.143.3629-1.715.4354-.109.0182-.227.0273-.354.0273-.127.009-.254 0-.381-.0273-.127-.0181-.249-.0544-.367-.1088-.109-.0454-.204-.118-.286-.2178-.154-.1905-.236-.4128-.245-.6668-.009-.2631 0-.5081.027-.7349.046-.4718.141-.9299.286-1.3745.154-.4445.281-.8982.381-1.3609l.055-.2994c-.354.5535-.731 1.0797-1.13 1.5787-.39.4899-.83.9526-1.32 1.3881-.218.1996-.458.381-.721.5443-.263.1543-.526.2949-.789.4219-.127.0635-.254.1225-.382.1769-.117.0454-.24.0953-.367.1497-.054.0182-.132.0499-.231.0953-.091.0363-.177.068-.259.0952-.082.0273-.145.0454-.19.0545-.037.0181-.032.009.013-.0272.073-.0454.177-.0998.313-.1633-.218.0816-.462.1633-.735.2449-.263.0907-.535.1633-.816.2178-.272.0635-.545.0952-.817.0952-.263.0091-.508-.0317-.735-.1225-.154-.0635-.29-.1542-.408-.2721-.109-.118-.204-.2495-.286-.3947-.072-.1542-.136-.313-.19-.4763-.046-.1633-.082-.3221-.109-.4763-.154-.7621-.182-1.5106-.082-2.2455s.268-1.4697.504-2.2046c.281-.8801.644-1.7238 1.089-2.5313.444-.8074.966-1.5468 1.565-2.2182.598-.6805 1.274-1.2702 2.027-1.7692.762-.508 1.593-.9072 2.491-1.1976.78-.254 1.556-.4037 2.327-.449.78-.0454 1.556.0907 2.327.4082.181.0726.34.1588.476.2586.145.0998.286.2087.422.3266l.49-.1497c-.045.0726-.086.1452-.122.2177-.037.0726-.078.1452-.123.2178-.091.6441-.222 1.2747-.395 1.8916-.163.617-.34 1.2384-.53 1.8644-.109.3539-.214.7077-.313 1.0615-.1.3539-.241.6986-.422 1.0343l-.014.0136.041.1497c.027.2087.018.4173-.027.626-.036.1996-.077.4037-.123.6124-.063.2994-.14.6033-.231.9118-.082.2994-.163.5988-.245.8982-.073.2994-.141.6033-.204.9118-.055.3085-.086.6215-.095.939 0 .1815.027.372.081.5716.055.1996.173.3447.354.4355.29-.2994.549-.6306.776-.9935s.435-.7258.626-1.0887zm-5.022-4.5181c.191-.617.368-1.2339.531-1.8508.172-.617.304-1.2475.395-1.8917h-.028c0-.009 0-.0136 0-.0136.01-.009.014-.0181.014-.0272-.535-.4445-1.08-.753-1.633-.9254-.553-.1814-1.184-.2177-1.892-.1089-.254.1089-.503.2541-.748.4355-.236.1815-.467.3811-.694.5988-.227.2178-.44.4446-.64.6805-.19.2358-.363.4581-.517.6668-.372.499-.73 1.0751-1.075 1.7283-.345.6442-.64 1.3246-.885 2.0413-.245.7077-.421 1.4244-.53 2.1503-.1.7258-.096 1.4153.013 2.0685.055.2994.127.6079.218.9254s.263.5806.517.7893c.209.1542.436.2223.681.2041h.108l.273-.0816.258-.1905c.327-.2722.626-.5625.898-.871.282-.3175.549-.6487.803-.9934.2-.2722.395-.5535.586-.8438.199-.2903.381-.5852.544-.8846.1-.1814.204-.3629.313-.5443.109-.1815.231-.3539.367-.5172.209-.2359.458-.4354.749-.5988.054-.0362.1-.0635.136-.0816.045-.0272.091-.0499.136-.068-.009 0-.018.0045-.027.0136 0 0-.005 0-.014 0-.018.009-.023.009-.013 0 .018-.0091.036-.0182.054-.0273.027-.0181.054-.0317.082-.0408.027-.0181.05-.0317.068-.0408.009-.0091.068-.0408.177-.0953.118-.0635.204-.1043.258-.1225h.014c.009-.009.022-.0136.041-.0136.09-.2359.167-.4763.231-.7212.073-.2541.15-.5036.231-.7485zm-.898 1.6875c.009 0 .023-.0091.041-.0272l-.054.0272zm.055-.0408-.055.0272c.018 0 .036-.0091.055-.0272zm-.123.0816.041-.0272-.055.0272z"/><path d="m156.501 44.2865c.435 0 .848-.0136 1.238-.0408.399-.0363.785 0 1.157.1089l2.218-.5852c-.209.1996-.44.381-.694.5443-.254.1543-.454.3539-.599.5988-.109.1815-.159.3856-.15.6124.01.2268-.004.4401-.04.6397-.073.4082-.182.8119-.327 1.2111-.136.3902-.245.7939-.327 1.2112l-.04.2586.381-.558c.78-1.1159 1.655-2.0277 2.626-2.7353.971-.7168 2.132-1.2112 3.484-1.4834.209-.0454.422-.0817.64-.1089.217-.0272.431-.0272.639 0 .408.0363.721.1542.939.3538.227.1996.381.4446.463.7349s.109.617.082.9799c-.019.3538-.068.7076-.15 1.0615-.073.3538-.159.694-.259 1.0206-.099.3266-.181.6033-.245.8302-.045.1723-.095.3447-.149.5171-.055.1633-.109.3357-.164.5171-.118.372-.236.744-.353 1.116-.118.3629-.232.7348-.341 1.1159-.054.1814-.113.3992-.177.6532-.054.254-.127.4763-.217.6668-.127.3811-.245.7894-.354 1.2248-.109.4265-.141.8483-.095 1.2657.018.1633.059.3402.122.5307.073.1815.191.313.354.3947.299-.2903.549-.617.748-.9799.2-.3719.404-.7348.613-1.0887l2.395-.7349c-.154.2541-.304.5081-.449.7621-.145.2541-.304.5036-.476.7485-.164.2359-.345.4627-.545.6805-.199.2086-.426.3946-.68.5579-.209.1361-.427.2541-.654.3539-.217.0998-.444.1996-.68.2994-.027.009-.073.0226-.136.0408-.054.0181-.104.0363-.15.0544-.045.0182-.081.0318-.109.0409-.018.009-.013.0045.014-.0137.127-.0635.254-.1224.381-.1769.127-.0453.254-.0907.381-.1361-.036.0091-.072.0182-.109.0273-.036.009-.077.0226-.122.0408-.046.0091-.096.0227-.15.0408-.172.0726-.381.1497-.626.2314-.236.0907-.481.1633-.735.2177-.254.0635-.503.0953-.748.0953s-.454-.0545-.626-.1633c-.127-.0817-.223-.1906-.286-.3267-.064-.136-.109-.2812-.136-.4354-.018-.1633-.027-.3221-.027-.4763 0-.1634.009-.3085.027-.4355.036-.3266.1-.6487.19-.9663.091-.3175.186-.635.286-.9526.172-.5716.345-1.1431.517-1.7147.173-.5806.35-1.1568.531-1.7283.073-.245.136-.4582.191-.6396.063-.1815.117-.3584.163-.5308.054-.1814.104-.3674.15-.558.054-.1995.117-.4309.19-.694.054-.1996.104-.4264.15-.6804.054-.2632.086-.5263.095-.7894.018-.2721.009-.5352-.027-.7893-.027-.254-.1-.4718-.218-.6532-.109-.1905-.272-.3312-.49-.4219-.209-.0907-.485-.1134-.83-.068-.318.1814-.626.4082-.925.6804-.291.2722-.567.5716-.831.8982-.263.3175-.512.6442-.748.9798-.227.3357-.431.6578-.612.9663-.182.2903-.35.5579-.504.8029-.145.2359-.308.4536-.49.6532-.172.1905-.372.3675-.599.5308-.217.1633-.49.313-.816.4491l-.041.0272c-.172.626-.349 1.252-.531 1.878-.172.6169-.349 1.2384-.531 1.8644l-.53 1.8644c0 .0273-.009.059-.028.0953-.19.1814-.381.3538-.571.5171-.191.1633-.381.3312-.572.5036l-2.3.6124c.182-.1543.372-.2994.572-.4355.209-.127.372-.2949.49-.5035.154-.2722.254-.5671.299-.8846.055-.3176.127-.6306.218-.939l1.17-4.1235.109-.0272c-.027-.0636-.041-.1679-.041-.313.01-.1543.019-.3085.028-.4627.018-.1634.036-.3085.054-.4355.018-.1361.032-.2268.041-.2722.054-.4627.154-.9027.299-1.3201.155-.4264.277-.8664.368-1.32.036-.2359.054-.49.054-.7621.009-.2722.064-.5217.164-.7485-.164-.1361-.327-.2404-.49-.313-.155-.0726-.318-.1225-.49-.1497-.164-.0272-.336-.0408-.517-.0408-.182 0-.377.0045-.586.0136-.118.0181-.236.0272-.353.0272-.118 0-.236 0-.354 0z"/><path d="m170.852 44.4907c.472-.1089.939-.1996 1.402-.2722.471-.0726.948-.1089 1.429-.1089.199 0 .403.0182.612.0544.209.0273.39.1089.544.245.1.0817.173.1815.218.2994.055.1179.091.245.109.381.018.1271.027.2586.027.3947.009.1361.023.2631.041.3811.073.4989.141.9979.204 1.4969.064.499.118 1.0026.163 1.5106.082.7984.146 1.6013.191 2.4088.045.7984.104 1.6013.177 2.4088l.136 1.3745c.082-.1634.159-.3221.231-.4764.082-.1542.159-.2948.232-.4218.571-.998 1.129-1.996 1.674-2.994.544-1.007 1.011-2.0549 1.401-3.1436.091-.2631.164-.5308.218-.803.054-.2721.113-.5398.177-.8029.063-.2631.145-.5171.245-.7621.109-.254.263-.4899.463-.7076l2.3-.6124c-.137.1542-.25.322-.341.5035-.081.1724-.154.3538-.217.5443-.055.1906-.1.3856-.137.5852-.036.1996-.077.3947-.122.5852-.054.254-.118.4945-.191.7213-.072.2177-.158.4491-.258.694-.408 1.0343-.885 2.0278-1.429 2.9804-.535.9526-1.075 1.9098-1.62 2.8714-.099.1724-.195.3539-.285.5444-.082.1905-.168.3765-.259.558-.091.1814-.19.3583-.299.5307s-.236.3266-.381.4627c-.209.1905-.436.3584-.681.5035-.236.1361-.485.2586-.748.3675-.055.4173-.15.8664-.286 1.3473-.136.4808-.299.9571-.49 1.4289-.181.4718-.39.9209-.626 1.3473-.227.4354-.463.8074-.708 1.1159-.245.2994-.53.5625-.857.7893-.318.2359-.662.4355-1.034.5988-.363.1724-.744.3085-1.143.4083-.391.1088-.772.1814-1.144.2177-.217.0272-.43.0272-.639 0-.2-.0181-.381-.0726-.545-.1633-.154-.0817-.285-.1996-.394-.3538-.1-.1543-.163-.3539-.191-.5988l2.423-.8302c.018.1815.063.3493.136.5036.081.1633.213.2812.394.3538l.313.0953c.028-.0273.05-.0545.068-.0817.028-.0272.055-.0499.082-.068.154-.1543.286-.3221.395-.5036.118-.1723.227-.3493.326-.5307.318-.5807.595-1.1794.831-1.7964.245-.6169.435-1.252.571-1.9052.127-.617.168-1.2203.123-1.81-.037-.5988-.082-1.2112-.136-1.8372-.073-.7984-.137-1.5968-.191-2.3952-.045-.8074-.104-1.6149-.177-2.4223-.036-.3267-.073-.6487-.109-.9663-.036-.3266-.077-.6532-.122-.9798-.018-.0907-.037-.254-.055-.4899-.018-.245-.045-.499-.081-.7621-.037-.2631-.087-.5081-.15-.7349-.054-.2268-.127-.3765-.218-.4491-.154-.127-.34-.1951-.558-.2041-.218-.0091-.417-.0091-.599 0-.217.0181-.435.0453-.653.0816-.208.0272-.417.0635-.626.1089-.027.0091-.054.0181-.081.0272-.019 0-.041 0-.068 0zm.885 18.5489c.027-.0091.018-.0091-.028 0-.036.009-.077.0181-.122.0272z"/></g></svg>