<svg fill="none" height="44" viewBox="0 0 215 44" width="215" xmlns="http://www.w3.org/2000/svg"><path d="m55.0762 3.62598-.2134.03369.2808-.06738.101-.05616h.1348.0112c.0075-.00748.0187-.01123.0337-.01123.1498-.02246.2995-.0262.4492-.01123.1498.00749.2995.01123.4493.01123.2171 0 .4305.02621.6401.07862.2096.04492.3968.14225.5615.29199l.1572.14599c.1348-.0524.2696-.10107.4043-.14599.1423-.04492.2845-.08985.4268-.13477.3743-.10482.7487-.16845 1.123-.19092.3744-.02246.7525-.03369 1.1343-.03369-.262.14226-.5278.28451-.7973.42676-.2621.13477-.5241.26953-.7862.4043-.1722 0-.3444 0-.5166 0-.1722-.00749-.3444-.00375-.5166.01123l-.1572.07861c-.0225.47917-.0749.95833-.1572 1.4375-.0749.47168-.1647.9471-.2696 1.42627-.1048.47168-.2208.94336-.3481 1.41504-.1198.46419-.2396.92839-.3594 1.39256-.1872.7263-.3481 1.4562-.4829 2.19-.1273.7337-.277 1.4674-.4492 2.2011-.1123.4942-.2246.9846-.3369 1.4712-.1048.4792-.1947.9696-.2696 1.4712-.0149.0824-.0336.1685-.0561.2583-.015.0899-.03.1834-.0449.2808-.0075.0898-.0113.1834-.0113.2807.0075.0899.03.1722.0674.2471.1123.2096.2621.3594.4492.4492.1947.0824.4043.1385.6289.1685.2247.0299.4493.0412.6739.0337.2321-.0075.4454-.0038.6401.0112l-1.7632.8198c-.1946-.0149-.4043-.0187-.6289-.0112-.2171.0075-.438.0037-.6626-.0112-.2246-.0225-.438-.0674-.6401-.1348-.2022-.0674-.3744-.1797-.5166-.3369-.4792.1722-.9658.2882-1.46.3481-.4941.0524-1.0332.1011-1.6172.146.2621-.1347.5241-.2695.7862-.4043.2695-.1422.5353-.2845.7973-.4267.1647-.015.3257-.0225.4829-.0225.1648-.0075.3295-.0187.4942-.0337h.146c.0449-.0075.0898-.015.1347-.0224l.0337-.0113c-.0224-.1272-.0299-.2658-.0224-.4155s.0224-.2995.0449-.4492c.0225-.1498.0487-.292.0786-.4268.03-.1347.0524-.2545.0674-.3593.0075-.0375.0187-.0899.0337-.1573.015-.0748.0299-.1497.0449-.2246.015-.0823.03-.1535.0449-.2134.015-.0599.0225-.0973.0225-.1123l.2695-1.123c.1123-.5316.2209-1.0632.3257-1.5947.1048-.5316.2134-1.0669.3257-1.606-.1348-.1348-.2733-.2695-.4155-.4043-.1348-.1422-.307-.2171-.5166-.2246-.0824 0-.1498 0-.2022 0-.0449-.0075-.0861-.0112-.1235-.0112-.0375 0-.0749.0037-.1123.0112-.0375 0-.0861.0037-.146.0112-.0524.0075-.1048.015-.1573.0225-.0449 0-.0898 0-.1347 0h-.0562c-.1497.0224-.2994.0337-.4492.0337-.0973 0-.2471 0-.4492 0-.2022-.0075-.438-.0113-.7075-.0113-.2696-.0074-.5616-.0112-.876-.0112-.3145-.0075-.6327-.0112-.9546-.0112-.3144 0-.6252.0037-.9321.0112-.2995.0075-.5765.0187-.8311.0337-.0973.015-.2134.0337-.3481.0562-.1348.0149-.277.0262-.4268.0337-.1048.4716-.2096.9396-.3144 1.4038-.0974.4567-.2022.9209-.3145 1.3925-.1048.4567-.2059.9135-.3032 1.3702s-.176.9209-.2358 1.3925c-.015.1049-.0337.2059-.0562.3033-.015.0973-.0262.1946-.0337.292-.0075.0973-.0037.1946.0112.2919.015.0974.0562.1947.1236.292.1123.1647.262.2808.4492.3482s.3893.1085.6064.1235c.2172.015.4305.0225.6402.0225.2171-.0075.4118-.0038.584.0112l-1.7632.8198c-.1797-.0149-.3631-.0187-.5503-.0112-.1872 0-.3781-.0037-.5728-.0112-.1871-.0075-.3743-.03-.5615-.0674-.1797-.0374-.3481-.1048-.5054-.2022-.1422-.0823-.2433-.1647-.3032-.247-.4792.1647-.9583.2882-1.4375.3706-.4792.0748-.9995.131-1.561.1684l1.5835-.831c.2096-.015.423-.0262.6401-.0337s.423-.03.6177-.0674c-.015-.1348-.0112-.277.0112-.4268.03-.1497.0562-.3032.0786-.4604.0824-.6364.1909-1.2616.3257-1.8755.1423-.6139.2883-1.2316.438-1.853.1797-.7862.3519-1.5685.5166-2.3472.1647-.7786.3369-1.561.5166-2.34716.1797-.78613.3594-1.57226.5391-2.3584.1797-.79362.2845-1.59847.3144-2.41455-.0075 0-.015-.00374-.0224-.01123-.1273-.05989-.2359-.13851-.3257-.23584-.0899-.10481-.1947-.19466-.3145-.26953-.0823-.05241-.1834-.0861-.3032-.10107-.1123-.02246-.2321-.03369-.3594-.03369-.1198-.00749-.2358-.00749-.3481 0-.1123.00748-.2022.01123-.2696.01123-.0374 0-.0898.00374-.1572.01123-.0674.00748-.0973.00748-.0898 0h-.1236l1.4151-.74121-.2134.03369.2808-.06738.101-.05616h.1348.0112c.0075-.00748.0188-.01123.0337-.01123.1498-.02246.2995-.0262.4492-.01123.1573.00749.3108.01123.4605.01123.1947 0 .3856.01872.5727.05615.1872.02995.3557.10857.5054.23584l.2246.21338c.1048-.03743.2059-.07487.3033-.1123.0973-.03744.1984-.07113.3032-.10108.4267-.11979.8423-.19466 1.2466-.2246.4043-.03744.8235-.05616 1.2578-.05616-.2621.14226-.5279.28451-.7974.42676-.262.13477-.5241.26953-.7861.4043-.1722 0-.3407 0-.5054 0-.1647-.00749-.3332-.00375-.5054.01123l-.1909.10107c-.0374.78613-.1422 1.55729-.3144 2.31348-.1722.75618-.3482 1.51986-.5279 2.29101l-.3369 1.49362.1348-.0561c.1647.1647.2957.292.393.3818.1049.0824.2059.1385.3033.1685.1048.0299.2283.0412.3706.0337.1422-.0075.3444-.0225.6064-.045.1722-.0299.3631-.0449.5728-.0449h4.436c.1722 0 .3482-.0075.5278-.0224.1797-.0225.3594-.0412.5391-.0562l.0337-.1235c.1198-.4717.2433-.94713.3706-1.42629.1273-.47917.2433-.96208.3481-1.44873.1123-.48666.2059-.97331.2808-1.45996.0749-.49414.1235-.98829.146-1.48243-.015 0-.0225-.00374-.0225-.01123-.1272-.05989-.2358-.13851-.3256-.23584-.0899-.10481-.1984-.19091-.3257-.2583-.0899-.05241-.1947-.0861-.3145-.10107-.1123-.02246-.2283-.03369-.3481-.03369-.1123-.00749-.2246-.00749-.3369 0-.1123 0-.2134 0-.3033 0-.0374 0-.0898.00374-.1572.01123-.0674.00748-.0973.00748-.0898 0h-.1236zm-2.2124 8.16452c.0374-.0075.0187-.0075-.0562 0s-.1347.015-.1797.0225zm1.9541-8.1196c-.0075 0-.0075 0 0 0 .0149-.00749.0299-.01123.0449-.01123-.015.00748-.03.01123-.0449.01123zm-9.8379 0c-.0075 0-.0075 0 0 0 .015-.00749.0299-.01123.0449-.01123-.015.00748-.0299.01123-.0449.01123zm26.6162 13.4429c-.2022.3818-.423.7449-.6626 1.0893s-.5129.6664-.8198.9658c-.3519.337-.7674.5953-1.2466.7749-.4717.1797-.9434.2995-1.4151.3594-.0898.015-.1871.0225-.2919.0225-.1049.0075-.2097 0-.3145-.0225-.1048-.015-.2059-.0449-.3032-.0898-.0899-.0375-.1685-.0974-.2359-.1797-.1272-.1572-.1946-.3407-.2021-.5503-.0075-.2171 0-.4193.0225-.6064.0374-.3894.116-.7675.2358-1.1343.1273-.3669.2321-.7412.3144-1.1231l.045-.247c-.292.4567-.6027.8909-.9322 1.3027-.3219.4043-.685.7861-1.0893 1.1455-.1797.1647-.3781.3145-.5952.4492-.2172.1273-.4343.2433-.6514.3482-.1048.0524-.2096.101-.3145.146-.0973.0374-.1984.0786-.3032.1235-.0449.015-.1085.0412-.1909.0786-.0749.03-.146.0562-.2134.0786-.0674.0225-.1198.0375-.1572.0449-.0299.015-.0262.0075.0112-.0224.0599-.0375.146-.0824.2583-.1348-.1797.0674-.3818.1348-.6064.2022-.2171.0748-.4417.1347-.6738.1797-.2246.0524-.4493.0786-.6739.0786-.2171.0075-.4192-.0262-.6064-.1011-.1273-.0524-.2396-.1273-.3369-.2246-.0899-.0973-.1685-.2059-.2359-.3257-.0599-.1273-.1123-.2583-.1572-.3931-.0374-.1347-.0674-.2658-.0898-.393-.1273-.6289-.1498-1.2466-.0674-1.8531.0823-.6064.2208-1.2129.4155-1.8193.2321-.7262.5316-1.4225.8984-2.0889.3669-.6663.7974-1.2765 1.2915-1.8305.4942-.5616 1.052-1.0482 1.6734-1.45999.6289-.41927 1.314-.7487 2.0552-.98828.6438-.20964 1.284-.33317 1.9204-.37061.6439-.03743 1.284.07487 1.9204.33692.1497.05989.2807.13102.3931.21337.1197.08236.2358.17221.3481.26954l.4043-.12354c-.0374.0599-.0711.11979-.1011.17969-.0299.05989-.0636.11979-.1011.17969-.0748.53161-.1834 1.05191-.3256 1.56101-.1348.5091-.2808 1.022-.438 1.5386-.0899.292-.176.584-.2583.876-.0824.292-.1984.5765-.3482.8535l-.0112.0112.0337.1236c.0224.1722.015.3444-.0225.5166-.0299.1647-.0636.3331-.101.5053-.0525.2471-.1161.4979-.191.7525-.0673.247-.1347.4941-.2021.7412-.0599.247-.1161.4979-.1685.7524-.0449.2546-.0711.5129-.0786.7749 0 .1498.0225.307.0674.4717s.1423.2845.292.3594c.2396-.2471.453-.5204.6401-.8198.1872-.2995.3594-.599.5166-.8985zm-4.1441-3.7285c.1573-.5092.3033-1.0183.438-1.5274.1423-.5091.2509-1.0294.3257-1.561h-.0224c0-.0075 0-.0113 0-.0113.0074-.0074.0112-.0149.0112-.0224-.4417-.36688-.891-.62144-1.3477-.76369-.4567-.14974-.977-.17969-1.561-.08984-.2096.08984-.4155.20963-.6177.35937-.1946.14974-.3856.31446-.5727.49416-.1872.1797-.3631.3668-.5279.5615-.1572.1947-.2994.3781-.4267.5503-.307.4118-.6027.8872-.8872 1.4263-.2845.5315-.5279 1.0931-.73 1.6845-.2022.584-.3482 1.1755-.438 1.7745-.0824.5989-.0786 1.1679.0112 1.707.045.2471.1049.5016.1797.7637.0749.262.2171.4791.4268.6513.1722.1273.3594.1835.5615.1685h.0898l.2247-.0674.2133-.1572c.2696-.2246.5166-.4642.7412-.7188.2321-.262.453-.5353.6626-.8198.1648-.2246.3257-.4567.483-.6963.1647-.2396.3144-.4829.4492-.73.0823-.1497.1684-.2995.2583-.4492.0898-.1497.1909-.292.3032-.4267.1722-.1947.3781-.3594.6177-.4942.0449-.0299.0823-.0524.1123-.0674.0374-.0224.0748-.0412.1123-.0561-.0075 0-.015.0037-.0225.0112 0 0-.0037 0-.0112 0-.015.0075-.0187.0075-.0112 0 .0149-.0075.0299-.015.0449-.0225.0224-.0149.0449-.0262.0674-.0336.0224-.015.0411-.0263.0561-.0337.0075-.0075.0562-.0337.146-.0787.0973-.0524.1685-.0861.2134-.101h.0112c.0075-.0075.0187-.0113.0337-.0113.0749-.1946.1385-.393.1909-.5952.0599-.2096.1236-.4155.1909-.6176zm-.7412 1.3925c.0075 0 .0188-.0075.0337-.0224l-.0449.0224zm.045-.0337-.045.0225c.015 0 .03-.0075.045-.0225zm-.1011.0674.0337-.0224-.0449.0224zm7.3896-5.67136c.3594 0 .7001-.01123 1.022-.03369.3294-.02995.6476 0 .9546.08984l1.8306-.48291c-.1722.16471-.3632.31445-.5728.44922-.2096.12728-.3743.29199-.4941.49414-.0899.14974-.1311.31819-.1236.50536.0075.1872-.0037.3631-.0337.5278-.0599.337-.1497.6701-.2695.9996-.1123.3219-.2021.6551-.2695.9995l-.0337.2133.3144-.4604c.6439-.9209 1.3664-1.6733 2.1675-2.2573.8011-.5915 1.7595-.99954 2.875-1.22415.1722-.03744.3482-.06738.5279-.08984.1796-.02247.3556-.02247.5278 0 .3369.02994.5952.12727.7749.29199.1872.16471.3144.36686.3818.60644.0674.23956.0899.50916.0674.80856-.015.292-.0561.584-.1235.876-.0599.292-.1311.5728-.2134.8423-.0824.2695-.1497.4979-.2022.6851-.0374.1422-.0786.2845-.1235.4267-.0449.1348-.0898.277-.1348.4268-.0973.3069-.1946.6139-.2919.9209-.0974.2995-.191.6064-.2808.9209-.0449.1497-.0936.3294-.146.539-.0449.2097-.1048.3931-.1797.5503-.1048.3145-.2021.6514-.292 1.0108-.0898.3519-.116.7-.0786 1.0444.015.1348.0487.2808.1011.438.0599.1497.1572.2583.292.3257.247-.2396.4529-.5091.6176-.8086.1648-.307.3332-.6065.5054-.8985l1.9766-.6064c-.1273.2096-.2508.4193-.3706.6289s-.2508.4155-.3931.6177c-.1348.1946-.2845.3818-.4492.5615-.1647.1722-.3519.3257-.5615.4605-.1722.1123-.3519.2096-.5391.2919-.1797.0824-.3669.1648-.5615.2471-.0225.0075-.0599.0187-.1123.0337-.045.015-.0861.03-.1236.0449-.0374.015-.0673.0262-.0898.0337-.015.0075-.0112.0038.0112-.0112.1048-.0524.2097-.1011.3145-.146.1048-.0374.2096-.0749.3144-.1123-.0299.0075-.0599.015-.0898.0224-.03.0075-.0637.0188-.1011.0337-.0374.0075-.0786.0188-.1235.0337-.1423.0599-.3145.1236-.5166.1909-.1947.0749-.3968.1348-.6065.1797-.2096.0524-.4155.0786-.6176.0786-.2022 0-.3744-.0449-.5166-.1347-.1049-.0674-.1835-.1572-.2359-.2695-.0524-.1124-.0898-.2321-.1123-.3594-.015-.1348-.0225-.2658-.0225-.3931 0-.1348.0075-.2545.0225-.3594.03-.2695.0824-.5353.1572-.7973.0749-.2621.1535-.5241.2359-.7862.1422-.4716.2845-.9433.4267-1.415.1423-.4792.2883-.9546.438-1.4263.0599-.2021.1123-.3781.1572-.5278.0525-.1497.0974-.2957.1348-.438.0449-.1497.0861-.3032.1235-.4604.045-.1648.0974-.3557.1573-.5728.0449-.1647.0861-.3519.1235-.5615.0449-.2171.0711-.4343.0786-.6514.015-.2246.0075-.4417-.0224-.6514-.0225-.2096-.0824-.3893-.1797-.539-.0899-.15724-.2246-.27329-.4043-.34816-.1722-.07487-.4006-.09358-.6851-.05615-.262.14974-.5166.33691-.7637.56151-.2395.2246-.4679.4717-.685.7412-.2171.2621-.423.5316-.6177.8086-.1872.277-.3556.5428-.5054.7974-.1497.2396-.2882.4604-.4155.6626-.1198.1946-.2545.3743-.4043.539-.1422.1573-.3069.3033-.4941.438-.1797.1348-.4043.2583-.6739.3706l-.0336.0225c-.1423.5166-.2883 1.0332-.438 1.5498-.1423.5091-.2883 1.022-.438 1.5386l-.438 1.5385c0 .0225-.0075.0487-.0225.0787-.1572.1497-.3144.292-.4716.4267-.1573.1348-.3145.2733-.4717.4155l-1.898.5054c.1498-.1273.307-.2471.4717-.3594.1722-.1048.307-.2433.4043-.4155.1273-.2246.2096-.4679.2471-.73.0449-.262.1048-.5203.1797-.7749l.9658-3.4028.0898-.0225c-.0224-.0524-.0337-.1385-.0337-.2583.0075-.1272.015-.2545.0225-.3818.015-.1348.0299-.2546.0449-.3594.015-.1123.0262-.1871.0337-.2246.0449-.3818.1273-.7449.2471-1.0893.1273-.3519.2283-.715.3032-1.0894.0299-.1947.0449-.4043.0449-.6289.0075-.2246.0524-.4305.1348-.6177-.1348-.1123-.2695-.1984-.4043-.2583-.1273-.0599-.2621-.10105-.4043-.12351-.1348-.02246-.277-.03369-.4268-.03369-.1497 0-.3107.00374-.4829.01123-.0973.01497-.1946.02246-.292.02246-.0973 0-.1946 0-.292 0zm8.378 10.80366-.045.0225zm14.0605-15.498c-.1123-.0599-.2209-.12728-.3257-.20215-.1048-.08235-.2171-.13102-.3369-.14599-.2845-.04493-.5765-.05616-.876-.0337-.292.01498-.5802.01872-.8647.01124l1.7632-.81983c.3144 0 .6214-.01123.9209-.03369.3069-.02246.6102-.00374.9096.05615.0899.01498.2059.04118.3482.07862.1422.02994.2658.06738.3706.1123l.6401-.146-.5952.47168c-.015.33692-.0524.67383-.1123 1.01075-.0599.32942-.1273.65885-.2021.98828-.0749.32194-.1535.64762-.2359.97705-.0823.32942-.1572.65885-.2246.98828-.0599.29199-.1123.59147-.1572.89844-.0449.29948-.1535.57649-.3257.83105 0 .00749.0037.01123.0112.01123-.0075 0-.0149.00375-.0224.01123 0 0-.0075.00749-.0225.02246-.0449.39681-.1086.7899-.1909 1.1792-.0824.3818-.1797.7637-.292 1.1455-.1048.3818-.2171.7637-.3369 1.1455-.1123.3819-.2171.7637-.3145 1.1455l-.1123.0337c.0674.0599.0974.146.0899.2583 0 .1123-.0075.2097-.0225.292-.0225.2621-.0599.5316-.1123.8086s-.1123.5428-.1797.7974c-.0374.1347-.0786.2695-.1235.4043-.0375.1272-.0749.262-.1123.4043-.0375.1347-.0711.2732-.1011.4155-.0299.1348-.0562.277-.0786.4267-.015.1049-.03.2321-.0449.3819-.0075.1422-.0038.2845.0112.4267.0225.1348.0599.2621.1123.3819.0599.1198.1535.2059.2808.2583.247-.2546.4567-.5316.6289-.8311s.3631-.5914.5727-.876l1.9766-.6064c-.1048.1273-.1984.2658-.2808.4155-.0823.1498-.1647.292-.247.4268-.3444.5316-.7487.9845-1.2129 1.3589-.4642.3743-1.0033.6476-1.6172.8198-.1348.0374-.2958.0786-.4829.1235-.1797.0524-.3632.0824-.5503.0899-.1872.0149-.3669 0-.5391-.0449-.1647-.0375-.3032-.1273-.4155-.2696-.1572-.2021-.2396-.4529-.2471-.7524 0-.2995.0337-.6102.1011-.9321.0674-.322.1497-.6327.2471-.9322.0973-.3069.1684-.5652.2133-.7749l.0674-.3144c-.3144.4941-.6513.977-1.0107 1.4487-.3519.4717-.7637.876-1.2354 1.2129-.3369.2396-.6775.4417-1.0219.6064-.337.1573-.7001.3033-1.0894.438-.0898.0375-.1797.0674-.2695.0899-.0899.0299-.1835.0524-.2808.0673l-.3369.0674c-.0674.015-.1161.0225-.146.0225-.0225.0075-.0487.015-.0786.0225-.0225.0074-.0524.0112-.0899.0112-.0374.0075-.101.0187-.1909.0337-.3219.0524-.6251.0486-.9096-.0113-.2846-.0524-.5354-.2171-.7525-.4941-.2545-.3219-.4155-.7-.4829-1.1343-.0674-.4342-.0786-.8797-.0337-1.3364.0449-.4642.1273-.9172.2471-1.3589.1198-.4492.2433-.846.3706-1.1904.2695-.7412.584-1.43.9433-2.0664.3669-.6364.7899-1.2129 1.2691-1.7295.4866-.5166 1.0369-.9621 1.6509-1.33644.6214-.38184 1.3214-.68131 2.1001-.89844.5241-.14974 1.0519-.23958 1.5835-.26953.5315-.03743 1.0481.00749 1.5498.13477.0075-.03744.0112-.07487.0112-.11231.0075-.03743.0187-.07487.0337-.1123.0674-.33692.1422-.66634.2246-.98828.0824-.32943.161-.65886.2358-.98828.0824-.32943.1498-.65886.2022-.98829.0599-.33691.0973-.67757.1123-1.02197zm-2.3921 10.085c.2022-.7113.4081-1.4226.6177-2.1338.2096-.7188.3556-1.4488.438-2.19-.2097-.1722-.4417-.32191-.6963-.44919-.2546-.13476-.5241-.23584-.8086-.30322-.277-.07487-.5578-.1123-.8423-.1123-.2845-.00749-.5615.0262-.831.10107-.1273.03743-.2583.10482-.3931.20215-.1348.08984-.2658.19092-.3931.30322-.1198.11227-.2358.22837-.3481.34817s-.2059.2246-.2808.3144c-.3369.3819-.6513.8049-.9433 1.2691-.2845.4567-.5391.9358-.7637 1.4375-.2246.4941-.4155 1.0032-.5728 1.5273-.1497.5241-.2583 1.0407-.3256 1.5498-.0375.2696-.0562.584-.0562.9434.0075.3519.0524.6888.1348 1.0107.0898.322.2321.599.4267.8311.2022.2321.4867.3631.8535.393.0599-.0074.1161-.0149.1685-.0224.0599-.0075.1198-.0187.1797-.0337.4866-.3294.9059-.73 1.2578-1.2017.3594-.4791.6925-.9658.9995-1.4599.1198-.1947.2358-.3894.3482-.584.1197-.2022.2433-.3931.3706-.5728.1272-.1797.2695-.3444.4267-.4941.1647-.1572.3556-.292.5728-.4043.1347-.0973.2882-.1872.4604-.2695zm24.9882.9658c-.128.4267-.292.861-.495 1.3027-.022.0524-.059.1273-.112.2246-.045.0899-.09.1835-.135.2808-.045.0898-.086.1684-.123.2358-.03.0599-.045.0824-.045.0674-.008.0075-.011.0225-.011.0449l-.135.292c-.037.0824-.079.1647-.124.2471-.045.0749-.097.146-.157.2134-.165.1797-.355.3406-.573.4829-.209.1347-.43.2583-.662.3706s-.468.2134-.708.3032c-.239.0899-.468.1722-.685.2471-.584.1946-1.209.3444-1.875.4492-.667.1123-1.333.1497-1.999.1123-.667-.0374-1.31-.1647-1.932-.3818-.614-.2172-1.16-.5541-1.64-1.0108-.471-.4417-.846-.9471-1.123-1.5161-.269-.5765-.468-1.1792-.595-1.8081-.12-.6364-.172-1.2803-.157-1.9316.022-.6514.09-1.2766.202-1.8755.187-.9808.461-1.89423.82-2.74025.359-.84603.816-1.60971 1.37-2.29102.554-.68132 1.205-1.26904 1.954-1.76318.756-.50163 1.621-.89844 2.594-1.19043.472-.14226.951-.2583 1.438-.34815.487-.08984.973-.14225 1.46-.15722.487-.02247.969-.00375 1.449.05615.486.05241.969.15722 1.448.31445.15.04492.311.10107.483.16846.172.05989.337.13476.494.22461.158.08984.304.19466.438.31445.135.11231.24.24707.315.4043.06.10481.082.22086.067.34814-.007.11979-.011.23959-.011.35938 0 .31445-.011.63265-.034.95459-.022.31445-.052.63265-.09.95459l-1.999.68505c.038-.31445.068-.6289.09-.94335.023-.32194.034-.64388.034-.96582 0-.08985.007-.19841.022-.32569s-.003-.23209-.056-.31445c-.09-.14974-.198-.27702-.325-.38184-.12-.1123-.255-.20963-.405-.29199-.142-.08984-.292-.16471-.449-.22461-.157-.05989-.314-.11605-.472-.16846-.329-.10481-.7-.19091-1.111-.2583-.412-.07487-.835-.1123-1.269-.1123-.427-.00749-.847.0262-1.258.10107-.405.06739-.764.19466-1.078.38184-.562.33691-1.06.7487-1.494 1.23535s-.812 1.01823-1.134 1.59473c-.322.57649-.588 1.18294-.798 1.81933-.209.62891-.374 1.25407-.494 1.87547-.105.5391-.168 1.0969-.191 1.6734-.022.5765.004 1.1492.079 1.7182.082.569.224 1.1193.427 1.6509.202.5316.479 1.022.831 1.4712.277.3519.591.6514.943.8984.352.2471.737.4492 1.157.6065.314.1123.636.1984.966.2583.336.0599.673.0973 1.01.1123.322.0224.64.015.955-.0225.314-.0374.629-.0973.943-.1797.098-.0299.187-.0636.27-.101.082-.0375.165-.0861.247-.146.045-.0225.101-.0674.168-.1348.008-.015.03-.0562.068-.1235.037-.0749.078-.1498.123-.2246.045-.0824.086-.1573.124-.2247.037-.0673.06-.1123.067-.1347.15-.3519.307-.6926.472-1.022.165-.3369.307-.6888.427-1.0557zm-3.201 3.3804c.015-.015.026-.0263.034-.0337.007-.015.007-.0188 0-.0113zm16.161-1.7632c-.203.3818-.423.7449-.663 1.0893s-.513.6664-.82.9658c-.352.337-.767.5953-1.246.7749-.472.1797-.944.2995-1.415.3594-.09.015-.188.0225-.292.0225-.105.0075-.21 0-.315-.0225-.105-.015-.206-.0449-.303-.0898-.09-.0375-.169-.0974-.236-.1797-.127-.1572-.195-.3407-.202-.5503-.008-.2171 0-.4193.022-.6064.038-.3894.116-.7675.236-1.1343.127-.3669.232-.7412.315-1.1231l.045-.247c-.292.4567-.603.8909-.933 1.3027-.322.4043-.685.7861-1.089 1.1455-.18.1647-.378.3145-.595.4492-.217.1273-.434.2433-.652.3482-.104.0524-.209.101-.314.146-.097.0374-.198.0786-.303.1235-.045.015-.109.0412-.191.0786-.075.03-.146.0562-.213.0786-.068.0225-.12.0375-.158.0449-.03.015-.026.0075.012-.0224.059-.0375.146-.0824.258-.1348-.18.0674-.382.1348-.607.2022-.217.0748-.441.1347-.673.1797-.225.0524-.45.0786-.674.0786-.217.0075-.42-.0262-.607-.1011-.127-.0524-.239-.1273-.337-.2246-.089-.0973-.168-.2059-.235-.3257-.06-.1273-.113-.2583-.158-.3931-.037-.1347-.067-.2658-.09-.393-.127-.6289-.149-1.2466-.067-1.8531.082-.6064.221-1.2129.416-1.8193.232-.7262.531-1.4225.898-2.0889.367-.6663.797-1.2765 1.292-1.8305.494-.5616 1.051-1.0482 1.673-1.45999.629-.41927 1.314-.7487 2.055-.98828.644-.20964 1.284-.33317 1.92-.37061.644-.03743 1.284.07487 1.921.33692.15.05989.281.13102.393.21337.12.08236.236.17221.348.26954l.404-.12354c-.037.0599-.071.11979-.101.17969-.03.05989-.063.11979-.101.17969-.075.53161-.183 1.05191-.325 1.56101-.135.5091-.281 1.022-.438 1.5386-.09.292-.176.584-.259.876-.082.292-.198.5765-.348.8535l-.011.0112.034.1236c.022.1722.015.3444-.023.5166-.03.1647-.064.3331-.101.5053-.052.2471-.116.4979-.191.7525-.067.247-.135.4941-.202.7412-.06.247-.116.4979-.168.7524-.045.2546-.072.5129-.079.7749 0 .1498.022.307.067.4717s.143.2845.292.3594c.24-.2471.453-.5204.64-.8198.188-.2995.36-.599.517-.8985zm-4.144-3.7285c.157-.5092.303-1.0183.438-1.5274.142-.5091.25-1.0294.325-1.561h-.022c0-.0075 0-.0113 0-.0113.007-.0074.011-.0149.011-.0224-.442-.36688-.891-.62144-1.348-.76369-.456-.14974-.977-.17969-1.561-.08984-.209.08984-.415.20963-.617.35937-.195.14974-.386.31446-.573.49416s-.363.3668-.528.5615c-.157.1947-.299.3781-.427.5503-.307.4118-.602.8872-.887 1.4263-.284.5315-.528 1.0931-.73 1.6845-.202.584-.348 1.1755-.438 1.7745-.082.5989-.079 1.1679.011 1.707.045.2471.105.5016.18.7637.075.262.217.4791.427.6513.172.1273.359.1835.561.1685h.09l.225-.0674.213-.1572c.27-.2246.517-.4642.741-.7188.232-.262.453-.5353.663-.8198.165-.2246.326-.4567.483-.6963.165-.2396.314-.4829.449-.73.082-.1497.169-.2995.258-.4492.09-.1497.191-.292.304-.4267.172-.1947.378-.3594.617-.4942.045-.0299.083-.0524.113-.0674.037-.0224.074-.0412.112-.0561-.008 0-.015.0037-.023.0112 0 0-.003 0-.011 0-.015.0075-.019.0075-.011 0 .015-.0075.03-.015.045-.0225.022-.0149.045-.0262.067-.0336.023-.015.041-.0263.056-.0337.008-.0075.057-.0337.146-.0787.098-.0524.169-.0861.214-.101h.011c.007-.0075.019-.0113.034-.0113.075-.1946.138-.393.191-.5952.06-.2096.123-.4155.191-.6176zm-.742 1.3925c.008 0 .019-.0075.034-.0224l-.045.0224zm.045-.0337-.045.0225c.015 0 .03-.0075.045-.0225zm-.101.0674.034-.0224-.045.0224zm11.433-6.04197-1.168 1.05567-.214 1.6733c.03-.0449.06-.0898.09-.1347.03-.045.064-.0899.101-.1348.15-.1872.322-.3519.517-.4941.202-.1498.415-.2771.64-.3819.225-.1123.453-.2059.685-.2807.24-.0749.472-.14229.696-.20218.165-.03744.326-.07113.483-.10108.158-.02994.319-.05989.483-.08984l.225-.03369c.03 0 .075-.00375.135-.01123.06-.01498.075-.01872.045-.01123-.038.01497-.079.0262-.124.03369-.037 0-.075.00374-.112.01123l-.191.51663c-.18.0599-.363.1123-.55.1572-.188.0449-.379.0824-.573.1123l-.27.0449c-.164.1647-.307.3444-.427.5391-.112.1946-.22.3931-.325.5952-.098.2021-.199.4043-.303.6064-.105.1947-.229.3819-.371.5616-.105.1272-.236.2396-.393.3369-.15.0898-.3.1684-.449.2358l-.18.0786h.011c-.075.0749-.142.191-.202.3482-.052.1497-.101.3107-.146.4829-.037.1722-.071.3444-.101.5166s-.056.3144-.079.4268c-.082.3593-.168.715-.258 1.0668-.09.3444-.172.6963-.247 1.0557-.06.2695-.105.5278-.135.7749-.022.2471-.063.4829-.123.7075-.053.2246-.135.4418-.247.6514-.113.2021-.281.3968-.506.584l-.067.0674-1.898.5053c.037-.0299.071-.0599.101-.0898.03-.03.064-.0562.101-.0786.038-.0375.075-.0749.112-.1123.038-.0375.075-.0749.113-.1123.105-.1573.183-.3257.236-.5054.059-.1872.104-.3743.134-.5615.038-.1947.068-.3893.09-.584.023-.1947.053-.3818.09-.5615.112-.5391.236-1.0782.371-1.6172.134-.5391.262-1.0781.381-1.6172.038-.1647.083-.3107.135-.438.053-.1348.124-.2546.214-.3594l-.158.0562.461-3.5713c-.187-.1497-.378-.2508-.573-.3032-.187-.0524-.401-.0712-.64-.0562l-.427.0337h-.011-.023l-.101.0112-.067.0113c-.03 0-.037-.0038-.022-.0113.037-.0149.078-.0224.123-.0224h.135c.015 0 .011.0037-.011.0112-.023 0-.042 0-.057 0-.052 0-.108.0075-.168.0225h-.045c-.045.0075-.079.0112-.101.0112-.015 0-.03 0-.045 0-.007 0-.022 0-.045 0-.022 0-.056 0-.101 0 .262-.1348.524-.26953.786-.4043.27-.14225.536-.2845.798-.42675h.269c.247-.04493.502-.07113.764-.07862.269-.00748.524.01123.763.05616l.068-.06739zm14.105.68506c.008.20215.015.37809.023.52783.007.14978.011.29198.011.42678 0 .1347-.004.277-.011.4267-.008.1498-.026.3257-.056.5279-.128.9883-.401 1.9428-.82 2.8637-.412.9209-.91 1.7782-1.494 2.5718-.322.4268-.674.8498-1.056 1.2691-.374.4192-.793.7749-1.257 1.0669-.51.3294-1.049.5989-1.618.8085-.561.2097-1.141.3557-1.74.438-.15.0225-.296.0337-.438.0337-.135 0-.266-.0187-.393-.0561-.128-.03-.247-.0861-.36-.1685-.105-.0823-.194-.1984-.269-.3481-.12-.2321-.191-.4904-.214-.7749-.015-.2845-.003-.5728.034-.8648.045-.292.101-.5802.169-.8647.067-.2845.123-.5466.168-.7862.12-.6064.247-1.2054.382-1.7968.135-.5915.266-1.1905.393-1.7969.082-.4492.165-.891.247-1.3252.09-.4417.15-.8984.18-1.3701-.113-.0973-.27-.1722-.472-.2246-.195-.05243-.389-.08987-.584-.11233s-.367-.03369-.517-.03369c-.142-.00749-.213-.01123-.213-.01123-.09 0-.157 0-.202 0s-.079.00374-.101.01123c-.023 0-.045 0-.068 0-.022 0-.06 0-.112 0 .262-.13477.524-.26953.786-.4043.27-.14225.536-.2845.798-.42676.322 0 .643-.01497.965-.04492.322-.03743.641-.01123.955.07861.075.02247.157.05241.247.08985l1.381-.37061-.819.72998v.01123l-.057.04493c-.03.66631-.116 1.32141-.258 1.96531-.142.6364-.284 1.284-.427 1.9429-.127.569-.25 1.138-.37 1.707s-.24 1.1455-.36 1.7295c-.03.1498-.06.3257-.089.5278-.023.2022-.038.4081-.045.6177 0 .2097.018.4118.056.6065.037.1946.101.3631.191.5053.09.1423.213.2471.37.3145.158.0674.36.0749.607.0225.434-.2546.823-.5728 1.168-.9546.344-.3819.666-.7749.966-1.1792.584-.7862 1.078-1.6285 1.482-2.5269.412-.9059.681-1.8493.809-2.8301.022-.2021.037-.3781.044-.5278.015-.1497.023-.292.023-.4268 0-.1347-.004-.277-.011-.4267-.008-.1498-.015-.3257-.023-.5279zm.562 5.64891c.015-.3294.067-.6439.157-.9433.09-.307.198-.614.326-.9209.426-1.0857 1.025-2.0215 1.797-2.8077.771-.78609 1.722-1.35136 2.852-1.69576.24-.07487.483-.13851.73-.19092.247-.05989.494-.10107.741-.12353.255-.02246.506-.01872.753.01123.254.02246.501.07861.741.16845.247.08985.449.23584.606.43799.165.19466.285.41553.36.6626.082.24707.123.50534.123.77494.008.2695-.026.5166-.101.7412-.127.3818-.307.73-.539 1.0444-.232.307-.498.5877-.797.8423-.3.2545-.625.4829-.977.6851-.345.1946-.689.3706-1.033.5278-.27.1273-.543.2471-.82.3594-.277.1048-.558.2096-.843.3144-.037.015-.119.0412-.247.0786-.119.0375-.235.0712-.348.1011 0 .0075-.007.0112-.022.0112s-.026.0038-.034.0113c-.217.0823-.468.1722-.752.2695-.277.0898-.558.161-.843.2134-.007.3369.004.7075.034 1.1118.037.3968.116.7786.236 1.1455.127.3669.307.6925.539.977.232.2771.543.468.932.5728.195.0524.389.0749.584.0674.202-.0075.401-.0262.595-.0562.03-.0075.075-.0262.135-.0561.06-.03.12-.0637.18-.1011.06-.0449.116-.0861.168-.1235.053-.045.09-.0786.112-.1011.285-.2246.543-.4642.775-.7188.24-.262.468-.5353.685-.8198l1.977-.6064c-.307.3968-.621.7562-.943 1.0781-.322.3145-.663.599-1.022.8535-.352.2546-.734.4792-1.146.6738-.404.1947-.846.3632-1.325.5054-.314.0899-.64.1647-.977.2246-.337.0674-.674.0936-1.011.0786-.374-.0149-.7-.0898-.977-.2246-.269-.1273-.502-.2957-.696-.5053-.187-.2172-.341-.4642-.461-.7413-.112-.277-.202-.569-.269-.8759-.06-.307-.097-.6177-.112-.9322-.015-.3219-.015-.6326 0-.9321.015-.1872.026-.3669.033-.5391.015-.1722.056-.3481.124-.5278zm1.999-.685c.06.0599.116.1235.168.1909.06.0674.124.131.191.1909l.09.0674v.0112c-.015-.015-.022-.0225-.022-.0225.007 0 .015.0038.022.0113.008.0075.015.0112.022.0112.045.015.098.0262.158.0337s.108.0075.146 0h.045c.022 0 .045-.0037.067-.0112h.011.045c.015-.0075.03-.0113.045-.0113.045-.0149.09-.0299.135-.0449s.09-.0299.135-.0449c.082-.03.176-.0636.28-.1011.113-.0374.289-.0936.528-.1684l.315-.1123c.127-.0525.25-.1011.37-.146.128-.0524.251-.1123.371-.1797.419-.2321.79-.5091 1.112-.8311.329-.3294.591-.7187.786-1.1679.097-.2247.153-.453.168-.6851s-.003-.4679-.056-.7075c-.127-.5466-.374-.94713-.741-1.20169-.367-.26204-.846-.34066-1.438-.23584-.374.2321-.733.55029-1.078.95463-.337.3968-.64.8348-.909 1.3139-.27.4717-.491.9621-.663 1.4712-.172.5016-.273.9733-.303 1.4151zm.427.4267v.0112c0-.0074 0-.0112 0-.0112zm18.148-10.3994c-.112-.0599-.221-.12728-.326-.20215-.105-.08235-.217-.13102-.337-.14599-.284-.04493-.576-.05616-.876-.0337-.292.01498-.58.01872-.864.01124l1.763-.81983c.314 0 .621-.01123.921-.03369.307-.02246.61-.00374.909.05615.09.01498.206.04118.349.07862.142.02994.265.06738.37.1123l.64-.146-.595.47168c-.015.33692-.052.67383-.112 1.01075-.06.32942-.127.65885-.202.98828-.075.32194-.154.64762-.236.97705-.083.32942-.157.65885-.225.98828-.06.29199-.112.59147-.157.89844-.045.29948-.154.57649-.326.83105 0 .00749.004.01123.012.01123-.008 0-.015.00375-.023.01123 0 0-.007.00749-.022.02246-.045.39681-.109.7899-.191 1.1792-.083.3818-.18.7637-.292 1.1455-.105.3818-.217.7637-.337 1.1455-.113.3819-.217.7637-.315 1.1455l-.112.0337c.067.0599.097.146.09.2583 0 .1123-.008.2097-.023.292-.022.2621-.06.5316-.112.8086s-.112.5428-.18.7974c-.037.1347-.078.2695-.123.4043-.038.1272-.075.262-.112.4043-.038.1347-.072.2732-.102.4155-.029.1348-.056.277-.078.4267-.015.1049-.03.2321-.045.3819-.008.1422-.004.2845.011.4267.023.1348.06.2621.112.3819.06.1198.154.2059.281.2583.247-.2546.457-.5316.629-.8311s.363-.5914.573-.876l1.976-.6064c-.104.1273-.198.2658-.28.4155-.083.1498-.165.292-.247.4268-.345.5316-.749.9845-1.213 1.3589-.464.3743-1.004.6476-1.617.8198-.135.0374-.296.0786-.483.1235-.18.0524-.363.0824-.551.0899-.187.0149-.367 0-.539-.0449-.164-.0375-.303-.1273-.415-.2696-.157-.2021-.24-.4529-.247-.7524 0-.2995.033-.6102.101-.9321.067-.322.15-.6327.247-.9322.097-.3069.168-.5652.213-.7749l.068-.3144c-.315.4941-.652.977-1.011 1.4487-.352.4717-.764.876-1.235 1.2129-.337.2396-.678.4417-1.022.6064-.337.1573-.7.3033-1.09.438-.09.0375-.18.0674-.269.0899-.09.0299-.184.0524-.281.0673l-.337.0674c-.067.015-.116.0225-.146.0225-.022.0075-.049.015-.079.0225-.022.0074-.052.0112-.089.0112-.038.0075-.102.0187-.191.0337-.322.0524-.626.0486-.91-.0113-.285-.0524-.535-.2171-.753-.4941-.254-.3219-.415-.7-.482-1.1343-.068-.4342-.079-.8797-.034-1.3364.045-.4642.127-.9172.247-1.3589.12-.4492.243-.846.371-1.1904.269-.7412.584-1.43.943-2.0664.367-.6364.79-1.2129 1.269-1.7295.487-.5166 1.037-.9621 1.651-1.33644.621-.38184 1.321-.68131 2.1-.89844.524-.14974 1.052-.23958 1.583-.26953.532-.03743 1.049.00749 1.55.13477.008-.03744.011-.07487.011-.11231.008-.03743.019-.07487.034-.1123.068-.33692.142-.66634.225-.98828.082-.32943.161-.65886.236-.98828.082-.32943.149-.65886.202-.98829.06-.33691.097-.67757.112-1.02197zm-2.392 10.085c.202-.7113.408-1.4226.618-2.1338.209-.7188.355-1.4488.438-2.19-.21-.1722-.442-.32191-.697-.44919-.254-.13476-.524-.23584-.808-.30322-.277-.07487-.558-.1123-.843-.1123-.284-.00749-.561.0262-.831.10107-.127.03743-.258.10482-.393.20215-.134.08984-.266.19092-.393.30322-.12.11227-.236.22837-.348.34817s-.206.2246-.281.3144c-.337.3819-.651.8049-.943 1.2691-.285.4567-.539.9358-.764 1.4375-.224.4941-.415 1.0032-.572 1.5273-.15.5241-.259 1.0407-.326 1.5498-.038.2696-.056.584-.056.9434.007.3519.052.6888.134 1.0107.09.322.233.599.427.8311.202.2321.487.3631.854.393.06-.0074.116-.0149.168-.0224.06-.0075.12-.0187.18-.0337.487-.3294.906-.73 1.258-1.2017.359-.4791.692-.9658.999-1.4599.12-.1947.236-.3894.348-.584.12-.2022.244-.3931.371-.5728s.269-.3444.427-.4941c.164-.1572.355-.292.572-.4043.135-.0973.289-.1872.461-.2695zm-80.2979 9.9941c.277.015.5502.0262.8198.0337.2695.0075.539.0299.8086.0674.0823.015.1572.0449.2246.0898.0674.0375.1385.0711.2134.1011.0149.0075.0299.0075.0449 0 .015-.015.0299-.0225.0449-.0225.0973-.0224.1909-.0449.2808-.0673.0898-.03.1834-.0525.2807-.0674.2546-.03.5054-.0524.7525-.0674.2545-.0225.5053-.0487.7524-.0786-.262.1422-.5278.2845-.7974.4267-.262.1348-.524.2696-.7861.4043-.0898.015-.1797.0225-.2695.0225-.0899 0-.1797.0075-.2695.0224-.0749.3295-.1722.6514-.292.9659-.1198.3144-.2509.6251-.3931.9321-.1423.307-.2883.6139-.438.9209-.1497.2995-.2957.6027-.438.9097-.262.5765-.5203 1.1904-.7749 1.8418-.2545.6438-.5091 1.299-.7637 1.9653-.247.6663-.4978 1.3252-.7524 1.9766-.2546.6513-.5166 1.2615-.7861 1.8305-.0749.1498-.1498.2995-.2246.4492-.0749.1423-.146.2883-.2134.438-.0674.1423-.131.2845-.1909.4268-.0599.1422-.1236.277-.191.4043-.0673.1273-.1497.2508-.247.3706-.0899.1123-.2022.2134-.3369.3032-.1273.0973-.2696.1834-.4268.2583-.1497.0674-.2995.131-.4492.1909l-.0225.0113c-.0374.0524-.0561.0973-.0561.1347-.03.1198-.0487.2434-.0562.3706v.3706l-1.999.6851c0-.2546.0187-.4642.0561-.6289.0375-.1647.0974-.307.1797-.4268l-.1123.0337c-.0823-.4492-.1535-.8984-.2133-1.3476-.0525-.4493-.0974-.9022-.1348-1.3589-.0524-.5615-.1123-1.1605-.1797-1.7969-.0599-.6439-.1235-1.2915-.1909-1.9429-.0674-.6588-.131-1.3064-.1909-1.9428-.0599-.6439-.1161-1.2466-.1685-1.8081-.0299-.2845-.0524-.5728-.0674-.8648s-.0412-.5802-.0786-.8647l-.7412 1.5385c-.3519.7338-.6963 1.4675-1.0332 2.2012-.3369.7262-.6813 1.4525-1.0332 2.1787l-1.4375 3.9644c-.0524.0973-.1198.2096-.2022.3369-.0823.1273-.1759.2508-.2807.3706-.1048.1123-.2171.2171-.3369.3145-.1123.0898-.2246.1497-.3369.1796-.015.015-.0412.0337-.0787.0562-.0374.015-.0673.0299-.0898.0449-.0674.0449-.1385.0899-.2134.1348-.0674.0374-.1385.0748-.2134.1123-.0224.1422-.0449.2807-.0673.4155-.0225.1348-.0487.2733-.0787.4155l-1.999.6851.1797-1.022c-.0599-.0449-.1011-.116-.1235-.2134-.015-.1048-.0262-.2171-.0337-.3369 0-.1198.0037-.2358.0112-.3481s.0112-.1984.0112-.2583l-.0561-1.1231c-.015-.1497-.03-.2994-.0449-.4492-.015-.1497-.03-.2995-.045-.4492-.0299-.292-.0636-.6252-.101-.9995-.03-.3744-.0599-.7562-.0899-1.1455-.0224-.3893-.0486-.7712-.0786-1.1455-.0224-.3744-.0412-.7075-.0561-.9995-.0674-1.1081-.146-2.2087-.2359-3.3018-.0898-1.1006-.1572-2.2087-.2021-3.3242-.2995-.2621-.614-.4417-.9434-.5391-.3219-.1048-.6776-.1572-1.0669-.1572l1.5835-.8311c.3145 0 .6327.0188.9546.0562s.6214.1422.8984.3144l.1685.1011c.4642-.1946.9321-.3182 1.4038-.3706.4792-.0599.9658-.0898 1.46-.0898-.2621.1422-.5279.2845-.7974.4267-.262.1348-.5241.2696-.7861.4043-.1498 0-.2958.0038-.438.0113-.1423 0-.2883.0037-.438.0112.0524 1.1081.1198 2.2086.2021 3.3017.0899 1.0931.1685 2.1937.2359 3.3018.0224.292.0449.6252.0674.9995.0299.3744.0561.7562.0786 1.1455.0299.3893.0599.7712.0898 1.1455.03.3744.0599.7076.0899.9995.0374.3594.0674.7188.0898 1.0782.03.3593.0487.7262.0562 1.1006.0748-.1498.1422-.3033.2021-.4605.0674-.1647.1423-.3257.2246-.4829.2621-.5316.5129-1.1006.7525-1.707.247-.614.4904-1.2354.7299-1.8643.2396-.6289.4792-1.2503.7188-1.8643.2471-.6139.4979-1.1866.7524-1.7182l.7974-1.6621c.1198-.2471.2246-.4455.3145-.5952.0898-.1573.1946-.2883.3144-.3931s.262-.1984.4268-.2808c.1722-.0898.393-.1871.6626-.292.0449-.0748.0711-.1497.0786-.2246.0149-.0823.0262-.1647.0337-.247.0075-.0824.0149-.1648.0224-.2471.0075-.0824.0225-.1647.0449-.2471l1.9991-.685c-.0375.1198-.0637.2283-.0786.3256-.0075.0974-.0188.191-.0337.2808-.0075.0899-.0188.1722-.0337.2471-.015.0748-.0487.1497-.1011.2246l.0674-.0225c.0374.1498.0749.2995.1123.4492.0374.1423.0636.292.0786.4493.0374.2994.0636.6027.0786.9096.0225.2995.0487.6027.0786.9097l.73 7.4907c.0225.2696.0449.5391.0674.8086.0299.2621.0636.5278.1011.7974l.0561-.1123c.0674-.1498.1385-.2958.2134-.438.0749-.1498.1497-.2995.2246-.4492l.9771-3.0323c.3444-.7412.6962-1.5086 1.0556-2.3022.3669-.8011.715-1.561 1.0445-2.2798.1497-.3294.3069-.6551.4716-.977.1647-.322.3182-.6439.4605-.9659.1497-.3294.2845-.6626.4043-.9995.1198-.3444.2134-.6963.2807-1.0556l.146-.045c-.0149 0-.0262 0-.0337 0 0-.0074-.0037-.0112-.0112-.0112-.0898-.015-.1759-.0524-.2583-.1123-.0749-.0599-.161-.0973-.2583-.1123-.2545-.0449-.5091-.0674-.7637-.0674-.2545-.0075-.5091-.0187-.7636-.0337zm-13.4654 14.7568c0-.0074.0187-.0224.0562-.0449.0374-.0224.0636-.0449.0786-.0674l-.2808.2022zm-.247.1573s.0074-.0075.0224-.0225c-.0075.0075-.0187.015-.0337.0225zm26.5373-1.3252c-.202.3818-.423.7449-.662 1.0893-.24.3444-.513.6664-.82.9658-.352.337-.768.5953-1.247.7749-.471.1797-.943.2995-1.4148.3594-.0898.015-.1872.0225-.292.0225-.1048.0075-.2096 0-.3144-.0225-.1049-.015-.2059-.0449-.3033-.0898-.0898-.0375-.1684-.0974-.2358-.1797-.1273-.1572-.1947-.3407-.2021-.5503-.0075-.2171 0-.4193.0224-.6064.0374-.3894.1161-.7675.2359-1.1343.1272-.3669.232-.7412.3144-1.1231l.0449-.247c-.292.4567-.6027.8909-.9321 1.3027-.3219.4043-.6851.7861-1.0894 1.1455-.1796.1647-.3781.3145-.5952.4492-.2171.1273-.4342.2433-.6513.3482-.1049.0524-.2097.101-.3145.146-.0973.0374-.1984.0786-.3032.1235-.0449.015-.1086.0412-.1909.0786-.0749.03-.146.0562-.2134.0786-.0674.0225-.1198.0375-.1572.0449-.03.015-.0262.0075.0112-.0224.0599-.0375.146-.0824.2583-.1348-.1797.0674-.3818.1348-.6065.2022-.2171.0748-.4417.1347-.6738.1797-.2246.0524-.4492.0786-.6738.0786-.2171.0075-.4193-.0262-.6065-.1011-.1272-.0524-.2395-.1273-.3369-.2246-.0898-.0973-.1684-.2059-.2358-.3257-.0599-.1273-.1123-.2583-.1572-.3931-.0375-.1347-.0674-.2658-.0899-.393-.1273-.6289-.1497-1.2466-.0674-1.8531.0824-.6064.2209-1.2129.4156-1.8193.2321-.7262.5315-1.4225.8984-2.0889.3669-.6663.7974-1.2765 1.2915-1.8305.4941-.5616 1.0519-1.0482 1.6733-1.46.629-.4193 1.314-.7487 2.0552-.9883.6439-.2096 1.284-.3331 1.9204-.3706.6439-.0374 1.2839.0749 1.9209.3369.149.0599.28.1311.393.2134.119.0824.235.1722.348.2695l.404-.1235c-.037.0599-.071.1198-.101.1797s-.064.1198-.101.1797c-.075.5316-.184 1.0519-.326 1.561-.135.5091-.281 1.022-.438 1.5386-.09.292-.176.584-.258.876s-.198.5765-.348.8535l-.011.0112.033.1236c.023.1722.015.3444-.022.5166-.03.1647-.064.3331-.101.5053-.053.2471-.116.4979-.191.7525-.068.247-.135.4941-.202.7412-.06.247-.116.4979-.169.7524-.045.2546-.071.5129-.078.7749 0 .1498.022.307.067.4717s.142.2845.292.3594c.24-.2471.453-.5204.64-.8198.187-.2995.359-.599.517-.8985zm-4.1438-3.7285c.1572-.5092.3028-1.0183.4378-1.5274.142-.5091.251-1.0294.326-1.561h-.023c0-.0075 0-.0113 0-.0113.008-.0074.012-.0149.012-.0224-.442-.3669-.8913-.6214-1.348-.7637-.4567-.1497-.9771-.1797-1.561-.0898-.2097.0898-.4156.2096-.6177.3593-.1947.1498-.3856.3145-.5728.4942-.1871.1797-.3631.3668-.5278.5615-.1572.1947-.2995.3781-.4268.5503-.3069.4118-.6027.8872-.8872 1.4263-.2845.5315-.5278 1.0931-.7299 1.6845-.2022.584-.3482 1.1755-.438 1.7745-.0824.5989-.0787 1.1679.0112 1.707.0449.2471.1048.5016.1797.7637.0748.262.2171.4791.4267.6513.1722.1273.3594.1835.5616.1685h.0898l.2246-.0674.2134-.1572c.2695-.2246.5166-.4642.7412-.7188.2321-.262.453-.5353.6626-.8198.1647-.2246.3257-.4567.4829-.6963.1647-.2396.3145-.4829.4492-.73.0824-.1497.1685-.2995.2583-.4492.0899-.1497.1909-.292.3033-.4267.1722-.1947.378-.3594.6176-.4942.045-.0299.0824-.0524.1123-.0674.0375-.0224.0749-.0412.1123-.0561-.0074 0-.0149.0037-.0224.0112 0 0-.0038 0-.0113 0-.0149.0075-.0187.0075-.0112 0 .015-.0075.03-.015.0449-.0225.0225-.0149.045-.0262.0674-.0336.0225-.015.0412-.0263.0562-.0337.0075-.0075.0561-.0337.146-.0787.0973-.0524.1684-.0861.2133-.101h.0113c.0075-.0075.0187-.0113.0337-.0113.0748-.1946.1385-.393.1909-.5952.0599-.2096.1235-.4155.1909-.6176zm-.7412 1.3925c.0075 0 .0187-.0075.0337-.0224l-.0449.0224zm.0449-.0337-.0449.0225c.015 0 .0299-.0075.0449-.0225zm-.1011.0674.0337-.0224-.0449.0224zm11.5902-10.9272c.022.0898.03.1759.022.2583-.007.1048-.026.2059-.056.3032-.022.0973-.041.1984-.056.3032-.083.6664-.21 1.3215-.382 1.9654-.172.6438-.341 1.2952-.505 1.9541-.27 1.0931-.532 2.1862-.786 3.2793-.255 1.0931-.517 2.1899-.787 3.2905-.127.5166-.273 1.0369-.438 1.561-.157.5166-.243 1.0445-.258 1.5835 0 .0899.004.1947.011.3145.008.1123.023.2246.045.3369.03.1123.075.2134.135.3032.06.0824.139.1423.236.1797.075-.0674.135-.1273.18-.1797.052-.0524.108-.1198.168-.2021.165-.2097.311-.4231.438-.6402.135-.2246.258-.4567.371-.6963l1.976-.6064c-.195.4193-.404.7861-.629 1.1006-.224.3144-.479.5914-.763.831-.285.2321-.603.4343-.955.6065-.344.1722-.734.3219-1.168.4492-.24.0674-.479.1198-.719.1572-.232.0449-.445.0449-.64 0-.187-.0449-.344-.146-.472-.3032-.119-.1497-.19-.3856-.213-.7075-.015-.2471-.007-.4942.023-.7412.037-.2471.086-.4942.146-.7412.059-.2471.127-.4904.202-.73s.146-.4792.213-.7188l.326-1.3364c.232-.9583.456-1.9092.674-2.8525.217-.9434.445-1.8943.685-2.8526.104-.4267.213-.8535.325-1.2803.12-.4267.232-.8572.337-1.2915l.09-.4379c.008-.0525.026-.1535.056-.3033.03-.1572.06-.3257.09-.5053.03-.1797.056-.3519.079-.5166.022-.1648.03-.2808.022-.3482-.007-.0674-.019-.116-.034-.146-.015-.0374-.052-.0861-.112-.146-.09-.0898-.195-.1572-.314-.2021-.12-.045-.244-.0749-.371-.0899-.127-.0149-.258-.0224-.393-.0224s-.258.0037-.371.0112c-.089.0075-.179.0187-.269.0337-.082.0075-.165.015-.247.0224-.03 0-.068.0038-.113.0113-.044 0-.056-.0038-.033-.0113.06-.0149.146-.0299.258-.0449.112-.0224.187-.0337.225-.0337l.82-.6963.415-.0561.067-.0112c.12-.015.24-.0262.36-.0337s.236-.015.348-.0225c.112 0 .243.0038.393.0112.15 0 .3.015.449.045.157.0299.303.0748.438.1347.135.0524.244.1273.326.2246l.573-.1347zm-2.763-.5391c-.015.0075-.019.0112-.011.0112.015 0 .03-.0037.045-.0112zm-.382 16.4077c-.007.0075-.007.0113 0 .0113l.045-.0225zm6.289-10.6128c.36 0 .7-.0112 1.022-.0337.33-.0299.648 0 .955.0899l1.83-.4829c-.172.1647-.363.3144-.572.4492-.21.1273-.375.292-.495.4941-.089.1498-.131.3182-.123.5054.007.1872-.004.3631-.034.5278-.06.337-.15.6701-.269.9996-.113.3219-.202.6551-.27.9995l-.034.2133.315-.4604c.644-.9209 1.366-1.6733 2.167-2.2573.802-.5915 1.76-.9995 2.875-1.2242.173-.0374.349-.0673.528-.0898.18-.0225.356-.0225.528 0 .337.03.595.1273.775.292.187.1647.314.3669.382.6064.067.2396.09.5092.067.8086-.015.292-.056.584-.123.876-.06.292-.131.5728-.214.8423-.082.2695-.149.4979-.202.6851-.037.1422-.078.2845-.123.4267-.045.1348-.09.277-.135.4268-.098.3069-.195.6139-.292.9209-.097.2995-.191.6064-.281.9209-.045.1497-.094.3294-.146.539-.045.2097-.105.3931-.18.5503-.104.3145-.202.6514-.292 1.0108-.089.3519-.116.7-.078 1.0444.015.1348.048.2808.101.438.06.1497.157.2583.292.3257.247-.2396.453-.5091.618-.8086.164-.307.333-.6065.505-.8985l1.976-.6064c-.127.2096-.25.4193-.37.6289s-.251.4155-.393.6177c-.135.1946-.285.3818-.449.5615-.165.1722-.352.3257-.562.4605-.172.1123-.352.2096-.539.2919-.18.0824-.367.1648-.562.2471-.022.0075-.059.0187-.112.0337-.045.015-.086.03-.123.0449-.038.015-.068.0262-.09.0337-.015.0075-.011.0038.011-.0112.105-.0524.21-.1011.314-.146.105-.0374.21-.0749.315-.1123-.03.0075-.06.015-.09.0224-.03.0075-.064.0188-.101.0337-.037.0075-.079.0188-.124.0337-.142.0599-.314.1236-.516.1909-.195.0749-.397.1348-.607.1797-.209.0524-.415.0786-.617.0786s-.375-.0449-.517-.1347c-.105-.0674-.183-.1572-.236-.2695-.052-.1124-.09-.2321-.112-.3594-.015-.1348-.022-.2658-.022-.3931 0-.1348.007-.2545.022-.3594.03-.2695.082-.5353.157-.7973.075-.2621.154-.5241.236-.7862.142-.4716.285-.9433.427-1.415.142-.4792.288-.9546.438-1.4263.06-.2021.112-.3781.157-.5278.052-.1497.097-.2957.135-.438.045-.1497.086-.3032.123-.4604.045-.1648.098-.3557.158-.5728.044-.1647.086-.3519.123-.5615.045-.2171.071-.4343.079-.6514.015-.2246.007-.4417-.023-.6514-.022-.2096-.082-.3893-.179-.539-.09-.1572-.225-.2733-.405-.3482-.172-.0748-.4-.0935-.685-.0561-.262.1497-.516.3369-.763.5615-.24.2246-.468.4717-.686.7412-.217.2621-.423.5316-.617.8086-.187.277-.356.5428-.506.7974-.149.2396-.288.4604-.415.6626-.12.1946-.255.3743-.404.539-.143.1573-.307.3033-.495.438-.179.1348-.404.2583-.673.3706l-.034.0225c-.142.5166-.288 1.0332-.438 1.5498-.142.5091-.288 1.022-.438 1.5386l-.438 1.5385c0 .0225-.008.0487-.022.0787-.158.1497-.315.292-.472.4267-.157.1348-.315.2733-.472.4155l-1.898.5054c.15-.1273.307-.2471.472-.3594.172-.1048.307-.2433.404-.4155.127-.2246.21-.4679.247-.73.045-.262.105-.5203.18-.7749l.966-3.4028.09-.0225c-.023-.0524-.034-.1385-.034-.2583.007-.1272.015-.2545.022-.3818.015-.1348.03-.2546.045-.3594.015-.1123.027-.1871.034-.2246.045-.3818.127-.7449.247-1.0893.127-.3519.228-.715.303-1.0894.03-.1947.045-.4043.045-.6289.008-.2246.053-.4305.135-.6177-.135-.1123-.27-.1984-.404-.2583-.128-.0599-.262-.101-.405-.1235-.134-.0225-.277-.0337-.426-.0337-.15 0-.311.0037-.483.0112-.098.015-.195.0225-.292.0225-.098 0-.195 0-.292 0zm8.378 10.8037-.045.0225zm16.15-11.2866c-.053.0375-.102.0786-.146.1236-.038.0374-.087.0711-.146.101l-.057.0337c.038-.0224.053-.0262.045-.0112-.007.0075-.026.0225-.056.0449-.03.0225-.067.0524-.112.0899-.038.0299-.075.0561-.112.0786-.038.0299-.072.0674-.101.1123-.053.0599-.094.116-.124.1684-.022.0524-.049.1123-.079.1797-.075.1722-.127.3557-.157.5503-.022.1872-.064.3744-.123.5615-.18.6215-.349 1.2391-.506 1.8531-.15.6139-.352 1.2166-.606 1.8081-.015.4941-.068.992-.157 1.4936-.083.5017-.206.9846-.371 1.4488-.03.1497-.067.3032-.112.4604-.038.1497-.068.3032-.09.4605-.023.1572-.034.3144-.034.4716.008.1498.045.2995.112.4493.083.1722.195.2845.337.3369.03-.03.083-.0936.158-.191.082-.0973.138-.1647.168-.2021.157-.2096.299-.4268.427-.6514.135-.2246.262-.4567.382-.6963l1.976-.6064c-.202.4043-.412.7674-.629 1.0894-.217.3219-.464.6064-.741.8535-.269.247-.576.4604-.921.6401-.337.1722-.73.3182-1.179.438-.15.0449-.318.0861-.505.1235-.188.045-.375.0674-.562.0674-.18 0-.352-.0337-.517-.1011-.157-.0599-.28-.1759-.37-.3481-.06-.1123-.101-.2358-.124-.3706-.015-.1348-.018-.2695-.011-.4043.015-.1348.034-.2695.056-.4043.03-.1348.06-.262.09-.3818.06-.2771.124-.5541.191-.8311.075-.277.142-.554.202-.831l-.18.2695c-.269.3968-.572.7749-.909 1.1343-.33.3518-.689.6738-1.078.9658-.382.2845-.794.5278-1.236.73-.441.2021-.906.3444-1.392.4267l.157-.0674c-.09.0375-.172.0674-.247.0899-.075.0224-.165.0412-.27.0561-.082.0375-.183.0599-.303.0674-.12.015-.224.03-.314.0449-.202.0225-.39.0225-.562 0-.172-.0224-.326-.0748-.46-.1572-.128-.0749-.236-.1834-.326-.3257-.09-.1497-.15-.3406-.18-.5727-.052-.3444-.052-.6888 0-1.0332.06-.3519.124-.6963.191-1.0332.15-.7637.326-1.5124.528-2.2461.202-.7412.401-1.4862.595-2.2349.083-.3219.158-.6364.225-.9434.067-.3144.12-.6363.157-.9658.015-.0898.034-.2021.056-.3369.03-.1422.015-.2508-.045-.3257-.142-.1647-.303-.2732-.483-.3257-.179-.0598-.37-.0898-.572-.0898-.195 0-.393.015-.596.0449-.202.0225-.396.0337-.583.0337.262-.1347.524-.2695.786-.4043.269-.1422.535-.2845.797-.4267h.258c.083 0 .165-.0038.247-.0113.143-.0224.296-.0411.461-.0561.165-.0225.329-.0262.494-.0113.172.0075.337.0337.494.0787.165.0449.311.1123.438.2021l1.045-.2808c-.128.1049-.251.2097-.371.3145s-.24.2096-.359.3145l-.034.0112c.015.0898.015.2021 0 .3369-.008.1273-.019.2546-.034.3818-.015.1273-.034.2471-.056.3594-.015.1048-.026.1722-.034.2022-.127.7337-.303 1.4599-.528 2.1787-.217.7187-.415 1.4412-.595 2.1675-.082.3444-.161.6925-.236 1.0444-.074.3519-.138.7075-.19 1.0669-.023.1647-.045.3406-.068.5278-.022.1797-.03.3631-.022.5503.015.1872.048.3669.101.5391.06.1647.157.3107.292.438.082.0748.176.1235.28.146.105.0224.191.0374.259.0449l.314-.0674h.034.011c0-.0075.004-.0112.011-.0112.457-.307.858-.6664 1.202-1.0782.352-.4192.674-.861.966-1.3252.097-.1572.191-.3182.281-.4829.089-.1722.183-.3369.28-.4941.098-.1647.203-.3182.315-.4605.12-.1497.254-.2807.404-.393.262-.1872.547-.3482.854-.4829.037-.0524.071-.1011.101-.146.037-.0524.063-.0974.078-.1348.09-.2096.169-.4268.236-.6514.068-.2321.131-.4567.191-.6738.053-.1947.097-.3856.135-.5727.045-.1872.093-.3781.146-.5728.037-.1423.078-.2808.123-.4155.045-.1423.083-.2845.113-.4268.037-.1722.071-.3406.101-.5054.03-.1722.078-.3406.146-.5053.052-.1273.123-.2471.213-.3594.09-.1198.187-.2246.292-.3145.023-.0149.06-.0411.112-.0786.06-.0449.113-.0861.158-.1235.052-.0374.093-.0674.123-.0898.038-.0225.045-.0263.023-.0113l.045-.0449zm-8.435 11.208-.561.2022zm6.469-10.6464s.008-.0038.023-.0113c-.008 0-.012.0038-.012.0113 0 0-.003 0-.011 0zm-.101 10.2197c-.007 0-.011.0037-.011.0112 0 0-.004 0-.011 0 .007 0 .015-.0037.022-.0112zm10.152-13.4878c-.217.3743-.452.7375-.707 1.0893-.247.3519-.453.7338-.618 1.1455l-.123.3257.123-.0449c.083.0674.154.1423.214.2246.067.0824.149.1423.247.1797.112.0374.232.0487.359.0337s.251-.0225.371-.0225c.277.0075.55.0113.82.0113.277-.0075.554-.0113.831-.0113-.262.1423-.528.2845-.798.4268-.262.1348-.524.2695-.786.4043-.284 0-.573.0037-.865.0112-.284 0-.569-.0037-.853-.0112l-.236 1.0107c-.217.8835-.427 1.767-.629 2.6504-.195.876-.4 1.7557-.618 2.6392l-.235 1.0444c-.038.1947-.072.3931-.101.5952-.03.2022-.057.4043-.079.6065-.015.1123-.03.2396-.045.3818-.008.1348 0 .2658.022.3931.023.1273.068.2396.135.3369.075.0973.191.161.348.1909.135-.1048.262-.2283.382-.3706.127-.1497.244-.3032.348-.4604.113-.1573.217-.3108.315-.4605.105-.1572.206-.3032.303-.438l1.977-.6064c-.195.262-.379.5166-.551.7636-.172.2396-.355.4717-.55.6963-.195.2172-.408.4193-.64.6065-.232.1797-.506.3369-.82.4717-.404.1871-.786.3294-1.145.4267-.352.1048-.708.1722-1.067.2022-.27.0224-.48 0-.629-.0674-.15-.0674-.255-.1685-.315-.3032-.06-.1348-.093-.2958-.101-.4829 0-.1872.011-.3856.034-.5953.015-.2021.037-.4043.067-.6064.03-.2022.068-.4006.113-.5952.037-.1722.074-.3444.112-.5166.037-.1797.078-.3557.123-.5279.218-.8834.423-1.7631.618-2.6391.202-.8835.412-1.7669.629-2.6504l.292-1.2241-.045.0112c-.09-.0824-.172-.1722-.247-.2695-.075-.0974-.172-.161-.292-.1909-.24-.0599-.487-.0749-.741-.045-.255.0225-.506.03-.753.0225l1.764-.8198c.149.0075.28.0112.393.0112.112-.0075.213-.0112.303-.0112l.045-.1011c.082-.2022.176-.3968.281-.584.104-.1872.217-.3706.336-.5503.12-.1797.24-.3594.36-.539.12-.1797.236-.3669.348-.5616z" fill="#150703"/></svg>