<svg fill="none" height="86" viewBox="0 0 215 86" width="215" xmlns="http://www.w3.org/2000/svg"><g fill="#150703"><path d="m70.6023 69.7955c-.4223-2.3864-2.2895-3.7955-4.5789-3.7955-2.9118 0-5.0234 2.2955-5.0234 5.9773s2.1116 5.9772 5.0234 5.9772c2.2894 0 4.1566-1.409 4.5789-3.7954h-1.3781c-.3334 1.6136-1.6893 2.4773-3.2008 2.4773-2.0671 0-3.6897-1.6364-3.6897-4.6591 0-3.0228 1.6226-4.6591 3.6897-4.6591 1.5115 0 2.8674.8636 3.2008 2.4773z"/><path d="m75.1631 78c1.4892 0 2.2672-.8182 2.5339-1.3864h.0667v1.1819h1.3114v-5.75c0-2.7728-2.0671-3.091-3.1563-3.091-1.2892 0-2.7562.4546-3.423 2.0455l1.2447.4545c.289-.6363.9725-1.3181 2.2228-1.3181 1.2058 0 1.8004.6534 1.8004 1.7727v.0454c0 .6478-.6446.591-2.2005.7955-1.5837.2102-3.3119.5682-3.3119 2.5682 0 1.7045 1.2892 2.6818 2.9118 2.6818zm.2-1.2045c-1.0447 0-1.8004-.4773-1.8004-1.4091 0-1.0228.9113-1.3409 1.9338-1.4773.5557-.0682 2.0449-.2273 2.2672-.5v1.2273c0 1.0909-.8447 2.1591-2.4006 2.1591z"/><path d="m81.4687 77.7955h1.3115v-5.5228c0-1.1818.9113-2.0454 2.156-2.0454.3501 0 .7113.0682.8002.0909v-1.3637c-.15-.0113-.4946-.0227-.689-.0227-1.0225 0-1.9116.5909-2.2228 1.4546h-.0889v-1.3182h-1.267z"/><path d="m87.4688 77.7955h1.2669v-1.341h.1556c.289.4773.8447 1.5228 2.4895 1.5228 2.1338 0 3.6231-1.75 3.6231-4.5228 0-2.75-1.4893-4.5-3.6453-4.5-1.6671 0-2.1783 1.0455-2.4673 1.5h-.1111v-4.2954h-1.3114zm1.2892-4.3637c0-1.9545.8446-3.2727 2.445-3.2727 1.667 0 2.4895 1.4318 2.4895 3.2727 0 1.8637-.8447 3.3409-2.4895 3.3409-1.5782 0-2.445-1.3636-2.445-3.3409z"/><path d="m100.477 77.9773c2.312 0 3.868-1.7955 3.868-4.5 0-2.7273-1.556-4.5228-3.868-4.5228-2.3113 0-3.8672 1.7955-3.8672 4.5228 0 2.7045 1.5559 4.5 3.8672 4.5zm0-1.2046c-1.7556 0-2.5558-1.5454-2.5558-3.2954s.8002-3.3182 2.5558-3.3182c1.756 0 2.557 1.5682 2.557 3.3182s-.801 3.2954-2.557 3.2954z"/><path d="m107.658 72.5455c0-1.5228.923-2.3864 2.179-2.3864 1.217 0 1.956.8125 1.956 2.1818v5.4546h1.311v-5.5455c0-2.2273-1.161-3.2955-2.89-3.2955-1.289 0-2.089.591-2.489 1.4773h-.111v-1.3636h-1.267v8.7273h1.311z"/><path d="m126.303 69.0682h1.334c-.062-1.7557-1.645-3.0682-3.846-3.0682-2.178 0-3.89 1.2955-3.89 3.25 0 1.5682 1.112 2.5 2.89 3.0227l1.4.4091c1.201.3409 2.268.7727 2.268 1.9318 0 1.2728-1.201 2.1137-2.779 2.1137-1.356 0-2.556-.6137-2.667-1.9318h-1.423c.134 1.909 1.645 3.2045 4.09 3.2045 2.623 0 4.112-1.4773 4.112-3.3636 0-2.1819-2.023-2.8864-3.201-3.2046l-1.155-.3182c-.845-.2272-2.201-.6818-2.201-1.9318 0-1.1136 1-1.9318 2.512-1.9318 1.378 0 2.423.6705 2.556 1.8182z"/><path d="m133.592 69.0682h-1.822v-2.0909h-1.312v2.0909h-1.289v1.1363h1.289v5.4546c0 1.5227 1.2 2.25 2.312 2.25.489 0 .8-.0909.978-.1591l-.267-1.2045c-.111.0227-.289.0681-.578.0681-.578 0-1.133-.1818-1.133-1.3181v-5.091h1.822z"/><path d="m139.052 77.9773c1.734 0 3-.8864 3.401-2.2046l-1.267-.3636c-.334.9091-1.106 1.3636-2.134 1.3636-1.539 0-2.601-1.017-2.662-2.8863h6.196v-.5682c0-3.25-1.889-4.3637-3.668-4.3637-2.311 0-3.845 1.8637-3.845 4.5455s1.512 4.4773 3.979 4.4773zm-2.662-5.25c.089-1.358 1.028-2.5682 2.528-2.5682 1.423 0 2.334 1.0909 2.334 2.5682z"/><path d="m148.159 77.9773c1.734 0 3.001-.8864 3.401-2.2046l-1.267-.3636c-.333.9091-1.105 1.3636-2.134 1.3636-1.539 0-2.6-1.017-2.661-2.8863h6.196v-.5682c0-3.25-1.89-4.3637-3.668-4.3637-2.312 0-3.845 1.8637-3.845 4.5455s1.511 4.4773 3.978 4.4773zm-2.661-5.25c.089-1.358 1.028-2.5682 2.528-2.5682 1.423 0 2.334 1.0909 2.334 2.5682z"/><path d="m155 66.1591h-1.311v11.6364h1.311z"/><path clip-rule="evenodd" d="m59.2257 63.173.5102-1.8908c2.56-9.4872 4.2278-24.2565 4.2278-32.4703 0-6.9258-1.2663-13.7721-3.7194-20.09077l-.7931-2.04288h44.0168l-.576 1.92931c-1.743 5.83334-3.7586 14.53524-3.7586 22.11494 0 8.1918 1.6626 21.0521 4.2276 30.5597l.51 1.8908zm29.914-54.1366c-2.2511 6.2714-3.6821 13.0039-3.6821 19.7755 0 7.5433 1.472 20.6307 3.6991 30.0694 2.2266-9.189 3.6905-20.6441 3.6905-28.1588 0-7.3899-1.989-15.8501-3.7075-21.6861zm-14.4142-2.16682-.6701 1.82558c-1.9948 5.43394-3.3496 11.22704-3.7291 17.08834h8.7728c-.3507-5.8882-1.5307-11.6692-3.645-17.05732zm5.8762 18.91392c.0291.4995.0523.9995.0698 1.5h-11.9217c.0174-.5005.042-1.0005.0734-1.5.3474-5.519 1.536-10.9634 3.2926-16.10525.1718-.50296.349-1.00303.5314-1.5h-11.0046c.1929.49694.3787.99701.5573 1.5 2.1558 6.07195 3.2638 12.57025 3.2638 19.13365 0 7.9086-1.5155 21.7414-3.8925 31.3611-.1266.5125-.2557 1.013-.3871 1.5h11.9217c-.131-.4871-.2598-.9876-.3863-1.5-2.1016-8.512-3.5688-20.2974-3.917-28.4091-.0222-.5154-.0398-1.016-.0527-1.5h11.9217c-.0087.484-.0222.9846-.0405 1.5-.2876 8.1117-1.7514 19.8971-3.8528 28.4091-.1265.5124-.2553 1.0129-.3863 1.5h11.9217c-.1315-.487-.2607-.9875-.3877-1.5-2.384-9.6197-3.9683-23.4525-3.9683-31.3611 0-6.5634 1.3035-13.0617 3.3688-19.13365.1711-.50299.3474-1.00306.5286-1.5h-11.0046c.195.49697.3823.99704.5618 1.5 1.8357 5.14185 2.8685 10.58625 3.1895 16.10525zm-1.4716 5.9804h-8.8263c.3705 8.5086 1.9828 21.0865 4.2505 29.5196l.1945.7233.1945-.7233c2.2689-8.4375 3.8807-21.0201 4.1868-29.5196zm33.5749-6.1425 1.584.088c4.03.2239 7.774.0004 10.137-.152l1.994-.1287-.434 1.951c-.726 3.2703-1.034 7.9477-1.034 14.1181 0 5.135.154 15.8479.378 18.6816l.084 1.0669-.981.4267c-1.8.7825-4.863 1.9585-8.164 1.9585h-1.376c-1.886 0-3.706-.2937-5.337-1.2056-1.651-.9224-2.964-2.3961-3.973-4.4984-1.966-4.0994-2.889-10.847-2.889-21.5499 0-9.4026.838-16.7987 2.815-21.8928.994-2.5628 2.313-4.63689 4.047-6.07485 1.761-1.46042 3.863-2.19022 6.254-2.19022 1.943 0 3.841.17705 5.372 1.16725 1.612 1.04323 2.517 2.77692 2.979 5.16872l.002.0103.002.0102c.409 2.2909.558 7.3889.558 10.3513v1.5h-5.88l-.024-1.4758c-.035-2.1979-.515-3.5455-1.157-4.3236-.596-.7223-1.499-1.1549-2.922-1.1549-1.75 0-3.008.7621-3.918 2.3785-.971 1.7254-1.536 4.441-1.536 8.196 0 4.0504.408 7.0542 1.32 9.0024.442.9449.977 1.5816 1.59 1.9893.606.4035 1.394.6528 2.468.6528 1.049 0 2.134-.2974 2.926-.9484.74-.6088 1.382-1.6523 1.382-3.5125 0-1.8263-.337-2.7658-.928-3.4033-.647-.6978-1.837-1.3033-4.186-1.8625l-1.153-.2745zm43.689 37.5516h-31.046l.51-1.8908c2.56-9.4872 4.228-24.2565 4.228-32.4703 0-6.9258-1.266-13.7721-3.72-20.09077l-.793-2.04288h30.548l-.735 2.01395c-2.322 6.3689-3.806 13.2241-3.806 20.1197 0 8.2071 1.742 22.9772 4.304 32.4703zm-15.546-56.30342-.671 1.82558c-1.994 5.43394-3.349 11.22704-3.729 17.08834h8.773c-.35-5.8882-1.53-11.6692-3.645-17.05732zm5.876 18.91392c.029.4995.052.9995.07 1.5h-11.922c.017-.5005.042-1.0005.073-1.5.348-5.519 1.536-10.9634 3.293-16.10525.172-.50296.349-1.00303.531-1.5h-11.004c.193.49694.378.99701.557 1.5 2.156 6.07195 3.264 12.57025 3.264 19.13365 0 7.9086-1.516 21.7414-3.893 31.3611-.126.5125-.255 1.013-.387 1.5h11.922c-.131-.4871-.26-.9876-.386-1.5-2.102-8.512-3.569-20.2974-3.917-28.4091-.023-.5154-.04-1.016-.053-1.5h11.922c-.009.484-.023.9846-.041 1.5-.288 8.1117-1.751 19.8971-3.853 28.4091-.126.5124-.255 1.0129-.386 1.5h11.922c-.132-.487-.261-.9875-.388-1.5-2.384-9.6197-3.968-23.4525-3.968-31.3611 0-6.5634 1.303-13.0617 3.369-19.13365.171-.50299.347-1.00306.528-1.5h-11.004c.195.49697.382.99704.561 1.5 1.836 5.14185 2.869 10.58625 3.19 16.10525zm-1.472 5.9804h-8.826c.37 8.5086 1.983 21.0865 4.25 29.5196l.195.7233.194-.7233c2.269-8.4375 3.881-21.0201 4.187-29.5196zm-54.8695 28.4091c2.3819-9.4434 3.9647-21.5459 3.9647-29.4505 0-7.158-1.8043-15.2182-3.4603-21.04425-.1473-.51843-.2935-1.01916-.4371-1.5h11.0042c-.143.48084-.289.98157-.435 1.5-1.6457 5.82605-3.3856 13.88625-3.3856 21.04425 0 7.9046 1.5139 20.0071 3.8886 29.4505.128.508.258 1.0084.391 1.5h-11.9218c.1327-.4916.2632-.992.3913-1.5zm24.1285-32.9497c.297.0149.592.0276.886.0381.103.0037.206.0071.308.0103 2.749.0851 5.291-.0121 7.263-.1227.568-.0318 1.089-.0647 1.554-.0947-.107.4804-.204.9877-.294 1.5218-.549 3.2892-.776 7.5964-.776 12.9217 0 5.1202.153 15.8956.382 18.7996-1.757.7642-4.585 1.8341-7.565 1.8341h-1.376c-6.954 0-10.699-4.356-10.699-25.7539 0-18.7231 3.363-28.65787 11.616-28.65787 3.821 0 6.037.76421 6.878 5.12017.323 1.8105.483 5.6449.524 8.5876.007.5354.011 1.0412.011 1.5h-2.904c-.076-4.7381-2.063-6.9543-5.579-6.9543-4.661 0-6.954 4.356-6.954 12.0745 0 8.1771 1.605 13.1445 6.878 13.1445 2.598 0 5.808-1.452 5.808-5.9609 0-3.6964-1.256-5.343-5.306-6.4775-.305-.0852-.624-.1675-.961-.2475v-1.2992c.102.0057.204.011.306.0162z" fill-rule="evenodd"/></g></svg>