<svg fill="none" height="62" viewBox="0 0 214 62" width="214" xmlns="http://www.w3.org/2000/svg"><g fill="#150703"><path d="m55.9143 13.3583h13.9228v-2.8182h-20.42v.2168l4.6409 2.0594-12.7216 14.9579c11.4112 3.5227 13.2676 8.2919 13.2676 12.0313 0 5.6363-3.9312 9.1048-9.2819 9.1048-4.8593 0-9.391-2.9265-13.1037-10.2971h-.2184v11.923h.273l2.0748-4.8234c2.3477 2.8724 6.2242 4.6608 10.8651 4.6608 8.1353 0 12.667-5.6905 12.667-11.652 0-4.7691-2.3478-9.2673-12.394-13.1152z"/><path d="m71.8589 12.7621 6.4427-10.8932h-3.7673l-2.8938 10.8932zm8.0807 0 6.4427-10.8932h-3.7674l-2.8937 10.8932z"/><path d="m99.4561 24.0889c2.5119-3.9562 7.3709-8.0751 10.8109-8.0751 1.801 0 2.73.9756 2.73 2.9808 0 1.1923-.383 2.9265-.819 4.3356l-3.768 11.5978c-.764 2.2762-1.31 4.0646-1.31 5.3111 0 2.222 2.02 2.9807 4.04 2.9807 2.184 0 4.696-1.2465 6.716-3.7394v-7.0454h-.218c-2.403 7.8041-4.587 9.6467-6.115 9.6467-1.038 0-1.529-.6503-1.529-1.7342 0-1.3549.71-3.2517 1.419-5.5279l3.713-11.4352c.437-1.4091.819-2.9807.819-4.3356 0-2.9808-1.966-4.2273-5.132-4.2273-3.768 0-7.262 2.3304-9.992 5.0944h-.218l4.422-16.58373h-9.1178v.21678l5.4598 2.11361-9.4455 34.84754-5.3507 1.7884v.2168h12.8853v-.2168l-4.4771-1.7884z"/><path d="m128.201 7.88456c0 1.1381.765 1.89684 2.13 1.89684 1.801 0 3.166-1.35488 3.166-3.19752 0-1.24649-.819-2.00522-2.129-2.00522-1.802 0-3.167 1.30068-3.167 3.3059zm-2.784 35.33524c2.184 0 4.695-1.2465 6.715-3.7394v-7.0454h-.218c-2.402 7.8041-4.586 9.6467-6.115 9.6467-1.038 0-1.529-.5961-1.529-1.68 0-1.3549.655-3.3059 1.42-5.5821l3.822-11.7062c.764-2.2762 1.31-4.0646 1.31-5.3111 0-2.222-2.02-2.9808-4.095-2.9808-2.184 0-4.641 1.3007-6.443 3.4143v6.5035h.219c2.348-6.8286 4.313-8.7796 5.842-8.7796 1.037 0 1.529.5961 1.529 1.68 0 1.3549-.656 3.4143-1.42 5.6905l-3.822 11.5978c-.764 2.2762-1.31 4.0646-1.31 5.3111 0 2.222 2.074 2.9807 4.095 2.9807z"/><path d="m159.245 14.3338-.273-.0542-3.495 2.3846c-1.583-1.1381-3.985-1.8427-6.442-1.8427-9.118 0-15.561 9.701-15.561 18.9142 0 5.9614 3.112 9.3757 8.353 9.3757 2.84 0 5.46-1.1922 7.262-3.4684h.219l-1.256 4.8233c-1.529 5.8531-4.532 8.1293-7.972 8.1293-3.712 0-6.552-2.3304-8.463-9.6467h-.218v8.8338c2.348 1.4632 5.296 2.1678 8.354 2.1678 5.514 0 9.555-2.8182 11.465-9.9719zm-9.501 23.6291c-2.347 1.7884-4.422 2.5472-6.442 2.5472-4.423 0-6.88-2.9266-6.88-7.9667 0-9.4842 5.187-16.3128 11.903-16.3128 2.839 0 5.132 1.2465 6.388 3.2517z"/><path d="m166.98 24.0889c2.511-3.9562 7.371-8.0751 10.81-8.0751 1.802 0 2.73.9756 2.73 2.9808 0 1.1923-.382 2.9265-.819 4.3356l-3.767 11.5978c-.764 2.2762-1.31 4.0646-1.31 5.3111 0 2.222 2.02 2.9807 4.04 2.9807 2.184 0 4.695-1.2465 6.716-3.7394v-7.0454h-.219c-2.402 7.8041-4.586 9.6467-6.115 9.6467-1.037 0-1.529-.6503-1.529-1.7342 0-1.3549.71-3.2517 1.42-5.5279l3.713-11.4352c.436-1.4091.819-2.9807.819-4.3356 0-2.9808-1.966-4.2273-5.133-4.2273-3.767 0-7.261 2.3304-9.991 5.0944h-.219l4.423-16.58373h-9.118v.21678l5.46 2.11361-9.446 34.84754-5.351 1.7884v.2168h12.886v-.2168l-4.477-1.7884z"/><path d="m59.3741 51.0402c0-.955.138-1.8749.4141-2.7594.2839-.8925.7255-1.6948 1.3249-2.4072h.9819c-.5521.7358-.9701 1.5461-1.254 2.4306-.276.8846-.414 1.7927-.414 2.7243 0 .908.138 1.8004.414 2.6772.2839.8689.698 1.6713 1.2422 2.4072h-.9701c-.5994-.6889-1.041-1.4678-1.3249-2.3367-.2761-.8768-.4141-1.7888-.4141-2.736z"/><path d="m66.0556 54.3868c1.6799 0 2.8865-1.1625 2.8865-2.8065 0-1.6791-1.1238-2.7007-2.4842-2.7007-.9346 0-1.6089.4932-1.9165.9864h-.0236l.343-2.9826h3.6791v-.8219h-4.519l-.5678 4.8261h.9937c.2721-.6576.8872-1.1978 1.739-1.1978.9109 0 1.6916.6106 1.6916 1.9258 0 1.1859-.7098 1.9375-1.7863 1.9375-.9345 0-1.597-.6694-1.6916-1.6792h-1.0529c.1065 1.2799 1.0765 2.5129 2.709 2.5129z"/><path d="m76.2228 54.2576h1.0528v-8.1961h-.97c-.485.9276-1.5379 1.6439-2.4369 1.8435v.9864c.97-.2114 1.8691-.8103 2.3541-1.5148z"/><path d="m82.8901 45.8736-3.1468 8.384h-1.0173l3.1467-8.384z"/><path d="m83.9319 54.2576h5.56v-.8337h-4.448c.1656-1.0216.8281-1.4678 1.9401-2.1371 1.2421-.7515 2.4961-1.5852 2.4961-2.9708 0-1.4561-1.1593-2.372-2.709-2.372-1.5379 0-2.7209 1.0216-2.7682 2.4777h1.0647c.0591-.9629.6388-1.644 1.7271-1.644.9937 0 1.6207.6106 1.6207 1.5031 0 1.1272-.9819 1.6909-1.9874 2.3015-1.3959.8689-2.4961 1.7965-2.4961 3.2408z"/><path d="m92.3293 45.8736-.2366 3.0295h-.6506l-.2366-3.0295zm2.1648 0-.2366 3.0295h-.6506l-.2366-3.0295z"/><path d="m101.494 54.2576h1.053l1.373-4.7909h.023l1.432 4.7909h1.029l1.916-5.9181h-1.029l-1.372 4.6734h-.024l-1.431-4.6734h-1.077l-1.337 4.6734h-.035l-1.396-4.6734h-1.0646z"/><path d="m109.853 47.0126h1.171v-1.2095h-1.171zm.059 7.245h1.053v-5.9181h-1.053z"/><path d="m115.164 54.328c.355 0 .793-.0704 1.041-.1996v-.681c-.201.0469-.438.1057-.698.1057-.508 0-.757-.2114-.757-1.0569v-3.4052h1.301v-.7515h-1.301v-1.3504h-1.041v1.3504h-1.088v.7515h1.076v3.6166c0 1.2447.568 1.6204 1.467 1.6204z"/><path d="m117.997 54.2576h1.041v-2.9708c0-1.3386.674-2.3015 1.62-2.3015.769 0 1.172.5167 1.172 1.5265v3.7458h1.052v-3.9337c0-1.3856-.757-2.1019-1.951-2.1019-.829 0-1.503.4463-1.858 1.1273h-.023v-3.5462h-1.053z"/><path d="m155.323 54.2576h1.053v-8.4545h-1.053z"/><path d="m158.661 47.0126h1.172v-1.2095h-1.172zm.06 7.245h1.052v-5.9181h-1.052z"/><path d="m164.233 54.3633c1.041 0 1.621-.5871 1.857-1.0568h.036l.083.9511h.922v-8.4545h-1.053v3.3818h-.023c-.249-.4227-.805-.9629-1.787-.9629-1.537 0-2.567 1.2682-2.567 3.0648 0 1.7731.994 3.0765 2.532 3.0765zm.213-.7515c-1.148 0-1.692-1.0334-1.692-2.3368 0-1.3268.568-2.2897 1.692-2.2897 1.136 0 1.656.9981 1.656 2.3015 0 1.3269-.544 2.325-1.656 2.325z"/><path d="m171.593 51.0402c0 .9472-.142 1.8592-.426 2.736-.276.8689-.714 1.6478-1.313 2.3367h-.97c.544-.7359.954-1.5383 1.23-2.4072.284-.8768.426-1.7692.426-2.6772 0-.9316-.142-1.8397-.426-2.7243-.276-.8845-.69-1.6948-1.242-2.4306h.982c.599.7124 1.037 1.5147 1.313 2.4072.284.8845.426 1.8044.426 2.7594z"/></g></svg>