<svg fill="none" height="62" viewBox="0 0 215 62" width="215" xmlns="http://www.w3.org/2000/svg"><g fill="#150703"><path d="m47.9675 53.1191c-.5342.5997-1.1164 1.051-1.7466 1.3539-.6302.2968-1.3114.4452-2.0436.4452-1.3504 0-2.4218-.4604-3.214-1.3811-.6422-.7512-.9633-1.5902-.9633-2.517 0-.8239.2611-1.566.7832-2.2263.5282-.6663 1.3144-1.2509 2.3588-1.7537-.5942-.6906-.9903-1.2509-1.1884-1.681s-.2971-.8451-.2971-1.2449c0-.7996.3091-1.4932.9273-2.0808.6242-.5937 1.4074-.8905 2.3497-.8905.9003 0 1.6355.2786 2.2057.836.5762.5573.8643 1.2267.8643 2.0081 0 1.2661-.8313 2.3474-2.4938 3.2439l2.3677 3.0441c.2701-.5331.4802-1.151.6302-1.8537l1.6835.3634c-.288 1.1631-.6782 2.1203-1.1703 2.8714.6062.8118 1.2934 1.4933 2.0616 2.0445l-1.0893 1.2994c-.6542-.424-1.3294-1.051-2.0256-1.8809zm-3.2951-6.9422c.7023-.418 1.1554-.7845 1.3595-1.0995.21-.315.3151-.6633.3151-1.045 0-.4543-.1441-.8238-.4322-1.1085-.2821-.2908-.6362-.4362-1.0623-.4362-.4381 0-.8043.1424-1.0983.4271-.2881.2847-.4322.633-.4322 1.0449 0 .206.051.4241.1531.6543.108.2241.2671.4634.4771.7178zm2.2777 5.6519-2.9709-3.7165c-.8762.5271-1.4674 1.0177-1.7735 1.4721-.3061.4482-.4592.8935-.4592 1.3357 0 .5391.2131 1.0995.6392 1.681.4262.5816 1.0294.8723 1.8096.8723.4861 0 .9873-.1514 1.5035-.4543.5221-.3089.9392-.7057 1.2513-1.1903z"/><path d="m57.9875 54.6911v-13.321h4.9516c1.0083 0 1.8155.1363 2.4217.4089.6122.2665 1.0894.6815 1.4315 1.2448.3481.5573.5221 1.1419.5221 1.7537 0 .5695-.153 1.1056-.4591 1.6084s-.7683.9086-1.3864 1.2176c.7982.2362 1.4104.6391 1.8365 1.2085.4322.5694.6482 1.2418.6482 2.0172 0 .624-.132 1.2055-.3961 1.7447-.2581.5331-.5792.945-.9633 1.2358-.3841.2907-.8673.5118-1.4494.6633-.5762.1454-1.2844.2181-2.1247.2181zm1.7466-7.7237h2.8539c.7742 0 1.3294-.0515 1.6655-.1545.4441-.1332.7772-.3543.9993-.6633.2281-.3089.3421-.6966.3421-1.1631 0-.4422-.105-.8299-.3151-1.1631-.2101-.3392-.5102-.5694-.9003-.6905-.3901-.1272-1.0593-.1909-2.0076-.1909h-2.6378zm0 6.1517h3.286c.5642 0 .9603-.0212 1.1884-.0636.4021-.0727.7382-.1939 1.0083-.3635s.4921-.415.6662-.736c.174-.3271.2611-.7027.2611-1.1268 0-.4967-.1261-.9268-.3782-1.2903-.252-.3695-.6031-.6269-1.0533-.7723-.4441-.1515-1.0863-.2272-1.9266-.2272h-3.0519z"/><path d="m76.6953 51.5834 1.6745.209c-.2641.9874-.7532 1.7537-1.4674 2.2989s-1.6265.8178-2.7369.8178c-1.3984 0-2.5087-.4331-3.331-1.2994-.8162-.8723-1.2244-2.0929-1.2244-3.6619 0-1.6234.4142-2.8835 1.2424-3.78.8283-.8966 1.9026-1.3448 3.223-1.3448 1.2784 0 2.3227.4392 3.133 1.3175.8102.8784 1.2153 2.1142 1.2153 3.7074 0 .0969-.003.2423-.009.4361h-7.1302c.0601 1.0601.3572 1.8719.8913 2.4353.5342.5633 1.2004.845 1.9986.845.5942 0 1.1014-.1575 1.5215-.4725s.7532-.8178.9993-1.5084zm-5.3206-2.6442h5.3386c-.072-.8117-.2761-1.4205-.6122-1.8264-.5161-.63-1.1853-.945-2.0076-.945-.7442 0-1.3714.2514-1.8816.7542-.5041.5028-.7832 1.1752-.8372 2.0172z"/><path d="m79.7653 51.8106 1.6025-.2544c.09.6482.3391 1.1449.7472 1.4902.4141.3453.9903.5179 1.7285.5179.7442 0 1.2964-.1514 1.6565-.4543.3601-.309.5402-.6694.5402-1.0813 0-.3695-.1591-.6603-.4772-.8723-.222-.1454-.7742-.3302-1.6565-.5543-1.1883-.3029-2.0136-.5634-2.4757-.7815-.4562-.2241-.8043-.53-1.0443-.9177-.2341-.3938-.3512-.8269-.3512-1.2994 0-.4301.0961-.8269.2881-1.1904.1981-.3695.4652-.6754.8013-.9177.2521-.1878.5942-.3453 1.0263-.4725.4381-.1333.9063-.1999 1.4044-.1999.7503 0 1.4075.109 1.9716.3271.5702.2181.9903.5149 1.2604.8905.2701.3695.4562.8662.5582 1.4902l-1.5845.2181c-.072-.4968-.2821-.8845-.6302-1.1631-.3421-.2787-.8282-.418-1.4584-.418-.7443 0-1.2754.1242-1.5935.3725-.3181.2484-.4772.5392-.4772.8724 0 .212.066.4028.1981.5724.132.1757.3391.3211.6212.4362.162.0606.6392.1999 1.4314.418 1.1464.3089 1.9446.5633 2.3948.7632.4561.1939.8132.4786 1.0713.8542s.3871.842.3871 1.3993c0 .5452-.159 1.0601-.4771 1.5448-.3121.4785-.7653.8511-1.3595 1.1176-.5941.2605-1.2663.3907-2.0166.3907-1.2424 0-2.1907-.2604-2.8449-.7814-.6482-.521-1.0623-1.2933-1.2423-2.3171z"/><path d="m93.1704 53.2281.2341 1.4448c-.4562.0969-.8643.1454-1.2244.1454-.5882 0-1.0443-.0939-1.3684-.2817s-.5522-.4331-.6842-.736c-.1321-.309-.1981-.9541-.1981-1.9355v-5.5519h-1.1884v-1.2721h1.1884v-2.3898l1.6115-.9814v3.3712h1.6295v1.2721h-1.6295v5.6428c0 .4664.027.7663.081.8996.06.1332.1531.2392.2791.318.132.0787.3181.1181.5582.1181.18 0 .4171-.0212.7112-.0636z"/><path d="m100.103 54.6911v-13.321h4.978c.876 0 1.546.0424 2.008.1272.648.109 1.191.318 1.629.6269.438.3029.789.73 1.054 1.2813.27.5512.405 1.157.405 1.8173 0 1.1328-.357 2.0929-1.072 2.8805-.714.7814-2.004 1.1721-3.871 1.1721h-3.385v5.4157zm1.746-6.9877h3.412c1.128 0 1.93-.212 2.404-.636.474-.4241.711-1.0208.711-1.7901 0-.5573-.141-1.0328-.423-1.4266-.276-.3998-.642-.6633-1.098-.7905-.294-.0788-.838-.1182-1.63-.1182h-3.376z"/><path d="m112.175 54.6911v-9.65h1.459v1.4629c.372-.6845.714-1.1358 1.026-1.3539.318-.2181.666-.3271 1.044-.3271.547 0 1.102.1757 1.666.527l-.558 1.5175c-.396-.2363-.793-.3544-1.189-.3544-.354 0-.672.109-.954.3271-.282.212-.483.5089-.603.8905-.18.5815-.27 1.2176-.27 1.9082v5.0522z"/><path d="m124.572 53.5007c-.6.5149-1.179.8784-1.737 1.0904-.553.212-1.147.318-1.783.318-1.05 0-1.858-.2574-2.422-.7723-.564-.521-.846-1.1843-.846-1.99 0-.4725.105-.9026.315-1.2903.216-.3938.495-.7088.837-.945.348-.2363.739-.415 1.171-.5361.318-.0848.798-.1666 1.44-.2454 1.309-.1575 2.272-.3453 2.89-.5633.006-.2242.009-.3665.009-.4271 0-.6664-.153-1.1358-.459-1.4084-.414-.3696-1.029-.5543-1.846-.5543-.762 0-1.326.1363-1.692.4089-.36.2665-.627.7421-.801 1.4266l-1.585-.2181c.144-.6845.381-1.2358.711-1.6538.33-.424.808-.7481 1.432-.9722.624-.2302 1.347-.3453 2.169-.3453.817 0 1.48.0969 1.99.2907.51.1939.885.4392 1.125.7361.24.2907.408.6603.505 1.1085.054.2787.081.7815.081 1.5084v2.1808c0 1.5205.033 2.4837.099 2.8896.072.3998.21.7844.414 1.154h-1.693c-.168-.3393-.276-.7361-.324-1.1904zm-.135-3.6528c-.588.2423-1.47.4483-2.647.6179-.666.0969-1.137.2059-1.413.3271-.276.1211-.489.2998-.639.5361-.15.2302-.225.4877-.225.7724 0 .4361.162.7996.486 1.0904.33.2907.81.4361 1.44.4361.624 0 1.179-.1363 1.666-.4089.486-.2786.843-.6572 1.071-1.1358.174-.3695.261-.9147.261-1.6356z"/><path d="m134.835 51.1564 1.594.2089c-.174 1.1086-.621 1.9779-1.342 2.6079-.714.624-1.593.9359-2.637.9359-1.309 0-2.362-.4301-3.16-1.2903-.793-.8662-1.189-2.105-1.189-3.7164 0-1.0419.171-1.9536.513-2.7351.342-.7814.862-1.366 1.558-1.7537.702-.3937 1.464-.5906 2.287-.5906 1.038 0 1.887.2665 2.547.7996.66.527 1.084 1.2782 1.27 2.2535l-1.576.2453c-.15-.6482-.417-1.1358-.801-1.4629-.378-.3271-.837-.4907-1.377-.4907-.817 0-1.48.2968-1.99.8905-.51.5876-.765 1.5205-.765 2.7987 0 1.2963.246 2.2383.738 2.8259s1.134.8814 1.926.8814c.637 0 1.168-.1969 1.594-.5906.426-.3938.696-.9995.81-1.8173z"/><path d="m141.353 53.2281.234 1.4448c-.456.0969-.864.1454-1.224.1454-.588 0-1.044-.0939-1.368-.2817-.325-.1878-.553-.4331-.685-.736-.132-.309-.198-.9541-.198-1.9355v-5.5519h-1.188v-1.2721h1.188v-2.3898l1.612-.9814v3.3712h1.629v1.2721h-1.629v5.6428c0 .4664.027.7663.081.8996.06.1332.153.2392.279.318.132.0787.318.1181.558.1181.18 0 .417-.0212.711-.0636z"/><path d="m142.956 43.251v-1.8809h1.62v1.8809zm0 11.4401v-9.65h1.62v9.65z"/><path d="m153.291 51.1564 1.593.2089c-.174 1.1086-.621 1.9779-1.341 2.6079-.714.624-1.593.9359-2.638.9359-1.308 0-2.362-.4301-3.16-1.2903-.792-.8662-1.188-2.105-1.188-3.7164 0-1.0419.171-1.9536.513-2.7351.342-.7814.861-1.366 1.557-1.7537.703-.3937 1.465-.5906 2.287-.5906 1.039 0 1.888.2665 2.548.7996.66.527 1.083 1.2782 1.269 2.2535l-1.575.2453c-.15-.6482-.417-1.1358-.801-1.4629-.378-.3271-.838-.4907-1.378-.4907-.816 0-1.479.2968-1.989.8905-.511.5876-.766 1.5205-.766 2.7987 0 1.2963.246 2.2383.739 2.8259.492.5876 1.134.8814 1.926.8814.636 0 1.168-.1969 1.594-.5906.426-.3938.696-.9995.81-1.8173z"/><path d="m162.816 51.5834 1.674.209c-.264.9874-.753 1.7537-1.467 2.2989s-1.627.8178-2.737.8178c-1.398 0-2.509-.4331-3.331-1.2994-.816-.8723-1.224-2.0929-1.224-3.6619 0-1.6234.414-2.8835 1.242-3.78.828-.8966 1.903-1.3448 3.223-1.3448 1.278 0 2.323.4392 3.133 1.3175.81.8784 1.215 2.1142 1.215 3.7074 0 .0969-.003.2423-.009.4361h-7.13c.06 1.0601.357 1.8719.891 2.4353.535.5633 1.201.845 1.999.845.594 0 1.101-.1575 1.522-.4725.42-.315.753-.8178.999-1.5084zm-5.321-2.6442h5.339c-.072-.8117-.276-1.4205-.612-1.8264-.516-.63-1.186-.945-2.008-.945-.744 0-1.371.2514-1.882.7542-.504.5028-.783 1.1752-.837 2.0172z"/><path d="m165.886 51.8106 1.602-.2544c.09.6482.339 1.1449.748 1.4902.414.3453.99.5179 1.728.5179.744 0 1.296-.1514 1.657-.4543.36-.309.54-.6694.54-1.0813 0-.3695-.159-.6603-.477-.8723-.222-.1454-.775-.3302-1.657-.5543-1.188-.3029-2.014-.5634-2.476-.7815-.456-.2241-.804-.53-1.044-.9177-.234-.3938-.351-.8269-.351-1.2994 0-.4301.096-.8269.288-1.1904.198-.3695.465-.6754.801-.9177.252-.1878.594-.3453 1.027-.4725.438-.1333.906-.1999 1.404-.1999.75 0 1.407.109 1.972.3271.57.2181.99.5149 1.26.8905.27.3695.456.8662.558 1.4902l-1.584.2181c-.072-.4968-.282-.8845-.631-1.1631-.342-.2787-.828-.418-1.458-.418-.744 0-1.275.1242-1.593.3725-.319.2484-.478.5392-.478.8724 0 .212.066.4028.198.5724.132.1757.34.3211.622.4362.162.0606.639.1999 1.431.418 1.146.3089 1.945.5633 2.395.7632.456.1939.813.4786 1.071.8542s.387.842.387 1.3993c0 .5452-.159 1.0601-.477 1.5448-.312.4785-.765.8511-1.359 1.1176-.594.2605-1.267.3907-2.017.3907-1.242 0-2.191-.2604-2.845-.7814-.648-.521-1.062-1.2933-1.242-2.3171z"/><path d="m59.2572 35.1123c1.2041-.2701 1.6055-1.2603 4.4596-12.603.0446-.1576.078-.3039.1115-.4502.0334-.1463.0669-.2925.1115-.4501h-.8028c-2.4081 0-5.865.1366-9.0152.2611-.4667.0184-.9267.0366-1.3755.054l-.0446.135c-2.9879 12.063-3.0771 12.7831-1.6501 13.0982l2.4528.4501v.1801h-12.9327v-.1801l2.9879-.4951c1.2041-.2701 1.6054-1.2603 4.4595-12.603 2.9434-12.063 3.0771-12.82816 1.6501-13.09823l-2.4528-.45011.0446-.18004h12.8435v.18004l-2.8987.45011c-1.204.18004-1.65 1.17033-4.2811 11.74783 3.4784.1351 7.5812.2251 10.2569.2251h.8028c2.6757-10.9827 2.7649-11.70286 1.3824-11.97293l-2.4527-.45011.0446-.18004h12.8435v.18004l-2.8987.45011c-1.2487.18004-1.6947 1.21533-4.5042 12.64803-2.9879 12.063-3.0771 12.7831-1.65 13.0982l2.4527.4501v.1801h-12.9327v-.1801z"/><path clip-rule="evenodd" d="m72.2819 27.1004c0-6.7067 4.5933-13.5033 10.3462-13.5033 3.3446 0 5.8866 3.1057 5.8866 9.0922 0 6.7516-4.5934 13.5483-10.3462 13.5483-3.3446 0-5.8866-3.1058-5.8866-9.1372zm.3122 1.3053c0 2.1155 2.2298 3.1958 5.0839 3.1958 6.3325 0 10.4799-5.3563 10.4799-10.2175 0-2.0705-2.1852-3.0608-5.2177-3.0608-5.9758 0-10.3461 5.2663-10.3461 10.0825z" fill-rule="evenodd"/><path d="m94.1989 18.4133h-4.4596v-.1801c3.1217-1.5304 5.1285-4.006 7.0461-8.91215l.1338.04501c-.1347.65264-.3671 1.51894-.6382 2.52934-.1775.6619-.3717 1.3857-.5659 2.1518h6.0649l-.981 4.6361c-2.0514-.135-4.1474-.225-6.288-.27-.9811 3.9159-1.873 7.9219-1.8284 10.1724 0 1.6654.9365 2.4306 2.2298 2.4306 1.1149 0 2.6311-.6301 4.3258-4.7261l.0892.045c-2.0514 7.8769-4.3704 9.9024-6.3772 9.9024s-3.7014-1.6204-3.7014-4.4561c0-3.7809 2.4527-9.0022 4.9501-13.3682z"/><path d="m120.348 35.2473 2.721.3601-.045.1801h-15.608v-.1801l2.764-.4051c2.799-.3971 2.939-.9673 5.549-11.5506.052-.2117.105-.4275.16-.6473 2.363-9.5423 2.988-12.4681 2.988-13.95342-4.683.54013-5.575 1.75542-8.161 5.98642l-4.014 6.8417h-.178c1.739-4.5911 3.433-9.4073 4.548-13.09818h21.54c-.847 3.69088-1.65 8.50708-2.23 13.09818h-.178l-.491-6.8417c-.356-4.321-.624-5.31125-5.307-5.94141-.847 1.57541-1.605 4.27601-3.567 12.19801-3.256 13.2332-3.122 13.5933-.491 13.9533z"/><path d="m142.275 7.29556c0 2.11551-1.249 3.15074-3.256 3.15074-1.337 0-2.229-.81018-2.229-2.43057 0-2.02549 1.248-3.01573 3.211-3.01573 1.382 0 2.274.76518 2.274 2.29556z"/><path d="m134.887 24.8096c1.252-1.8423 2.374-3.4937 2.393-4.6409 0-.9452-.713-1.6654-2.185-1.6654s-2.676.4051-4.415 4.7261l-.134-.045c1.963-6.9317 3.122-9.5873 4.995-9.5873 1.382 0 2.631 1.8004 2.631 4.006 0 1.5269-.742 3.7912-1.464 5.9921-.682 2.0809-1.345 4.105-1.345 5.3956 0 1.4404.669 2.0255 1.516 2.0255 1.07 0 1.828-.9002 3.434-4.7261l.089.045c-2.141 8.0119-3.701 9.9024-5.753 9.9024-1.828 0-3.166-1.9355-3.166-4.096 0-2.3213 1.807-4.982 3.404-7.332z"/><path clip-rule="evenodd" d="m159.449 19.8986c0 6.7066-3.567 16.339-8.294 16.339-1.918 0-3.033-1.9805-4.014-4.4561-.63 2.0227-1.241 4.3236-1.799 6.9146h-5.057c.958-2.2185 2.036-4.5348 3.07-6.7593 2.361-5.0751 4.5-9.6727 4.5-11.5431 0-1.0802-.848-1.8904-2.587-1.8904-1.605 0-2.854.4051-4.593 4.7261l-.134-.045c1.962-6.9317 3.122-9.5873 5.039-9.5873 1.472 0 2.542 2.1605 2.542 6.7066 0 1.6069-.744 5.9438-1.319 9.2965-.085.4978-.167.9739-.242 1.4161l.268.045c4.103-12.8281 6.823-17.4642 9.811-17.4642 2.007 0 2.809 3.1057 2.809 6.3015zm-12.085 11.2978c1.026.27 1.918.36 2.81.36 5.663 0 9.008-6.3015 9.008-11.0726 0-1.0803-.847-1.8455-2.453-1.8455-2.631 0-6.377 3.5109-9.365 12.5581z" fill-rule="evenodd"/><path d="m162.309 20.7088c0-3.5108 3.077-7.1117 8.652-7.1117 2.006 0 4.058.5401 5.039.9452-.847 2.7907-1.293 4.8162-1.873 8.192h-.178c.713-4.006-.402-5.0412-4.371-5.0412-4.593 0-7.001 1.5754-7.001 3.1057 0 1.3869 2.321 1.957 4.89 2.5881 3.184.7821 6.749 1.658 6.749 4.2986 0 2.7007-4.905 8.5521-9.632 8.5521-2.56 0-4.465-1.8516-5.671-3.0243l-.038-.0365c.848-2.2955 1.517-4.7711 2.007-7.2917l.178.045c-.668 6.3915 1.829 6.9767 7.18 6.9767 2.899 0 4.014-.8102 4.059-2.6107-.021-1.6614-2.203-2.861-4.523-4.1359-2.644-1.4538-5.467-3.0054-5.467-5.4514z"/></g></svg>