<svg fill="none" height="22" viewBox="0 0 215 22" width="215" xmlns="http://www.w3.org/2000/svg"><g fill="#150703"><path d="m2.02726 19.7411-.02726.5722h16.6315l.1091-8.3262-.4908-.0286c-.4362 2.8899-1.1997 4.9786-2.3175 6.2661-.8997 1.0014-2.4538 1.5165-4.6623 1.5165h-1.52681c-.65435 0-1.06333-.1717-1.25418-.5151-.19085-.2575-.27265-.7439-.27265-1.4592v-13.90557c0-.94421.21812-1.54506.65436-1.80257.13632-.08584.3817-.14307.70888-.17168s.7634-.08584 1.3087-.08584l1.5268-.02861v-.54363l-5.26206.02861-5.15304-.02861v.60086h2.18118c.62709 0 1.03606.17167 1.25418.51502.19085.25751.27265.74392.27265 1.43061v13.90561c0 1.3734-.51803 2.0601-1.52683 2.0601z"/><path d="m28.1867 12.0443c0 .5151-.0545.8298-.1636.9729-.109.2003-.3817.2861-.8452.2861h-4.3623c0-3.4621.8997-5.20745 2.7264-5.20745.9543 0 1.6632.42918 2.1267 1.31617.3544.71528.5453 1.60228.5453 2.66098zm-5.2893 1.8885 7.825.0572c-.7362-4.20602-2.4539-6.32333-5.1258-6.32333-1.4996 0-2.7538.7153-3.7626 2.14592-.8997 1.28751-1.3359 2.74681-1.3359 4.37771 0 1.6881.518 3.1759 1.5268 4.4349 1.0906 1.3448 2.4266 2.0028 4.0079 2.0028 1.336 0 2.4538-.515 3.3536-1.545.8997-1.0015 1.336-2.2032 1.336-3.6052l-.4908-.0286c-.0818 1.2303-.4908 2.289-1.2269 3.176-.7907.9442-1.745 1.4306-2.8628 1.4306-1.0361 0-1.8268-.4292-2.3993-1.2876-.5726-.8583-.8998-2.0887-.8725-3.6623z"/><path d="m39.4068 11.1001.0273 1.8026-1.2542.372-2.0449.6294c-.5453.1717-.9815.3434-1.2814.4865-1.5541.6867-2.3175 1.7453-2.3175 3.2045 0 .8584.2454 1.5737.7089 2.1173.4635.5151 1.1178.7726 1.9903.7726 1.854 0 3.2718-.9442 4.2533-2.8326 0 1.8598.7362 2.804 2.2357 2.804 1.4178 0 2.1539-.8012 2.1812-2.4035l.0273-2.9184h-.5453l-.0273 2.3462c-.0273 1.3448-.3817 2.0028-1.0633 2.0028-.5998 0-.8998-.4577-.8998-1.402l-.0272-6.2947c0-1.1158-.2181-1.91699-.5998-2.4034-.7907-1.00143-2.0176-1.51645-3.7353-1.51645-1.0361 0-1.9086.25751-2.6174.77253-.818.57225-1.2269 1.37342-1.2269 2.43202 0 .4578.1363.8584.3817 1.1731.2453.3148.5998.4864 1.0633.4864.409 0 .7634-.143 1.0633-.4005.2727-.2862.409-.6581.409-1.1159 0-.8298-.3817-1.31617-1.1451-1.48785-.3545-.08584-.5453-.17167-.5453-.25751s.1908-.25751.5453-.54363c.4089-.31474.9815-.48641 1.7176-.48641.9543 0 1.6359.20028 2.0449.60086.409.37196.6271 1.08724.6543 2.11734zm0 2.3749v1.8598c0 .9728-.2999 1.917-.8725 2.804-.627 1.0014-1.3905 1.4878-2.2902 1.4878-.8725 0-1.3087-.6867-1.3087-2.0315 0-1.2875.4635-2.2603 1.3905-2.9184.518-.3434 1.5541-.7439 3.1082-1.2017z"/><path d="m49.3212 11.5866v-3.71965c-1.4723.28613-2.8083.42919-3.9807.42919h-.7907l-.0272.54363.6543.02861c.3545.02861.6544.05723.8998.08584s.4362.08584.5725.17167c.4363.2289.6544.6867.6544 1.37341v7.2103c0 .8297-.0546 1.3448-.1909 1.545-.1908.372-.4089.5437-.6816.5437h-1.6631v.515l3.5171-.0572 3.599.0572v-.5722h-1.8268c-.3817 0-.6271-.2289-.7361-.7153-.0273-.0859-.0273-.2289-.0273-.4292v-3.6338c0-1.2303.2454-2.5179.6816-3.8627.5999-1.77392 1.336-2.6609 2.2903-2.6609.1363 0 .2999.05722.518.17167.2181.14306.3272.25751.3272.34335 0 .05722-.1636.2289-.4908.54363-.3544.31474-.518.80115-.518 1.45925 0 .3719.1363.6867.3817.9442.2726.2575.5725.3719.8997.3719.4635 0 .818-.2002 1.0633-.6008.2454-.4006.3545-.8298.3545-1.259 0-.74387-.2454-1.34473-.7089-1.80253-.4635-.42918-1.0633-.62947-1.7995-.62947-.5725 0-1.0906.2289-1.5541.71531s-.8997 1.11588-1.1451 1.97429z"/><path d="m60.2871 11.2432v-3.29041c-.518.08584-1.1723.17167-1.9358.2289-.7634.05722-1.6631.08583-2.6992.08583v.60086h.8452c.5181 0 .9543.20029 1.2815.62947.3544.42919.518.91555.518 1.48785l-.0273 7.4964c0 .4578-.0272.7725-.0817.9442-.1364.2575-.409.4006-.7907.4006h-1.5814v.515l3.5172-.0572 3.2717.0572v-.515l-1.0633-.0286c-.518 0-.8725-.0859-1.036-.2575-.1636-.1717-.2454-.5151-.2454-1.0301v-4.0915c0-1.3448.2726-2.5465.8452-3.6052.7361-1.37337 1.5813-2.06007 2.5356-2.06007.6271 0 1.1179.28613 1.5268.88698.3272.48639.5181 1.08729.5181 1.80259v6.8383c0 1.0015-.2999 1.5165-.8725 1.5165l-1.445.0286v.5436h6.598v-.515h-.8997c-.6271 0-1.0088-.0572-1.1451-.1717-.1909-.1716-.2727-.5436-.2727-1.1158v-6.2089c0-1.2303-.2999-2.2318-.8997-3.00431-.6544-.85837-1.5541-1.28755-2.6992-1.28755-1.4996 0-2.7538 1.08727-3.7353 3.26176z"/><path d="m90.3783 5.40629-6.3527 6.66671v-8.61234c0-.60086.0545-.97282.1636-1.14449.1908-.34335.5453-.51503 1.0633-.51503l2.0449.02862v-.57225l-4.2533.02861-4.935-.05722v.62947h1.336c.8452 0 1.3632.02861 1.5268.11445.3545.17167.5453.60086.5453 1.31616v14.56362c0 .887-.2181 1.4307-.6816 1.6596-.2999.143-.927.2289-1.8813.2289h-1.3632v.5722l5.1258-.0858 4.7986.0858v-.5722l-2.3721-.0287c-.8179 0-1.2269-.6294-1.2269-1.8884v-4.8068l2.3993-2.4607 4.6896 7.0672c.4362.6581.6543 1.1445.6543 1.4593 0 .2861-.109.4864-.3544.5722-.0818.0286-.3272.0286-.7362.0286l-2.2357.0286v.5723l5.2621-.0572 4.7441.0572v-.5723h-1.4178c-.7907 0-1.3905-.2002-1.7995-.6008-.1908-.1717-.5998-.7153-1.1996-1.6309l-5.8347-8.84122 3.4081-3.60515c1.9631-2.06008 3.599-3.11874 4.9349-3.17596l.7635-.02861v-.62947l-4.1716.11444-4.744-.11444v.60085l1.2269.02862c1.2814.02861 1.9358.57224 1.9358 1.6309 0 .37196-.1091.71531-.3817 1.03004-.0273.08584-.2727.37196-.7362.85837z"/><path d="m103.447 11.2432v-3.29041c-.518.08584-1.172.17167-1.935.2289-.764.05722-1.6635.08583-2.6995.08583v.60086h.8452c.5183 0 .9543.20029 1.2813.62947.355.42919.518.91555.518 1.48785l-.027 7.4964c0 .4578-.027.7725-.082.9442-.136.2575-.409.4006-.791.4006h-1.581v.515l3.517-.0572 3.272.0572v-.515l-1.063-.0286c-.518 0-.873-.0859-1.036-.2575-.164-.1717-.246-.5151-.246-1.0301v-4.0915c0-1.3448.273-2.5465.845-3.6052.737-1.37337 1.582-2.06007 2.536-2.06007.627 0 1.118.28613 1.527.88698.327.48639.518 1.08729.518 1.80259v6.8383c0 1.0015-.3 1.5165-.873 1.5165l-1.445.0286v.5436h6.598v-.515h-.899c-.627 0-1.009-.0572-1.145-.1717-.191-.1716-.273-.5436-.273-1.1158v-6.2089c0-1.2303-.3-2.2318-.9-3.00431-.654-.85837-1.554-1.28755-2.699-1.28755-1.5 0-2.754 1.08727-3.735 3.26176z"/><path d="m115.416 2.74535c0 .42918.136.80114.409 1.11588.272.28612.627.42918 1.063.42918.409 0 .764-.14306 1.063-.42918.3-.31474.437-.6867.437-1.11588s-.137-.80114-.437-1.11588c-.299-.28612-.654-.42918-1.063-.42918s-.763.14306-1.036.42918c-.3.28612-.436.65808-.436 1.08727zm5.207 17.53935v-.5723h-1.445c-.381 0-.627-.2289-.736-.7153-.027-.0858-.027-.2289-.027-.4291v-10.84411c-.873.14306-1.636.25751-2.29.34335-.655.08584-1.227.11445-1.691.11445h-.763l-.027.54363.627.02861c1.445.05723 2.181.62947 2.181 1.74537v7.2103c0 .8297-.055 1.3448-.191 1.545-.218.372-.436.5437-.682.5437h-1.663v.515l3.381-.0572z"/><path d="m130.442 8.2103h-4.008l-.027-1.25894v-.74392c0-.20029-.027-.37196-.054-.51502l-.137-.94421c-.027-.14306-.054-.25751-.054-.34335v-.25751c0-.68669.218-1.25894.654-1.71673.409-.42919.927-.65809 1.554-.65809.273 0 .573.08584.927.2289.436.17167.655.37196.655.60086 0 .14306-.191.25751-.6.34335-.791.20028-1.2.68669-1.2 1.48784 0 .42918.136.77253.409 1.03004.273.28612.6.42918 1.009.42918.954 0 1.418-.57224 1.418-1.74535 0-.88698-.246-1.60229-.764-2.11731s-1.199-.77253-2.045-.77253c-1.117 0-2.099.48641-2.917 1.48784-.545.6867-.818 1.74535-.818 3.17597v2.28898h-2.89v.88698h2.863v8.86982c0 1.2303-.382 1.8312-1.118 1.8312h-1.69v.515l4.335-.0286 4.171.0286v-.5436h-2.835c-.409 0-.682-.2003-.818-.6295-.055-.2003-.082-.5722-.082-1.1445v-8.92703h4.008z"/><path d="m139.722 12.0443c0 .5151-.055.8298-.164.9729-.109.2003-.381.2861-.845.2861h-4.362c0-3.4621.9-5.20745 2.726-5.20745.955 0 1.663.42918 2.127 1.31617.354.71528.545 1.60228.545 2.66098zm-5.289 1.8885 7.825.0572c-.737-4.20602-2.454-6.32333-5.126-6.32333-1.5 0-2.754.7153-3.763 2.14592-.899 1.28751-1.336 2.74681-1.336 4.37771 0 1.6881.518 3.1759 1.527 4.4349 1.091 1.3448 2.427 2.0028 4.008 2.0028 1.336 0 2.454-.515 3.354-1.545.899-1.0015 1.336-2.2032 1.336-3.6052l-.491-.0286c-.082 1.2303-.491 2.289-1.227 3.176-.791.9442-1.745 1.4306-2.863 1.4306-1.036 0-1.827-.4292-2.399-1.2876-.573-.8583-.9-2.0887-.873-3.6623z"/><path d="m162.794 1.42918-.573-.02861c-.272 1.45923-.627 2.17454-1.063 2.17454-.136 0-.273-.08584-.409-.2289l-1.036-.91559c-.518-.4578-1.091-.80115-1.718-1.05866s-1.336-.37196-2.126-.37196c-1.664 0-2.918.62947-3.79 1.8598-.791 1.11588-1.2 2.26037-1.2 3.43348 0 1.14449.355 2.23175 1.091 3.29041.681.94421 1.745 1.60231 3.19 2.00291l3.517.9728c2.59.7153 3.872 2.0887 3.872 4.1201 0 1.0587-.382 1.9171-1.146 2.6896-.736.7439-1.608 1.1445-2.617 1.1445-1.063 0-2.072-.3434-3.054-1.0301-.954-.658-1.69-1.4878-2.208-2.4606-.873-1.6309-1.5-3.4621-1.909-5.465h-.545l-.054 9.2418.545.0286c.327-1.9742.763-2.947 1.336-2.947.245 0 .681.3433 1.336 1.0586 1.308 1.3734 2.808 2.0601 4.471 2.0601 1.554 0 2.836-.5436 3.872-1.6309s1.554-2.4607 1.554-4.0916c0-1.6595-.518-3.0329-1.527-4.0915-.518-.5437-1.281-1.0015-2.29-1.37341-.164-.05723-1.009-.31474-2.563-.77253-1.827-.54364-2.999-.97282-3.517-1.28756-1.282-.7153-1.909-1.71673-1.909-3.0329 0-.97282.382-1.77396 1.145-2.37482.682-.54364 1.5-.80115 2.454-.80115 1.854 0 3.408.9156 4.662 2.74678.791 1.11588 1.336 2.71817 1.636 4.77826l.518.02861z"/><path d="m169.721 14.9628.054-13.79113c-.409.02862-.899.05723-1.472.08584-.572.02861-1.227.05722-1.936.08584l-1.199.02861v.57225l1.308.05722c.573.02861.955.25751 1.118.68669.082.20029.137.6867.137 1.45923l.027 14.50645c0 .4578-.055.7439-.164.8584-.109.143-.382.2002-.79.2002h-1.5l-.027.5723h6.57v-.5436h-.899c-.791 0-1.2-.372-1.2-1.1159v-2.7468l1.691-1.6023 3.026 4.4635c.082.1431.109.2575.109.3434 0 .4005-.245.6008-.709.6008h-1.281v.6009l3.68-.0286 3.245.0286v-.5723h-.518c-.954 0-1.718-.4291-2.29-1.2589l-3.817-5.6366 2.208-2.2318c1.036-1.05863 1.909-1.63088 2.617-1.71672l.873-.11445v-.51502l-3.027.05723-3.953-.08584v.57225h1.963c.191 0 .409.08583.627.28612.164.20029.246.42918.246.68669 0 .34334-.082.60084-.246.77254z"/><path d="m181.927 2.74535c0 .42918.136.80114.409 1.11588.273.28612.627.42918 1.063.42918.409 0 .764-.14306 1.064-.42918.299-.31474.436-.6867.436-1.11588s-.137-.80114-.436-1.11588c-.3-.28612-.655-.42918-1.064-.42918s-.763.14306-1.036.42918c-.3.28612-.436.65808-.436 1.08727zm5.207 17.53935v-.5723h-1.445c-.381 0-.627-.2289-.736-.7153-.027-.0858-.027-.2289-.027-.4291v-10.84411c-.872.14306-1.636.25751-2.29.34335-.655.08584-1.227.11445-1.691.11445h-.763l-.027.54363.627.02861c1.445.05723 2.181.62947 2.181 1.74537v7.2103c0 .8297-.055 1.3448-.191 1.545-.218.372-.436.5437-.682.5437h-1.663v.515l3.381-.0572z"/><path d="m192.509 18.6824v-17.48211c-.572.08583-1.254.14306-2.017.17167-.764.02861-1.609.05722-2.563.05722v.57225h.981c.573 0 .982.14306 1.254.42919.219.20028.328.80114.328 1.77396v14.47782c0 .4292-.055.7153-.137.8584-.136.143-.409.2289-.818.2289l-1.526.0286v.515h6.952v-.5436h-1.281c-.818 0-1.227-.372-1.227-1.0873z"/><path d="m200.151 18.6824v-17.48211c-.573.08583-1.254.14306-2.018.17167-.763.02861-1.608.05722-2.563.05722v.57225h.982c.572 0 .981.14306 1.254.42919.218.20028.327.80114.327 1.77396v14.47782c0 .4292-.054.7153-.136.8584-.136.143-.409.2289-.818.2289l-1.527.0286v.515h6.953v-.5436h-1.282c-.818 0-1.227-.372-1.227-1.0873z"/><path d="m211.909 9.55508v-1.8598h-.436c-.109.91559-.382 1.37339-.818 1.37339-.163 0-.491-.20029-.981-.60086-.682-.54363-1.445-.82976-2.291-.82976-.927 0-1.717.31474-2.372.94421-.627.62947-.927 1.43064-.927 2.40344 0 1.7453 1.173 3.0043 3.49 3.7768 1.963.6581 3.136 1.1445 3.517 1.4592.519.4292.791 1.0015.791 1.7168 0 .6867-.272 1.2303-.791 1.6023-.463.3433-1.036.515-1.717.515-2.345 0-3.954-1.6881-4.853-5.093h-.491l.027 2.6037-.054 3.0902h.463l.136-.5723c.191-.7725.464-1.1731.818-1.1731.164 0 .6.2575 1.282.7725.818.6295 1.663.9442 2.563.9442 1.036 0 1.908-.3433 2.644-1.0586.737-.7153 1.091-1.6309 1.091-2.7468 0-1.2876-.654-2.3462-1.963-3.176-.845-.5436-2.045-1.03-3.599-1.4592-1.527-.4006-2.29-1.0873-2.29-2.0887 0-.60085.218-1.11587.627-1.45922.409-.34334.9-.4864 1.472-.4864 1.936 0 3.381 1.48783 4.308 4.49212h.463z"/></g></svg>