<svg fill="none" height="86" viewBox="0 0 215 86" width="215" xmlns="http://www.w3.org/2000/svg"><g fill="#150703"><path clip-rule="evenodd" d="m187 7.71973h-159v70.90297h159zm-161-2v74.90297h163v-74.90297z" fill-rule="evenodd"/><path d="m60.9072 38.1797-1.764-.224c-1.512-.364-1.54-.56-.896-12.488.168.196.336.42.476.7 1.96 3.864 4.116 8.988 6.132 13.552h1.344c2.716-6.244 4.256-10.052 6.384-14.644.056 1.148.14 3.108.252 6.692.224 5.796.196 6.104-.476 6.188l-1.904.224.028 1.54h7.7v-1.54l-1.988-.168c-.588-.056-.644-.224-.84-7.224-.224-5.768-.252-5.992.644-6.132l1.764-.224v-1.512h-5.852c-2.016 4.76-3.388 7.924-5.74 12.964-2.156-4.116-4.088-8.176-6.076-12.964h-6.356v1.512l1.932.196c.42.056.812.112 1.12.168-.7 12.684-.7 12.964-1.932 13.244l-1.512.14v1.54h7.56z"/><path d="m91.9756 39.9157c1.792 0 2.884-1.624 3.22-5.656l-.812-.028c-.308 3.052-.7 3.808-1.456 3.808s-1.008-.756-1.008-2.296c0-1.848.084-5.124.084-6.02 0-2.492-1.344-3.696-4.228-3.696-3.528 0-6.72 2.044-6.608 5.376l2.744-.28c-.028-.504-.028-1.036-.028-1.204 0-1.372 1.092-2.24 2.772-2.24 2.52 0 2.912.924 2.912 4.788v.056c-7.196.924-8.932 2.128-8.932 4.088 0 1.624 1.344 3.388 3.976 3.388 2.016 0 4.088-1.456 4.872-3.108h.28c.084 1.932.784 3.024 2.212 3.024zm-5.908-1.96c-1.988 0-2.996-.784-2.996-2.044 0-.672.476-1.092 1.344-1.428 1.484-.588 3.332-1.064 5.152-1.512 0 1.624 0 2.044-.112 2.604-.28 1.624-1.932 2.38-3.388 2.38z"/><path d="m106.772 34.0077c0 3.024-2.044 3.92-4.088 3.92-2.324 0-3.6677-1.26-3.6677-4.816 0-3.724 1.6517-5.488 3.7797-5.488.896 0 2.072.084 3.976.588zm.448 5.712h4.228v-1.288l-1.708-.252c-.588-.14-.56-.364-.56-7.308 0-5.964 0-8.176.056-10.304l-1.176-.224c-.7.476-1.568.84-4.004 1.232v1.064l1.988.196c.476.056.644.112.7 3.752-1.176-.308-2.212-.448-3.22-.448-4.5357 0-6.9997 3.052-6.9997 7.896 0 3.416 1.288 5.964 4.8997 5.964 2.632 0 4.648-1.652 5.348-3.416h.392c0 1.232.028 2.212.056 3.136z"/><path d="m116.356 31.9637c0-2.884 1.232-4.312 3.724-4.312 2.044 0 3.584 1.344 3.584 3.248 0 .42-.112.7-.616.728l-6.692.392c0 .028 0-.028 0-.056zm4.816-5.936c-4.732 0-7.476 2.744-7.476 6.888 0 4.648 2.604 7.084 6.496 7.084 3.192 0 4.928-1.344 6.244-3.612l-.868-.812c-1.064 1.54-2.38 2.38-4.424 2.38-2.772 0-4.648-1.512-4.788-5.516l7.448.308 2.52-.896c.084-3.724-1.624-5.824-5.152-5.824z"/><path d="m138.393 31.8517c0 5.824 0 6.048-.7 6.104l-1.904.224v1.54h7.728v-1.54l-1.988-.168c-.588-.056-.616-.224-.616-7.224 0-5.768 0-6.048.7-6.132l1.904-.224v-1.512h-7.728v1.512l1.988.196c.588.056.616.224.616 7.224z"/><path d="m149.712 26.1677c-.924.42-2.184.84-3.612 1.204v1.26l1.624.196c.644.112.672.224.672 4.508 0 4.424 0 4.592-.952 4.704l-1.344.14v1.54h7.252v-1.54l-1.68-.112c-.896-.084-.896-.252-.896-6.216 0-2.828 1.904-3.78 3.808-3.78 2.632 0 3.08.868 3.08 5.068 0 4.704-.056 4.844-.924 4.928l-1.456.112v1.54h6.944v-1.54l-1.344-.112c-.84-.112-.812-.196-.812-2.576 0-1.876.056-4.088.056-5.992 0-2.296-1.316-3.472-3.668-3.472-3.136 0-5.124 1.792-5.74 3.752l-.448-.028.196-3.276z"/><path d="m62.5773 62.9277c-.056-4.704-.084-4.928.504-5.012l1.344-.196v-1.316c-2.296.056-5.068.056-8.344 0l-.028 1.316 3.164.224c.7.084.756.308.756 3.64 0 .98-1.596 1.792-3.808 1.792-3.696 0-5.936-2.632-5.936-7.784 0-4.312 1.848-6.216 5.46-6.216 3.108 0 4.396.84 4.62 2.436l.168 1.708h1.4c.084-1.624.224-3.108.336-4.564-.784-.448-2.548-1.316-5.46-1.316-4.984 0-9.492 3.024-9.492 8.792 0 4.984 2.66 8.568 7.616 8.568 3.472 0 5.936-.952 7.7-2.072z"/><path d="m68.655 56.9637c0-2.884 1.232-4.312 3.724-4.312 2.044 0 3.584 1.344 3.584 3.248 0 .42-.112.7-.616.728l-6.692.392c0 .028 0-.028 0-.056zm4.816-5.936c-4.732 0-7.476 2.744-7.476 6.888 0 4.648 2.604 7.084 6.496 7.084 3.192 0 4.928-1.344 6.244-3.612l-.868-.812c-1.064 1.54-2.38 2.38-4.424 2.38-2.772 0-4.648-1.512-4.788-5.516l7.448.308 2.52-.896c.084-3.724-1.624-5.824-5.152-5.824z"/><path d="m83.7142 58.5877c0 4.116 0 4.368-.728 4.452l-1.568.14v1.54h7.896v-1.54l-2.548-.168c-.672-.056-.672-.28-.672-5.152 0-2.772 1.736-3.976 3.5-3.976.616 0 1.12.056 1.456.056v-2.912c-2.968 0-4.34 2.156-4.928 4.592l-.392-.028c0-.868.028-2.632.056-4.116l-.756-.308c-.924.42-2.184.84-3.612 1.204v1.26l1.736.196c.532.112.56.224.56 4.76z"/><path d="m107.339 56.8517c0-2.828 1.932-3.78 3.808-3.78 2.632 0 3.08.868 3.08 5.068 0 4.704-.056 4.844-.924 4.928l-1.456.112v1.54h6.944v-1.54l-1.316-.112c-.84-.112-.84-.196-.84-2.576 0-1.876.056-4.088.056-5.992 0-2.296-1.288-3.472-3.668-3.472-3.136 0-5.096 1.764-5.712 3.696l-.28-.028v-.168c0-2.324-1.176-3.5-3.472-3.5-3.136 0-4.9836 1.792-5.5716 3.752l-.448-.028.196-3.276-.756-.308c-.924.42-2.184.84-3.612 1.204v1.26l1.624.196c.644.112.672.224.672 4.508 0 4.424 0 4.592-.952 4.704l-1.344.14v1.54h7.2516v-1.54l-1.6796-.112c-.868-.084-.896-.252-.896-6.216 0-2.828 1.904-3.78 3.8076-3.78 2.632 0 3.08.868 3.08 5.068 0 4.704-.056 4.844-.924 4.928l-1.26.112v1.54h6.944v-1.54l-1.372-.112c-.952-.112-.98-.196-.98-6.216z"/><path d="m132.021 64.9157c1.792 0 2.884-1.624 3.22-5.656l-.812-.028c-.308 3.052-.7 3.808-1.456 3.808s-1.008-.756-1.008-2.296c0-1.848.084-5.124.084-6.02 0-2.492-1.344-3.696-4.228-3.696-3.528 0-6.72 2.044-6.608 5.376l2.744-.28c-.028-.504-.028-1.036-.028-1.204 0-1.372 1.092-2.24 2.772-2.24 2.52 0 2.912.924 2.912 4.788v.056c-7.196.924-8.932 2.128-8.932 4.088 0 1.624 1.344 3.388 3.976 3.388 2.016 0 4.088-1.456 4.872-3.108h.28c.084 1.932.784 3.024 2.212 3.024zm-5.908-1.96c-1.988 0-2.996-.784-2.996-2.044 0-.672.476-1.092 1.344-1.428 1.484-.588 3.332-1.064 5.152-1.512 0 1.624 0 2.044-.112 2.604-.28 1.624-1.932 2.38-3.388 2.38z"/><path d="m140.237 51.1677c-.924.42-2.184.84-3.612 1.204v1.26l1.624.196c.644.112.672.224.672 4.508 0 4.424 0 4.592-.952 4.704l-1.344.14v1.54h7.252v-1.54l-1.68-.112c-.896-.084-.896-.252-.896-6.216 0-2.828 1.904-3.78 3.808-3.78 2.632 0 3.08.868 3.08 5.068 0 4.704-.056 4.844-.924 4.928l-1.456.112v1.54h6.944v-1.54l-1.344-.112c-.84-.112-.812-.196-.812-2.576 0-1.876.056-4.088.056-5.992 0-2.296-1.316-3.472-3.668-3.472-3.136 0-5.124 1.792-5.74 3.752l-.448-.028.196-3.276z"/><path d="m155.51 69.6477c2.52 0 4.872-1.568 6.384-4.956 5.124-11.508 5.768-11.592 6.552-11.956l.448-.168v-1.26h-5.992v1.26l1.456.168c.728.14.952.42.952 1.008 0 .896-1.316 3.808-3.276 8.204-.672-1.316-1.54-2.968-2.24-4.368-1.036-1.932-1.792-3.36-1.792-4.032 0-.504.28-.756.7-.812l1.708-.168v-1.26h-7v1.26l.588.224c.56.224 1.148 1.12 3.472 5.656 1.148 2.184 2.436 4.536 3.36 6.188-1.176 1.596-2.912 2.212-4.62 2.212-.812 0-1.652-.028-2.576-.168v2.828c.476.112 1.176.14 1.876.14z"/></g></svg>