<svg fill="none" height="66" viewBox="0 0 215 66" width="215" xmlns="http://www.w3.org/2000/svg"><g fill="#000"><path d="m83.1133 29v-10.7373h2.1387l2.5415 7.6025c.2343.708.4052 1.2378.5127 1.5894.122-.3906.3125-.9644.5712-1.7212l2.5708-7.4707h1.9117v10.7373h-1.3697v-8.9868l-3.1201 8.9868h-1.2817l-3.1055-9.1406v9.1406z"/><path d="m100.56 28.0405c-.489.4151-.9599.708-1.414.8789-.4492.1709-.9326.2564-1.4502.2564-.8545 0-1.5112-.2075-1.9702-.6226-.459-.4199-.6885-.9546-.6885-1.604 0-.3808.0855-.7275.2564-1.04.1757-.3174.4028-.5713.6811-.7617.2832-.1905.6006-.3345.9522-.4322.2587-.0683.6494-.1342 1.1718-.1977 1.0645-.127 1.8482-.2783 2.3514-.4541.005-.1807.007-.2954.007-.3443 0-.5371-.124-.9155-.374-1.1352-.3364-.2979-.8369-.4468-1.501-.4468-.6201 0-1.0791.1099-1.3769.3296-.293.2148-.5103.5981-.6519 1.1499l-1.289-.1758c.1171-.5517.31-.9961.5786-1.333.2685-.3418.6567-.603 1.1645-.7837.5078-.1855 1.0962-.2783 1.7652-.2783.664 0 1.2036.0781 1.6185.2344.415.1562.72.354.916.5932.195.2344.332.5323.41.8936.044.2246.066.6299.066 1.2158v1.7578c0 1.2256.027 2.002.08 2.3291.059.3223.171.6323.337.9302h-1.377c-.136-.2734-.224-.5933-.263-.9595zm-.11-2.9443c-.4788.1953-1.1966.3613-2.1536.498-.542.0782-.9253.1661-1.1499.2637-.2246.0977-.398.2417-.52.4321-.1221.1856-.1831.3931-.1831.6226 0 .3516.1318.6445.3955.8789.2685.2344.6591.3516 1.1718.3516.5079 0 .9595-.1099 1.355-.3296.3955-.2246.6863-.5298.8713-.9156.142-.2978.213-.7373.213-1.3183z"/><path d="m108.88 29v-.9814c-.493.7714-1.218 1.1572-2.175 1.1572-.621 0-1.192-.1709-1.714-.5127-.518-.3418-.921-.8179-1.209-1.4282-.283-.6153-.425-1.3208-.425-2.1167 0-.7764.13-1.4795.389-2.1094.258-.6348.647-1.1206 1.164-1.4575.518-.3369 1.096-.5054 1.736-.5054.469 0 .886.1001 1.252.3003.367.1953.664.4517.894.769v-3.8525h1.311v10.7373zm-4.168-3.8818c0 .9961.21 1.7407.63 2.2339.42.4931.916.7397 1.487.7397.576 0 1.065-.2344 1.465-.7031.405-.4737.608-1.1939.608-2.1607 0-1.0644-.205-1.8457-.615-2.3437-.411-.4981-.916-.7471-1.516-.7471-.586 0-1.077.2393-1.473.7178-.39.4785-.586 1.2329-.586 2.2632z"/><path d="m117.508 26.4951 1.362.1685c-.215.7959-.613 1.4135-1.194 1.853s-1.323.6592-2.226.6592c-1.138 0-2.041-.3491-2.71-1.0474-.664-.7031-.996-1.687-.996-2.9516 0-1.3086.337-2.3243 1.01-3.0469.674-.7227 1.548-1.084 2.622-1.084 1.041 0 1.89.354 2.549 1.062s.989 1.7041.989 2.9883c0 .0781-.002.1953-.007.3516h-5.801c.049.8544.29 1.5087.725 1.9628s.977.6812 1.626.6812c.483 0 .896-.127 1.238-.3809s.613-.6591.813-1.2158zm-4.329-2.1313h4.343c-.058-.6543-.224-1.145-.498-1.4722-.42-.5078-.964-.7617-1.633-.7617-.605 0-1.116.2026-1.531.6079-.41.4053-.637.9473-.681 1.626z"/><path d="m125.118 29v-10.7373h1.421v10.7373z"/><path d="m128.882 29v-7.7783h1.187v1.1059c.571-.8545 1.396-1.2817 2.475-1.2817.469 0 .899.0854 1.289.2563.396.1661.691.3858.887.6592.195.2735.332.5982.41.9741.049.2442.073.6714.073 1.2818v4.7827h-1.318v-4.7314c0-.5372-.052-.9375-.154-1.2012-.103-.2686-.286-.481-.549-.6372-.259-.1612-.564-.2417-.916-.2417-.561 0-1.047.1782-1.457.5346-.406.3565-.608 1.0328-.608 2.0289v4.248z"/><path clip-rule="evenodd" d="m182.837 35.0602c.108-.681.163-1.3679.163-2.0602 0-.6922-.055-1.3792-.163-2.0601l.988-.1568c.116.7322.175 1.4716.175 2.2169s-.059 1.4847-.175 2.2169zm-.477-6.1295.953-.3024c-.432-1.3603-1.059-2.6843-1.864-3.9669l-.847.5316c.764 1.2184 1.354 2.4659 1.758 3.7377zm-2.944-5.4267.789-.6139c-.842-1.0836-1.814-2.1358-2.905-3.1542l-.682.7308c1.056.9865 1.991 2 2.798 3.0373zm-4.355-4.3997.636-.7722c-1.051-.8647-2.191-1.704-3.413-2.5163l-.554.8329c1.197.7952 2.309 1.6145 3.331 2.4556zm-5.081-3.5651.518-.8555c-1.162-.7031-2.388-1.3844-3.675-2.0428l-.455.8903c1.267.6483 2.472 1.3181 3.612 2.008zm-5.465-2.9198.427-.9038c-1.232-.5832-2.514-1.1468-3.842-1.6897l-.379.9257c1.313.5365 2.579 1.0928 3.794 1.6678zm-5.717-2.4265.355-.9346c-1.273-.48478-2.586-.95144-3.936-1.3991l-.314.94916c1.336.44328 2.635.9051 3.895 1.38454zm-5.873-2.01846.296-.95524c-1.303-.40335-2.637-.78957-4.002-1.15791l-.26.96544c1.353.36526 2.675.74809 3.966 1.14771zm-5.976-1.67169.244-.96976c-1.325-.33348-2.676-.65049-4.053-.95037l-.213.97707c1.366.29766 2.707.61224 4.022.94306zm-6.049-1.36877.198-.98018c-1.344-.27152-2.71-.52699-4.096-.7658l-.17.98548c1.377.23722 2.734.49092 4.068.7605zm-6.105-1.09699.156-.98772c-1.356-.21458-2.732-.41341-4.124-.59596l-.13.99152c1.384.18142 2.75.37898 4.098.59216zm-6.147-.8473.118-.9931c-1.365-.16119-2.745-.30688-4.14-.43659l-.093.9957c1.387.12895 2.759.27377 4.115.43399zm-6.179-.61327.081-.99675c-1.371-.11071-2.754-.20608-4.15-.28566l-.057.99838c1.388.07913 2.764.17396 4.126.28403zm-6.194-.38986.046-.99897c-1.376-.06242-2.763-.10954-4.16-.14094l-.022.99975c1.389.03123 2.768.07809 4.136.14016zm-6.2-.17493.011-.99994c-.693-.00778-1.389-.01169-2.086-.01169s-1.393.00391-2.086.01169l.011.99994c.69-.00774 1.381-.01163 2.075-.01163s1.385.00389 2.075.01163zm-6.214.03477-.022-.99975c-1.397.0314-2.784.07852-4.1597.14094l.0453.99897c1.3684-.06207 2.7474-.10893 4.1364-.14016zm-6.2043.24599-.0569-.99837c-1.3957.07957-2.7793.17494-4.1497.28565l.0805.99675c1.3625-.11007 2.7383-.2049 4.1261-.28403zm-6.1899.46331-.0926-.9957c-1.3948.12971-2.7752.2754-4.1399.43659l.1173.9931c1.3564-.16021 2.7285-.30504 4.1152-.43399zm-6.1634.68913-.13-.99151c-1.3926.18254-2.768.38137-4.1248.59595l.1562.98772c1.348-.21318 2.7146-.41074 4.0986-.59216zm-6.1358.92865-.1697-.98548c-1.3863.23882-2.752.49428-4.0956.7658l.1981.98018c1.334-.26958 2.6902-.52328 4.0672-.7605zm-6.095 1.18621-.2129-.97707c-1.3762.29988-2.7277.61689-4.0528.95037l.2441.96976c1.3145-.33082 2.6556-.64539 4.0216-.94306zm-6.0313 1.46704-.2606-.96544c-1.3644.36834-2.6989.75456-4.0014 1.15791l.2958.95524c1.2905-.39962 2.6132-.78245 3.9662-1.14771zm-5.944 1.78162-.3148-.94915c-1.3497.44765-2.6624.91432-3.9358 1.3991l.3558.9346c1.2592-.47944 2.5583-.94126 3.8948-1.38455zm-5.8187 2.14325-.3782-.9257c-1.3288.5429-2.6108 1.1065-3.8428 1.6897l.4278.9038c1.2148-.575 2.4802-1.1313 3.7932-1.6678zm-5.6463 2.5796-.4554-.8903c-1.287.6584-2.5133 1.3397-3.6748 2.0428l.5178.8555c1.1397-.6899 2.3451-1.3597 3.6124-2.008zm-5.3628 3.1175-.5534-.8329c-1.2224.8123-2.3622 1.6516-3.413 2.5163l.6355.7722c1.0221-.8411 2.1342-1.6604 3.3309-2.4556zm-4.887 3.818-.6826-.7308c-1.0904 1.0184-2.0624 2.0706-2.9051 3.1542l.7894.6139c.8067-1.0373 1.7421-2.0508 2.7983-3.0373zm-3.984 4.7263-.847-.5316c-.805 1.2826-1.4328 2.6066-1.8643 3.9669l.9532.3024c.4034-1.2718.9934-2.5193 1.7581-3.7377zm-2.2355 5.7468c-.1081.681-.163 1.3679-.163 2.0602 0 .6922.0549 1.3792.163 2.0601l-.9877.1568c-.1162-.7322-.1753-1.4716-.1753-2.2169s.0591-1.4847.1754-2.2169zm.4774 6.1295-.9532.3024c.4315 1.3603 1.0593 2.6843 1.8643 3.9669l.847-.5316c-.7647-1.2184-1.3547-2.4659-1.7581-3.7377zm2.9438 5.4267-.7894.6139c.8427 1.0836 1.8147 2.1358 2.9051 3.1542l.6825-.7308c-1.0562-.9865-1.9915-2-2.7982-3.0373zm4.3543 4.3997-.6354.7722c1.0508.8647 2.1906 1.704 3.413 2.5163l.5534-.8329c-1.1967-.7952-2.3088-1.6145-3.331-2.4556zm5.0814 3.5651-.5178.8555c1.1615.7031 2.3878 1.3844 3.6748 2.0428l.4554-.8903c-1.2673-.6483-2.4727-1.3181-3.6124-2.008zm5.4655 2.9198-.4278.9038c1.232.5832 2.514 1.1468 3.8428 1.6897l.3782-.9257c-1.313-.5365-2.5784-1.0928-3.7932-1.6678zm5.7171 2.4265-.3558.9346c1.2734.4848 2.5861.9514 3.9358 1.3991l.3148-.9492c-1.3365-.4432-2.6356-.9051-3.8948-1.3845zm5.8726 2.0185-.2958.9552c1.3025.4034 2.637.7896 4.0014 1.1579l.2606-.9654c-1.353-.3653-2.6757-.7481-3.9662-1.1477zm5.9759 1.6716-.2441.9698c1.3251.3335 2.6766.6505 4.0528.9504l.2129-.9771c-1.366-.2977-2.7071-.6122-4.0216-.9431zm6.0494 1.3688-.1981.9802c1.3436.2715 2.7093.527 4.0956.7658l.1697-.9855c-1.377-.2372-2.7332-.4909-4.0672-.7605zm6.1044 1.097-.1562.9877c1.3568.2146 2.7322.4134 4.1248.596l.13-.9915c-1.384-.1814-2.7506-.379-4.0986-.5922zm6.1468.8473-.1173.9931c1.3647.1612 2.7451.3069 4.1399.4366l.0926-.9957c-1.3866-.129-2.7588-.2738-4.1152-.434zm6.179.6133-.0805.9967c1.3704.1107 2.754.2061 4.1497.2857l.0569-.9984c-1.3878-.0791-2.7636-.1739-4.1261-.284zm6.194.3898-.0453.999c1.3757.0624 2.7627.1095 4.1597.141l.022-.9998c-1.389-.0312-2.768-.0781-4.1364-.1402zm6.2004.175-.011.9999c.693.0078 1.389.0117 2.086.0117s1.393-.0039 2.086-.0117l-.011-.9999c-.69.0077-1.381.0116-2.075.0116s-1.385-.0039-2.075-.0116zm6.214-.0348.022.9997c1.397-.0314 2.784-.0785 4.16-.1409l-.046-.999c-1.368.0621-2.747.109-4.136.1402zm6.204-.246.057.9984c1.396-.0796 2.779-.175 4.15-.2857l-.081-.9967c-1.362.1101-2.738.2049-4.126.284zm6.19-.4633.093.9957c1.395-.1297 2.775-.2754 4.14-.4366l-.118-.9931c-1.356.1602-2.728.305-4.115.434zm6.164-.6891.13.9915c1.392-.1826 2.768-.3814 4.124-.596l-.156-.9877c-1.348.2132-2.714.4108-4.098.5922zm6.135-.9287.17.9855c1.386-.2388 2.752-.4943 4.096-.7658l-.198-.9802c-1.334.2696-2.691.5233-4.068.7605zm6.095-1.1862.213.9771c1.377-.2999 2.728-.6169 4.053-.9504l-.244-.9698c-1.315.3309-2.656.6454-4.022.9431zm6.032-1.467.26.9654c1.365-.3683 2.699-.7545 4.002-1.1579l-.296-.9552c-1.291.3996-2.613.7824-3.966 1.1477zm5.944-1.7817.314.9492c1.35-.4477 2.663-.9143 3.936-1.3991l-.355-.9346c-1.26.4794-2.559.9413-3.895 1.3845zm5.818-2.1432.379.9257c1.328-.5429 2.61-1.1065 3.842-1.6897l-.427-.9038c-1.215.575-2.481 1.1313-3.794 1.6678zm5.647-2.5796.455.8903c1.287-.6584 2.513-1.3397 3.675-2.0428l-.518-.8555c-1.14.6899-2.345 1.3597-3.612 2.008zm5.362-3.1175.554.8329c1.222-.8123 2.362-1.6516 3.413-2.5163l-.636-.7722c-1.022.8411-2.134 1.6604-3.331 2.4556zm4.888-3.818.682.7308c1.091-1.0184 2.063-2.0706 2.905-3.1542l-.789-.6139c-.807 1.0373-1.742 2.0508-2.798 3.0373zm3.984-4.7263.847.5316c.805-1.2826 1.432-2.6066 1.864-3.9669l-.953-.3024c-.404 1.2718-.994 2.5193-1.758 3.7377z" fill-rule="evenodd"/><path d="m57 49.2112v-17.3458h2.3484l9.087 13.6187v-13.6187h2.195v17.3458h-2.3484l-9.087-13.6305v13.6305z"/><path d="m82.7975 49.4917 2.1951.2722c-.3462 1.2857-.9874 2.2836-1.9236 2.9935-.9363.7099-2.1321 1.0649-3.5876 1.0649-1.8331 0-3.2886-.564-4.3665-1.692-1.07-1.1359-1.605-2.7253-1.605-4.7683 0-2.114.5429-3.7547 1.6286-4.9221 1.0857-1.1675 2.494-1.7512 4.2249-1.7512 1.6757 0 3.0447.5719 4.1068 1.7157 1.0621 1.1437 1.5932 2.7529 1.5932 4.8274 0 .1262-.004.3156-.0118.568h-9.3466c.0787 1.3804.4681 2.4374 1.1683 3.1709.7002.7336 1.5735 1.1004 2.6199 1.1004.7789 0 1.4437-.2051 1.9944-.6152.5507-.4102.9874-1.0649 1.3099-1.9642zm-6.9745-3.4431h6.9981c-.0944-1.057-.3619-1.8497-.8024-2.3782-.6767-.8204-1.5539-1.2305-2.6317-1.2305-.9756 0-1.7978.3273-2.4665.982-.6609.6547-1.0267 1.5303-1.0975 2.6267z"/><path d="m90.9124 56.1346-3.8354-12.5656h2.195l2.7379 9.9507c.0315-.1341.2479-.9978.6491-2.5912l1.9944-7.3595h2.1832l1.8765 7.2885.6254 2.4019.7195-2.4256 2.148-7.2648h2.065l-3.918 12.5656h-2.2064l-1.9944-7.5252-.4839-2.1416-2.5372 9.6668z"/><path d="m117.489 57v-7.3477l-6.668-9.998h2.785l3.411 5.2297c.629.9781 1.215 1.9562 1.758 2.9344.519-.9072 1.149-1.9287 1.888-3.0645l3.352-5.0996h2.667l-6.904 9.998v7.3477z"/><path d="m126.383 48.1209c0-2.3269.645-4.0505 1.935-5.1706 1.078-.9308 2.392-1.3961 3.942-1.3961 1.723 0 3.131.5679 4.224 1.7038 1.094 1.128 1.641 2.6898 1.641 4.6854 0 1.6171-.244 2.891-.732 3.8218-.48.9229-1.184 1.6407-2.112 2.1534-.921.5127-1.928.7691-3.021.7691-1.755 0-3.175-.564-4.261-1.692-1.077-1.128-1.616-2.7529-1.616-4.8748zm2.183 0c0 1.6092.35 2.816 1.05 3.6206.7.7967 1.582 1.1951 2.644 1.1951 1.054 0 1.931-.4023 2.631-1.2069.701-.8046 1.051-2.0312 1.051-3.6798 0-1.5539-.354-2.7292-1.062-3.5259-.701-.8046-1.574-1.2069-2.62-1.2069-1.062 0-1.944.3984-2.644 1.1951-.7.7966-1.05 1.9996-1.05 3.6087z"/><path d="m140.603 52.6729v-12.5656h1.912v1.9049c.488-.8913.936-1.479 1.345-1.7629.417-.284.874-.426 1.369-.426.716 0 1.444.2288 2.183.6863l-.731 1.9759c-.519-.3076-1.039-.4614-1.558-.4614-.464 0-.881.1419-1.251.4259-.37.2761-.633.6626-.791 1.1595-.236.7573-.354 1.5855-.354 2.4848v6.5786z"/><path d="m149.615 48.3457v-17.3457h2.124v9.8916l5.027-5.1115h2.75l-4.791 4.6618 5.275 7.9038h-2.62l-4.142-6.4248-1.499 1.4436v4.9812z"/></g></svg>