<svg fill="none" height="60" viewBox="0 0 215 60" width="215" xmlns="http://www.w3.org/2000/svg"><g fill="#150703"><path clip-rule="evenodd" d="m212.084 33.6835c1.315-1.315 1.875-2.5441 1.875-3.6835s-.56-2.3685-1.875-3.6835c-1.317-1.3172-3.315-2.6384-5.981-3.9285-5.327-2.5777-13.103-4.9272-22.795-6.9108-19.368-3.9636-46.17-6.42274-75.808-6.42274-29.6376 0-56.4402 2.45914-75.8077 6.42274-9.6923 1.9836-17.468 4.3331-22.79545 6.9108-2.66623 1.2901-4.66401 2.6113-5.98108 3.9285-1.31485 1.315-1.87443 2.5441-1.87443 3.6835s.55958 2.3685 1.87443 3.6835c1.31707 1.3172 3.31485 2.6384 5.98108 3.9285 5.32745 2.5777 13.10315 4.9272 22.79545 6.9108 19.3675 3.9636 46.1701 6.4227 75.8077 6.4227 29.638 0 56.44-2.4591 75.808-6.4227 9.692-1.9836 17.468-4.3331 22.795-6.9108 2.666-1.2901 4.664-2.6113 5.981-3.9285zm-104.584 18.3165c59.371 0 107.5-9.8497 107.5-22s-48.129-22-107.5-22c-59.3706 0-107.5 9.8497-107.5 22s48.1294 22 107.5 22z" fill-rule="evenodd"/><path d="m29.9558 21.4783-3.4522-.0515v.4627h2.3099c1.0154 0 1.5231.4113 1.5231 1.2338l.0253 12.3378c0 .5912-.203 1.1567-.6092 1.6965-.4569.5912-.9646.8739-1.523.8739h-1.7008l.0254.5398 3.9853-.1028 4.1884.1028v-.5398h-1.5738c-.6092 0-1.1931-.3598-1.7261-1.0538-.33-.437-.5077-.9511-.5077-1.5423v-13.3403l5.3814 16.8618 5.2545-16.8103v14.2142c0 .3084 0 .5655-.0254.7454-.0253.1799-.0507.3084-.0761.3856-.1777.3855-.5077.5654-.99.5654h-2.2846l-.0253.5141h9.2651v-.4627l-1.5484.0258c-.7615 0-1.2692-.1029-1.523-.3085-.2793-.2313-.4062-.7197-.4062-1.4908v-12.7491c0-.7969.1269-1.2852.3554-1.4652.0762-.0771.2538-.1285.5077-.1542.2538-.0257.6092-.0771 1.0407-.0771l1.5738-.0257v-.4884l-3.173.0771-3.0461-.0771-3.8583 12.6463-4.0361-12.6463z"/><path d="m55.1328 30.2947.0254 1.6193-1.1676.3342-1.9038.5655c-.5077.1542-.9139.3084-1.1931.4369-1.4469.6169-2.1576 1.568-2.1576 2.8788 0 .7712.2284 1.4138.6599 1.9021.4316.4627 1.0408.694 1.8531.694 1.7261 0 3.0461-.8482 3.9599-2.5446 0 1.6707.6854 2.5189 2.0815 2.5189 1.32 0 2.0053-.7197 2.0307-2.1591l.0254-2.6218h-.5077l-.0254 2.1077c-.0253 1.2081-.3553 1.7993-.9899 1.7993-.5585 0-.8377-.4113-.8377-1.2595l-.0254-5.6548c0-1.0025-.2031-1.7222-.5584-2.1592-.7362-.8996-1.8785-1.3623-3.4777-1.3623-.9646 0-1.7769.2314-2.4368.694-.7616.5141-1.1423 1.2338-1.1423 2.1849 0 .4112.1269.7711.3553 1.0538.2285.2828.5585.437.99.437.3808 0 .7108-.1285.99-.3599.2538-.257.3808-.5911.3808-1.0024 0-.7454-.3554-1.1824-1.0662-1.3366-.33-.0771-.5076-.1542-.5076-.2313 0-.0772.1776-.2314.5076-.4884.3808-.2828.9139-.437 1.5992-.437.8885 0 1.5231.1799 1.9038.5398.3808.3341.5839.9767.6093 1.9021zm0 2.1334v1.6707c0 .874-.2792 1.7222-.8122 2.519-.5839.8997-1.2946 1.3366-2.1323 1.3366-.8123 0-1.2184-.6169-1.2184-1.825 0-1.1566.4315-2.0306 1.2945-2.6217.4823-.3085 1.4469-.6683 2.8938-1.0796z"/><path d="m68.8055 32.9422c0 1.3623-.2538 2.5447-.7107 3.5471-.6346 1.3623-1.4977 2.0563-2.6653 2.0563-1.0408 0-1.7262-.7197-2.0561-2.1591-.0762-.3342-.127-.7711-.1523-1.3366-.0254-.5655-.0508-1.2338-.0508-2.0306 0-1.4651.0761-2.519.2284-3.1616.3046-1.3623.9646-2.0306 1.9546-2.0306 1.0408 0 1.9292.5655 2.64 1.7222.533.8996.8122 2.0306.8122 3.4186zm-.1269-9.2277-.0254 6.1175c-.863-1.5679-1.9545-2.339-3.2491-2.339-1.1423 0-2.2338.7197-3.2492 2.1334-.9392 1.3109-1.3961 2.5961-1.3961 3.8556 0 1.3109.4569 2.5703 1.3454 3.7784.9899 1.3109 2.1068 1.9535 3.3506 1.9535 1.4216 0 2.5638-1.0538 3.4269-3.1359-.0508.9254-.0762 1.568-.0762 1.9278v1.0539c.9139-.1028 1.7008-.1799 2.3608-.2313.66-.0515 1.193-.0772 1.5992-.0772v-.4369l-1.1169-.0771c-.7362-.0514-1.1169-.6169-1.1169-1.6965v-15.0367c-.5077.0771-1.0408.1285-1.5992.1542-.5585.0257-1.1423.0771-1.7261.0771l-1.5231.0257v.5141l1.5484-.0257c.99-.0257 1.4723.4626 1.4723 1.4651z"/><path d="m81.1515 31.1429c0 .4627-.0507.7454-.1523.8739-.1015.18-.3553.2571-.7869.2571h-4.0614c0-3.1102.8376-4.6781 2.5384-4.6781.8884 0 1.5484.3855 1.9799 1.1823.33.6426.5077 1.4395.5077 2.3905zm-4.9245 1.6965 7.2853.0514c-.6854-3.7785-2.2846-5.6806-4.7722-5.6806-1.3962 0-2.5638.6426-3.5031 1.9278-.8376 1.1567-1.2438 2.4676-1.2438 3.9327 0 1.5165.4823 2.8531 1.4215 3.9841 1.0154 1.2081 2.2592 1.7993 3.7315 1.7993 1.2438 0 2.2846-.4627 3.1222-1.3881.8377-.8996 1.2439-1.9791 1.2439-3.2386l-.457-.0257c-.0761 1.1052-.4569 2.0563-1.1422 2.8531-.7362.8482-1.6246 1.2852-2.6654 1.2852-.9646 0-1.7007-.3856-2.2338-1.1567-.533-.7711-.8376-1.8764-.8123-3.2901z"/><path d="m92.6815 22.7891c0 .3856.1269.7198.3807 1.0025.2539.257.5839.3856.99.3856.3808 0 .7108-.1286.99-.3856.2792-.2827.4061-.6169.4061-1.0025 0-.3855-.1269-.7197-.4061-1.0024-.2792-.257-.6092-.3856-.99-.3856-.3807 0-.7107.1286-.9646.3856-.2792.257-.4061.5912-.4061.9767zm4.8483 15.7565v-.5141h-1.3453c-.3554 0-.5839-.2056-.6854-.6426-.0254-.0771-.0254-.2056-.0254-.3855v-9.7418c-.8123.1285-1.523.2314-2.1322.3085-.6093.0771-1.1423.1028-1.5739.1028h-.7107l-.0254.4884.5838.0257c1.3454.0514 2.0308.5654 2.0308 1.5679v6.4774c0 .7454-.0508 1.208-.1777 1.388-.2031.3341-.4062.4883-.6346.4883h-1.5484v.4627l3.1476-.0514z"/><path d="m102.585 30.4232v-2.9559c-.483.0771-1.092.1542-1.803.2056-.71.0514-1.5481.0771-2.5127.0771v.5398h.787c.4823 0 .8884.1799 1.1927.5655.33.3855.483.8225.483 1.3366l-.026 6.7344c0 .4112-.025.694-.076.8482-.127.2313-.381.3599-.7361.3599h-1.4722v.4626l3.2743-.0514 3.046.0514v-.4626l-.99-.0258c-.482 0-.812-.0771-.964-.2313-.153-.1542-.229-.4627-.229-.9253v-3.6757c0-1.2081.254-2.2876.787-3.2387.686-1.2338 1.472-1.8506 2.361-1.8506.584 0 1.041.257 1.421.7968.305.4369.483.9767.483 1.6193v6.1432c0 .8997-.28 1.3623-.813 1.3623l-1.345.0258v.4883h6.143v-.4626h-.838c-.584 0-.939-.0515-1.066-.1543-.177-.1542-.254-.4883-.254-1.0024v-5.5778c0-1.1052-.279-2.0049-.837-2.6989-.61-.7711-1.447-1.1566-2.513-1.1566-1.396 0-2.564.9767-3.478 2.9302z"/><path d="m129.001 38.5713v-.4884h-3.122c-.61 0-.914-.6169-.914-1.8506l.025-5.8605h1.244c1.98 0 2.97 1.5165 2.97 4.5496h.508l.025-9.9988h-.558c0 1.9278-.28 3.2129-.863 3.8555-.584.6941-1.244 1.0539-1.98 1.0539h-1.346v-6.8115c0-.4113.076-.694.229-.8225.152-.1543.431-.2314.863-.2314h2.437c1.193 0 2.208.437 3.071 1.3109.686.694 1.193 1.5423 1.549 2.5447.126.3342.228.7454.33 1.2338.101.4884.203 1.0538.304 1.6964h.432l-.127-7.4027-7.108.0257-8.173-.0514v.5398h2.335c.888 0 1.32.4113 1.32 1.2595l.025 13.2118c0 1.1052-.304 1.6707-.914 1.6707h-2.766v.4884z"/><path d="m139.524 30.7316v-3.3415c-1.371.2571-2.615.3856-3.706.3856h-.736l-.026.4884.61.0257c.33.0257.609.0514.837.0771.229.0257.407.0771.533.1542.407.2056.61.6169.61 1.2338v6.4774c0 .7454-.051 1.208-.178 1.388-.178.3341-.381.4883-.635.4883h-1.548v.4627l3.274-.0514 3.351.0514v-.5141h-1.701c-.355 0-.583-.2056-.685-.6426-.025-.0771-.025-.2056-.025-.3855v-3.2644c0-1.1053.228-2.2619.634-3.47.559-1.5937 1.244-2.3905 2.133-2.3905.126 0 .279.0514.482.1542.203.1286.304.2314.304.3085 0 .0514-.152.2056-.456.4884-.33.2827-.483.7197-.483 1.3109 0 .3341.127.6168.356.8482.253.2313.533.3341.837.3341.432 0 .762-.1799.99-.5397.229-.3599.33-.7455.33-1.131 0-.6683-.228-1.2081-.66-1.6194-.431-.3855-.99-.5654-1.675-.5654-.533 0-1.015.2056-1.447.6425-.431.437-.838 1.0025-1.066 1.7736z"/><path d="m152.678 30.2947.026 1.6193-1.168.3342-1.904.5655c-.508.1542-.914.3084-1.193.4369-1.447.6169-2.158 1.568-2.158 2.8788 0 .7712.229 1.4138.66 1.9021.432.4627 1.041.694 1.853.694 1.727 0 3.046-.8482 3.96-2.5446 0 1.6707.686 2.5189 2.082 2.5189 1.32 0 2.005-.7197 2.031-2.1591l.025-2.6218h-.508l-.025 2.1077c-.026 1.2081-.356 1.7993-.99 1.7993-.559 0-.838-.4113-.838-1.2595l-.025-5.6548c0-1.0025-.203-1.7222-.559-2.1592-.736-.8996-1.878-1.3623-3.477-1.3623-.965 0-1.777.2314-2.437.694-.762.5141-1.142 1.2338-1.142 2.1849 0 .4112.127.7711.355 1.0538.228.2828.558.437.99.437.381 0 .711-.1285.99-.3599.254-.257.381-.5911.381-1.0024 0-.7454-.356-1.1824-1.066-1.3366-.33-.0771-.508-.1542-.508-.2313 0-.0772.178-.2314.508-.4884.38-.2828.913-.437 1.599-.437.888 0 1.523.1799 1.904.5398.38.3341.583.9767.609 1.9021zm0 2.1334v1.6707c0 .874-.279 1.7222-.812 2.519-.584.8997-1.295 1.3366-2.132 1.3366-.813 0-1.219-.6169-1.219-1.825 0-1.1566.432-2.0306 1.295-2.6217.482-.3085 1.447-.6683 2.894-1.0796z"/><path d="m161.756 30.4232v-2.956c-.482.0772-1.091.1543-1.802.2057s-1.548.0771-2.513.0771v.5398h.787c.482 0 .888.1799 1.193.5655.33.3855.482.8225.482 1.3366l-.025 6.7344c0 .4112-.025.694-.076.8482-.127.2313-.381.3598-.736.3598h-1.473v.4627l3.275-.0514 3.046.0514v-.4627l-.99-.0257c-.482 0-.812-.0771-.965-.2313-.152-.1542-.228-.4627-.228-.9253v-3.6757c0-1.2081.254-2.2876.787-3.2387.685-1.2338 1.472-1.8506 2.361-1.8506.583 0 1.04.257 1.421.7968.305.4369.482.9767.482 1.6193v6.1432c0 .8997-.279 1.3623-.812 1.3623l-1.345.0257v.4884h6.143v-.4626h-.838c-.584 0-.939-.0515-1.066-.1543-.178-.1542-.254-.4883-.254-1.0024v-5.5778c0-1.1052-.279-2.0049-.838-2.6989-.609-.7711-1.446-1.1566-2.513-1.1566-1.396 0-2.563.9767-3.477 2.9302z"/><path d="m181.454 33.8161-.457-.0257c-.229 1.4651-.584 2.4933-1.066 3.1102-.737.8996-1.65 1.3623-2.742 1.3623-1.98 0-2.97-1.6451-2.97-4.9095 0-3.8555.99-5.7833 2.97-5.7833.432 0 .889.1285 1.371.3855.558.2828.838.6426.838 1.0539 0 .2313-.102.3855-.33.4627l-.305.1028c-.584.2056-.889.6683-.889 1.388 0 .9253.457 1.388 1.346 1.388.482 0 .863-.1799 1.142-.5141.254-.3084.381-.7197.381-1.2081 0-.951-.33-1.7735-1.016-2.4418-.634-.6426-1.446-.9768-2.436-.9768-1.143 0-2.158.3856-3.046 1.1824-.686.5912-1.219 1.3109-1.625 2.1591-.432.8482-.635 1.7222-.635 2.6218 0 1.4651.483 2.7503 1.473 3.8556 1.04 1.2081 2.259 1.825 3.63 1.825.786 0 1.497-.2057 2.157-.6169.66-.3856 1.168-.9511 1.549-1.6708.304-.5912.507-1.4908.634-2.6989z"/><path d="m190.199 31.1429c0 .4627-.051.7454-.152.8739-.102.18-.356.2571-.787.2571h-4.062c0-3.1102.838-4.6781 2.539-4.6781.888 0 1.548.3855 1.98 1.1823.33.6426.507 1.4395.507 2.3905zm-4.924 1.6965 7.285.0514c-.686-3.7785-2.285-5.6806-4.772-5.6806-1.397 0-2.564.6426-3.503 1.9278-.838 1.1567-1.244 2.4676-1.244 3.9327 0 1.5165.482 2.8531 1.421 3.9841 1.016 1.2081 2.259 1.7993 3.732 1.7993 1.244 0 2.284-.4627 3.122-1.3881.838-.8996 1.244-1.9791 1.244-3.2386l-.457-.0257c-.076 1.1052-.457 2.0563-1.142 2.8531-.737.8482-1.625 1.2852-2.666 1.2852-.964 0-1.701-.3856-2.234-1.1567s-.837-1.8764-.812-3.2901z"/></g></svg>