<svg fill="none" height="70" viewBox="0 0 214 70" width="214" xmlns="http://www.w3.org/2000/svg"><g fill="#150703"><path d="m50.5793 32.5047c.0216-.2986.0592-.5918.1131-.8798.0538-.2879.1076-.5758.1614-.8637.0216-.1173.0323-.2293.0323-.3359s.0216-.2186.0646-.3359c.0108-.0533.0485-.1226.1131-.2079-.1077-.224-.183-.4532-.2261-.6878-.0323-.2453-.0754-.4906-.1292-.7358-.0323-.0747-.0592-.1706-.0807-.2879-.0216-.1173-.0431-.2346-.0646-.3519-.0216-.1173-.0377-.224-.0485-.3199-.0107-.1067-.0215-.1866-.0323-.24-.0646-.3305-.1291-.6558-.1937-.9757-.0646-.3305-.1346-.6611-.21-.9917-.3122-1.4289-.6082-2.8525-.8881-4.2707-.2799-1.4289-.5706-2.8632-.872-4.3027-.1077-.4586-.2045-.9171-.2907-1.3756-.0753-.4692-.1561-.9384-.2422-1.4076-.0538.2452-.1076.4852-.1615.7198-.0538.2239-.1076.4585-.1614.7038-.4091 1.8661-.8236 3.7215-1.2434 5.5663-.4199 1.8448-.829 3.7056-1.2273 5.5824-.1184.5864-.2315 1.1783-.3391 1.7754-.0969.5865-.1938 1.1837-.2907 1.7915-.0323.2133-.0861.4319-.1615.6558-.0645.2239-.0645.4425 0 .6558.0431.128.1346.2186.2746.2719.1507.0533.2906.096.4198.128.3983.0746.7913.1226 1.1788.144.3983.0106.7967.0373 1.195.0799l-2.5353 1.1677c-.549-.0533-.9688-.08-1.2595-.08-.2799-.0107-.5114-.0267-.6944-.048s-.3552-.0586-.5167-.1119c-.1507-.064-.366-.1707-.6459-.32-.3122.0854-.6244.16-.9366.224-.3122.0533-.6244.1013-.9366.1439-.1507.0214-.2961.0374-.436.048-.14.0107-.2853.0267-.436.048-.0538.0107-.1023.0213-.1453.032-.0431 0-.0915 0-.1454 0l-.0969.016c-.0861.0213-.1668.0267-.2422.016-.0753-.0107-.1561-.016-.2422-.016l2.2769-1.1357c.183 0 .366-.0053.549-.016.183-.0213.366-.0426.549-.0639.1723-1.3117.3822-2.6179.6298-3.9189.2476-1.3116.5168-2.6125.8074-3.9028.2907-1.301.5867-2.5966.8882-3.8869.3014-1.3009.5974-2.5912.8881-3.8708l.6298-2.7832c.043-.1813.0753-.3626.0969-.5438.0215-.192.0592-.3786.113-.5599.0108-.032.0269-.0586.0484-.08.0216-.0213.0431-.0426.0646-.0639l.5168-.5439c-.2369-.2132-.4845-.3785-.7428-.4958-.2584-.1173-.5275-.2026-.8074-.256-.2692-.0533-.5491-.0853-.8397-.0959-.2907-.0107-.5867-.016-.8882-.016l2.2769-1.18367c.366 0 .7159.00533 1.0496.016.3337.01066.6513.04265.9528.09597.3121.05332.6136.14396.9042.2719.3015.128.5921.3093.872.5439.1508-.0214.3122-.0267.4845-.016.1722.0106.3176.032.436.0639.0646.0214.1345.048.2099.08s.1346.0747.1776.128c.0646.064.1292.2133.1938.4478.0646.2346.1184.4906.1615.7678.0538.2666.0969.5225.1292.7678.043.2346.0753.3892.0969.4639.3767 1.8341.7374 3.6629 1.0819 5.4863.3552 1.8235.7374 3.6523 1.1465 5.4864.1184.5119.2153 1.0344.2907 1.5675.0753.5332.1883 1.0557.3391 1.5676.0538.1599.0861.3092.0969.4478l.2906-.4798c.3445-.5972.6944-1.1783 1.0496-1.7435.3661-.5758.7375-1.1517 1.1143-1.7275.8074-1.2583 1.6094-2.5166 2.406-3.7749.8074-1.2583 1.631-2.5166 2.4707-3.7748.183-.2773.3606-.5546.5328-.8318.1831-.2879.3661-.5758.5491-.8637.0861-.128.1668-.2666.2422-.4159.0861-.16.1776-.2986.2745-.4159.2369-.4479.4737-.8104.7105-1.0877.2369-.2879.5006-.5278.7913-.7198.3014-.1919.6351-.3572 1.0012-.4958.366-.1386.7966-.2933 1.2918-.4639.6459-.3412 1.308-.6505 1.9862-.9277.689-.28792 1.4049-.44254 2.1477-.46387.2799-.01066.5544-.01066.8236 0h.8074c-.3768.20261-.759.40517-1.1465.60787-.3768.1919-.7536.3838-1.1304.5758h-1.5341l-.0646.032c-.043.949-.1615 1.8714-.3552 2.7672-.183.8957-.3714 1.8074-.5652 2.7351-.323 1.5249-.6675 3.0391-1.0335 4.5427-.3552 1.5036-.7051 3.0178-1.0496 4.5427-.0538.2452-.113.4958-.1776.7517-.0646.2453-.1292.4959-.1938.7518l-.2745 1.2796c-.0216.128-.0539.3093-.0969.5439-.0431.2239-.0861.4638-.1292.7198-.0431.2559-.0754.5065-.0969.7517-.0108.2453-.0054.4426.0162.5919.0215.1492.0968.2932.226.4318.1292.1387.2584.2453.3876.3199.1722.096.366.1653.5813.208.2153.0426.4306.0693.6459.0799.2153.0107.4307.016.646.016.226-.0106.436-.016.6297-.016-.3768.2027-.7589.4053-1.1465.6079-.3768.1919-.7536.3839-1.1303.5758-.2261 0-.4737.0053-.7429.016-.2691.0107-.5382.0107-.8074 0-.2583-.0213-.5167-.0587-.7751-.112-.2583-.0533-.4898-.1386-.6943-.2559-.0969-.0533-.183-.1066-.2584-.16-.0646-.0639-.1238-.1226-.1776-.1759-.6782.2346-1.3618.4052-2.0508.5118-.2369.0427-.4791.0747-.7267.096-.2368.0107-.4737.0267-.7105.048-.0646.0107-.113.016-.1453.016s-.0592 0-.0808 0c-.0215 0-.0538.0053-.0969.016-.0323 0-.0861 0-.1614 0-.0323.0107-.0646.016-.0969.016l.0161-.016c-.0538.0107-.1076.016-.1615.016-.043.0107-.0484.0107-.0161 0h.0969c.0323-.0107.0646-.016.0969-.016l1.9377-1.1357c.2261-.032.4522-.0533.6782-.0639.2261-.0214.4468-.0427.6621-.064l.5006-.032c-.0215-.192-.0161-.3892.0162-.5918.0323-.2133.0645-.4319.0968-.6559.0862-.7357.2154-1.4555.3876-2.1593.1722-.7145.3391-1.4343.5006-2.1594.3229-1.4929.6621-2.9698 1.0173-4.4307.3553-1.4609.6944-2.9378 1.0173-4.4306.1508-.7038.3015-1.397.4522-2.0794.1615-.6932.2853-1.3916.3714-2.0954l-1.308 2.0634c-.9689 1.4822-1.927 2.9538-2.8744 4.4147-.9365 1.4502-1.8785 2.9218-2.8259 4.4147-.183.2772-.3606.5491-.5328.8157-.1723.2559-.3392.5225-.5006.7998-.14.2239-.2746.4585-.4037.7038-.1292.2346-.2692.4638-.4199.6878-.1399.2239-.296.4425-.4683.6558-.1615.2026-.3499.3892-.5652.5598-.1937.1706-.409.3146-.6459.4319-.2368.1066-.479.2026-.7266.2879-.0862.0427-.1508.0693-.1938.08-.0538.1279-.1023.3145-.1454.5598-.043.2346-.0861.4745-.1291.7198-.0323.2453-.0592.4745-.0808.6878-.0215.2026-.0377.3412-.0484.4159zm10.69-.5599c-.0215.0107-.0269.016-.0161.016.0215-.0106.043-.0213.0646-.0319z"/><path d="m88.172 29.0337c-.2907.5438-.6083 1.061-.9528 1.5515-.3445.4906-.7374.9491-1.1788 1.3756-.5059.4799-1.1034.8478-1.7924 1.1037-.6782.2559-1.3564.4266-2.0347.5119-.1291.0213-.2691.032-.4198.032-.1507.0106-.3014 0-.4521-.032-.1508-.0214-.2961-.064-.436-.128-.1292-.0533-.2423-.1386-.3392-.2559-.183-.224-.2799-.4852-.2906-.7838-.0108-.3092 0-.5971.0323-.8637.0538-.5545.1668-1.093.3391-1.6156.183-.5225.3337-1.0556.4521-1.5995l.0646-.3519c-.4198.6505-.8666 1.269-1.3403 1.8555-.4629.5758-.985 1.1196-1.5663 1.6315-.2584.2346-.5437.4479-.8559.6398-.3122.1813-.6244.3466-.9366.4959-.1507.0746-.3014.1439-.4521.2079-.14.0533-.2853.112-.436.1759-.0646.0214-.1561.0587-.2745.112-.1077.0427-.2099.08-.3068.112s-.1723.0533-.2261.064c-.0431.0213-.0377.0106.0161-.032.0862-.0534.21-.1173.3715-.192-.2584.096-.5491.192-.872.2879-.3122.1067-.6352.192-.9689.256-.323.0746-.6459.1119-.9689.1119-.3122.0107-.6029-.0373-.872-.1439-.183-.0747-.3445-.1813-.4844-.3199-.1292-.1387-.2423-.2933-.3392-.4639-.0861-.1813-.1614-.3679-.226-.5598-.0539-.192-.0969-.3786-.1292-.5599-.183-.8957-.2153-1.7754-.0969-2.6392.1184-.8637.3176-1.7275.5975-2.5912.3337-1.0344.7643-2.0261 1.2918-2.9751.5275-.9491 1.1465-1.8182 1.857-2.6073.7106-.7997 1.5126-1.4929 2.4061-2.0793.9043-.5972 1.8893-1.0664 2.9551-1.4076.9258-.2986 1.8463-.4746 2.7613-.5279.9258-.0533 1.8463.1067 2.7613.4799.2153.0853.4037.1866.5652.3039.1723.1173.3391.2453.5006.3839l.5813-.176c-.0538.0853-.1022.1706-.1453.256-.0431.0853-.0915.1706-.1453.2559-.1077.7571-.2638 1.4982-.4683 2.2233-.1938.7251-.4037 1.4556-.6298 2.1914-.1292.4158-.253.8317-.3714 1.2476s-.2853.8211-.5006 1.2156l-.0161.016.0484.176c.0323.2452.0215.4905-.0323.7358-.0431.2346-.0915.4745-.1453.7198-.0754.3518-.1669.7091-.2745 1.0716-.0969.3519-.1938.7038-.2907 1.0557-.0861.3519-.1669.7091-.2422 1.0717-.0646.3626-.1023.7305-.1131 1.1037 0 .2132.0323.4372.0969.6718s.2046.4052.4199.5118c.3445-.3519.6513-.7411.9204-1.1676.2691-.4266.5167-.8531.7428-1.2796zm-5.9587-5.3104c.2261-.7251.436-1.4503.6298-2.1754.2046-.7251.3607-1.4662.4683-2.2233h-.0323c0-.0107 0-.016 0-.016.0108-.0107.0162-.0213.0162-.032-.6352-.5225-1.2811-.8851-1.9378-1.0877-.6567-.2132-1.4049-.2559-2.2446-.1279-.3014.1279-.5975.2985-.8881.5118-.2799.2133-.5544.4479-.8236.7038-.2691.2559-.5221.5225-.7589.7998-.2261.2772-.4306.5385-.6137.7837-.4413.5865-.8666 1.2637-1.2757 2.0314-.409.7571-.7589 1.5569-1.0496 2.3993-.2906.8318-.5006 1.6742-.6297 2.5273-.1185.8531-.1131 1.6635.0161 2.4312.0646.3519.1507.7145.2584 1.0877.1076.3732.3122.6825.6136.9278.2476.1812.5167.2612.8074.2399h.1292l.3229-.096.3069-.2239c.3875-.3199.7428-.6612 1.0657-1.0237.3338-.3732.6513-.7625.9528-1.1677.2368-.3199.4683-.6504.6943-.9917.2369-.3412.4522-.6878.6459-1.0397.1185-.2132.2423-.4265.3715-.6398.1291-.2133.2745-.4159.4359-.6078.2477-.2773.5437-.5119.8882-.7038.0646-.0426.1184-.0746.1615-.096.0538-.032.1076-.0586.1615-.0799-.0108 0-.0216.0053-.0323.016 0 0-.0054 0-.0162 0-.0215.0106-.0269.0106-.0161 0 .0215-.0107.043-.0214.0646-.032.0322-.0214.0645-.0374.0968-.048.0323-.0214.0593-.0373.0808-.048.0107-.0107.0807-.048.2099-.112.14-.0746.2422-.1226.3068-.1439h.0162c.0107-.0107.0269-.016.0484-.016.1077-.2773.1992-.5599.2745-.8478.0862-.2986.1777-.5918.2745-.8797zm-1.0657 1.9834c.0107 0 .0269-.0107.0484-.032l-.0646.032zm.0646-.048-.0646.032c.0215 0 .043-.0107.0646-.032zm-.1454.096.0485-.032-.0646.032z"/><path d="m107.307 16.9893-.048.048.226-.192c.022-.0213.022-.0213 0 0-.011.0107-.038.032-.081.064-.032.032-.07.0693-.113.112-.032.032-.059.0586-.08.0799-.119.1067-.237.208-.356.304-.118.0959-.237.1919-.355.2879-.291.2452-.619.4585-.985.6398-.355.1706-.711.3146-1.066.4319-.247.0853-.49.1599-.726.2239-.237.0533-.48.1066-.727.1599.075.5759.124 1.141.145 1.6955.022.5545-.021 1.125-.129 1.7115-.118.6292-.296 1.1837-.533 1.6635-.237.4799-.538.9064-.904 1.2797-.366.3732-.786.7037-1.26.9917-.4734.2772-1.0009.5278-1.5822.7517-.366.1493-.7428.2773-1.1304.3839-.3768.1067-.7643.1866-1.1626.24-.3553.0533-.7052.0746-1.0497.0639-.3444-.0213-.6889-.0426-1.0334-.0639-.2046.2026-.3876.4158-.5491.6398-.0215.0213-.0484.0639-.0807.1279-.0323.0533-.0646.112-.0969.176s-.0592.1226-.0807.1759c-.0216.0427-.0323.0587-.0323.048l-.0969.2239c-.0431.096-.07.192-.0808.288 0 .0853.0108.1812.0323.2879.0431.1919.1561.3572.3392.4958.183.1387.3767.2666.5813.3839.2153.1066.4037.2186.5652.3359.1722.1066.2691.2293.2906.3679l.0485-.032c.1292.0427.2583.0747.3875.096.14.0213.2799.0426.4199.064.0753 0 .1668.0106.2745.032h.113c.0216 0 .0323.0053.0323.016h.0323.0485c.0215 0 .0699.0053.1453.0159.0754 0 .1184.0054.1292.016.0861.0107.183.032.2906.064.1185.0213.2315.048.3392.08.1076.0213.2045.048.2906.08.0969.0213.1615.0373.1938.048.323.0853.6513.1812.985.2879.3445.1066.6782.2399 1.0012.3999.3337.1492.6457.3199.9367.5118.301.1919.565.4159.791.6718.42.4585.711.9491.872 1.4716.172.5225.232 1.045.178 1.5675-.054.5332-.21 1.0504-.469 1.5515-.247.5012-.57.9598-.968 1.3756-.388.4053-.899.7678-1.5345 1.0877-.6244.3199-1.2918.5865-2.0023.7998-.7105.2239-1.4211.3945-2.1316.5118s-1.3403.1653-1.8893.144c-.4629-.0213-.9527-.0747-1.4695-.16-.5167-.0853-.9904-.2132-1.421-.3839-.3768-.1492-.7589-.3465-1.1465-.5918-.3768-.2452-.6998-.5225-.9689-.8317-.3875-.4586-.6621-.9331-.8235-1.4236-.1615-.4799-.2207-.9597-.1777-1.4396.0431-.4798.1777-.949.4037-1.4076.2369-.4478.5491-.8744.9366-1.2796.2584-.2559.5329-.4798.8236-.6718.3014-.1919.6136-.3679.9366-.5278.0753-.032.1345-.064.1776-.096.0431-.0213.0861-.0427.1292-.064.0538-.0106.1076-.032.1615-.064.0538-.0213.1238-.048.2099-.0799 0 .0106.0161 0 .0484-.032l.0808-.032c.1184-.0747.2153-.1653.2906-.2719.0861-.1067.1884-.1973.3068-.272.0862-.0853.1238-.1599.1131-.2239 0-.0746-.0269-.1386-.0808-.1919-.0538-.064-.1238-.1173-.2099-.16-.0861-.0426-.1669-.08-.2422-.112-.1292-.0639-.2691-.1386-.4199-.2239-.1507-.0853-.2906-.1813-.4198-.2879-.1292-.1173-.2368-.2453-.323-.3839-.0861-.1386-.1238-.2879-.113-.4479.0108-.1919.0538-.3838.1292-.5758.0753-.1919.1722-.3732.2906-.5438.1185-.1813.2476-.3519.3876-.5119.1399-.1599.2745-.3039.4037-.4318.0969-.096.1938-.1867.2907-.272.1076-.0853.2099-.1759.3068-.2719.0323-.032.0646-.064.0969-.096.043-.032.0807-.0693.113-.1119l.113-.112c-.0215.0213-.0323.032-.0323.032.0216-.0213.0377-.0373.0485-.048.0107-.0213.0107-.0266 0-.016l.0161-.016c-.043-.1066-.1076-.2079-.1937-.3039-.0754-.096-.1669-.1866-.2746-.2719-.0969-.0853-.1991-.1653-.3068-.2399-.0969-.0853-.183-.1707-.2583-.256-.1508-.1599-.2907-.3732-.4199-.6398-.1184-.2666-.2207-.5491-.3068-.8477-.0754-.2986-.1292-.5918-.1615-.8798-.0215-.2879-.0161-.5385.0162-.7517.1076-.7891.296-1.4769.5651-2.0634.2692-.5865.6137-1.0984 1.0335-1.5356.4199-.4372.9151-.8211 1.4856-1.1516.5706-.3306 1.2165-.6345 1.9378-.9118.4414-.1706.872-.3039 1.2918-.3998.4199-.1067.8344-.176 1.2434-.208.4199-.032.8397-.0213 1.2596.032.4306.0533.8778.144 1.3398.2719.313.0853.598.2293.856.4319.259.2026.512.4052.759.6078.248-.0853.501-.1546.759-.2079.269-.064.533-.1226.792-.176h.048c.043-.0426.081-.0799.113-.1119.043-.032.086-.064.129-.096h.016c.011-.0213.049-.0587.113-.112.065-.0533.113-.0959.146-.1279.075-.064.145-.1173.21-.16.075-.0533.156-.1066.242-.1599zm-13.4025 15.7713c-.1184.0853-.2368.16-.3552.2239-.1184.064-.2476.128-.3876.192l-.4198.1919c-.0216.0107-.0539.0214-.0969.032-.0431.0213-.0861.0427-.1292.064l-.113.064.0323-.032-.0485.032h.0162l-.1615.08c-.323.2239-.6029.4851-.8397.7837-.14.16-.2745.3413-.4037.5439-.1184.2026-.2207.4105-.3068.6238-.0862.2239-.1507.4478-.1938.6718-.0323.2239-.0269.4478.0161.6718.0431.2132.0862.4265.1292.6398.0431.2133.1077.4265.1938.6398.2691.6291.6675 1.1517 1.195 1.5675.5275.4266 1.1142.7518 1.7601.9757.6567.224 1.3349.3466 2.0346.3679.6998.032 1.3565-.0266 1.9701-.1759.1077-.0213.2153-.0747.323-.16.1184-.0746.2314-.1599.3391-.2559.1076-.096.2045-.1973.2906-.3039.0969-.1066.1777-.2026.2423-.2879.226-.3199.4037-.6665.5328-1.0397.14-.3732.2207-.7571.2423-1.1517.0323-.3839.0054-.7677-.0808-1.1516-.0861-.3732-.2314-.7305-.436-1.0717-.2691-.4265-.6028-.7891-1.0011-1.0877-.3876-.2879-.8075-.5332-1.2596-.7358s-.9204-.3732-1.4049-.5118c-.4844-.1386-.9581-.2666-1.421-.3839zm4.3923-6.0302c.5383-.3732.9473-.8264 1.2272-1.3596.2907-.5438.49-1.1197.598-1.7275.118-.6078.161-1.2316.129-1.8714-.022-.6399-.076-1.2477-.162-1.8235-.3981-.4052-.8395-.7464-1.3239-1.0237-.4737-.2772-.9958-.4585-1.5664-.5438-.1507-.0214-.3014-.0374-.4521-.048-.1507-.0107-.3014-.016-.4522-.016-.0538.0106-.113.0213-.1776.032-.0646.0106-.1346.0266-.2099.048-.1292.0746-.2638.1652-.4037.2719-.1292.1066-.2207.1866-.2745.2399-.506.5119-.8828 1.061-1.1304 1.6475-.2368.5758-.4037 1.2157-.5006 1.9195-.0323.2132-.0323.4585 0 .7357.0323.2773.0808.5599.1453.8478.0754.2772.1723.5492.2907.8157.1184.256.253.4639.4037.6239.1507.1492.3122.2932.4845.4318.183.128.3337.2826.4521.4639l.113.2079h.0162c.2476 0 .4844.016.7105.048.3553.0213.7051.048 1.0496.08.3445.0213.689.0213 1.0335 0zm-7.412 6.798c-.0107.0106-.0053.0106.0162 0 .0215-.0107.0377-.0214.0484-.032-.0215 0-.043.0107-.0646.032zm14.2262-15.5634c-.01 0-.021.0053-.032.016h.032c.011-.0107.011-.016 0-.016zm-12.4983 9.6931-.0162.032c0-.0107.0054-.0213.0162-.032z"/><path d="m108.196 17.6771c.516 0 1.006-.016 1.469-.048.474-.0427.931 0 1.373.1279l2.632-.6877c-.248.2346-.522.4478-.824.6398-.301.1812-.538.4158-.71.7038-.13.2132-.189.4532-.178.7197.011.2666-.005.5172-.048.7518-.087.4799-.216.9544-.388 1.4236-.161.4585-.291.9331-.388 1.4236l-.048.3039.452-.6558c.926-1.3116 1.965-2.3833 3.117-3.2151 1.152-.8424 2.53-1.4235 4.134-1.7435.247-.0533.5-.0959.759-.1279.258-.032.511-.032.759 0 .484.0426.855.1813 1.114.4159.269.2346.452.5225.549.8637s.129.7251.097 1.1517c-.022.4158-.081.8317-.178 1.2476-.086.4159-.188.8158-.307 1.1996-.118.3839-.215.7092-.29.9758-.054.2026-.113.4052-.178.6078-.065.1919-.129.3945-.194.6078-.14.4372-.28.8744-.42 1.3116-.14.4265-.274.8637-.403 1.3116-.065.2133-.135.4692-.21.7678-.065.2986-.151.5598-.259.7838-.15.4478-.29.9277-.419 1.4395-.13.5012-.167.9971-.114 1.4876.022.1919.07.3999.146.6238.086.2133.226.3679.42.4639.355-.3413.651-.7252.888-1.1517.237-.4372.479-.8637.726-1.2796l2.843-.8638c-.183.2986-.361.5972-.533.8958-.173.2986-.361.5918-.566.8797-.193.2773-.409.5439-.645.7998-.237.2452-.506.4638-.808.6558-.247.1599-.506.2986-.775.4159-.258.1173-.527.2346-.807.3519-.033.0106-.087.0266-.162.0479-.064.0214-.124.0427-.177.064-.054.0214-.097.0373-.13.048-.021.0107-.016.0053.016-.016.151-.0746.302-.1439.453-.2079.15-.0533.301-.1067.452-.16-.043.0107-.086.0214-.129.032-.043.0107-.092.0267-.146.048-.054.0107-.113.0267-.177.048-.205.0853-.453.1759-.743.2719-.28.1066-.571.1919-.872.2559-.302.0747-.598.112-.888.112-.291 0-.539-.064-.743-.1919-.151-.096-.264-.224-.339-.3839-.076-.16-.129-.3306-.162-.5119-.021-.1919-.032-.3785-.032-.5598 0-.192.011-.3626.032-.5119.043-.3839.119-.7624.226-1.1356.108-.3733.221-.7465.339-1.1197.205-.6718.41-1.3436.614-2.0154.205-.6825.415-1.3596.63-2.0314.086-.2879.161-.5385.226-.7518.075-.2132.14-.4212.194-.6238.064-.2133.124-.4319.177-.6558.065-.2346.14-.5065.226-.8158.065-.2346.124-.5011.178-.7997.065-.3093.102-.6185.113-.9277.022-.3199.011-.6292-.032-.9278-.033-.2985-.119-.5545-.259-.7677-.129-.224-.323-.3893-.581-.4959-.248-.1066-.576-.1333-.985-.08-.377.2133-.743.4799-1.098.7998-.345.3199-.673.6718-.985 1.0557-.312.3732-.608.7571-.888 1.1516-.269.3946-.512.7731-.727 1.1357-.215.3412-.414.6558-.597.9437-.173.2773-.366.5332-.582.7678-.204.2239-.441.4319-.71.6238-.259.192-.582.3679-.969.5279l-.049.0319c-.204.7358-.414 1.4716-.629 2.2074-.205.7251-.415 1.4556-.63 2.1913l-.63 2.1914c0 .032-.011.0693-.032.112-.226.2132-.452.4158-.678.6078-.226.1919-.452.3892-.679.5918l-2.729.7198c.216-.1813.442-.3519.679-.5119.247-.1492.441-.3465.581-.5918.183-.3199.301-.6665.355-1.0397.065-.3732.151-.7411.259-1.1036l1.388-4.8466.13-.032c-.033-.0746-.049-.1973-.049-.3679.011-.1813.022-.3626.032-.5438.022-.192.043-.3626.065-.5119.021-.1599.038-.2666.048-.3199.065-.5438.183-1.061.356-1.5515.183-.5012.328-1.0184.436-1.5516.043-.2772.064-.5758.064-.8957.011-.3199.076-.6132.194-.8797-.194-.16-.388-.2826-.581-.3679-.183-.0853-.377-.144-.582-.176-.193-.032-.398-.048-.613-.048-.216 0-.447.0054-.695.016-.14.0214-.28.032-.419.032-.14 0-.28 0-.42 0z"/><path d="m125.216 26.1706c.021-.4692.096-.9171.226-1.3436.129-.4372.285-.8745.468-1.3117.614-1.5462 1.475-2.8791 2.584-3.9988 1.108-1.1196 2.476-1.9247 4.101-2.4153.345-.1066.695-.1972 1.05-.2719.355-.0853.71-.1439 1.066-.1759.366-.032.726-.0267 1.082.016.366.032.721.1119 1.065.2399.356.128.646.3359.872.6238.237.2773.409.5918.517.9437.118.3519.178.7198.178 1.1037.01.3839-.038.7358-.146 1.0557-.183.5438-.441 1.0397-.775 1.4876-.333.4372-.716.837-1.146 1.1996-.431.3626-.899.6878-1.405.9757-.495.2773-.991.5279-1.486.7518-.387.1813-.78.3519-1.179.5118-.398.1493-.802.2986-1.211.4479-.054.0213-.172.0587-.355.112-.172.0533-.339.1013-.501.1439 0 .0107-.01.016-.032.016-.021 0-.037.0054-.048.016-.312.1173-.673.2453-1.082.3839-.398.128-.802.2293-1.211.3039-.011.4799.005 1.0077.048 1.5835.054.5652.167 1.1091.339 1.6316.183.5225.442.9863.775 1.3916.334.3945.781.6664 1.341.8157.28.0747.559.1066.839.096.291-.0107.576-.0373.856-.08.043-.0107.108-.0373.194-.08.086-.0426.172-.0906.258-.1439.086-.064.167-.1227.243-.176.075-.064.129-.1119.161-.1439.409-.3199.781-.6612 1.114-1.0237.345-.3733.673-.7625.985-1.1677l2.842-.8637c-.441.5651-.893 1.077-1.356 1.5355-.463.4479-.953.8531-1.47 1.2157-.506.3625-1.055.6824-1.647.9597-.581.2772-1.216.5172-1.905.7198-.452.1279-.921.2346-1.405.3199-.484.0959-.969.1333-1.453.1119-.539-.0213-1.007-.1279-1.405-.3199-.388-.1813-.721-.4212-1.001-.7198-.27-.3092-.49-.6611-.662-1.0556-.162-.3946-.291-.8105-.388-1.2477-.086-.4372-.14-.8797-.161-1.3276-.022-.4585-.022-.9011 0-1.3276.021-.2666.037-.5225.048-.7678.021-.2452.081-.4958.178-.7517zm2.874-.9758c.086.0854.167.176.242.272.086.0959.178.1866.275.2719l.129.096v.016c-.022-.0214-.032-.032-.032-.032.01 0 .021.0053.032.016.011.0106.021.016.032.016.065.0213.14.0373.226.0479.086.0107.156.0107.21 0h.065c.032 0 .064-.0053.097-.016h.016.064c.022-.0106.043-.016.065-.016.065-.0213.129-.0426.194-.0639.064-.0214.129-.0427.194-.064.118-.0427.253-.0907.403-.144.162-.0533.415-.1333.759-.2399l.452-.16c.183-.0746.361-.1439.533-.2079.183-.0746.361-.1599.533-.2559.603-.3306 1.136-.7251 1.599-1.1837.473-.4692.85-1.0237 1.13-1.6635.14-.3199.221-.6451.242-.9757.022-.3306-.005-.6665-.08-1.0077-.183-.7784-.539-1.3489-1.066-1.7115-.528-.3732-1.217-.4852-2.067-.3359-.538.3306-1.055.7838-1.55 1.3596-.485.5652-.921 1.189-1.308 1.8715-.388.6718-.705 1.3702-.953 2.0953-.248.7145-.393 1.3863-.436 2.0154zm.614.6079v.016c0-.0107 0-.016 0-.016z"/><path d="m149.567 13.1344c-.312.5332-.651 1.0504-1.017 1.5516-.356.5011-.652 1.045-.889 1.6315l-.177.4638.177-.0639c.119.0959.221.2026.307.3199.097.1173.215.2026.355.2559.162.0533.334.0693.517.048.183-.0214.361-.032.533-.032.398.0106.791.016 1.179.016.398-.0107.797-.016 1.195-.016-.377.2026-.759.4052-1.147.6078-.376.1919-.753.3839-1.13.5758-.409 0-.824.0054-1.243.016-.41 0-.819-.0053-1.228-.016l-.339 1.4396c-.312 1.2583-.613 2.5166-.904 3.7749-.28 1.2476-.576 2.5006-.888 3.7589l-.339 1.4875c-.054.2773-.103.5599-.146.8478s-.08.5758-.113.8637c-.021.16-.043.3413-.064.5439-.011.1919 0 .3785.032.5598s.097.3412.194.4799c.107.1386.274.2292.5.2719.194-.1493.377-.3253.549-.5279.183-.2132.35-.4318.501-.6558.161-.2239.312-.4425.452-.6558.151-.2239.296-.4319.436-.6238l2.842-.8637c-.28.3732-.543.7357-.791 1.0876-.248.3413-.511.6718-.791.9917-.28.3093-.587.5972-.921.8638-.334.2559-.726.4798-1.179.6718-.581.2666-1.13.4692-1.647.6078-.506.1493-1.017.2453-1.534.2879-.387.032-.689 0-.904-.0959-.215-.096-.366-.24-.452-.4319-.086-.192-.135-.4212-.146-.6878 0-.2666.017-.5492.049-.8478.021-.2879.054-.5758.097-.8637s.097-.5705.161-.8478c.054-.2452.108-.4905.162-.7357.054-.256.113-.5066.177-.7518.313-1.2583.609-2.5113.889-3.7589.29-1.2583.592-2.5166.904-3.7749l.42-1.7435-.065.016c-.129-.1173-.248-.2452-.355-.3839-.108-.1386-.248-.2292-.42-.2719-.345-.0853-.7-.1066-1.066-.064-.366.032-.726.0427-1.082.032l2.536-1.1676c.215.0106.403.016.565.016.161-.0107.307-.016.436-.016l.064-.144c.119-.2879.253-.5651.404-.8317s.312-.5279.484-.7838c.173-.2559.345-.5118.517-.7678.172-.2559.339-.5225.501-.7997z"/><path d="m153.136 28.5379c-.076.2879-.167.6131-.275.9757-.108.3519-.205.7144-.291 1.0876-.086.3733-.15.7412-.193 1.1037-.033.3626-.017.6931.048.9917.065.3093.194.5385.388.6878.204.1493.436.2453.694.2879.269.0427.544.0427.824 0 .29-.032.554-.0799.791-.1439.613-.1493 1.222-.3626 1.824-.6398.603-.2773 1.136-.6398 1.599-1.0877.194-.192.366-.3946.517-.6078.151-.224.296-.4532.436-.6878s.274-.4639.404-.6878c.129-.2346.269-.4639.419-.6878l-2.842.8637c-.118.1813-.236.3786-.355.5918-.118.2133-.242.4319-.371.6559-.119.2239-.248.4425-.388.6558-.14.2026-.291.3892-.452.5598-.215-.064-.382-.2026-.501-.4159-.086-.1599-.14-.3519-.161-.5758-.011-.2346-.005-.4692.016-.7038.032-.2453.07-.4799.113-.7038.043-.2346.086-.4372.129-.6078.216-.8744.452-1.7435.711-2.6072.269-.8744.527-1.7435.775-2.6073.258-.8637.49-1.7328.694-2.6072.205-.8744.356-1.7595.452-2.6552.14-.1706.167-.3572.081-.5598l1.114-.9758-1.614.4319-.21-.1439c-.248-.1387-.506-.2186-.775-.24-.27-.032-.549-.0373-.84-.016-.28.0107-.56.0374-.84.08-.28.032-.554.048-.823.048-.377.2026-.759.4052-1.147.6078-.377.192-.753.3839-1.13.5758h.145c.065 0 .135-.0053.21-.0159h.081.016.048c.022-.0107.043-.016.065-.016h.129c.022-.0107.016-.0107-.016 0l.129-.016h.032.017c.01-.0107.027-.016.048-.016l.162-.016h.113l.5-.048c.366-.0107.651.0266.856.112.205.0853.42.2292.646.4318-.075.0853-.038.1386.113.16.011 0 .016.0053.016.016h.032c.011.0106.017.016.017.016-.054.7891-.162 1.5675-.323 2.3353-.162.7677-.345 1.5302-.549 2.2873-.205.7571-.426 1.5142-.663 2.2713-.226.7465-.441 1.4982-.645 2.2554zm2.422-15.5634 4.941-4.25477-2.664 6.41407h-2.213zm-3.036 5.7743h.016c-.054 0-.097.0053-.129.016h.048c.022-.0107.043-.016.065-.016zm.436-.048-.097.016h.048c.011-.0107.027-.016.049-.016z"/><path d="m174.419 28.6498c-.485.7038-1.039 1.3703-1.664 1.9994-.613.6185-1.302 1.1304-2.067 1.5356-.516.2772-1.044.5118-1.582.7038-.528.1919-1.071.3572-1.631.4958-.301.0747-.614.1333-.937.176-.312.0533-.624.0799-.936.0799-.84 0-1.523-.1759-2.051-.5278-.517-.3626-.92-.8211-1.211-1.3756-.28-.5652-.463-1.1943-.549-1.8874-.075-.6932-.097-1.3756-.065-2.0474.043-.7785.146-1.5676.307-2.3673.172-.7998.409-1.5782.711-2.3353.312-.7571.689-1.4716 1.13-2.1434.452-.6825.98-1.2903 1.583-1.8235.742-.6611 1.577-1.2049 2.502-1.6315.926-.4265 1.874-.7304 2.843-.9117.516-.0853 1.017-.1066 1.501-.064.495.0427.964.2186 1.405.5279.162.1066.302.2292.42.3678.118.1387.226.288.323.4479.097.16.188.3199.274.4799.087.1599.178.3199.275.4798l-2.842 1.0717c-.14-.2133-.269-.4212-.388-.6238-.118-.2026-.247-.3946-.387-.5758-.129-.192-.285-.3626-.468-.5119-.173-.1493-.388-.2719-.646-.3679-.345-.1386-.7-.1812-1.066-.1279-.829.4905-1.54 1.1303-2.132 1.9194-.592.7784-1.082 1.6315-1.469 2.5592-.377.9278-.651 1.8875-.824 2.8792-.161.9917-.226 1.9407-.193 2.8471.021.5972.113 1.1944.274 1.7915.162.5972.404 1.125.727 1.5835.333.4479.759.7838 1.275 1.0077.528.224 1.158.256 1.89.096.28-.1386.549-.3199.807-.5438.269-.224.522-.4639.759-.7198.248-.2559.474-.5225.678-.7998.216-.2772.409-.5438.582-.7997z"/><path d="m78.4981 38.4869-.3068.048.4037-.096.1453-.08h.1938.0162c.0107-.0106.0269-.0159.0484-.0159.2153-.032.4306-.0374.6459-.016.2153.0106.4306.016.6459.016.3122 0 .6191.0373.9205.1119.3014.064.5705.2026.8074.4159l.2261.2079c.1937-.0746.3875-.1439.5813-.2079.2045-.064.4091-.128.6136-.1919.5383-.1493 1.0766-.24 1.6148-.272.5383-.032 1.0819-.048 1.631-.048-.3768.2027-.759.4053-1.1465.6079-.3768.1919-.7536.3839-1.1304.5758-.2476 0-.4952 0-.7428 0-.2476-.0107-.4952-.0053-.7428.016l-.2261.112c-.0323.6824-.1076 1.3649-.2261 2.0473-.1076.6718-.2368 1.349-.3875 2.0314-.1507.6718-.3176 1.3437-.5006 2.0155-.1723.6611-.3445 1.3222-.5167 1.9834-.2692 1.0343-.5006 2.074-.6944 3.119-.183 1.0451-.3983 2.0901-.6459 3.1351-.1615.7038-.323 1.4023-.4845 2.0954-.1507.6825-.2799 1.3809-.3875 2.0954-.0216.1173-.0485.2399-.0808.3679-.0215.1279-.043.2612-.0646.3998-.0107.128-.0161.2613-.0161.3999.0108.128.0431.2453.0969.3519.1615.2986.3768.5119.6459.6398.2799.1173.5813.1973.9043.24.323.0426.6459.0586.9689.0479.3337-.0106.6405-.0053.9204.016l-2.5352 1.1677c-.2799-.0213-.5814-.0267-.9043-.016-.3122.0107-.6298.0053-.9528-.016-.3229-.032-.6297-.096-.9204-.1919-.2907-.096-.5383-.256-.7428-.4799-.689.2453-1.3887.4105-2.0992.4959-.7106.0746-1.4857.1439-2.3254.2079.3768-.1919.7536-.3839 1.1304-.5758.3876-.2026.7697-.4053 1.1465-.6079.2368-.0213.4683-.0319.6944-.0319.2368-.0107.4736-.0267.7105-.048h.2099c.0646-.0107.1292-.0214.1938-.032l.0484-.016c-.0323-.1813-.043-.3786-.0323-.5918.0108-.2133.0323-.4266.0646-.6399.0323-.2132.07-.4158.1131-.6078.043-.1919.0753-.3625.0969-.5118.0107-.0533.0269-.128.0484-.224.0215-.1066.0431-.2132.0646-.3199.0215-.1173.0431-.2186.0646-.3039s.0323-.1386.0323-.1599l.3875-1.5995c.1615-.7572.3176-1.5143.4683-2.2714s.3068-1.5195.4683-2.2873c-.1938-.1919-.3929-.3839-.5975-.5758-.1937-.2026-.4413-.3093-.7428-.3199-.1184 0-.2153 0-.2906 0-.0646-.0107-.1238-.016-.1777-.016-.0538 0-.1076.0053-.1614.016-.0539 0-.1238.0053-.21.016-.0753.0106-.1507.0213-.226.032-.0646 0-.1292 0-.1938 0h-.0808c-.2153.0319-.4306.0479-.6459.0479-.1399 0-.3552 0-.6459 0-.2907-.0106-.6298-.016-1.0173-.016-.3876-.0106-.8074-.016-1.2596-.016-.4521-.0106-.9096-.0159-1.3726-.0159-.4521 0-.8989.0053-1.3402.0159-.4307.0107-.829.0267-1.195.048-.14.0214-.3068.048-.5006.08-.1938.0213-.3983.0373-.6136.048-.1507.6718-.3014 1.3383-.4522 1.9994-.1399.6505-.2906 1.3116-.4521 1.9834-.1507.6505-.2961 1.301-.436 1.9514-.14.6505-.253 1.3116-.3391 1.9834-.0215.1493-.0485.2933-.0808.4319-.0215.1386-.0376.2773-.0484.4159s-.0054.2773.0162.4159c.0215.1386.0807.2772.1776.4159.1615.2346.3768.3998.6459.4958s.5598.1546.872.176c.3122.0213.619.0319.9204.0319.3122-.0106.5921-.0053.8397.016l-2.5352 1.1677c-.2584-.0213-.5221-.0267-.7913-.016-.2691 0-.5436-.0053-.8235-.016-.2692-.0107-.5383-.0426-.8074-.096-.2584-.0533-.5006-.1493-.7267-.2879-.2045-.1173-.3499-.2346-.436-.3519-.689.2346-1.3779.4106-2.0669.5279-.689.1066-1.4372.1866-2.2446.2399l2.2769-1.1837c.3014-.0213.6082-.0373.9204-.0479.3122-.0107.6082-.0427.8881-.096-.0215-.192-.0161-.3946.0162-.6078.0431-.2133.0807-.4319.113-.6558.1185-.9064.2746-1.7968.4683-2.6712.2046-.8745.4145-1.7542.6298-2.6393.2584-1.1196.506-2.234.7428-3.343s.4845-2.2233.7428-3.343c.2584-1.1197.5168-2.2393.7751-3.359.2584-1.1303.4091-2.2766.4522-3.439-.0108 0-.0216-.0053-.0323-.016-.183-.0853-.3391-.1972-.4683-.3359-.1292-.1493-.2799-.2772-.4522-.3839-.1184-.0746-.2637-.1226-.436-.1439-.1614-.032-.3337-.048-.5167-.048-.1722-.0107-.3391-.0107-.5006 0s-.2907.016-.3875.016c-.0539 0-.1292.0053-.2261.016s-.14.0107-.1292 0h-.1776l2.0346-1.0557-.3068.048.4037-.096.1454-.08h.1937.0162c.0107-.0106.0269-.0159.0484-.0159.2153-.032.4306-.0374.6459-.016.2261.0106.4468.016.6621.016.2799 0 .5544.0266.8236.0799.2691.0427.5113.1546.7266.3359l.323.3039c.1507-.0533.296-.1066.436-.1599.1399-.0533.2853-.1013.436-.144.6136-.1706 1.2111-.2772 1.7924-.3199.5813-.0533 1.1842-.08 1.8086-.08-.3768.2027-.759.4053-1.1465.6079-.3768.1919-.7536.3839-1.1304.5758-.2476 0-.4898 0-.7266 0-.2369-.0107-.4791-.0053-.7267.016l-.2745.1439c-.0539 1.1197-.2046 2.2181-.4522 3.2951s-.5006 2.1647-.7589 3.263l-.4845 2.1274.1938-.08c.2368.2346.4252.4159.5652.5438.1507.1173.296.1973.436.24.1507.0426.3283.0586.5329.048.2045-.0107.4952-.032.872-.064.2476-.0427.5221-.064.8235-.064h6.3785c.2476 0 .5006-.0107.759-.032.2583-.032.5167-.0587.7751-.08l.0484-.1759c.1722-.6718.3499-1.349.5329-2.0314.183-.6825.3499-1.3703.5006-2.0634.1615-.6931.296-1.3863.4037-2.0794.1076-.7038.1776-1.4076.2099-2.1114-.0215 0-.0323-.0053-.0323-.016-.183-.0853-.3391-.1972-.4683-.3359-.1292-.1493-.2853-.2719-.4683-.3679-.1292-.0746-.2799-.1226-.4521-.1439-.1615-.032-.3284-.048-.5006-.048-.1615-.0107-.323-.0107-.4845 0-.1614 0-.3068 0-.436 0-.0538 0-.1291.0053-.226.016s-.14.0107-.1292 0h-.1776zm-3.1811 11.6286c.0538-.0107.0269-.0107-.0808 0-.1076.0106-.1938.0213-.2584.032zm2.8097-11.5646c-.0108 0-.0108 0 0 0 .0215-.0107.0431-.016.0646-.016-.0215.0107-.0431.016-.0646.016zm-14.1457 0c-.0107 0-.0107 0 0 0 .0216-.0107.0431-.016.0646-.016-.0215.0107-.043.016-.0646.016z"/><path d="m91.9817 46.3086c-.183.096-.3606.2133-.5329.3519-.2476.1919-.4844.4105-.7105.6558-.226.2346-.4306.4745-.6136.7198-.3553.4478-.6836.9437-.985 1.4875-.2907.5439-.5544 1.109-.7913 1.6955-.226.5865-.4198 1.1837-.5813 1.7915-.1507.5972-.2584 1.1837-.323 1.7595-.0646.6078-.0699 1.2636-.0161 1.9674s.1991 1.3703.436 1.9994c.2476.6185.5975 1.1517 1.0496 1.5995.4629.4479 1.0658.7145 1.8086.7998.2799.0213.5383.0373.7751.048.2476.0106.506-.016.7751-.08.4952-.3519.9312-.7464 1.308-1.1836.3875-.4479.732-.9224 1.0335-1.4236.3014-.5012.5651-1.0237.7912-1.5676.2261-.5545.4306-1.1143.6136-1.6795.2369-.7357.4307-1.4715.5814-2.2073.1615-.7358.2045-1.4929.1292-2.2713-.0646-.6718-.1938-1.3063-.3876-1.9035-.1938-.5971-.4683-1.1036-.8235-1.5195-.3553-.4266-.8075-.7411-1.3565-.9437-.5383-.2133-1.1896-.2666-1.9539-.16zm2.1962-1.2157c.2691-.0319.5544-.0533.8558-.0639.3014-.0107.6029 0 .9043.032.3122.0319.6136.0906.9043.1759s.549.2079.7751.3679c.4521.3199.8235.7251 1.1142 1.2156.3014.4906.5275 1.0237.6782 1.5996.1615.5651.2476 1.1463.2584 1.7434.0215.5972-.0215 1.157-.1292 1.6796-.1292.6398-.2853 1.2956-.4683 1.9674-.183.6611-.4091 1.3116-.6782 1.9514-.2584.6398-.5598 1.2583-.9043 1.8554-.3445.5972-.7374 1.141-1.1788 1.6316-.2907.3199-.5867.5971-.8881.8317-.2907.2239-.6137.4585-.9689.7038-.5491.3732-1.1465.6718-1.7924.8957-.646.2133-1.2919.3786-1.9378.4959-.4414.0853-.8666.1386-1.2757.1599-.3983.032-.8182.0214-1.2596-.0319-.6136-.064-1.1411-.2346-1.5825-.5119-.4413-.2772-.8074-.6238-1.098-1.0397-.2799-.4159-.5006-.8797-.6621-1.3916-.1507-.5225-.2476-1.061-.2907-1.6155-.043-.5545-.043-1.1037 0-1.6475.0431-.5438.1185-1.0557.2261-1.5356.183-.821.4199-1.6155.7105-2.3832.2907-.7785.6459-1.5089 1.0658-2.1914.4306-.6931.9258-1.3329 1.4856-1.9194.5706-.5865 1.2273-1.109 1.9701-1.5676.5705-.3519 1.1842-.6238 1.8408-.8157.6567-.2026 1.308-.3786 1.954-.5279z"/><path d="m109.52 38.8548c.032.128.043.2506.032.3679-.011.1493-.038.2932-.081.4319-.032.1386-.059.2825-.08.4318-.119.9491-.302 1.8821-.55 2.7992-.247.9171-.489 1.8448-.726 2.7832-.388 1.5569-.765 3.1137-1.131 4.6706s-.742 3.1191-1.13 4.6866c-.183.7358-.393 1.4769-.63 2.2233-.226.7358-.35 1.4876-.371 2.2554 0 .1279.005.2772.016.4478.011.16.032.32.065.4799.043.16.107.3039.193.4319.087.1173.2.2026.34.2559.107-.096.193-.1813.258-.2559.075-.0747.156-.1706.242-.2879.237-.2986.447-.6025.63-.9118.194-.3199.371-.6504.533-.9917l2.842-.8637c-.28.5971-.581 1.1197-.904 1.5675-.323.4479-.689.8424-1.099 1.1837-.409.3305-.866.6185-1.372.8637-.495.2453-1.055.4585-1.68.6398-.344.096-.688.1706-1.033.224-.334.0639-.641.0639-.92 0-.27-.064-.496-.208-.679-.4319-.172-.2133-.274-.5492-.306-1.0077-.022-.3519-.011-.7038.032-1.0557.054-.3519.124-.7038.21-1.0557s.183-.6985.29-1.0397c.108-.3412.21-.6824.307-1.0237l.469-1.9034c.333-1.3649.656-2.7192.968-4.0628.313-1.3436.641-2.6979.985-4.0628.151-.6078.307-1.2157.469-1.8235.172-.6078.333-1.2209.484-1.8394l.129-.6238c.011-.0747.038-.2186.081-.4319.043-.2239.086-.4639.129-.7198s.081-.5012.113-.7358c.033-.2346.043-.3999.033-.4958-.011-.096-.027-.1653-.049-.208-.021-.0533-.075-.1226-.161-.2079-.129-.128-.28-.2239-.452-.2879-.173-.064-.35-.1067-.533-.128s-.372-.032-.566-.032c-.193 0-.371.0054-.532.016-.13.0107-.259.0267-.388.048-.118.0107-.237.0213-.355.032-.043 0-.097.0053-.162.016-.064 0-.08-.0053-.048-.016.086-.0213.21-.0427.371-.064.162-.032.269-.048.323-.048l1.179-.9917.598-.08.096-.016c.173-.0213.345-.0373.517-.0479.172-.0107.339-.0214.501-.032.161 0 .35.0053.565.016.215 0 .431.0213.646.0639.226.0427.436.1067.63.192.193.0746.349.1813.468.3199l.823-.1919zm-3.973-.7678c-.021.0107-.027.016-.016.016.022 0 .043-.0053.065-.016zm-.549 23.3691c-.011.0107-.011.016 0 .016.022-.0107.043-.0213.065-.032z"/><path d="m126.507 39.6546c-.161-.0853-.317-.1813-.468-.288-.151-.1173-.312-.1866-.484-.2079-.409-.064-.829-.08-1.26-.048-.42.0214-.834.0267-1.243.016l2.535-1.1676c.452 0 .894-.016 1.324-.048.442-.032.878-.0054 1.308.08.129.0213.296.0586.501.1119.204.0427.382.096.533.16l.92-.208-.856.6718c-.021.4799-.075.9598-.161 1.4396-.086.4692-.183.9384-.291 1.4076-.108.4585-.221.9224-.339 1.3916s-.226.9384-.323 1.4076c-.086.4158-.162.8424-.226 1.2796-.065.4265-.221.8211-.468 1.1836 0 .0107.005.016.016.016-.011 0-.022.0054-.033.016 0 0-.01.0107-.032.032-.064.5652-.156 1.125-.274 1.6795-.119.5439-.259 1.0877-.42 1.6315-.151.5439-.312 1.0877-.485 1.6316-.161.5438-.312 1.0876-.452 1.6315l-.161.048c.097.0853.14.2079.129.3678 0 .16-.011.2986-.032.4159-.033.3732-.087.7571-.162 1.1517-.075.3945-.161.7731-.258 1.1356-.054.192-.113.3839-.178.5759-.054.1813-.108.3732-.161.5758-.054.1919-.103.3892-.146.5918-.043.192-.08.3946-.113.6078-.021.1493-.043.3306-.064.5439-.011.2026-.006.4052.016.6078.032.1919.086.3732.161.5438.086.1707.221.2933.404.3679.355-.3625.657-.7571.904-1.1836.248-.4266.522-.8424.824-1.2476l2.842-.8638c-.151.1813-.285.3786-.404.5918-.118.2133-.237.4159-.355.6079-.495.7571-1.077 1.4022-1.744 1.9354s-1.443.9224-2.325 1.1676c-.194.0534-.426.112-.695.176-.258.0746-.522.1173-.791.1279-.269.0214-.527 0-.775-.0639-.237-.0534-.436-.1813-.598-.3839-.226-.2879-.344-.6452-.355-1.0717 0-.4265.049-.8691.146-1.3276.096-.4585.215-.9011.355-1.3276.14-.4372.242-.8051.307-1.1037l.096-.4479c-.452.7038-.936 1.3916-1.453 2.0634-.506.6718-1.098 1.2477-1.776 1.7275-.485.3413-.974.6292-1.47.8638-.484.2239-1.006.4318-1.566.6238-.129.0533-.258.096-.388.1279-.129.0427-.263.0747-.403.096l-.485.096c-.097.0213-.167.032-.21.032-.032.0106-.07.0213-.113.032-.032.0106-.075.016-.129.016-.054.0106-.145.0266-.274.0479-.463.0747-.899.0694-1.308-.0159-.409-.0747-.77-.3093-1.082-.7038-.366-.4586-.598-.9971-.695-1.6156-.096-.6184-.113-1.2529-.048-1.9034.065-.6611.183-1.3063.355-1.9354.172-.6398.35-1.205.533-1.6955.388-1.0557.84-2.0368 1.357-2.9432.527-.9063 1.135-1.7274 1.824-2.4632.7-.7358 1.491-1.3703 2.374-1.9035.894-.5438 1.9-.9703 3.02-1.2796.753-.2132 1.512-.3412 2.277-.3839.764-.0533 1.507.0107 2.228.192.011-.0533.016-.1067.016-.16.011-.0533.027-.1066.049-.1599.097-.4799.204-.9491.323-1.4076.118-.4692.231-.9384.339-1.4076.118-.4692.215-.9384.29-1.4076.086-.4798.14-.965.162-1.4555zm-3.439 14.3637c.291-1.013.587-2.0261.888-3.0391.301-1.0237.511-2.0634.63-3.1191-.302-.2452-.635-.4585-1.001-.6398-.366-.1919-.754-.3359-1.163-.4319-.398-.1066-.802-.1599-1.211-.1599-.409-.0107-.808.0373-1.195.144-.183.0533-.371.1492-.565.2879-.194.1279-.382.2719-.565.4318-.173.16-.34.3253-.501.4959-.162.1706-.296.3199-.404.4479-.484.5438-.936 1.1463-1.356 1.8074-.409.6505-.775 1.333-1.098 2.0474-.323.7038-.598 1.4289-.824 2.1754-.215.7464-.371 1.4822-.468 2.2073-.054.3839-.081.8318-.081 1.3436.011.5012.076.9811.194 1.4396.129.4585.334.8531.614 1.1836.29.3306.699.5172 1.227.5599.086-.0107.167-.0213.242-.032.086-.0107.172-.0267.258-.048.7-.4692 1.303-1.0397 1.809-1.7115.517-.6825.996-1.3756 1.437-2.0794.172-.2772.339-.5545.501-.8317.172-.2879.35-.5599.533-.8158s.387-.4905.613-.7038c.237-.2239.512-.4159.824-.5758.194-.1386.414-.2666.662-.3839z"/><path d="m130.674 54.8341c.021-.4692.097-.9171.226-1.3436.129-.4372.285-.8744.468-1.3116.614-1.5463 1.475-2.8792 2.584-3.9989 1.109-1.1196 2.476-1.9247 4.101-2.4152.345-.1067.695-.1973 1.05-.272.355-.0853.71-.1439 1.066-.1759.366-.032.726-.0267 1.082.016.366.032.721.1119 1.065.2399.356.128.646.3359.872.6238.237.2773.409.5918.517.9437.119.3519.178.7198.178 1.1037.01.3839-.038.7358-.146 1.0557-.183.5438-.441 1.0397-.775 1.4876-.333.4372-.716.837-1.146 1.1996-.431.3626-.899.6878-1.405.9757-.495.2773-.991.5279-1.486.7518-.387.1813-.78.3519-1.179.5118-.398.1493-.802.2986-1.211.4479-.053.0213-.172.0587-.355.112-.172.0533-.339.1013-.5.1439 0 .0107-.011.016-.033.016-.021 0-.037.0054-.048.016-.312.1173-.673.2453-1.082.3839-.398.128-.802.2293-1.211.3039-.011.4799.005 1.0077.048 1.5836.054.5651.167 1.109.339 1.6315.183.5225.442.9863.775 1.3916.334.3945.781.6664 1.341.8157.28.0747.559.1067.839.096.291-.0107.576-.0373.856-.08.043-.0107.108-.0373.194-.08.086-.0426.172-.0906.258-.1439.087-.064.167-.1227.243-.176.075-.0639.129-.1119.161-.1439.409-.3199.781-.6612 1.114-1.0237.345-.3732.673-.7625.985-1.1677l2.842-.8637c-.441.5651-.893 1.077-1.356 1.5355-.463.4479-.953.8531-1.47 1.2157-.505.3625-1.055.6824-1.647.9597-.581.2772-1.216.5172-1.905.7198-.452.1279-.921.2346-1.405.3199-.484.0959-.969.1333-1.453.1119-.539-.0213-1.007-.1279-1.405-.3199-.388-.1812-.721-.4212-1.001-.7198-.269-.3092-.49-.6611-.662-1.0556-.162-.3946-.291-.8105-.388-1.2477-.086-.4372-.14-.8797-.161-1.3276-.022-.4585-.022-.901 0-1.3276.021-.2666.037-.5225.048-.7678.022-.2452.081-.4958.178-.7517zm2.874-.9757c.086.0853.167.1759.242.2719.086.0959.178.1866.275.2719l.129.096v.016c-.022-.0214-.032-.032-.032-.032.01 0 .021.0053.032.016.011.0106.021.016.032.016.065.0213.14.0373.226.0479.086.0107.156.0107.21 0h.065c.032 0 .064-.0053.097-.0159h.016.064c.022-.0107.043-.016.065-.016.065-.0214.129-.0427.194-.064.064-.0214.129-.0427.194-.064.118-.0427.253-.0906.403-.144.162-.0533.415-.1333.759-.2399l.452-.1599c.183-.0747.361-.144.533-.208.183-.0746.361-.1599.533-.2559.603-.3306 1.136-.7251 1.599-1.1837.473-.4692.85-1.0237 1.13-1.6635.14-.3199.221-.6451.242-.9757.022-.3305-.005-.6664-.08-1.0077-.183-.7784-.539-1.3489-1.066-1.7115-.528-.3732-1.217-.4852-2.067-.3359-.538.3306-1.055.7838-1.55 1.3596-.485.5652-.921 1.189-1.308 1.8715-.388.6718-.705 1.3702-.953 2.0954-.248.7144-.393 1.3862-.436 2.0154zm.614.6078v.016c0-.0107 0-.016 0-.016z"/><path d="m153.604 45.8127-1.68 1.5036-.306 2.3833c.043-.064.086-.128.129-.192.043-.0639.091-.1279.145-.1919.215-.2666.463-.5012.743-.7038.291-.2133.597-.3945.92-.5438.323-.16.652-.2933.985-.3999.345-.1066.679-.2026 1.002-.2879.236-.0533.468-.1013.694-.144.226-.0426.458-.0853.694-.1279l.323-.048c.043 0 .108-.0054.194-.016.086-.0214.108-.0267.065-.016-.054.0213-.113.0373-.178.048-.054 0-.108.0053-.161.016l-.275.7357c-.258.0853-.522.16-.791.224s-.544.1173-.824.1599l-.387.064c-.237.2346-.442.4905-.614.7678-.161.2772-.318.5598-.468.8477-.14.2879-.286.5759-.436.8638-.151.2772-.329.5438-.533.7997-.151.1813-.339.3413-.565.4799-.216.128-.431.2399-.646.3359l-.259.112h.017c-.108.1066-.205.2719-.291.4958-.075.2133-.145.4426-.21.6878-.054.2453-.102.4905-.145.7358s-.081.4479-.113.6078c-.119.5119-.243 1.0184-.372 1.5196-.129.4905-.247.9917-.355 1.5035-.086.3839-.151.7518-.194 1.1037-.032.3519-.091.6878-.177 1.0077-.076.3199-.194.6291-.356.9277-.161.2879-.403.5652-.726.8318l-.097.0959-2.729.7198c.054-.0426.102-.0853.145-.1279.043-.0427.092-.08.145-.112.054-.0533.108-.1066.162-.16.054-.0533.108-.1066.161-.1599.151-.2239.264-.4639.339-.7198.087-.2666.151-.5332.194-.7998.054-.2772.097-.5545.129-.8317.033-.2773.076-.5438.13-.7998.161-.7677.339-1.5355.532-2.3033.194-.7678.377-1.5355.55-2.3033.053-.2346.118-.4425.193-.6238.076-.192.178-.3626.307-.5119l-.226.08.662-5.0865c-.269-.2133-.544-.3572-.823-.4319-.27-.0746-.576-.1013-.921-.0799l-.614.048h-.048l-.145.0159-.097.016c-.043 0-.054-.0053-.032-.016.053-.0213.113-.0319.177-.0319h.194c.021 0 .016.0053-.016.016-.033 0-.059 0-.081 0-.075 0-.156.0106-.242.0319h-.065c-.064.0107-.113.016-.145.016-.022 0-.043 0-.065 0-.01 0-.032 0-.064 0-.033 0-.081 0-.146 0 .377-.1919.754-.3839 1.131-.5758.387-.2026.769-.4052 1.146-.6078h.388c.355-.064.721-.1013 1.098-.112.387-.0106.753.016 1.098.08l.097-.096z"/></g></svg>