<svg fill="none" height="70" viewBox="0 0 214 70" width="214" xmlns="http://www.w3.org/2000/svg"><g fill="#150703"><path clip-rule="evenodd" d="m193.683 36.9385c.028-.159.052-.3184.07-.4782.038-.3214.057-.6442.057-.9685 0-.3242-.019-.647-.057-.9684-.018-.1598-.042-.3192-.07-.4782-.027-.1587-.06-.317-.097-.475l-.905.1061.113.9596c.033.2843.05.5696.05.8559 0 .2864-.017.5717-.05.856l-.113.9595.905.1061c.037-.1579.07-.3162.097-.4749zm-1.181 3.1705-.769-.523-.543.7987c-.324.4759-.696.951-1.115 1.4245l-.641.7232.704.6234c.114-.116.226-.2322.335-.3488.111-.1187.219-.2378.325-.3572.444-.5015.842-1.0088 1.191-1.5216.091-.1344.179-.2692.264-.4044.086-.1379.169-.2762.249-.4148zm-4.548 4.9877-.562-.7658-.779.5722c-.489.3593-1.005.7155-1.548 1.0683l-.81.5264.519.7998c.138-.0849.275-.17.41-.2555.138-.0866.273-.1734.407-.2605.558-.3623 1.089-.729 1.594-1.1001.131-.0961.26-.1925.387-.2891.129-.0983.257-.1969.382-.2957zm-5.721 3.6484-.432-.8541-.862.4364c-.552.2796-1.122.556-1.708.8291l-.875.408.404.8692c.148-.0662.295-.1325.441-.1991.147-.0673.293-.1347.438-.2024.596-.2774 1.174-.5584 1.736-.8429.145-.0731.288-.1465.43-.2201.144-.0745.287-.1492.428-.2241zm-6.156 2.8252-.347-.8957-.901.3488c-.588.2275-1.188.452-1.8.6736l-.909.3287.327.9037c.153-.0534.305-.107.456-.1608.152-.0542.304-.1086.455-.1632.618-.2238 1.225-.4509 1.82-.681.15-.0584.3-.117.45-.1757.15-.0593.3-.1187.449-.1784zm-6.404 2.2859-.284-.919-.923.2853c-.602.1861-1.214.3694-1.834.5501l-.927.2701.269.9239c.155-.0439.31-.088.464-.1323.155-.0446.31-.0893.464-.1342.625-.182 1.242-.3669 1.849-.5546.154-.0477.308-.0956.461-.1436.154-.0484.308-.0969.461-.1457zm-6.528 1.8761-.235-.9336-.937.2359c-.613.1545-1.234.3064-1.861.4558l-.94.2236.223.9369c.157-.0364.314-.0729.47-.1096.157-.0369.314-.0739.47-.1111.632-.1503 1.257-.3032 1.874-.4588.157-.0394.313-.079.469-.1187.156-.04.312-.0801.467-.1204zm-6.61 1.5525-.195-.9434-.946.1952c-.621.1282-1.248.254-1.881.3773l-.948.1849.184.9457c.159-.03.317-.0602.475-.0905.158-.0305.316-.0611.474-.0918.636-.124 1.267-.2505 1.891-.3794.158-.0326.316-.0654.473-.0983.158-.0331.316-.0663.473-.0997zm-6.665 1.2817-.16-.9504-.953.1604c-.628.1056-1.26.209-1.898.31l-.954.1512.151.9519c.159-.0245.318-.0491.477-.0739.159-.0249.318-.0499.477-.075.641-.1015 1.277-.2053 1.908-.3115.159-.0268.317-.0537.476-.0808s.317-.0545.476-.0819zm-6.703 1.0465-.129-.9553-.958.1294c-.635.0858-1.275.1694-1.918.2507l-.958.121.12.9565c.16-.0196.32-.0392.48-.059.16-.0199.32-.0399.479-.06.646-.0817 1.288-.1656 1.927-.2518.159-.0216.319-.0433.478-.0652.16-.022.32-.0441.479-.0663zm-6.738.8371-.101-.9589-.961.1011c-.639.0674-1.282.1324-1.928.1952l-.962.0935.094.9597c.16-.015.321-.0301.481-.0453.16-.0153.32-.0307.48-.0463.649-.0631 1.295-.1284 1.936-.196.161-.0168.321-.0339.481-.051.16-.0172.32-.0346.48-.052zm-6.767.6447-.074-.9614-.964.0749c-.637.0496-1.277.097-1.92.1422l-.964.0677.067.9619c.161-.0107.322-.0215.482-.0325.161-.011.322-.0221.482-.0334.646-.0454 1.288-.0929 1.928-.1427.161-.0125.321-.0251.482-.0379s.321-.0257.481-.0388zm-6.769.4632-.05-.9631-.964.0502c-.643.0333-1.288.0645-1.935.0935l-.965.0433.043.9634c.161-.0066.322-.0134.483-.0203.161-.007.321-.014.482-.0212.65-.0291 1.297-.0604 1.942-.0939.161-.0084.322-.0169.482-.0255.161-.0087.322-.0175.482-.0264zm-6.785.2922-.026-.9641-.966.0264c-.642.0175-1.286.0329-1.932.046l-.966.0197.02.9643c.161-.0027.322-.0056.483-.0086s.322-.0062.483-.0095c.648-.0132 1.294-.0286 1.938-.0462.161-.0044.322-.0089.483-.0136.161-.0046.322-.0095.483-.0144zm-6.79.1269-.003-.9644-.966.0032c-.323.0011-.647.0017-.971.0017-.325 0-.648-.0006-.972-.0017l-.966-.0032-.003.9644c.161.0011.322.0021.483.0029s.322.0015.483.002c.325.0011.649.0017.975.0017.325 0 .65-.0006.974-.0017.162-.0005.323-.0012.483-.002.162-.0008.323-.0018.483-.0029zm-6.8-.0346.019-.9643-.966-.0197c-.646-.0131-1.29-.0285-1.9315-.046l-.9658-.0264-.0263.9641c.1608.0049.3218.0098.4828.0144.1609.0047.3218.0092.4829.0136.6439.0176 1.2909.033 1.9389.0462.161.0033.322.0065.483.0095s.322.0059.483.0086zm-6.7846-.1972.0432-.9634-.9651-.0433c-.6473-.029-1.2922-.0602-1.9347-.0935l-.9648-.0502-.05.9631c.1606.0089.3214.0177.4823.0264.1606.0086.3214.0171.4824.0255.6448.0335 1.292.0648 1.9415.0939.1608.0072.3216.0142.4826.0212.1608.0069.3216.0137.4826.0203zm-6.7854-.3652.0676-.9619-.9638-.0677c-.643-.0452-1.2833-.0926-1.9207-.1422l-.9632-.0749-.0748.9614c.1603.0131.3208.026.4815.0388.1603.0128.3209.0254.4816.0379.6398.0498 1.2825.0973 1.9279.1427.1605.0113.3211.0224.4819.0334.1605.011.3212.0218.482.0325zm-6.7633-.5394.0933-.9597-.9616-.0935c-.6461-.0628-1.2889-.1278-1.9283-.1952l-.9608-.1011-.1009.9589c.1598.0174.3199.0348.4802.052.1599.0171.32.0342.4804.051.6419.0676 1.2873.133 1.9359.196.1601.0156.3204.031.4809.0463.1601.0152.3204.0303.4809.0453zm-6.7536-.7254.1208-.9565-.9585-.121c-.6434-.0813-1.2829-.1649-1.9182-.2507l-.9574-.1294-.1291.9553c.1592.0222.3187.0443.4785.0663.1593.0219.3188.0436.4786.0652.6382.0862 1.2804.1701 1.9266.2518.1595.0201.3193.0401.4793.06.1596.0198.3194.0394.4794.059zm-6.7313-.9257.1508-.9519-.9542-.1512c-.6375-.101-1.2702-.2044-1.8981-.31l-.9528-.1604-.1599.9504c.1584.0274.3171.0548.4761.0819.1584.0271.3172.054.4762.0808.631.1062 1.2668.21 1.9073.3115.1588.0251.3178.0501.4772.075.1588.0248.318.0494.4774.0739zm-6.6935-1.1451.1843-.9457-.9482-.1849c-.6328-.1233-1.2598-.2491-1.881-.3773l-.9461-.1952-.1947.9434c.1571.0334.3147.0666.4726.0997.1573.0329.315.0657.473.0983.6247.1289 1.2552.2554 1.8913.3794.1578.0307.3159.0613.4743.0918.1578.0303.316.0605.4745.0905zm-6.6455-1.3936.2229-.9369-.9399-.2236c-.6277-.1494-1.2483-.3013-1.8617-.4558l-.9369-.2359-.2351.9336c.1555.0403.3114.0804.4678.1204.1556.0397.3117.0793.4682.1187.6176.1556 1.2424.3085 1.8741.4588.1563.0372.313.0742.4701.1111.1564.0367.3132.0732.4705.1096zm-6.5791-1.6843.2691-.9239-.9276-.2701c-.6202-.1807-1.2314-.364-1.8335-.5501l-.923-.2853-.284.919c.1529.0488.3064.0973.4606.1457.1531.048.3068.0959.4612.1436.6072.1877 1.2234.3726 1.8486.5546.1542.0449.3088.0896.4641.1342.1543.0443.3092.0884.4645.1323zm-6.4737-2.0372.3271-.9037-.9085-.3287c-.6122-.2216-1.2123-.4461-1.8-.6736l-.901-.3488-.3467.8957c.1488.0597.2985.1191.4489.1784.1492.0587.2992.1173.45.1757.5946.2301 1.2014.4572 1.8201.681.1508.0546.3024.109.4546.1632.1512.0538.303.1074.4555.1608zm-6.313-2.4957.4049-.8692-.8757-.408c-.5862-.2731-1.1555-.5495-1.7074-.8291l-.8619-.4364-.4326.8541c.1415.0749.2842.1496.428.2241.1422.0736.2855.147.43.2201.5618.2845 1.1406.5655 1.7359.8429.1452.0677.2914.1351.4386.2024.1458.0666.2925.1329.4402.1991zm-6.0139-3.1361.5196-.7998-.8101-.5264c-.543-.3528-1.0593-.709-1.5482-1.0683l-.7785-.5722-.5627.7658c.1255.0988.2529.1974.3821.2957.1272.0966.2562.193.387.2891.5048.3711 1.0364.7378 1.594 1.1001.134.0871.2696.1739.4067.2605.1353.0855.2719.1706.4101.2555zm-5.3638-4.1418.7038-.6234-.6406-.7232c-.4194-.4735-.791-.9486-1.1149-1.4245l-.5435-.7987-.7686.523c.0795.1386.1625.2769.249.4148.0848.1352.1729.27.2644.4044.3489.5128.7463 1.0201 1.1904 1.5216.1058.1194.2142.2385.3252.3572.1091.1166.2207.2328.3348.3488zm-3.4481-5.7424.9048-.1061-.1125-.9595c-.0333-.2843-.0501-.5696-.0501-.856 0-.2863.0168-.5716.0501-.856l.1125-.9595-.9048-.1061c-.0369.158-.0693.3163-.0972.475-.0279.159-.0513.3184-.07.4781-.0377.3214-.0567.6443-.0567.9685 0 .3243.019.6471.0567.9685.0187.1598.0421.3192.07.4782.0279.1587.0603.317.0972.4749zm1.0843-6.5387.7686.523.5435-.7987c.3239-.476.6955-.9511 1.1149-1.4246l.6406-.7232-.7038-.6233c-.1141.1159-.2257.2322-.3347.3488-.1111.1187-.2195.2378-.3253.3572-.4441.5014-.8414 1.0088-1.1904 1.5216-.0915.1344-.1796.2692-.2644.4043-.0865.1379-.1695.2762-.249.4149zm4.5477-4.9877.5627.7657.7785-.5721c.4889-.3593 1.0052-.7156 1.5482-1.0684l.8101-.5263-.5196-.7999c-.1381.0849-.2748.1701-.4101.2555-.1371.0866-.2726.1735-.4067.2606-.5576.3622-1.0892.729-1.594 1.1-.1308.0961-.2598.1925-.3869.2892-.1293.0983-.2567.1968-.3822.2957zm5.7211-3.6484.4326.8541.8619-.4365c.5519-.2795 1.1212-.5559 1.7074-.829l.8757-.4081-.4049-.8691c-.1477.0662-.2944.1325-.4402.1991-.1472.0672-.2934.1347-.4386.2023-.5953.2774-1.1741.5584-1.7359.8429-.1444.0732-.2878.1466-.43.2202-.1438.0744-.2865.1491-.428.2241zm6.1566-2.8252.3467.8956.901-.3487c.5877-.2275 1.1878-.4521 1.8-.6736l.9085-.3287-.327-.9038c-.1526.0534-.3044.1071-.4556.1609-.1522.0542-.3038.1086-.4546.1631-.6187.2239-1.2255.451-1.8201.6811-.1508.0584-.3008.1169-.45.1757-.1504.0593-.3001.1187-.4489.1784zm6.4038-2.286.284.9191.923-.2853c.6021-.1861 1.2133-.3695 1.8335-.5501l.9276-.2701-.2691-.924c-.1553.044-.3102.0881-.4645.1324-.1552.0445-.3099.0893-.4641.1341-.6252.1821-1.2414.367-1.8486.5547-.1544.0477-.3081.0955-.4612.1436-.1542.0484-.3077.0969-.4606.1456zm6.5274-1.8761.2351.9337.9369-.2359c.6134-.1545 1.234-.3064 1.8617-.4558l.9399-.2236-.2229-.9369c-.1573.0363-.3141.0729-.4705.1096-.1571.0368-.3138.0739-.4701.111-.6317.1504-1.2565.3033-1.8741.4588-.1565.0394-.3126.079-.4682.1188-.1564.0399-.3123.0801-.4678.1203zm6.6105-1.5525.1947.9435.9461-.1952c.6212-.1282 1.2483-.254 1.881-.3774l.9482-.1848-.1843-.9457c-.1585.03-.3167.0602-.4745.0905-.1584.0305-.3165.061-.4743.0918-.6361.124-1.2666.2505-1.8913.3794-.158.0326-.3157.0654-.473.0983-.1579.0331-.3155.0663-.4726.0996zm6.665-1.2816.16.9503.9527-.1603c.6279-.1057 1.2606-.209 1.8981-.31l.9542-.1512-.1508-.9519c-.1594.0244-.3186.0491-.4774.0739-.1594.0248-.3184.0498-.4772.075-.6405.1015-1.2763.2053-1.9073.3115-.159.0268-.3178.0537-.4762.0808-.159.0271-.3177.0544-.4761.0819zm6.7031-1.0465.1291.9553.9574-.1294c.6353-.0859 1.2748-.1694 1.9182-.2507l.9585-.121-.1208-.9565c-.16.0195-.3198.0392-.4794.059-.16.0199-.3198.0399-.4793.06-.6462.0816-1.2884.1656-1.9266.2518-.1598.0216-.3193.0433-.4786.0652-.1598.0219-.3193.044-.4785.0663zm6.7377-.8371.1009.9589.9608-.1012c.6394-.0673 1.2822-.1324 1.9283-.1952l.9616-.0934-.0933-.9597c-.1605.015-.3208.0301-.4809.0453-.1605.0153-.3208.0307-.4809.0463-.6486.063-1.294.1283-1.9359.1959-.1604.0169-.3205.0339-.4804.0511-.1603.0172-.3204.0345-.4802.052zm6.7667-.64472.0748.96142.9632-.0749c.6374-.0496 1.2777-.097 1.9208-.1422l.9637-.0677-.0676-.96195c-.1608.0107-.3215.02154-.482.03252-.1608.011-.3214.02214-.4819.03342-.6454.04535-1.2881.09292-1.9279.14267-.1607.0125-.3212.02514-.4816.03791-.1607.0128-.3212.02573-.4815.03881zm6.7689-.4632.05.96302.9648-.0501c.6425-.0334 1.2874-.0646 1.9347-.0936l.9651-.0432-.0431-.96344c-.1611.00664-.3219.01342-.4827.02034-.161.00693-.3218.01399-.4826.02119-.6495.02911-1.2967.06042-1.9415.09393-.161.00836-.3218.01686-.4824.02549-.1609.00865-.3217.01744-.4823.02637zm6.7854-.29221.0263.96403.9658-.0263c.6415-.0175 1.2855-.0329 1.9315-.0461l.966-.0197-.019-.96422c-.161.00273-.322.0056-.483.00861s-.322.00616-.483.00944c-.648.01322-1.295.02864-1.9389.04622-.1611.00439-.322.00892-.4828.01359-.1611.00467-.3221.00948-.4829.01443zm6.7896-.12692.003.96447.966-.00328c.324-.00109.648-.00164.972-.00164s.648.00055.971.00164l.966.00328.003-.96447c-.16-.00109-.321-.00204-.483-.00286-.16-.00081-.321-.00149-.483-.00204-.324-.0011-.649-.00165-.974-.00165-.326 0-.65.00055-.975.00165-.161.00055-.322.00123-.483.00204-.161.00082-.322.00177-.483.00286zm6.801.03463-.02.96422.966.0197c.646.0132 1.29.0286 1.932.0461l.966.0263.026-.96403c-.161-.00495-.322-.00976-.483-.01443s-.322-.0092-.483-.01359c-.644-.01758-1.29-.033-1.938-.04622-.161-.00328-.322-.00643-.483-.00944s-.322-.00588-.483-.00861zm6.784.19718-.043.96344.965.0432c.647.029 1.292.0602 1.935.0936l.964.0501.05-.96302c-.16-.00893-.321-.01772-.482-.02637-.16-.00863-.321-.01713-.482-.02549-.645-.03351-1.292-.06482-1.942-.09393-.161-.0072-.321-.01426-.482-.02119-.161-.00692-.322-.0137-.483-.02034zm6.785.36519-.067.96195.964.0677c.643.0452 1.283.0926 1.92.1422l.964.0749.074-.96142c-.16-.01308-.32-.02601-.481-.03881-.16-.01277-.321-.02541-.482-.03791-.64-.04975-1.282-.09732-1.928-.14267-.16-.01128-.321-.02242-.482-.03342-.16-.01098-.321-.02182-.482-.03252zm6.764.53945-.094.9597.962.0934c.646.0628 1.289.1279 1.928.1952l.961.1012.101-.9589c-.16-.0175-.32-.0348-.48-.052s-.32-.0342-.481-.0511c-.641-.0675-1.287-.1329-1.935-.1959-.161-.0156-.321-.031-.481-.0463-.16-.0152-.321-.0303-.481-.0453zm6.753.7254-.12.9565.958.121c.643.0813 1.283.1648 1.918.2507l.958.1294.129-.9553c-.159-.0223-.319-.0444-.479-.0663-.159-.0219-.319-.0436-.478-.0652-.639-.0862-1.281-.1702-1.927-.2518-.159-.0201-.319-.0401-.479-.06-.16-.0198-.32-.0395-.48-.059zm6.732.9257-.151.9519.954.1512c.638.101 1.27.2043 1.898.31l.953.1603.16-.9503c-.159-.0275-.317-.0548-.476-.0819s-.317-.054-.476-.0808c-.631-.1062-1.267-.21-1.908-.3115-.159-.0252-.318-.0502-.477-.075s-.318-.0495-.477-.0739zm6.693 1.1451-.184.9457.948.1848c.633.1234 1.26.2492 1.881.3774l.946.1952.195-.9435c-.157-.0333-.315-.0665-.473-.0996-.157-.0329-.315-.0657-.473-.0983-.624-.1289-1.255-.2554-1.891-.3794-.158-.0308-.316-.0613-.474-.0918-.158-.0303-.316-.0605-.475-.0905zm6.646 1.3936-.223.9369.94.2236c.627.1494 1.248.3013 1.861.4558l.937.2359.235-.9337c-.155-.0402-.311-.0804-.467-.1203-.156-.0398-.312-.0793-.469-.1188-.617-.1555-1.242-.3084-1.874-.4588-.156-.0371-.313-.0742-.47-.111-.156-.0367-.313-.0733-.47-.1096zm6.579 1.6842-.269.924.927.2701c.62.1806 1.232.364 1.834.5501l.923.2853.284-.9191c-.153-.0487-.307-.0972-.461-.1456-.153-.0481-.307-.0959-.461-.1436-.607-.1877-1.223-.3726-1.849-.5547-.154-.0448-.309-.0896-.464-.1341-.154-.0443-.309-.0884-.464-.1324zm6.473 2.0372-.327.9038.909.3287c.612.2215 1.212.4461 1.8.6736l.901.3487.347-.8956c-.149-.0597-.299-.1191-.449-.1784-.15-.0588-.3-.1173-.45-.1757-.595-.2301-1.202-.4572-1.82-.6811-.151-.0545-.303-.1089-.455-.1631-.151-.0538-.303-.1074-.456-.1609zm6.313 2.4958-.404.8691.875.4081c.586.2731 1.156.5495 1.708.829l.862.4365.432-.8541c-.141-.075-.284-.1497-.428-.2241-.142-.0736-.285-.147-.43-.2202-.562-.2845-1.14-.5655-1.736-.8429-.145-.0676-.291-.1351-.438-.2023-.146-.0666-.293-.1329-.441-.1991zm6.014 3.136-.519.7999.81.5263c.543.3528 1.059.7091 1.548 1.0684l.779.5721.562-.7657c-.125-.0989-.253-.1974-.382-.2957-.127-.0967-.256-.1931-.387-.2892-.505-.371-1.036-.7378-1.594-1.1-.134-.0871-.269-.174-.407-.2606-.135-.0854-.272-.1706-.41-.2555zm5.364 4.1419-.704.6234.641.7232c.419.4735.791.9485 1.115 1.4245l.543.7987.769-.523c-.08-.1387-.163-.2769-.249-.4148-.085-.1352-.173-.27-.264-.4044-.349-.5128-.747-1.0202-1.191-1.5216-.106-.1194-.214-.2385-.325-.3572-.109-.1166-.221-.2329-.335-.3488z" fill-rule="evenodd"/><path d="m83.3801 32.6555h6.5358l.3555-1.1057h-2.0931c-.2567 0-.3356-.1383-.2567-.3949l1.6192-4.9759h3.3962c4.0281 0 6.7728-2.1721 6.7728-4.9167 0-1.9943-1.8364-3.5345-4.818-3.5345h-6.8517l-.3752 1.1058h1.7772c.2566 0 .3554.1382.2764.3949l-3.8701 11.9264c-.079.2566-.2765.3949-.5332.3949h-1.5796zm6.5161-7.5823 1.8956-5.8447c.079-.2567.2567-.3949.5134-.3949h1.8166c2.1325 0 3.2185.9083 3.2185 2.409 0 2.093-1.5599 3.8306-4.6402 3.8306z"/><path d="m97.958 32.6555h7.484c5.923 0 10.129-3.7122 10.129-9.1225 0-3.3172-2.606-5.8052-6.595-5.8052h-6.358l-.375 1.1058h1.777c.257 0 .355.1382.276.3949l-3.87 11.9264c-.079.2566-.276.3949-.533.3949h-1.5796zm4.798-1.1057c-.257 0-.336-.1383-.257-.3949l3.871-11.9264c.079-.2567.256-.3949.513-.3949h1.718c2.962 0 4.502 1.9351 4.502 4.7784 0 2.0931-.731 7.9378-8.688 7.9378z"/><path d="m131.89 17.7278h-11.551l-.375 1.1058h1.974c.257 0 .356.1382.277.3949l-3.87 11.9264c-.079.2566-.277.3949-.534.3949h-1.579l-.356 1.1057h6.437l.356-1.1057h-1.994c-.257 0-.336-.1383-.257-.3949l1.639-5.0352h5.232c.257 0 .336.1382.257.3949l-.474 1.6389h1.047l1.658-5.2326h-1.007l-.217.6714c-.276.849-.691 1.086-1.441 1.1255l-4.7.2764 1.876-5.7657c.079-.2567.257-.3949.513-.3949h1.698c2.785 0 3.969.4936 5.134 1.9746h1.027z"/><path d="m61.3688 50.6555h6.1409l.3554-1.1057h-1.6981c-.2567 0-.3357-.1383-.2567-.3949l3.8701-11.9264c.079-.2567.2567-.3949.5134-.3949h1.5007l.3752-1.1058h-6.1409l-.3752 1.1058h1.7771c.2567 0 .3554.1382.2764.3949l-3.8701 11.9264c-.079.2566-.2764.3949-.5331.3949h-1.5797z"/><path d="m80.2041 50.853c1.323 0 2.4287-1.5007 3.6727-2.9816l-.5331-.5331-2.3103 2.1325c-.3554.3357-.8095.079-.6516-.4147l1.9746-6.0224c.4739-1.4612-.0987-2.4484-1.3822-2.4484-1.1453 0-1.9548.6121-4.9364 4.8771l-2.1128 3.0211 2.0536-5.4498c.5133-1.4019-.0593-2.4484-1.3822-2.4484-1.4415 0-2.5472.9083-3.8504 3.1395l.6318.3752c.8293-1.3427 1.7969-2.2115 2.5275-2.2115.3356 0 .5331.1974.3949.5923l-2.3103 7.0492c-.2172.6319.2172 1.2242.8886 1.2242.3752 0 .6319-.1777 1.0268-.7108l5.7064-7.6415c.2962-.395.4542-.4937.6714-.4937.2764 0 .5134.2172.3949.6121l-1.8956 5.8052c-.4739 1.4612.1383 2.5275 1.4217 2.5275z"/><path d="m88.9198 50.853c1.8166 0 3.4555-.9873 4.9759-2.9816l-.6714-.5134c-.9872 1.2242-2.3892 1.9746-3.7121 1.9746-1.4612 0-2.3893-1.1255-2.3893-2.9421 0-2.7249 1.4612-4.4625 3.0211-4.4625.7504 0 1.1058.2172 1.8364 1.0662.6318.7701.9083 1.0663 1.4611 1.0663.5924 0 1.0268-.4344 1.0268-1.1453 0-1.4019-1.3032-2.3299-3.2975-2.3299-3.1593 0-5.8842 2.9026-5.8842 6.2791 0 2.4484 1.4019 3.9886 3.6332 3.9886z"/><path d="m97.3006 50.853c1.3229 0 2.4287-1.5007 3.6724-2.9816l-.533-.5331-2.3101 2.1325c-.3554.3357-.8096.079-.6516-.4147l5.0947-13.9996-.435-.1975-4.5807 1.0268v.9478h2.3102l-3.9294 11.6894c-.0987.2962-.1382.5726-.1382.8293 0 .9083.5726 1.5007 1.5007 1.5007z"/><path d="m105.659 50.853c1.303 0 2.33-.9281 7.247-7.8983l-1.975 5.3708c-.533 1.4415.138 2.5275 1.422 2.5275 1.323 0 2.428-1.5007 3.672-2.9816l-.533-.5331-2.31 2.1325c-.355.3357-.81.079-.652-.4147l2.311-7.1479c.197-.6318-.218-1.2242-.889-1.2242-.375 0-.612.1382-1.027.7108-2.27 3.1593-4.64 5.9632-5.785 7.1677-.316.3357-.533.5134-.829.5134-.277 0-.455-.2567-.356-.5529l1.817-5.4103c.474-1.4217-.059-2.4485-1.382-2.4485-1.442 0-2.548.9083-3.851 3.1396l.632.3752c.829-1.3427 1.797-2.2115 2.527-2.2115.336 0 .534.2172.415.6121l-1.777 5.5287c-.474 1.4415-.039 2.7447 1.323 2.7447z"/><path d="m119.607 50.853c1.421 0 3.218-1.6192 4.285-3.4555l-.316 1.1255c-.376 1.3427.177 2.33 1.362 2.33 1.323 0 2.429-1.5007 3.673-2.9816l-.533-.5331-2.311 2.1325c-.355.3357-.849.079-.671-.4147l5.075-13.9996-.435-.1975-4.66 1.0268v.9478h2.311l-1.56 4.9956c-1.027-.9478-1.58-1.2439-2.607-1.2439-2.823 0-5.844 4.265-5.844 7.5823 0 1.8166 1.125 2.6854 2.231 2.6854zm.928-1.8166c-.731 0-1.165-.4344-1.165-1.2637 0-1.9549 1.678-5.9632 3.613-5.9632.691 0 1.521.3554 2.528 1.1847-1.382 4.1269-3.436 6.0422-4.976 6.0422z"/><path d="m133.888 50.853c1.58 0 3.258-.7109 4.976-2.9816l-.671-.5134c-.948 1.2242-2.31 2.0338-3.693 2.0338-1.441 0-2.33-1.007-2.33-2.7051 4.029.0592 7.05-1.3625 7.05-3.5148 0-1.6586-1.264-2.5866-3.081-2.5866-3.238 0-5.844 2.9223-5.844 6.3186 0 2.5866 1.48 3.9491 3.593 3.9491zm-1.718-4.9364c.04-1.8956 1.58-4.2058 3.416-4.2058.869 0 1.56.4739 1.56 1.5796 0 1.7376-1.955 2.3497-4.976 2.6262z"/><path d="m143.074 50.853c1.422 0 3.219-1.6192 4.285-3.4555l-.316 1.1255c-.375 1.3427.178 2.33 1.362 2.33 1.323 0 2.429-1.5007 3.673-2.9816l-.533-.5331-2.31 2.1325c-.356.3357-.849.079-.672-.4147l5.075-13.9996-.435-.1975-4.659 1.0268v.9478h2.31l-1.56 4.9956c-1.027-.9478-1.58-1.2439-2.607-1.2439-2.823 0-5.844 4.265-5.844 7.5823 0 1.8166 1.125 2.6854 2.231 2.6854zm.928-1.8166c-.731 0-1.165-.4344-1.165-1.2637 0-1.9549 1.678-5.9632 3.613-5.9632.692 0 1.521.3554 2.528 1.1847-1.382 4.1269-3.436 6.0422-4.976 6.0422z"/></g></svg>