<svg fill="none" height="70" viewBox="0 0 215 70" width="215" xmlns="http://www.w3.org/2000/svg"><g fill="#150703"><path d="m67.7621 46.085c-2.31 5.6175-4.095 10.605-4.095 14.1225 0 2.9925 1.3125 4.8825 3.6225 4.8825 3.4125 0 6.0375-4.095 7.35-8.0325 3.7275-11.13-3.15-11.3925-3.15-15.2775 0-1.365.8925-2.31 2.1-2.31 1.5225 0 2.415 1.365 2.52 3.6225h.2625l2.1-6.405h-.0525c-.945.9975-1.5225 1.05-1.995 1.05-1.26 0-1.8375-.3675-2.94-.3675-2.5725 0-4.305 1.995-4.305 4.41 0 3.36 3.36 4.725 3.36 7.4025 0 1.3125-.84 2.4675-2.3625 2.4675-2.625 0-2.8875-3.3075-2.1525-5.565z"/><path d="m92.5909 45.4025c-.9975 2.4675-3.6225 4.62-6.3525 4.62-2.3625 0-3.8325-1.5225-3.78-4.2525.0525-3.15 1.89-6.09 4.1475-6.09 1.3125 0 2.3625.945 2.1525 3.8325h.2625l2.415-6.5625h-.0525c-.8925.9975-1.575.945-2.1525.945-1.05 0-1.6275-.5775-2.94-.5775-2.835 0-4.83 2.8875-6.6675 8.085-3.78 10.6575-4.515 19.6875.63 19.6875 5.5125 0 8.925-9.135 12.6-19.6875z"/><path d="m95.1827 65.09c3.5175 0 5.5653-4.2525 7.6653-9.8175 3.097-8.19 5.197-17.955-1.103-17.955-3.5173 0-5.7748 3.0975-7.6123 8.085-3.15 8.6625-5.355 19.6875 1.05 19.6875zm4.095-15.0675c-1.575 0-2.6775-1.3125-2.6775-3.5175 0-2.9925 1.995-7.1925 4.8298-7.1925 1.418 0 2.363 1.155 2.363 3.15 0 3.15-1.523 7.56-4.5153 7.56z"/><path d="m109.128 65.09c3.518 0 5.565-4.2525 7.665-9.8175 3.098-8.19 5.198-17.955-1.102-17.955-3.518 0-5.775 3.0975-7.613 8.085-3.15 8.6625-5.355 19.6875 1.05 19.6875zm4.095-15.0675c-1.575 0-2.677-1.3125-2.677-3.5175 0-2.9925 1.995-7.1925 4.83-7.1925 1.417 0 2.362 1.155 2.362 3.15 0 3.15-1.522 7.56-4.515 7.56z"/><path d="m124.495 69.5v-.2625c-5.513-.0525-4.463-7.6125-2.783-13.965-.525 4.515-.682 9.3975 1.785 9.3975 3.36 0 6.353-8.7675 7.928-13.1775 3.097-8.61 3.465-14.1225-1.943-14.1225-2.677 0-3.78 1.365-7.507.21l-.105.21c1.785.4725.42 5.88 0 7.6125-1.89 7.4025-4.358 20.265-8.138 24.0975zm1.68-19.32c-1.418 0-2.363-1.155-2.363-3.0975 0-2.73 2.153-7.6125 5.25-7.6125 1.26 0 2.205.84 2.205 2.6775 0 2.7825-2.047 8.0325-5.092 8.0325z"/><path d="m135.592 46.085c-2.31 5.6175-4.095 10.605-4.095 14.1225 0 2.9925 1.312 4.8825 3.622 4.8825 3.413 0 6.038-4.095 7.35-8.0325 3.728-11.13-3.15-11.3925-3.15-15.2775 0-1.365.893-2.31 2.1-2.31 1.523 0 2.415 1.365 2.52 3.6225h.263l2.1-6.405h-.053c-.945.9975-1.522 1.05-1.995 1.05-1.26 0-1.837-.3675-2.94-.3675-2.572 0-4.305 1.995-4.305 4.41 0 3.36 3.36 4.725 3.36 7.4025 0 1.3125-.84 2.4675-2.362 2.4675-2.625 0-2.888-3.3075-2.153-5.565z"/><path d="m65.1552 4.117c2.212.056 4.088.749 5.628 2.079 1.554 1.316 2.604 3.13601 3.15 5.46.546 2.324.441 5.012-.315 8.064-.728 2.898-1.862 5.411-3.402 7.539-1.526 2.128-3.318 3.808-5.376 5.04-2.044 1.218-4.214 1.925-6.51 2.121.308 1.33.889 2.296 1.743 2.898.854.616 1.862.994 3.024 1.134.966.112 1.736.105 2.31-.021.574-.112 1.001-.238 1.281-.378.294-.14.49-.189.588-.147.196.07.217.217.063.441l-1.281 1.764c-.168.238-.427.413-.777.525s-.882.14-1.596.084c-1.722-.084-3.136-.644-4.242-1.68s-1.785-2.555-2.037-4.557c-.266 0-.532 0-.798 0-1.652-.042-3.136-.448-4.452-1.218s-2.38-1.855-3.192-3.255c-.798-1.4-1.274-3.073-1.428-5.019-.14-1.96.126-4.151.798-6.573.602-2.128 1.47-4.074 2.604-5.838s2.457-3.283 3.969-4.557c1.526-1.288 3.157-2.268 4.893-2.94 1.75-.686 3.535-1.008 5.355-.966zm-8.127 29.589h.315c-.056-.966-.007-2.03.147-3.192.154-1.176.42-2.457.798-3.843.042-.126.098-.231.168-.315.07-.098.175-.14.315-.126.224.042.287.231.189.567-.392 1.456-.644 2.751-.756 3.885s-.112 2.128 0 2.982c1.624-.168 3.206-.77 4.746-1.806 1.554-1.036 2.975-2.555 4.263-4.557 1.288-2.016 2.359-4.557 3.213-7.623.658-2.45.973-4.578.945-6.384 0-2.688-.637-4.746-1.911-6.174s-2.814-2.17-4.62-2.22599c-1.848-.05601-3.661.46899-5.439 1.57499s-3.367 2.695-4.767 4.767c-1.386 2.072-2.436 4.529-3.15 7.371-.322 1.316-.56 2.527-.714 3.633-.154 1.092-.231 2.086-.231 2.982-.028 2.772.553 4.865 1.743 6.279 1.204 1.414 2.786 2.149 4.746 2.205z"/><path d="m93.4717 30.934c.168.084.161.287-.021.609-.574.896-1.253 1.589-2.037 2.079-.77.49-1.561.735-2.373.735-.588 0-1.057-.14-1.407-.42-.336-.294-.504-.735-.504-1.323s.175-1.379.525-2.373c.364-1.008.805-2.17 1.323-3.486-1.022 1.876-2.114 3.367-3.276 4.473s-2.296 1.904-3.402 2.394-2.1.735-2.982.735c-1.484 0-2.303-.497-2.457-1.491-.14-.994.084-2.338.672-4.032l3.024-8.967c.42-1.26.567-2.107.441-2.541-.112-.448-.364-.672-.756-.672-.28 0-.602.105-.966.315-.35.21-.777.602-1.281 1.176-.238.238-.427.329-.567.273-.168-.084-.161-.294.021-.63 1.12-1.82 2.569-2.73 4.347-2.73 1.946 0 2.464 1.358 1.554 4.074l-3.192 9.534c-.518 1.526-.686 2.576-.504 3.15.196.56.672.84 1.428.84.77 0 1.729-.364 2.877-1.092 1.148-.742 2.31-1.904 3.486-3.486 1.19-1.582 2.212-3.633 3.066-6.153.49-1.414.798-2.394.924-2.94.14-.546.21-.959.21-1.239s-.049-.504-.147-.672c-.084-.168-.126-.378-.126-.63 0-.392.217-.721.651-.987s.994-.399 1.68-.399c.588 0 .931.21 1.029.63.112.42 0 1.099-.336 2.037l-4.011 11.571c-.462 1.316-.644 2.212-.546 2.688.112.476.378.714.798.714.28 0 .595-.105.945-.315s.791-.602 1.323-1.176c.238-.238.427-.329.567-.273z"/><path d="m111.248 29.317c-.35 1.372-.49 2.296-.42 2.772.084.462.322.693.714.693.294 0 .609-.105.945-.315.336-.224.756-.616 1.26-1.176.252-.252.448-.343.588-.273.154.084.14.294-.042.63-.532.868-1.176 1.54-1.932 2.016-.756.462-1.533.693-2.331.693-1.232 0-1.848-.616-1.848-1.848 0-.504.098-1.204.294-2.1s.574-2.282 1.134-4.158c-1.218 2.548-2.59 4.536-4.116 5.964-1.512 1.428-3.087 2.142-4.725 2.142-1.2601 0-2.2261-.483-2.8981-1.449-.658-.98-.847-2.562-.567-4.746.196-1.708.721-3.346 1.575-4.914s1.9321-2.968 3.2341-4.2c1.316-1.232 2.772-2.205 4.368-2.919s3.227-1.071 4.893-1.071c1.218 0 2.142.133 2.772.399.644.252.959.539.945.861-.014.266-.133.476-.357.63-.224.14-.371.343-.441.609zm-11.2561-1.029c-.252 1.694-.168 2.912.2521 3.654.434.742 1.036 1.113 1.806 1.113 1.078 0 2.247-.658 3.507-1.974 1.26-1.33 2.45-3.157 3.57-5.481 1.134-2.324 2.037-5.005 2.709-8.043.224-1.092-.126-1.638-1.05-1.638-1.246 0-2.464.343-3.654 1.029-1.19.672-2.289 1.589-3.297 2.751-.994 1.162-1.834 2.485-2.52 3.969-.672 1.47-1.113 3.01-1.3231 4.62z"/><path d="m127.44 7.876-6.321 21.378c-.406 1.4-.553 2.331-.441 2.793.126.448.427.672.903.672.434 0 .896-.14 1.386-.42.504-.28 1.022-.749 1.554-1.407.168-.196.315-.28.441-.252.196.056.224.252.084.588-.448.91-1.148 1.659-2.1 2.247s-1.96.882-3.024.882c-.98 0-1.61-.336-1.89-1.008s-.189-1.764.273-3.276l6.426-21.69299c.336-1.148.441-1.92501.315-2.33101-.126-.42-.378-.63-.756-.63-.266 0-.567.091-.903.27301-.336.182-.735.51099-1.197.98699-.252.238-.448.329-.588.273-.154-.08399-.14-.28699.042-.60899.504-.81201 1.134-1.44201 1.89-1.89001.77-.44799 1.547-.67199 2.331-.67199 1.876 0 2.401 1.365 1.575 4.09499z"/><path d="m135.999 10.9c-.532 0-.938-.161-1.218-.483s-.385-.71399-.315-1.17599c.056-.63001.35-1.26701.882-1.91101.546-.644 1.169-.966 1.869-.966.574 0 .987.161 1.239.483.266.322.364.714.294 1.176-.056.672-.35 1.32301-.882 1.95301-.532.61599-1.155.92399-1.869.92399zm-3.654 18.648c-.434 1.218-.595 2.058-.483 2.52s.371.693.777.693c.294 0 .616-.105.966-.315s.777-.602 1.281-1.176c.252-.252.448-.343.588-.273.154.084.14.294-.042.63-1.12 1.82-2.569 2.73-4.347 2.73-.924 0-1.533-.343-1.827-1.029s-.196-1.708.294-3.066l3.654-10.122c.462-1.302.644-2.198.546-2.688s-.364-.735-.798-.735c-.28 0-.595.105-.945.315s-.784.609-1.302 1.197c-.252.238-.448.322-.588.252-.154-.084-.147-.287.021-.609 1.19-1.876 2.646-2.814 4.368-2.814.882 0 1.477.35 1.785 1.05.322.686.224 1.764-.294 3.234z"/><path d="m143.94 16.57-1.932-.273c-.252-.056-.378-.189-.378-.399 0-.266.182-.399.546-.399h2.226c.35 0 .63-.126.84-.378l2.226-3.024c.154-.224.357-.336.609-.336.238 0 .357.126.357.378 0 .168-.056.448-.168.84l-.756 2.541h4.326c.28 0 .42.105.42.315 0 .35-.294.525-.882.525h-4.116l-3.864 12.894c-.434 1.428-.553 2.366-.357 2.814.196.434.623.651 1.281.651.616 0 1.218-.168 1.806-.504.602-.35 1.239-.917 1.911-1.701.168-.196.315-.287.441-.273.182.014.245.14.189.378-.224.574-.623 1.148-1.197 1.722s-1.274 1.057-2.1 1.449c-.812.378-1.687.567-2.625.567-1.204 0-1.967-.364-2.289-1.092-.322-.742-.259-1.855.189-3.339l3.591-11.97c.154-.49.21-.826.168-1.008-.042-.196-.196-.322-.462-.378z"/><path d="m164.265 22.261c1.064-2.604 2.072-4.466 3.024-5.586s1.953-1.68 3.003-1.68c.882 0 1.323.378 1.323 1.134 0 .854-.602 1.456-1.806 1.806-.658.14-1.267.392-1.827.756s-1.113.966-1.659 1.806c-.532.84-1.113 2.023-1.743 3.549l-5.271 12.873c-1.092 2.758-2.38 4.69-3.864 5.796-1.47 1.12-3.227 1.68-5.271 1.68-1.204 0-2.121-.189-2.751-.567s-.945-.833-.945-1.365c0-.378.119-.693.357-.945.238-.238.546-.357.924-.357.462 0 .882.175 1.26.525.378.364.791.721 1.239 1.071s1.008.525 1.68.525c1.05 0 1.995-.392 2.835-1.176s1.505-1.764 1.995-2.94c.504-1.162.763-2.31.777-3.444 0-.546-.021-1.386-.063-2.52-.028-1.134-.077-2.415-.147-3.843-.056-1.428-.126-2.856-.21-4.284-.07-1.442-.14-2.744-.21-3.906-.07-1.176-.133-2.058-.189-2.646-.07-1.19-.371-1.785-.903-1.785-.252 0-.511.105-.777.315-.266.196-.56.546-.882 1.05-.182.266-.35.378-.504.336-.196-.056-.224-.252-.084-.588.448-.952.994-1.652 1.638-2.1.644-.462 1.33-.693 2.058-.693 1.232 0 1.897.805 1.995 2.415.042.504.084 1.358.126 2.562.042 1.19.091 2.569.147 4.137.056 1.554.105 3.143.147 4.767.056 1.624.112 3.115.168 4.473z"/></g></svg>