<svg fill="none" height="70" viewBox="0 0 214 70" width="214" xmlns="http://www.w3.org/2000/svg"><g fill="#150703"><path d="m112.976 12.0558-.672-.032c-.32 1.632-.736 2.432-1.248 2.432-.16 0-.32-.096-.48-.256l-1.216-1.024c-.608-.512-1.28-.896-2.016-1.184s-1.568-.416-2.496-.416c-1.952 0-3.424.704-4.448 2.08-.928 1.248-1.408 2.528-1.408 3.84 0 1.28.416 2.496 1.28 3.68.8 1.056 2.048 1.792 3.744 2.24l4.128 1.088c3.04.8 4.544 2.336 4.544 4.608 0 1.184-.448 2.144-1.344 3.008-.864.832-1.888 1.28-3.072 1.28-1.248 0-2.432-.384-3.584-1.152-1.12-.736-1.984-1.664-2.592-2.752-1.024-1.824-1.76-3.872-2.24-6.112h-.64l-.064 10.336.64.032c.384-2.208.896-3.296 1.568-3.296.288 0 .8.384 1.568 1.184 1.536 1.536 3.296 2.304 5.248 2.304 1.824 0 3.328-.608 4.544-1.824s1.824-2.752 1.824-4.576c0-1.856-.608-3.392-1.792-4.576-.608-.608-1.504-1.12-2.688-1.536-.192-.064-1.184-.352-3.008-.864-2.144-.608-3.52-1.088-4.128-1.44-1.504-.8-2.24-1.92-2.24-3.392 0-1.088.448-1.984 1.344-2.656.8-.608 1.76-.896 2.88-.896 2.176 0 4 1.024 5.472 3.072.928 1.248 1.568 3.04 1.92 5.344l.608.032z"/><path d="m119.602 19.6398-.032-6.944-.512.064c-.288 2.08-.64 3.52-1.056 4.352-.64 1.216-1.76 2.176-3.328 2.848l-.032.64h2.656l-.032 8.832c0 2.784 1.152 4.192 3.424 4.192 1.12 0 2.048-.384 2.784-1.184s1.088-1.76 1.088-2.912v-3.008h-.608v3.008c0 .832-.224 1.568-.672 2.208-.512.704-1.184 1.056-1.984 1.056-.672 0-1.12-.224-1.376-.672-.192-.32-.288-.864-.288-1.6v-9.92h4.352v-.96z"/><path d="m133.458 22.8718.032 2.016-1.472.416-2.4.704c-.64.192-1.152.384-1.504.544-1.824.768-2.72 1.952-2.72 3.584 0 .96.288 1.76.832 2.368.544.576 1.312.864 2.336.864 2.176 0 3.84-1.056 4.992-3.168 0 2.08.864 3.136 2.624 3.136 1.664 0 2.528-.896 2.56-2.688l.032-3.264h-.64l-.032 2.624c-.032 1.504-.448 2.24-1.248 2.24-.704 0-1.056-.512-1.056-1.568l-.032-7.04c0-1.248-.256-2.144-.704-2.688-.928-1.12-2.368-1.696-4.384-1.696-1.216 0-2.24.288-3.072.864-.96.64-1.44 1.536-1.44 2.72 0 .512.16.96.448 1.312s.704.544 1.248.544c.48 0 .896-.16 1.248-.448.32-.32.48-.736.48-1.248 0-.928-.448-1.472-1.344-1.664-.416-.096-.64-.192-.64-.288s.224-.288.64-.608c.48-.352 1.152-.544 2.016-.544 1.12 0 1.92.224 2.4.672.48.416.736 1.216.768 2.368zm0 2.656v2.08c0 1.088-.352 2.144-1.024 3.136-.736 1.12-1.632 1.664-2.688 1.664-1.024 0-1.536-.768-1.536-2.272 0-1.44.544-2.528 1.632-3.264.608-.384 1.824-.832 3.648-1.344z"/><path d="m140.614 13.5278c0 .48.16.896.48 1.248.32.32.736.48 1.248.48.48 0 .896-.16 1.248-.48.352-.352.512-.768.512-1.248s-.16-.896-.512-1.248c-.352-.32-.768-.48-1.248-.48s-.896.16-1.216.48c-.352.32-.512.736-.512 1.216zm6.112 19.616v-.64h-1.696c-.448 0-.736-.256-.864-.8-.032-.096-.032-.256-.032-.48v-12.128c-1.024.16-1.92.288-2.688.384s-1.44.128-1.984.128h-.896l-.032.608.736.032c1.696.064 2.56.704 2.56 1.952v8.064c0 .928-.064 1.504-.224 1.728-.256.416-.512.608-.8.608h-1.952v.576l3.968-.064z"/><path d="m152.139 23.0318v-3.68c-.608.096-1.376.192-2.272.256s-1.952.096-3.168.096v.672h.992c.608 0 1.12.224 1.504.704.416.48.608 1.024.608 1.664l-.032 8.384c0 .512-.032.864-.096 1.056-.16.288-.48.448-.928.448h-1.856v.576l4.128-.064 3.84.064v-.576l-1.248-.032c-.608 0-1.024-.096-1.216-.288s-.288-.576-.288-1.152v-4.576c0-1.504.32-2.848.992-4.032.864-1.536 1.856-2.304 2.976-2.304.736 0 1.312.32 1.792.992.384.544.608 1.216.608 2.016v7.648c0 1.12-.352 1.696-1.024 1.696l-1.696.032v.608h7.744v-.576h-1.056c-.736 0-1.184-.064-1.344-.192-.224-.192-.32-.608-.32-1.248v-6.944c0-1.376-.352-2.496-1.056-3.36-.768-.96-1.824-1.44-3.168-1.44-1.76 0-3.232 1.216-4.384 3.648z"/><path d="m55.816 47.1998-2.976-.032v-7.2c0-1.248.544-1.888 1.632-1.92l2.016-.032c3.808-.064 5.696 1.504 5.696 4.672 0 1.568-.512 2.72-1.504 3.456-1.056.736-2.688 1.088-4.896 1.056zm3.008.352c4.704-.704 7.04-2.24 7.04-4.576 0-.736-.256-1.472-.768-2.24-.48-.704-1.056-1.248-1.696-1.664-1.888-1.216-4.576-1.792-8.064-1.696l-5.408.16c-.8.032-2.432-.032-4.928-.192v.736h3.328c.224 0 .512.128.864.352.352.192.512.512.512.96v16.736c0 1.28-.576 1.92-1.696 1.92h-2.976v.672h12.8l-.032-.672h-3.488c-1.024 0-1.536-.64-1.536-1.888l.032-8.256h2.112c1.76 0 3.008.256 3.744.768.576.384.928 1.024 1.088 1.952.032.096.064.352.096.736s.064.928.096 1.6c.128 2.336.384 3.84.736 4.512.576 1.12 1.6 1.696 3.104 1.696 2.72 0 4.064-1.632 4.064-4.896v-1.888h-.768v1.344c0 .48-.032.928-.064 1.344s-.096.832-.192 1.216c-.32 1.152-.864 1.728-1.6 1.728-.512 0-.864-.352-1.056-1.088-.032-.16-.096-.736-.192-1.728-.16-1.664-.672-3.2-1.536-4.576-.608-1.024-1.824-2.048-3.616-3.104z"/><path d="m77.527 49.4718c0 .576-.064.928-.192 1.088-.128.224-.448.32-.992.32h-5.12c0-3.872 1.056-5.824 3.2-5.824 1.12 0 1.952.48 2.496 1.472.416.8.64 1.792.64 2.976zm-6.208 2.112 9.184.064c-.864-4.704-2.88-7.072-6.016-7.072-1.76 0-3.232.8-4.416 2.4-1.056 1.44-1.568 3.072-1.568 4.896 0 1.888.608 3.552 1.792 4.96 1.28 1.504 2.848 2.24 4.704 2.24 1.568 0 2.88-.576 3.936-1.728 1.056-1.12 1.568-2.464 1.568-4.032l-.576-.032c-.096 1.376-.576 2.56-1.44 3.552-.928 1.056-2.048 1.6-3.36 1.6-1.216 0-2.144-.48-2.816-1.44s-1.056-2.336-1.024-4.096z"/><path d="m90.7918 46.6878v-2.08h-.512c-.128 1.024-.448 1.536-.96 1.536-.192 0-.576-.224-1.152-.672-.8-.608-1.696-.928-2.688-.928-1.088 0-2.016.352-2.784 1.056-.736.704-1.088 1.6-1.088 2.688 0 1.952 1.376 3.36 4.096 4.224 2.304.736 3.68 1.28 4.128 1.632.608.48.928 1.12.928 1.92 0 .768-.32 1.376-.928 1.792-.544.384-1.216.576-2.016.576-2.752 0-4.64-1.888-5.696-5.696h-.576l.032 2.912-.064 3.456h.544l.16-.64c.224-.864.544-1.312.96-1.312.192 0 .704.288 1.504.864.96.704 1.952 1.056 3.008 1.056 1.216 0 2.24-.384 3.104-1.184s1.28-1.824 1.28-3.072c0-1.44-.768-2.624-2.304-3.552-.992-.608-2.4-1.152-4.224-1.632-1.792-.448-2.688-1.216-2.688-2.336 0-.672.256-1.248.736-1.632s1.056-.544 1.728-.544c2.272 0 3.968 1.664 5.056 5.024h.544z"/><path d="m100.473 58.6878v-.64h-1.6963c-.448 0-.7359-.256-.8639-.8-.032-.096-.0321-.256-.0321-.48v-12.128c-1.024.16-1.92.288-2.688.384s-1.44.128-1.984.128h-.896l-.0319.608.736.032c1.696.064 2.5599.704 2.5599 1.952v8.064c0 .928-.064 1.504-.224 1.728-.256.416-.512.608-.8.608h-1.952v.576l3.968-.064z"/><path d="m110.653 46.6878v-2.08h-.512c-.128 1.024-.448 1.536-.96 1.536-.192 0-.576-.224-1.152-.672-.8-.608-1.696-.928-2.688-.928-1.088 0-2.016.352-2.784 1.056-.736.704-1.088 1.6-1.088 2.688 0 1.952 1.376 3.36 4.096 4.224 2.304.736 3.68 1.28 4.128 1.632.608.48.928 1.12.928 1.92 0 .768-.32 1.376-.928 1.792-.544.384-1.216.576-2.016.576-2.752 0-4.64-1.888-5.696-5.696h-.576l.032 2.912-.064 3.456h.544l.16-.64c.224-.864.544-1.312.96-1.312.192 0 .704.288 1.504.864.96.704 1.952 1.056 3.008 1.056 1.216 0 2.24-.384 3.104-1.184s1.28-1.824 1.28-3.072c0-1.44-.768-2.624-2.304-3.552-.992-.608-2.4-1.152-4.224-1.632-1.792-.448-2.688-1.216-2.688-2.336 0-.672.256-1.248.736-1.632s1.056-.544 1.728-.544c2.272 0 3.968 1.664 5.056 5.024h.544z"/><path d="m117.102 45.1838-.032-6.944-.512.064c-.288 2.08-.64 3.52-1.056 4.352-.64 1.216-1.76 2.176-3.328 2.848l-.032.64h2.656l-.032 8.832c0 2.784 1.152 4.192 3.424 4.192 1.12 0 2.048-.384 2.784-1.184s1.088-1.76 1.088-2.912v-3.008h-.608v3.008c0 .832-.224 1.568-.672 2.208-.512.704-1.184 1.056-1.984 1.056-.672 0-1.12-.224-1.376-.672-.192-.32-.288-.864-.288-1.6v-9.92h4.352v-.96z"/><path d="m130.958 48.4158.032 2.016-1.472.416-2.4.704c-.64.192-1.152.384-1.504.544-1.824.768-2.72 1.952-2.72 3.584 0 .96.288 1.76.832 2.368.544.576 1.312.864 2.336.864 2.176 0 3.84-1.056 4.992-3.168 0 2.08.864 3.136 2.624 3.136 1.664 0 2.528-.896 2.56-2.688l.032-3.264h-.64l-.032 2.624c-.032 1.504-.448 2.24-1.248 2.24-.704 0-1.056-.512-1.056-1.568l-.032-7.04c0-1.248-.256-2.144-.704-2.688-.928-1.12-2.368-1.696-4.384-1.696-1.216 0-2.24.288-3.072.864-.96.64-1.44 1.536-1.44 2.72 0 .512.16.96.448 1.312s.704.544 1.248.544c.48 0 .896-.16 1.248-.448.32-.32.48-.736.48-1.248 0-.928-.448-1.472-1.344-1.664-.416-.096-.64-.192-.64-.288s.224-.288.64-.608c.48-.352 1.152-.544 2.016-.544 1.12 0 1.92.224 2.4.672.48.416.736 1.216.768 2.368zm0 2.656v2.08c0 1.088-.352 2.144-1.024 3.136-.736 1.12-1.632 1.664-2.688 1.664-1.024 0-1.536-.768-1.536-2.272 0-1.44.544-2.528 1.632-3.264.608-.384 1.824-.832 3.648-1.344z"/><path d="m141.442 48.5758v-3.68c-.608.096-1.375.192-2.271.256s-1.952.096-3.168.096v.672h.991c.608 0 1.12.224 1.504.704.416.48.608 1.024.608 1.664l-.031 8.384c0 .512-.032.864-.096 1.056-.16.288-.481.448-.929.448h-1.856v.576l4.129-.064 3.839.064v-.576l-1.248-.032c-.608 0-1.023-.096-1.215-.288s-.289-.576-.289-1.152v-4.576c0-1.504.32-2.848.992-4.032.864-1.536 1.857-2.304 2.977-2.304.736 0 1.312.32 1.792.992.384.544.607 1.216.607 2.016v7.648c0 1.12-.351 1.696-1.023 1.696l-1.696.032v.608h7.743v-.576h-1.056c-.736 0-1.184-.064-1.344-.192-.224-.192-.32-.608-.32-1.248v-6.944c0-1.376-.352-2.496-1.056-3.36-.768-.96-1.824-1.44-3.168-1.44-1.76 0-3.231 1.216-4.383 3.648z"/><path d="m157.41 45.1838-.032-6.944-.512.064c-.288 2.08-.64 3.52-1.056 4.352-.64 1.216-1.761 2.176-3.329 2.848l-.031.64h2.655l-.031 8.832c0 2.784 1.151 4.192 3.423 4.192 1.12 0 2.049-.384 2.785-1.184s1.087-1.76 1.087-2.912v-3.008h-.608v3.008c0 .832-.223 1.568-.671 2.208-.512.704-1.185 1.056-1.985 1.056-.672 0-1.12-.224-1.376-.672-.192-.32-.288-.864-.288-1.6v-9.92h4.353v-.96z"/><path d="m90.6734 20.2078c-.384.416-.768.864-1.152 1.312-.864.608-1.664 1.28-2.24 2.208h-.064c.064-1.696.32-2.944-.16-4.448-.192-.576-.096-1.088-.544-1.376.096-.832 1.024-.864 1.6-1.248 1.664-.992 3.776-1.728 6.24-1.92 0-.608-.096-1.12-.384-1.44-.288-.832-2.432-1.088-3.552-.704-2.112.768-4.64 2.624-5.664 4.448-.448-.064-.256-.224-.48-.512-.16-.256-.992-.864-1.28-1.024-1.824-.928-4.288-.192-5.632.704-.064.096-.128.192-.224.32-.32.192-.672.256-.928.512h-.224c-.128-.704-.064-3.072-.16-3.2v-.704c-.448.288-.864.96-1.056 1.472-.16-.032-.16-.032-.224-.096-.128-.096-.032-.576-.16-.928-.256-.704-.416-2.624-.768-2.976-.064-.16 0-.064-.096-.16-.128.608-.512 1.152-.768 1.696-.128.352-.192.896-.288 1.216-.256.896-.224 1.92-.48 2.784 0 .512-.032 1.056-.064 1.6-.096.384-.32 2.592-.064 2.912-.032.288 0 .288-.16.384-.064.096 0 0-.096.096-.576-1.056-.544-2.688-.992-3.84-.224-.608-.096-1.472-.448-1.92 0-.384-.064-.416-.16-.64h-.16c0 .864.128 1.952.224 2.464.128.512-.032.992.256 1.312-.064.256-.096.224-.16.384h-.16c-.256-.576-.384-1.12-.992-1.312-.128-.096-.352-.096-.48 0-.192.096-.16.192-.288.32 0 .928.672 2.336 1.056 2.912.128.064.224.16.32.224.256.384.32.832.544 1.248.096.16.352.352.448.512.192.32.224.672.384 1.024.192.352.544.768.704 1.152.096.224.032.352.16.608.128.288.384.672.512.992.032.192.064.352.096.544.096.192.352.448.448.672.16.416.16.832.384 1.152-.032.16 0 .096-.064.16-.288.128-.384-.192-.608-.288-.48-.192-1.856-.48-2.56-.32-.128.032-.256-.096-.512 0-.352.096-.608.448-.864.608-.224.16-.48.16-.672.32-.288.192-.288.64-.48.928-.128.224-.448.416-.544.672 0 .288-.032.576-.064.864-.384 1.408.064 2.784.608 3.84.224.384.416 1.056.768 1.28h.224c.256.288.48.576.704.864h.384c.224.096.384.384.608.448h.48c.064.064.192.256.288.32h.608c.096.032.256.192.32.224.256.096.928.128 1.152.16.512.064 1.568-.192 2.24 0 .224.064 1.504.128 2.048 0 .128-.032.448-.064.704-.096 1.184-.064 3.36-.16 3.68-.224 1.6-.128 4.064-.384 5.632-.448 3.2161-.224 3.8155.4639 5.3155.9639 1.5927 0 2.3247 2 2.8247 1.5 1.268 0 1.3608-1 2.268-1.5.0173-.5338-.3766-1.0827-.5927-1.5-.403-.2319-.8981-.4902-1.064-.7119-.32-.16-.48.064-.704-.064h-.672c-.064.032-.096.256-.16.32-.224.16-.544.128-.768.288-.128.16-.256.32-.384.48-.48.288-.864.256-1.248.672-.16-.032-.904-.9201-1-.9841-.608-.192-.9035-.8079-1.2235-1.3199-.672-1.056-1.152-2.304-1.856-3.36-.096-.192-.352-.32-.448-.48-.224-.352-.224-.672-.448-.992-.224-.288-.512-.416-.64-.832-.064-.096-.032-.032-.064-.16 1.152-.512 2.336-.832 3.296-1.536.32-.224.448-.64.704-.928.352-.384.896-.64 1.216-1.088.48-.64.96-1.312 1.376-1.984.448-.672.768-1.888 1.088-2.688.128-.288 0-.544.16-.768v-.448c-.544.128-.928.576-1.376.768h-.384c-.448.16-1.088.448-1.696.448-.16-.096-.832-.192-.992-.224.032-.64.512-.768.896-1.088.32-.352.64-.704.928-1.056.224-.16.416-.096.608-.256.192-.128.32-.32.544-.448v-.224c.448-.096.736-.48 1.088-.704.768-.448 1.952-.768 2.528-1.376h.064v-.16c-1.28.064-2.112.768-2.912 1.312-1.056.704-1.984 1.344-2.976 2.08zm-17.92 5.824c.096-.448.352-.512.672-.736.672-.416 1.632-.928 2.4-1.408v-.32c-1.088.192-2.016.864-3.296.864v-.224c.448-.352.832-.864 1.152-1.312.16-.128.32-.256.48-.384.064-.128.032-.288.128-.384h.16c.032-.096.064-.16.096-.224.096-.096.288-.064.384-.16.128-.16.192-.416.384-.544.128-.128.288-.128.448-.224.128-.192.256-.352.384-.544.096-.096.256-.064.384-.16.352-.256.64-.736.992-.992.224-.16.448-.224.704-.384.128-.096.256-.288.384-.384.224-.16.512-.16.768-.32.224-.128.448-.48.672-.608.16-.032.32-.032.48-.064.064-.032.16-.192.224-.224.32-.224.8-.224 1.088-.48.16.032.192.032.288.096-.096.544-1.312 1.248-1.6 1.664-.128.192-.096.448-.224.64-.192.128-.384.288-.544.448-.128.192-.032.384-.16.544-.128.096-.256.192-.384.288-.16.256-.096.512-.224.768-.16.128-.32.256-.48.384-.096.192-.032.416-.128.64-.096.16-.384.256-.48.448-.032.192-.032.352-.064.544-.128.256-.416.576-.544.832-.128.288-.064.48-.16.768-.224.64-.48 1.376-.672 2.08-.224.768.032 1.664-.16 1.984v.16c-.608-.096-1.536-1.28-1.76-1.44-.096-.128-1.344-1.376-1.792-1.632zm10.304-5.28c.288-.192.672-.192.928-.384h.672c.32.32.768.512.928.992.288.8-.16 2.144-.384 2.528-.192.384-.224.768-.448 1.152-.16.288-.576.512-.768.768-.8 1.088-1.44 1.664-2.528 2.464-.448.32-2.368 1.792-3.232 1.056-.096 0-.16-.032-.224-.064-.064-.224-.256-.512-.16-.832.032-.128.384-1.088.544-1.408.128-.32.736-1.184.768-1.28.416-.64 1.504-2.368 1.664-2.56.064 0 .352-.352.48-.512.192-.192 1.28-1.632 1.76-1.92zm6.976 2.816c-.032.864-.8.768-1.28 1.152-.288.224-.416.64-.704.864-.544.384-1.376.992-1.76 1.536-.224.32-.32.704-.608.928v.064h.064c.128.064.608-.032.768-.16.224 0 .384.032.544.096-.096.832-.8 1.12-1.152 1.664-.512-.064-.512-.576-.864-.832 0-1.056.768-1.856 1.312-2.624.448-.608.704-1.28 1.152-1.92.32-.448.896-.768 1.248-1.216.128-.192.16-.352.288-.544.096-.128.288-.16.384-.288.416.192.352.96.608 1.28zm-7.2 6.4c-.192.512-.192 1.088-.48 1.536-.128.192-.384.384-.512.608-.288.064-1.12.32-1.472.064-.896 0-1.568-.96-1.536-1.92 1.76-.192 2.272-.736 3.392-1.536.384-.288.8-.512 1.056-.928.192.032.256.032.384.096-.192.672-.576 1.376-.832 2.08zm-6.24 7.296c-.512.128-2.368.288-2.752.384-.192.032-1.536-.192-1.696-.256-.512-.128-.832-.032-1.312-.224-.224-.096-.896-.544-.896-.608-.032-.032-.288-.128-.32-.16-.416-.32-.928-.736-1.152-1.216 0-.096-.832-2.464-.384-3.68.128-.384.064-.704.224-1.024.096-.16.736-.928.928-1.056.224-.064.864-.352.928-.384h.544c.384-.096 1.312.032 1.76.288-.096.512-.512.544-.704.928h-.064c.16.384 1.728 1.12 2.144 1.536.064-.224.16-.448.224-.672.416-.672.768-1.536 1.152-2.24h.16c.064.192.064.448.064.704 0 1.44.096 1.792.736 2.72.128.192.512.48.704.608 1.536 1.024 3.776.704 4.8-.352h.16c-.032.928-.416 1.472-.48 2.304.768 0 1.024.256 1.472.544-.032.192-.032.256-.096.384-.832.192-1.824.48-2.592.704-.224 0-2.624.512-3.552.768zm6.624-4.48c.032-1.376.832-2.336 1.216-3.456.48.16.64.576 1.088.704-.064.544-1.664 2.4-2.08 2.752-.096.096 0 .032-.16.096v-.096zm4.064.64c.224.32.672.512.928.832.448.608 1.28 1.664 1.44 2.464-.064.064-.096.128-.128.224-.448.096-.896.192-1.312.32-.064.032-.256.192-.32.224h-.608c-.256.064-.736.16-.992.224h-.864c-1.888.448-5.728.416-7.68.32v-.096h-.064c.032-.16 0-.128.064-.224.224-.192.544-.096.864-.224.032-.064.032-.096.064-.16h.608c.224-.064.544-.32.768-.384h.48c.032-.064.032-.096.064-.16h.384c.064 0 .16-.192.224-.224.512-.224.992-.256 1.472-.448.544-.256 1.12-.704 1.76-.864-.192-.672-1.056-1.248-1.696-1.536.128-.608.736-.416 1.248-.608.384-.16 2.08-.608 2.304-.832.672.128.672.64.992 1.152z"/></g></svg>