<svg fill="none" height="54" viewBox="0 0 215 54" width="215" xmlns="http://www.w3.org/2000/svg"><g fill="#150703"><path d="m39.6888 24.2035c-.8684 0-1.5887-.0923-2.1609-.2768-.5619-.1845-1.0165-.3946-1.3639-.6304-.3372-.246-.5977-.4613-.7816-.6458-.1839-.1948-.327-.2922-.4291-.2922-.1328 0-.3168.1384-.5517.4152-.235.2665-.4751.5382-.7203.8149-.2452.2666-.4394.3998-.5824.3998-.3269 0-.47-.1794-.4291-.5382l.8735-5.6892c.0409-.3793.1942-.5689.4598-.5689.2146 0 .378.1742.4904.5228l.2759 1.6914c.1737 1.3223.6487 2.3167 1.4252 2.983.7867.656 1.7471.9841 2.8812.9841 1.175 0 2.1405-.3332 2.8965-.9995.7561-.6766 1.1954-1.5428 1.318-2.5986.1431-.9226-.0051-1.7837-.4444-2.5832-.4394-.8099-1.2976-1.6658-2.5747-2.5679-1.4712-1.0353-2.5083-2.0348-3.1111-2.9984-.5925-.9636-.8275-2.07067-.7049-3.32128.1021-1.0866.4751-2.10657 1.1187-3.0599.6539-.96359 1.553-1.74266 2.6973-2.33721 1.1545-.60481 2.5236-.90721 4.1072-.90721 1.3282 0 2.4317.22039 3.3103.66118.8889.43054 1.5479.99434 1.977 1.69141.4393.68681.6488 1.41975.6283 2.19882-.0204.49204-.1481.8867-.3831 1.18398-.2248.29728-.5313.44591-.9195.44591-.5722 0-.9604-.39978-1.1648-1.19935l-.2605-1.21474c-.235-1.05584-.6437-1.82466-1.226-2.30645-.5722-.49205-1.2976-.73807-2.1762-.73807-1.3691 0-2.4776.40491-3.3257 1.21473-.8377.80983-1.3128 1.77854-1.4252 2.90614-.1124 1.01484.0766 1.93742.567 2.76775.5007.83029 1.3895 1.72729 2.6666 2.69089 1.6143 1.1993 2.682 2.2962 3.2031 3.2905.5312.9841.7305 2.0451.5977 3.1829-.1022 1.1071-.4649 2.0707-1.0881 2.8908-.6131.8098-1.41 1.4351-2.3908 1.8759s-2.0741.6612-3.2797.6612z"/><path d="m52.5715 11.2258-1.2566-.1999c-.2146-.0717-.3219-.205-.3219-.3998 0-.2562.1788-.3844.5364-.3844h1.4866c.2963 0 .5619-.123.7969-.369l2.1609-2.3372c.1533-.19477.3474-.29215.5824-.29215s.3524.12301.3524.36903c0 .15376-.0459.39978-.1379.73806l-.567 1.92206h2.9578c.2452 0 .3678.1025.3678.3075 0 .3485-.2656.5228-.7969.5228h-2.7586l-2.636 8.9952c-.2861.9738-.3627 1.6196-.2299 1.9374.1431.3178.4394.4767.8889.4767.4189 0 .8276-.1179 1.2261-.3537.3984-.246.8224-.6407 1.272-1.184.1532-.1742.286-.2562.3984-.246.1839.0103.2452.1333.1839.3691-.1634.4818-.4802.9584-.9501 1.43-.47.4715-1.0473.8662-1.7318 1.1839-.6846.3076-1.4355.4613-2.2529.4613-.991 0-1.6245-.2921-1.9003-.8764-.2759-.5946-.235-1.5018.1226-2.7216l2.4367-8.2264c.1124-.3895.1533-.6612.1226-.8149-.0306-.1538-.1481-.2563-.3525-.3076z"/><path d="m67.4679 9.82658c1.7266.05125 3.0549.68682 3.9846 1.90662.9297 1.2199 1.2209 2.8908.8735 5.0127-.2349 1.4352-.7356 2.7165-1.5018 3.8441-.7663 1.1276-1.7216 2.0143-2.8659 2.6602-1.1443.6458-2.3959.9533-3.7547.9225-1.1137-.0205-2.0792-.2972-2.8965-.8303-.8174-.5433-1.4151-1.3172-1.7931-2.3218-.3678-1.0149-.4342-2.2398-.1993-3.675.2452-1.5069.7561-2.8344 1.5326-3.9825.7867-1.1481 1.7522-2.0348 2.8965-2.6601s2.3857-.91743 3.7241-.87642zm-3.2184 13.51582c.7152.0308 1.4151-.2921 2.0996-.9687.6948-.6868 1.3027-1.5991 1.8238-2.737.521-1.1378.8939-2.3782 1.1187-3.7211.3167-1.7529.2912-3.0496-.0766-3.8902s-.9502-1.2916-1.7471-1.3531c-.7254-.0615-1.4406.246-2.1456.9226-.6947.6765-1.3129 1.594-1.8544 2.7523-.5312 1.1584-.9093 2.4295-1.134 3.8134-.3168 1.7939-.281 3.0957.1072 3.9056.3985.7995 1.0013 1.225 1.8084 1.2762z"/><path d="m75.5391 13.6245c-.2452.2358-.4546.2717-.6283.1077-.1941-.1845-.138-.4254.1686-.7227.8786-.9636 1.839-1.717 2.8811-2.2603l.5671-1.98359c.0919-.28703.2963-.55868.613-.81495.3269-.25628.6692-.46642 1.0268-.63043.3576-.16402.6335-.24603.8276-.24603.5006 0 .6539.35366.4597 1.06097l-.475 1.70678c.5312-.0615 1.0778-.082 1.6398-.0615 1.8288.082 3.1928.72785 4.0919 1.93745.9093 1.2096 1.2311 2.86.9655 4.9512-.1942 1.5171-.6692 2.8497-1.4253 3.9978-.756 1.1379-1.6909 2.0195-2.8046 2.6448-1.1136.615-2.2988.8969-3.5555.8457-1.1238-.0308-2.0178-.3229-2.6819-.8765l-1.6092 5.7508c-.1021.369-.1277.6458-.0766.8303s.2452.3024.5824.3537l1.0881.1537c.2963.0513.4444.1743.4444.369 0 .2461-.1686.3691-.5057.3691l-6.0842.1384c-.2861.0102-.4291-.0923-.4291-.3076 0-.1742.1379-.3177.4137-.4305.5313-.123.8991-.2665 1.1035-.4305.2043-.164.3627-.4306.4751-.7996l5.042-17.4829c-.7356.4817-1.4406 1.0917-2.1149 1.8297zm3.6935 9.5949c1.2056.0513 2.3141-.4972 3.3256-1.6453 1.0217-1.1481 1.7113-2.86 2.0689-5.1357.2861-1.8964.1839-3.3264-.3065-4.29s-1.2209-1.4864-2.1915-1.5684c-.4598-.0307-.9196-.0154-1.3793.0461l-3.3103 11.8245c.47.4715 1.0676.7278 1.7931.7688z"/><path d="m111.847 17.73c.235.123.235.3947 0 .815-.889 1.8656-2.084 3.2751-3.586 4.2285-1.492.9533-3.182 1.43-5.073 1.43-1.573 0-2.932-.3844-4.0762-1.1532-1.1443-.7689-1.9668-1.9067-2.4674-3.4136s-.567-3.3623-.1992-5.5662c.2758-1.6504.7816-3.2035 1.5172-4.65909.7356-1.46588 1.6398-2.75237 2.7126-3.85947 1.083-1.1071 2.289-1.9733 3.617-2.5986 1.328-.63556 2.723-.95334 4.184-.95334.909 0 1.634.13326 2.176.39979.541.26652.95.53304 1.226.79957.286.26652.49.39978.613.39978.153 0 .332-.12813.536-.38441.215-.26652.424-.52792.629-.78419.214-.26653.388-.39979.521-.39979.276 0 .419.16402.429.49205v5.47399c0 .30753-.148.46641-.445.47666-.224.01026-.388-.13326-.49-.43053l-.398-1.30699c-.399-1.38388-.971-2.36797-1.717-2.95227-.736-.59455-1.64-.89183-2.713-.89183-1.072 0-2.079.2819-3.019.8457-.94.55355-1.798 1.32749-2.574 2.32183-.767.98409-1.42 2.13219-1.962 3.44431-.531 1.31213-.925 2.72163-1.18 4.22853-.3781 2.1527-.4138 3.8953-.107 5.2279.306 1.3327.858 2.3065 1.655 2.9216.797.6048 1.757.9072 2.881.9072 1.195 0 2.365-.3537 3.51-1.061 1.154-.7073 2.176-1.9118 3.065-3.6135.275-.3382.521-.4664.735-.3844z"/><path d="m115.098 12.825c-.153-.082-.148-.2768.016-.5843.449-.7381 1.016-1.3224 1.701-1.7529.684-.4306 1.4-.64585 2.145-.64585 1.032 0 1.548.47155 1.548 1.41465 0 .4818-.112 1.0456-.337 1.6914s-.47 1.348-.735 2.1065c.735-1.5786 1.588-2.8395 2.559-3.7825.97-.9534 1.936-1.43005 2.896-1.43005.664 0 1.16.20505 1.487.61505s.475.9328.444 1.5684c-.04.6971-.245 1.2455-.613 1.6453-.357.3998-.781.5996-1.272.5996-.337 0-.597-.082-.781-.246s-.276-.3741-.276-.6304c0-.205.025-.4049.077-.5997.061-.1948.091-.3895.091-.5843 0-.5023-.199-.7534-.597-.7534-.654 0-1.446.6202-2.376 1.8605-.929 1.2301-1.777 3.0702-2.544 5.5201-.204.6663-.368 1.2148-.49 1.6453-.113.4305-.169.815-.169 1.1532 0 .3383.092.5741.276.7073.194.1333.291.3281.291.5843 0 .2973-.255.5792-.766.8457-.511.2666-1.18.3998-2.008.3998-.602 0-.965-.1947-1.088-.5843-.112-.3998-.035-.9994.23-1.799l2.514-7.8727c.286-.8918.393-1.5018.321-1.8298-.061-.328-.235-.492-.521-.492-.184 0-.398.0717-.643.2152-.235.1435-.532.4152-.889.815-.205.1845-.368.2511-.491.1999z"/><path d="m136.494 14.7931c.685-1.7426 1.359-3.0086 2.023-3.7979s1.385-1.184 2.161-1.184c.398 0 .705.11276.92.3383.214.2152.321.5125.321.8918 0 .4613-.153.856-.459 1.184-.307.328-.741.6048-1.303.8303-.49.1435-.935.3537-1.333.6304-.399.2768-.787.7022-1.165 1.2763-.368.5638-.751 1.3582-1.15 2.3833l-3.294 8.3033c-.808 2.1424-1.783 3.6493-2.928 4.5206-1.144.8816-2.533 1.3224-4.168 1.3224-1.042 0-1.834-.1743-2.376-.5228-.541-.3485-.812-.7893-.812-1.3224 0-.3588.118-.6663.353-.9226.224-.2562.526-.3844.904-.3844.337 0 .633.1077.889.3229.255.2153.505.4613.751.7381.245.287.51.5382.797.7534.275.2153.607.3229.996.3229.643 0 1.216-.2306 1.716-.6919.511-.4613.915-1.0507 1.211-1.7683.296-.7073.449-1.4351.46-2.1834 0-.3896-.021-1.0097-.062-1.8606-.041-.8405-.097-1.7887-.168-2.8446-.062-1.0661-.128-2.1424-.199-3.229-.072-1.0866-.149-2.0758-.23-2.9677-.072-.8918-.133-1.5735-.184-2.045-.072-.8509-.291-1.2763-.659-1.2763-.174 0-.353.0718-.537.2153-.173.1333-.373.3793-.597.7381-.133.205-.271.2921-.414.2614-.184-.0615-.22-.2409-.107-.5382.337-.7791.802-1.3788 1.394-1.799.593-.4306 1.236-.64585 1.931-.64585 1.063 0 1.645.67655 1.747 2.02965.031.3998.067 1.0303.108 1.8913.04.8509.081 1.8247.122 2.9215.051 1.0866.097 2.1937.138 3.3213.051 1.1174.092 2.1476.123 3.0907z"/><path d="m147.736 7.21259c-.531 0-.935-.14351-1.211-.43054-.275-.28702-.393-.63555-.352-1.04559.02-.37928.143-.75344.368-1.12247.235-.37929.541-.69194.919-.93796.378-.25628.797-.38441 1.257-.38441.572 0 .986.14351 1.241.43053.266.28703.383.64069.353 1.06097-.031.61506-.286 1.17373-.767 1.67603-.48.50229-1.083.75344-1.808.75344zm-2.008 13.05451c-.296.8509-.403 1.4403-.321 1.7683.081.3178.26.4767.536.4767.184 0 .393-.0718.628-.2153s.521-.4049.859-.7842c.204-.205.367-.2768.49-.2152.163.0717.158.2767-.015.615-.399.6971-.93 1.2506-1.594 1.6607-.654.3997-1.39.5996-2.207.5996-1.706 0-2.176-1.0968-1.41-3.2905l2.452-6.9655c.317-.8816.439-1.4864.368-1.8144-.061-.3383-.24-.5074-.536-.5074-.184 0-.399.0717-.644.2152-.235.1435-.531.4152-.889.815-.204.1845-.368.2511-.49.1999-.154-.0718-.149-.2666.015-.5843.449-.7381 1.006-1.3224 1.67-1.7529.675-.4306 1.385-.64585 2.131-.64585.786 0 1.312.28705 1.578.86105.276.5638.215 1.4249-.184 2.5833z"/><path d="m151.573 12.825c-.164-.0718-.158-.2666.015-.5843.45-.7381 1.017-1.3224 1.701-1.7529.685-.4306 1.41-.64585 2.177-.64585 1.083 0 1.624.47155 1.624 1.41465 0 .4408-.122 1.0046-.368 1.6914-.235.6765-.516 1.43-.843 2.2603.736-1.3224 1.523-2.3731 2.361-3.1521.848-.7894 1.675-1.3532 2.482-1.6915.818-.3485 1.553-.52275 2.207-.52275 1.134 0 1.788.37415 1.962 1.12245.173.7483.046 1.7529-.383 3.0138l-2.085 6.2889c-.296.8816-.403 1.4813-.321 1.7991.081.3075.26.4613.536.4613.184 0 .393-.0718.628-.2153s.521-.41.858-.7996c.205-.1947.368-.2665.491-.2152.163.0717.158.2767-.015.615-.399.6971-.93 1.2506-1.594 1.6607-.654.3997-1.39.5996-2.207.5996-1.676 0-2.151-1.0917-1.425-3.2751l2.161-6.5042c.347-1.0251.459-1.7324.337-2.122-.113-.3998-.424-.5997-.935-.5997-.501 0-1.119.2461-1.855.7381-.735.4921-1.481 1.2557-2.237 2.2911-.746 1.0251-1.4 2.3577-1.962 3.9978-.327.9534-.546 1.6556-.659 2.1066-.112.4408-.168.7842-.168 1.0302 0 .2255.035.4101.107.5536.082.1435.123.3229.123.5381 0 .3691-.225.6715-.675.9073-.439.2255-1.037.3382-1.793.3382-.572 0-.914-.1794-1.027-.5381-.112-.3588-.035-.9226.23-1.6914l2.743-8.0265c.307-.8918.425-1.5018.353-1.8298-.061-.328-.235-.492-.521-.492-.194 0-.409.0717-.644.2152s-.531.4152-.889.815c-.204.1845-.367.2511-.49.1999z"/><path d="m177.73 23.6961c-.643 2.7165-1.834 4.7-3.57 5.9506-1.737 1.2609-3.857 1.8913-6.361 1.8913-1.042 0-1.818-.1589-2.329-.4766-.511-.3178-.766-.7227-.766-1.2148 0-.3383.122-.6253.368-.8611.245-.2357.582-.3536 1.011-.3536.48 0 .93.1486 1.349.4459s.832.5946 1.241.8918c.409.2973.843.4459 1.303.4459.878 0 1.711-.3382 2.498-1.0148.786-.6766 1.379-1.8247 1.778-3.4443l1.67-6.4888c-.817 1.5684-1.737 2.7472-2.759 3.5365-1.011.7791-2.063 1.1686-3.157 1.1686-.96 0-1.731-.3331-2.314-.9994-.572-.6663-.786-1.7427-.643-3.2291.122-1.3121.475-2.5729 1.057-3.7826.593-1.2096 1.369-2.291 2.329-3.2444.961-.9533 2.059-1.7016 3.295-2.2449 1.247-.5536 2.575-.83035 3.985-.83035 1.103 0 1.967.11276 2.59.33825.623.2153.93.4613.92.7381-.021.246-.128.4152-.322.5074-.194.082-.322.2512-.383.5074zm-7.662-3.9056c-.113 1.1686-.016 1.9579.291 2.3679.317.4101.679.6151 1.088.6151.613 0 1.252-.328 1.916-.9841.674-.6561 1.313-1.512 1.915-2.5679.603-1.0558 1.114-2.1988 1.533-3.4289.419-1.2404.684-2.4448.797-3.6134.143-.9944-.092-1.4915-.705-1.4915-.766 0-1.533.2562-2.299.7688-.756.5125-1.461 1.2045-2.115 2.0758-.654.8611-1.195 1.8349-1.624 2.9215-.43 1.0763-.695 2.1886-.797 3.3367z"/><path d="m41.1042 29.7475c1.7062.0308 3.1468.5331 4.3217 1.5069 1.1852.9636 1.9975 2.2962 2.4368 3.9979.4393 1.7016.3882 3.6698-.1533 5.9045-.5619 2.327-1.4814 4.3054-2.7585 5.9353-1.2772 1.6299-2.774 2.8651-4.4904 3.7057-1.7165.8406-3.5249 1.2403-5.4252 1.1993-1.7267-.0307-3.1928-.5279-4.3984-1.4915-1.1954-.9738-1.9974-2.3321-2.4061-4.0747-.3985-1.7427-.281-3.8031.3525-6.1813.4189-1.5376 1.037-2.9523 1.8544-4.2439.8173-1.2916 1.7828-2.409 2.8965-3.352 1.1136-.9431 2.3294-1.6658 3.6474-2.1681 1.318-.5126 2.6922-.7586 4.1226-.7381zm-5.7471 21.4808c1.1035.0308 2.1967-.2768 3.2797-.9226 1.0932-.656 2.1098-1.7375 3.0497-3.2444.9502-1.5069 1.7625-3.516 2.4368-6.0275.2656-1.0456.4597-1.9938.5823-2.8446.1329-.8509.1942-1.6146.184-2.2911 0-1.7632-.3883-3.0907-1.1648-3.9825-.7765-.9021-1.7318-1.3736-2.8658-1.4146-1.1443-.041-2.2835.3126-3.4176 1.0609-1.1239.7381-2.1507 1.8503-3.0804 3.3367-.9196 1.4864-1.6552 3.3367-2.2069 5.5509-.2759 1.1378-.4802 2.1527-.613 3.0445s-.1992 1.6812-.1992 2.368c-.0205 1.7939.3371 3.1316 1.0727 4.0132.7459.8816 1.7267 1.3326 2.9425 1.3531z"/><path d="m63.4324 40.142c0 1.5786-.2606 3.0752-.7816 4.4899-.5211 1.4146-1.2261 2.6754-2.1149 3.7825-.8787 1.0969-1.88 1.958-3.0038 2.5833-1.1239.6253-2.2886.9379-3.4942.9379-.8685 0-1.5428-.2152-2.023-.6458-.4802-.4408-.7152-1.1122-.7049-2.0143.0204-.9533.2503-1.8451.6896-2.6755.4495-.8405.9859-1.6196 1.6092-2.3372.6334-.7175 1.2413-1.3787 1.8237-1.9835.5926-.6151 1.0421-1.1738 1.3486-1.6761-.6436-.0205-1.2669-.1281-1.8697-.3229-.6028-.1947-1.18-.3844-1.7317-.5689-.5415-.1948-1.0473-.2973-1.5173-.3075-.4597-.0103-.8224.0922-1.0881.3075-.2554.2153-.3933.4767-.4138.7842-.0204.3485.2197.6304.7203.8457.6131.246.9093.5792.8889.9995-.0102.287-.1175.5125-.3218.6765-.1941.1538-.4342.2307-.7203.2307-.4496 0-.8225-.1845-1.1188-.5536-.286-.3793-.4086-.8918-.3678-1.5376.0613-.9943.4445-1.8298 1.1494-2.5064.705-.6868 1.5888-1.0302 2.6513-1.0302.6028 0 1.2465.0923 1.931.2768.6846.1845 1.2363.2768 1.6552.2768.3678 0 .613-.0872.7356-.2614.1226-.1845.2861-.2717.4904-.2614.235.0102.3321.2153.2912.615-.092.5536-.3116 1.2301-.659 2.0297-.3372.7996-.7101 1.6658-1.1188 2.5986-.4086.9226-.7662 1.8657-1.0727 2.8293-.2963.9636-.4445 1.8913-.4445 2.7831 0 1.3429.4496 2.0143 1.3487 2.0143.5517.0103 1.1443-.2153 1.7777-.6765.6335-.4613 1.2312-1.0713 1.7931-1.8298.5721-.7689 1.037-1.6248 1.3946-2.5679s.5415-1.8964.5517-2.86c.0205-.4715-.0255-.8355-.1379-1.0917-.1124-.2563-.2861-.4921-.5211-.7073-.5517-.4921-.8122-1.0098-.7816-1.5531.0103-.4407.1635-.82.4598-1.1378.3065-.3178.6794-.4767 1.1188-.4767.4904 0 .8735.205 1.1494.6151.286.41.4291 1.0456.4291 1.9067z"/><path d="m75.9796 47.1997c-.3985 1.3429-1.1749 2.4705-2.3295 3.3828-1.1443.9021-2.6257 1.3531-4.4443 1.3531-1.5939 0-2.7842-.4869-3.5709-1.4607-.7867-.9841-1.0932-2.3731-.9195-4.167.1124-1.1789.4036-2.2911.8736-3.3367.4802-1.0558 1.0881-1.9887 1.8237-2.7985.7458-.8098 1.5785-1.4454 2.498-1.9067.9196-.4613 1.8851-.6919 2.8965-.6919 1.1546 0 2.023.3485 2.6054 1.0456.5925.6868.9042 1.5018.9348 2.4448.0102.3076.1482.4511.4138.4306.2146 0 .3269.082.3372.246 0 .2153-.1993.3947-.5977.5382-.3065.1025-.8123.2819-1.5172.5381-.705.2461-1.4968.528-2.3755.8457-.8684.3178-1.7318.6305-2.59.938s-1.5938.5741-2.2069.7996c-.0102.0512-.0204.1076-.0306.1691-.1635 1.5479.0255 2.7216.567 3.5212.5518.7996 1.3538 1.1994 2.4061 1.1994.9196 0 1.7778-.2768 2.5747-.8304.8071-.5638 1.4406-1.389 1.9004-2.4756.1634-.2665.332-.3946.5057-.3844.2554.0103.3372.2102.2452.5997zm-3.6015-8.8414c-.5926 0-1.1902.2665-1.793.7996-.6028.5228-1.1443 1.2557-1.6245 2.1988s-.8276 2.0348-1.0422 3.2752c.5722-.2153 1.2158-.4562 1.931-.7227.7152-.2768 1.4151-.5433 2.0996-.7996.6846-.2563 1.2567-.4715 1.7165-.6458.1226-.4408.189-1.0046.1992-1.6914 0-.7073-.1379-1.2865-.4138-1.7375-.2656-.4511-.6232-.6766-1.0728-.6766z"/><path d="m78.9848 40.5879c-.1532-.082-.1481-.2768.0154-.5843.4495-.7381 1.0165-1.3224 1.7011-1.7529.6845-.4306 1.3997-.6458 2.1455-.6458 1.032 0 1.5479.4715 1.5479 1.4146 0 .4818-.1124 1.0456-.3371 1.6914-.2248.6458-.47 1.348-.7357 2.1065.7357-1.5786 1.5888-2.8395 2.5594-3.7825.9706-.9534 1.9361-1.43 2.8965-1.43.6641 0 1.1596.205 1.4866.615.3269.41.475.9328.4444 1.5684-.0409.6971-.2452 1.2455-.613 1.6453-.3576.3998-.7816.5997-1.272.5997-.3372 0-.5977-.0821-.7816-.2461s-.2759-.3741-.2759-.6304c0-.205.0256-.4049.0766-.5997.0613-.1947.092-.3895.092-.5843 0-.5023-.1992-.7534-.5977-.7534-.6539 0-1.4457.6202-2.3754 1.8605-.9298 1.2301-1.7778 3.0702-2.5441 5.5201-.2043.6663-.3678 1.2148-.4904 1.6453-.1124.4305-.1686.815-.1686 1.1532 0 .3383.092.5741.2759.7073.1941.1333.2912.3281.2912.5843 0 .2973-.2554.5792-.7663.8458-.5108.2665-1.1801.3997-2.0076.3997-.6028 0-.9655-.1947-1.0881-.5843-.1124-.3998-.0358-.9994.2298-1.799l2.5134-7.8727c.2861-.8918.3934-1.5018.3219-1.8298-.0613-.328-.235-.492-.5211-.492-.1839 0-.3985.0717-.6437.2152-.235.1435-.5313.4152-.8889.815-.2043.1845-.3678.2511-.4904.1999z"/><path d="m110.817 29.7475c1.706.0308 3.147.5331 4.322 1.5069 1.185.9636 1.997 2.2962 2.436 3.9979.44 1.7016.389 3.6698-.153 5.9045-.562 2.327-1.481 4.3054-2.758 5.9353s-2.774 2.8651-4.491 3.7057c-1.716.8406-3.525 1.2403-5.425 1.1993-1.727-.0307-3.193-.5279-4.398-1.4915-1.1957-.9738-1.9977-2.3321-2.4064-4.0747-.3985-1.7427-.281-3.8031.3525-6.1813.4189-1.5376 1.037-2.9523 1.8539-4.2439.818-1.2916 1.783-2.409 2.897-3.352 1.114-.9431 2.329-1.6658 3.647-2.1681 1.318-.5126 2.693-.7586 4.123-.7381zm-5.747 21.4808c1.103.0308 2.197-.2768 3.28-.9226 1.093-.656 2.109-1.7375 3.049-3.2444.951-1.5069 1.763-3.516 2.437-6.0275.266-1.0456.46-1.9938.582-2.8446.133-.8509.195-1.6146.184-2.2911 0-1.7632-.388-3.0907-1.164-3.9825-.777-.9021-1.732-1.3736-2.866-1.4146-1.145-.041-2.284.3126-3.418 1.0609-1.124.7381-2.15 1.8503-3.08 3.3367-.92 1.4864-1.655 3.3367-2.207 5.5509-.276 1.1378-.48 2.1527-.613 3.0445s-.199 1.6812-.199 2.368c-.021 1.7939.337 3.1316 1.072 4.0132.746.8816 1.727 1.3326 2.943 1.3531z"/><path d="m119.919 40.5879c-.163-.0718-.158-.2666.016-.5843.449-.7381 1.016-1.3224 1.701-1.7529.684-.4306 1.41-.6458 2.176-.6458 1.083 0 1.624.4715 1.624 1.4146 0 .4408-.122 1.0046-.367 1.6914-.235.6765-.516 1.43-.843 2.2603.735-1.3224 1.522-2.3731 2.36-3.1522.848-.7893 1.675-1.3531 2.483-1.6914.817-.3485 1.553-.5227 2.206-.5227 1.135 0 1.788.3741 1.962 1.1224s.046 1.7529-.383 3.0138l-2.084 6.2889c-.297.8816-.404 1.4813-.322 1.7991.082.3075.26.4613.536.4613.184 0 .394-.0718.629-.2153s.521-.41.858-.7996c.204-.1947.368-.2665.49-.2152.164.0717.159.2767-.015.615-.399.6971-.93 1.2506-1.594 1.6607-.654.3997-1.389.5996-2.207.5996-1.675 0-2.15-1.0917-1.425-3.2751l2.161-6.5042c.347-1.0251.46-1.7324.337-2.122-.112-.3998-.424-.5997-.935-.5997-.5 0-1.119.2461-1.854.7381-.736.4921-1.482 1.2557-2.238 2.2911-.746 1.0251-1.399 2.3577-1.961 3.9978-.327.9534-.547 1.6556-.659 2.1066-.113.4408-.169.7842-.169 1.0302 0 .2255.036.4101.107.5536.082.1435.123.3229.123.5381 0 .3691-.225.6715-.674.9073-.44.2255-1.037.3382-1.793.3382-.573 0-.915-.1794-1.027-.5381-.113-.3588-.036-.9226.23-1.6914l2.743-8.0265c.306-.8918.424-1.5018.352-1.8298-.061-.328-.235-.492-.521-.492-.194 0-.408.0717-.643.2152s-.532.4152-.889.815c-.205.1845-.368.2511-.491.1999z"/><path d="m141.375 34.9755c-.531 0-.934-.1435-1.21-.4305-.276-.2871-.394-.6356-.353-1.0456.021-.3793.143-.7535.368-1.1225.235-.3793.542-.692.92-.938.378-.2562.796-.3844 1.256-.3844.572 0 .986.1435 1.242.4306.265.287.383.6406.352 1.0609-.031.6151-.286 1.1738-.766 1.6761-.48.5022-1.083.7534-1.809.7534zm-2.007 13.0545c-.297.8509-.404 1.4403-.322 1.7683.082.3178.261.4767.536.4767.184 0 .394-.0718.629-.2153s.521-.4049.858-.7842c.204-.205.368-.2768.49-.2152.164.0717.159.2767-.015.615-.398.6971-.93 1.2506-1.594 1.6607-.654.3997-1.389.5996-2.207.5996-1.706 0-2.176-1.0968-1.41-3.2905l2.452-6.9655c.317-.8816.44-1.4864.368-1.8144-.061-.3383-.24-.5074-.536-.5074-.184 0-.399.0717-.644.2152-.235.1435-.531.4152-.889.815-.204.1845-.368.2511-.49.1999-.153-.0718-.148-.2666.015-.5843.45-.7381 1.007-1.3224 1.671-1.7529.674-.4306 1.384-.6458 2.13-.6458.787 0 1.313.287 1.578.861.276.5638.215 1.4249-.183 2.5833z"/><path d="m152.461 37.5895c1.727.0512 3.055.6868 3.985 1.9066.93 1.2199 1.221 2.8908.873 5.0127-.235 1.4352-.735 2.7165-1.501 3.8441-.767 1.1276-1.722 2.0143-2.866 2.6602-1.145.6458-2.396.9533-3.755.9225-1.114-.0205-2.079-.2972-2.897-.8303-.817-.5433-1.415-1.3172-1.793-2.3218-.367-1.0149-.434-2.2398-.199-3.675.245-1.5069.756-2.8344 1.533-3.9825.786-1.1481 1.752-2.0348 2.896-2.6601s2.386-.9174 3.724-.8764zm-3.218 13.5158c.715.0308 1.415-.2921 2.099-.9687.695-.6868 1.303-1.5991 1.824-2.737.521-1.1378.894-2.3782 1.119-3.7211.317-1.7529.291-3.0496-.077-3.8902-.367-.8406-.95-1.2916-1.747-1.3531-.725-.0615-1.44.246-2.145.9226-.695.6765-1.313 1.594-1.855 2.7523-.531 1.1584-.909 2.4295-1.134 3.8134-.317 1.7939-.281 3.0958.107 3.9056.399.7995 1.002 1.225 1.809 1.2762z"/><path d="m160.119 40.5879c-.164-.0718-.159-.2666.015-.5843.45-.7381 1.017-1.3224 1.701-1.7529.685-.4306 1.41-.6458 2.176-.6458 1.083 0 1.625.4715 1.625 1.4146 0 .4408-.123 1.0046-.368 1.6914-.235.6765-.516 1.43-.843 2.2603.736-1.3224 1.522-2.3731 2.36-3.1522.848-.7893 1.676-1.3531 2.483-1.6914.817-.3485 1.553-.5227 2.207-.5227 1.134 0 1.788.3741 1.961 1.1224.174.7483.046 1.7529-.383 3.0138l-2.084 6.2889c-.296.8816-.403 1.4813-.322 1.7991.082.3075.261.4613.537.4613.184 0 .393-.0718.628-.2153s.521-.41.858-.7996c.205-.1947.368-.2665.491-.2152.163.0717.158.2767-.016.615-.398.6971-.929 1.2506-1.594 1.6607-.653.3997-1.389.5996-2.206.5996-1.676 0-2.151-1.0917-1.426-3.2751l2.161-6.5042c.348-1.0251.46-1.7324.337-2.122-.112-.3998-.424-.5997-.934-.5997-.501 0-1.119.2461-1.855.7381-.735.4921-1.481 1.2557-2.237 2.2911-.746 1.0251-1.4 2.3577-1.962 3.9978-.327.9534-.547 1.6556-.659 2.1066-.112.4408-.169.7842-.169 1.0302 0 .2255.036.4101.108.5536.081.1435.122.3229.122.5381 0 .3691-.224.6715-.674.9073-.439.2255-1.037.3382-1.793.3382-.572 0-.915-.1794-1.027-.5381-.112-.3588-.036-.9226.23-1.6914l2.743-8.0265c.307-.8918.424-1.5018.353-1.8298-.062-.328-.235-.492-.521-.492-.194 0-.409.0717-.644.2152s-.531.4152-.889.815c-.204.1845-.368.2511-.49.1999z"/><path d="m179.92 51.1976c.674 0 1.231-.1897 1.67-.569.439-.3792.659-.8662.659-1.4607 0-.4613-.158-.9226-.475-1.3839-.306-.4715-.925-1.102-1.854-1.8913-1.032-.8508-1.747-1.5632-2.146-2.1373-.398-.574-.593-1.2404-.582-1.9989.02-.7483.26-1.4403.72-2.0758.46-.6356 1.103-1.143 1.931-1.5223.838-.3895 1.824-.5843 2.958-.5843 1.369 0 2.406.2665 3.111.7996.715.5228 1.078 1.1224 1.088 1.799 0 .369-.087.6561-.261.8611-.173.205-.408.3075-.705.3075-.296 0-.551-.0974-.766-.2921-.214-.2051-.419-.569-.613-1.0918-.48-1.1173-1.205-1.676-2.176-1.676-.746 0-1.354.2153-1.824.6458-.47.4306-.705.979-.705 1.6453 0 .3485.062.6868.184 1.0148.123.3178.363.6817.72 1.0918.358.3997.884.8969 1.579 1.4915 1.042.8713 1.742 1.5837 2.1 2.1373.367.5535.536 1.1788.505 1.8759-.041 1.0968-.556 1.9989-1.548 2.7062-.991.6971-2.288 1.0456-3.892 1.0456-1.441 0-2.554-.3075-3.341-.9225-.787-.6254-1.175-1.3122-1.165-2.0605 0-.328.077-.5945.23-.7996.163-.2152.388-.3229.674-.3229.317 0 .588.1128.813.3383.224.2153.439.5792.643 1.0917.327.7074.695 1.2097 1.104 1.5069.408.2871.863.4306 1.364.4306z"/></g></svg>