<svg fill="none" height="54" viewBox="0 0 215 54" width="215" xmlns="http://www.w3.org/2000/svg"><g fill="#150703"><path d="m62.7761 21.6876-1.8305-.2691c-1.4466-.299-1.4171-.3588.3543-7.5647.8857-3.618 1.3581-5.56147 1.6533-6.75748 3.9561 0 4.1333.0299 4.0742 1.58471l-.1476 4.63457h1.3286c.4133-2.6612.8562-5.29237 1.299-7.92359h-15.0274c-.8562 2.63122-1.6533 5.23249-2.48 7.86379l1.299.0598 2.1257-4.66447c.6791-1.52491.8857-1.55481 4.9009-1.55481-.2952 1.25581-.8266 3.37868-1.86 7.59468-1.5647 6.3687-1.6238 6.4285-3.0704 6.6976l-2.0962.299-.4133 1.6445h9.477z"/><path d="m78.4641 23.6311c1.2695 0 2.4209-1.2857 4.1037-3.588l-.8857-.9867c-.9742 1.3156-1.4466 1.8538-1.978 1.8538-.62 0-.8857-.6279-.8857-1.5847 0-2.0332 1.7714-8.0432 2.598-10.67437-8.8865.0598-13.256 5.32227-13.256 10.61457 0 2.8704 1.3286 4.3953 2.7162 4.3953 1.5352 0 3.5723-2.6312 6.7903-8.8504l.5019.1196c-.7085 2.2425-1.4466 4.784-1.4466 5.98 0 1.4352.7381 2.7209 1.7419 2.7209zm-7.0856-2.691c-.8857 0-1.4172-.5681-1.4172-1.7342 0-2.9003 2.8638-7.2657 8.8275-8.0133-3.779 7.1761-6.0523 9.7475-7.4103 9.7475z"/><path d="m88.8081 20.9401c-.5609 0-1.24-.1794-1.978-.4784 2.3028-6.4883 4.7532-9.1495 6.1704-9.1495.8266 0 1.2695.7177 1.2695 1.5848 0 3.4983-1.8895 8.0431-5.4619 8.0431zm.62 2.691c3.8381 0 7.0857-6.1594 7.0857-12.0797 0-1.4053-1.3581-2.93017-2.6867-2.93017-1.9781 0-3.8971 2.93017-6.377 8.70097l-.5315-.1495c.7381-2.3621 1.4172-4.7242 1.4172-5.7409 0-1.52486-.8562-2.84047-1.7715-2.84047-1.2695 0-2.4209 1.28571-4.0742 3.61797l.8562.9867c.9743-1.3456 1.4762-1.8838 1.9781-1.8838s.7085.5382.7085 1.2858c0 1.794-2.0666 8.9401-4.2218 15.7274h2.7752c.5609-2.5116 1.1809-4.6943 1.8009-6.6079.9152 1.1661 2.0371 1.9136 3.0409 1.9136z"/><path d="m103.117 20.9401c-.561 0-1.24-.1794-1.978-.4784 2.302-6.4883 4.753-9.1495 6.17-9.1495.827 0 1.269.7177 1.269 1.5848 0 3.4983-1.889 8.0431-5.461 8.0431zm.62 2.691c3.838 0 7.085-6.1594 7.085-12.0797 0-1.4053-1.358-2.93017-2.686-2.93017-1.978 0-3.897 2.93017-6.377 8.70097l-.532-.1495c.738-2.3621 1.417-4.7242 1.417-5.7409 0-1.52486-.856-2.84047-1.771-2.84047-1.2697 0-2.4211 1.28571-4.0744 3.61797l.8562.9867c.9743-1.3456 1.4762-1.8838 1.9781-1.8838.5021 0 .7081.5382.7081 1.2858 0 1.794-2.0662 8.9401-4.2214 15.7274h2.7752c.5609-2.5116 1.1812-4.6943 1.8012-6.6079.915 1.1661 2.037 1.9136 3.041 1.9136z"/><path d="m118.724 11.073c1.417 0 2.008.5681 2.008 1.0765 0 .897-2.096 2.093-6.82 3.1694.886-2.392 2.834-4.2459 4.812-4.2459zm-2.686 12.5581c2.361 0 4.458-2.2126 5.845-4.5747l-.826-1.0764c-1.3 1.7641-3.219 3.0797-4.99 3.0797-1.181 0-2.687-.9568-2.687-2.9302 0-.6877.089-1.3455.266-2.0033 6.2-.9867 9.093-2.3621 9.093-4.3356 0-1.4053-1.358-3.19927-3.72-3.19927-3.631 0-7.499 4.39537-7.499 9.02987 0 3.887 1.949 6.0099 4.518 6.0099z"/><path d="m134.397 8.62123c-2.834 0-3.749 1.49497-6.82 8.70097l-.472-.1495c.709-2.3322 1.417-4.6644 1.417-5.7409 0-1.52486-.856-2.84047-1.771-2.84047-1.27 0-2.421 1.28571-4.074 3.61797l.856.9867c.974-1.3456 1.476-1.8838 1.978-1.8838s.708.5383.708 1.3157c0 1.4053-1.653 6.9966-3.011 10.7042h2.628c3.69-10.1361 4.369-11.1826 8.148-11.0929z"/><path d="m141.315 11.073c1.417 0 2.008.5681 2.008 1.0765 0 .897-2.096 2.093-6.82 3.1694.886-2.392 2.834-4.2459 4.812-4.2459zm-2.686 12.5581c2.362 0 4.458-2.2126 5.845-4.5747l-.826-1.0764c-1.299 1.7641-3.218 3.0797-4.99 3.0797-1.181 0-2.686-.9568-2.686-2.9302 0-.6877.088-1.3455.265-2.0033 6.2-.9867 9.094-2.3621 9.094-4.3356 0-1.4053-1.359-3.19927-3.72-3.19927-3.632 0-7.499 4.39537-7.499 9.02987 0 3.887 1.948 6.0099 4.517 6.0099z"/><path d="m154.154 20.9102c0 1.4352.738 2.7209 1.742 2.7209 1.27 0 2.421-1.2857 4.104-3.588l-.886-.9867c-.974 1.3156-1.446 1.8538-1.978 1.8538-.62 0-.885-.6279-.885-1.5847 0-1.794 1.269-5.8604 2.42-10.07636.561-2.12292.886-3.58803.886-4.57473 0-.83721-.767-1.67441-1.624-1.67441-1.033 0-2.391.5382-3.661 1.16611l.325 1.1362c.945-.3887 1.919-.5681 2.274-.5681.324 0 .649.2093.649.5382 0 .62791-.177 2.03321-.502 3.64782-7.587.65781-11.425 5.38207-11.425 10.34547 0 2.8704 1.328 4.3953 2.716 4.3953 1.535 0 3.572-2.6312 6.79-8.8504l.502.1196c-.709 2.2425-1.447 4.784-1.447 5.98zm-5.343.0299c-.886 0-1.418-.5681-1.418-1.7342 0-2.9003 2.864-7.2657 8.828-8.0133-3.779 7.1462-6.052 9.7475-7.41 9.7475z"/><path d="m89.7934 48.3057c2.7456 0 5.2256-1.1661 6.7018-2.3322.8562-4.9336 1.1219-5.3821 1.919-5.4718l1.4467-.1794.2661-1.3156c-2.5099.0897-5.4328.0897-9.7727 0l-.1771 1.3156 3.6313.2093c1.5648.1196 1.6534.4784 1.6534 1.4053 0 2.123-.62 3.7974-3.7495 3.7974-3.8381 0-6.7314-1.5548-6.7314-3.7675 0-5.1428 4.0447-9.6278 9.6247-9.6278 3.1295 0 3.5133.4485 3.1885 2.7209l-.2067 1.7043h1.4172l1.5053-5.8006c-1.151-.7475-3.1586-1.196-5.8453-1.196-6.8494 0-11.4551 5.681-11.4551 11.3321 0 4.5449 2.7457 7.206 6.5838 7.206z"/><path d="m111.868 33.2958c-2.834 0-3.75 1.495-6.82 8.7009l-.472-.1495c.708-2.3322 1.417-4.6644 1.417-5.7408 0-1.5249-.856-2.8405-1.772-2.8405-1.269 0-2.421 1.2857-4.074 3.6179l.856.9867c.975-1.3455 1.476-1.8837 1.978-1.8837s.709.5382.709 1.3156c0 1.4053-1.653 6.9967-3.011 10.7043h2.627c3.691-10.1362 4.37-11.1827 8.149-11.093z"/><path d="m117.339 30.8739c1.27 0 2.096-.6578 2.096-2.0332 0-.9867-.59-1.4651-1.446-1.4651-1.27 0-2.067.6279-2.067 1.9435 0 1.0465.561 1.5548 1.417 1.5548zm-2.568 6.0099c0 1.4352-2.716 6.0996-2.716 8.8505 0 1.3156.944 2.5714 2.184 2.5714 1.27 0 2.421-1.2857 4.074-3.588l-.856-.9868c-.974 1.3157-1.476 1.8539-1.978 1.8539-.62 0-.885-.5681-.885-1.4053 0-2.0931 2.42-6.7874 2.42-8.4319 0-1.3156-.856-2.4817-1.771-2.4817-1.269 0-2.421 1.2857-4.074 3.6179l.856.9867c1.004-1.3455 1.476-1.8837 1.978-1.8837.472 0 .768.3588.768.897z"/><path d="m124.674 45.6147c-.561 0-1.24-.1794-1.978-.4784 2.303-6.4884 4.753-9.1495 6.17-9.1495.827 0 1.27.7176 1.27 1.5847 0 3.4983-1.89 8.0432-5.462 8.0432zm.62 2.691c3.838 0 7.086-6.1595 7.086-12.0797 0-1.4053-1.359-2.9302-2.687-2.9302-1.978 0-3.897 2.9302-6.377 8.7009l-.532-.1495c.739-2.3621 1.418-4.7242 1.418-5.7408 0-1.5249-.857-2.8405-1.772-2.8405-1.269 0-2.421 1.2857-4.074 3.6179l.856.9867c.974-1.3455 1.476-1.8837 1.978-1.8837s.709.5382.709 1.2857c0 1.794-2.067 8.9402-4.222 15.7275h2.775c.561-2.5116 1.181-4.6943 1.801-6.6079.915 1.1661 2.037 1.9136 3.041 1.9136z"/></g></svg>