<svg width="55" height="24" viewBox="0 0 55 24" fill="none" xmlns="http://www.w3.org/2000/svg">
    <path d="M10.1974 5.79614H12.0269V10.9893H12.7315V5.79614H14.561V5.17114H10.1974V5.79614Z" fill="black"/>
    <path d="M15.7479 8.36432C15.7479 7.60295 16.2337 7.17114 16.8957 7.17114C17.5263 7.17114 17.907 7.56886 17.907 8.26205V10.9893H18.5775V8.21659C18.5775 7.09443 17.9809 6.56886 17.0888 6.56886C16.4013 6.56886 16.0093 6.8558 15.8047 7.3075H15.7479V5.17114H15.0775V10.9893H15.7479V8.36432Z" fill="black"/>
    <path d="M20.6081 11.0916C21.3695 11.0916 21.7672 10.6825 21.9036 10.3984H21.9377V10.9893H22.6081V8.11432C22.6081 6.72795 21.5513 6.56886 20.9945 6.56886C20.3354 6.56886 19.5854 6.79614 19.2445 7.59159L19.8809 7.81886C20.0286 7.50068 20.378 7.15977 21.0172 7.15977C21.6337 7.15977 21.9377 7.48648 21.9377 8.04614V8.06886C21.9377 8.39273 21.6081 8.36432 20.8127 8.46659C20.003 8.5717 19.1195 8.75068 19.1195 9.75068C19.1195 10.603 19.7786 11.0916 20.6081 11.0916ZM20.7104 10.4893C20.1763 10.4893 19.7899 10.2507 19.7899 9.78477C19.7899 9.27341 20.2559 9.11432 20.7786 9.04614C21.0627 9.01205 21.824 8.9325 21.9377 8.79614V9.40977C21.9377 9.95523 21.5059 10.4893 20.7104 10.4893Z" fill="black"/>
    <path d="M24.0223 8.36432C24.0223 7.60295 24.4939 7.17114 25.1359 7.17114C25.7581 7.17114 26.1359 7.57739 26.1359 8.26205V10.9893H26.8064V8.21659C26.8064 7.10295 26.2126 6.56886 25.3291 6.56886C24.67 6.56886 24.2609 6.86432 24.0564 7.3075H23.9996V6.62568H23.3518V10.9893H24.0223V8.36432Z" fill="black"/>
    <path d="M27.5515 10.9893H28.222V9.3558L28.6907 8.92114L30.3243 10.9893H31.1765L29.1964 8.48932L31.0402 6.62568H30.2106L28.3015 8.56886H28.222V5.17114H27.5515V10.9893Z" fill="black"/>
    <path d="M34.514 7.60295C34.3038 6.98364 33.8322 6.56886 32.9686 6.56886C32.0481 6.56886 31.3663 7.09159 31.3663 7.83023C31.3663 8.4325 31.7242 8.83591 32.5254 9.02341L33.2526 9.19386C33.693 9.29614 33.9004 9.50636 33.9004 9.8075C33.9004 10.1825 33.5026 10.4893 32.8776 10.4893C32.3293 10.4893 31.9856 10.2535 31.8663 9.78477L31.2299 9.94386C31.3862 10.6853 31.997 11.0802 32.889 11.0802C33.9032 11.0802 34.5936 10.5263 34.5936 9.77341C34.5936 9.16545 34.2129 8.78193 33.4345 8.59159L32.7867 8.4325C32.2697 8.30466 32.0367 8.13136 32.0367 7.79614C32.0367 7.42114 32.4345 7.14841 32.9686 7.14841C33.5538 7.14841 33.7953 7.47227 33.9117 7.77341L34.514 7.60295Z" fill="black"/>
    <path d="M38.836 6.62568H37.8587V6.1825C37.8587 5.75068 38.0405 5.52341 38.4837 5.52341C38.6769 5.52341 38.7905 5.56886 38.8587 5.59159L39.0519 5.01205C38.9496 4.96659 38.7451 4.89841 38.4155 4.89841C37.7905 4.89841 37.1882 5.27341 37.1882 6.02341V6.62568H36.4837V7.19386H37.1882V10.9893H37.8587V7.19386H38.836V6.62568Z" fill="black"/>
    <path d="M40.8886 11.0802C42.0705 11.0802 42.8659 10.1825 42.8659 8.83023C42.8659 7.46659 42.0705 6.56886 40.8886 6.56886C39.7068 6.56886 38.9114 7.46659 38.9114 8.83023C38.9114 10.1825 39.7068 11.0802 40.8886 11.0802ZM40.8886 10.478C39.9909 10.478 39.5818 9.70523 39.5818 8.83023C39.5818 7.95523 39.9909 7.17114 40.8886 7.17114C41.7864 7.17114 42.1955 7.95523 42.1955 8.83023C42.1955 9.70523 41.7864 10.478 40.8886 10.478Z" fill="black"/>
    <path d="M43.4093 10.9893H44.0798V8.22795C44.0798 7.63705 44.5457 7.20523 45.1821 7.20523C45.3611 7.20523 45.5457 7.23932 45.5912 7.25068V6.56886C45.5145 6.56318 45.3383 6.5575 45.2389 6.5575C44.7162 6.5575 44.2616 6.85295 44.1025 7.28477H44.0571V6.62568H43.4093V10.9893Z" fill="black"/>
    <path d="M16.5437 13.1711H15.8051L17.9415 18.9893H18.6687L20.8051 13.1711H20.0665L18.3392 18.0689H18.271L16.5437 13.1711Z" fill="black"/>
    <path d="M21.1404 18.9893H21.8109V14.6257H21.1404V18.9893ZM21.4814 13.8984C21.7427 13.8984 21.9586 13.6939 21.9586 13.4439C21.9586 13.1939 21.7427 12.9893 21.4814 12.9893C21.22 12.9893 21.0041 13.1939 21.0041 13.4439C21.0041 13.6939 21.22 13.8984 21.4814 13.8984Z" fill="black"/>
    <path d="M25.6498 15.603C25.4396 14.9836 24.968 14.5689 24.1043 14.5689C23.1839 14.5689 22.5021 15.0916 22.5021 15.8302C22.5021 16.4325 22.86 16.8359 23.6612 17.0234L24.3884 17.1939C24.8288 17.2961 25.0362 17.5064 25.0362 17.8075C25.0362 18.1825 24.6384 18.4893 24.0134 18.4893C23.4651 18.4893 23.1214 18.2535 23.0021 17.7848L22.3657 17.9439C22.5219 18.6853 23.1327 19.0802 24.0248 19.0802C25.039 19.0802 25.7293 18.5262 25.7293 17.7734C25.7293 17.1655 25.3487 16.7819 24.5702 16.5916L23.9225 16.4325C23.4055 16.3047 23.1725 16.1314 23.1725 15.7961C23.1725 15.4211 23.5702 15.1484 24.1043 15.1484C24.6896 15.1484 24.931 15.4723 25.0475 15.7734L25.6498 15.603Z" fill="black"/>
    <path d="M26.2586 18.9893H26.929V14.6257H26.2586V18.9893ZM26.5995 13.8984C26.8608 13.8984 27.0767 13.6939 27.0767 13.4439C27.0767 13.1939 26.8608 12.9893 26.5995 12.9893C26.3381 12.9893 26.1222 13.1939 26.1222 13.4439C26.1222 13.6939 26.3381 13.8984 26.5995 13.8984Z" fill="black"/>
    <path d="M29.5747 14.6257H28.6429V13.5802H27.9725V14.6257H27.3134V15.1939H27.9725V17.9211C27.9725 18.6825 28.5861 19.0461 29.1543 19.0461C29.4043 19.0461 29.5634 19.0007 29.6543 18.9666L29.5179 18.3643C29.4611 18.3757 29.3702 18.3984 29.2225 18.3984C28.927 18.3984 28.6429 18.3075 28.6429 17.7393V15.1939H29.5747V14.6257Z" fill="black"/>
    <path d="M30.1033 18.9893H30.7737V14.6257H30.1033V18.9893ZM30.4442 13.8984C30.7055 13.8984 30.9214 13.6939 30.9214 13.4439C30.9214 13.1939 30.7055 12.9893 30.4442 12.9893C30.1828 12.9893 29.9669 13.1939 29.9669 13.4439C29.9669 13.6939 30.1828 13.8984 30.4442 13.8984Z" fill="black"/>
    <path d="M32.1921 16.3643C32.1921 15.603 32.6637 15.1711 33.3058 15.1711C33.9279 15.1711 34.3058 15.5774 34.3058 16.262V18.9893H34.9762V16.2166C34.9762 15.103 34.3825 14.5689 33.499 14.5689C32.8399 14.5689 32.4308 14.8643 32.2262 15.3075H32.1694V14.6257H31.5217V18.9893H32.1921V16.3643Z" fill="black"/>
    <path d="M37.4827 20.7166C38.5282 20.7166 39.3691 20.2393 39.3691 19.1143V14.6257H38.7214V15.3189H38.6532C38.5055 15.0916 38.2327 14.5689 37.3805 14.5689C36.2782 14.5689 35.5168 15.4439 35.5168 16.7848C35.5168 18.1484 36.3123 18.9211 37.3691 18.9211C38.2214 18.9211 38.4941 18.4211 38.6418 18.1825H38.6987V19.0689C38.6987 19.7961 38.1873 20.1257 37.4827 20.1257C36.6901 20.1257 36.4117 19.7081 36.2327 19.4666L35.6987 19.8416C35.9714 20.299 36.5083 20.7166 37.4827 20.7166ZM37.46 18.3189C36.6191 18.3189 36.1873 17.6825 36.1873 16.7734C36.1873 15.887 36.6077 15.1711 37.46 15.1711C38.2782 15.1711 38.71 15.8302 38.71 16.7734C38.71 17.7393 38.2668 18.3189 37.46 18.3189Z" fill="black"/>
    <path d="M54.7493 11.6744C54.7493 13.2009 54.0216 14.6766 52.6611 16.0421C51.2996 17.4086 49.317 18.6508 46.8471 19.6993C41.9084 21.7959 35.0682 23.0987 27.4996 23.0987C19.9311 23.0987 13.0909 21.7959 8.15215 19.6993C5.6823 18.6508 3.69965 17.4086 2.33816 16.0421C0.977675 14.6766 0.25 13.2009 0.25 11.6744C0.25 10.1479 0.977675 8.67214 2.33816 7.30663C3.69965 5.9401 5.6823 4.69799 8.15215 3.64947C13.0909 1.55283 19.9311 0.25 27.4996 0.25C35.0682 0.25 41.9084 1.55283 46.8471 3.64947C49.317 4.69799 51.2996 5.9401 52.6611 7.30663C54.0216 8.67214 54.7493 10.1479 54.7493 11.6744Z" stroke="#150703" stroke-width="0.5"/>
</svg>
