<svg fill="none" height="49" viewBox="0 0 215 49" width="215" xmlns="http://www.w3.org/2000/svg"><g fill="#150703"><path d="m48.2695 16.2831v10.3081c0 1.2109.2271 2.2175.6812 3.0198.6736 1.2109 1.8088 1.8164 3.4057 1.8164 1.9148 0 3.2166-.6547 3.9053-1.964.3709-.7114.5563-1.6688.5563-2.8722v-10.3081h2.2932v9.3658c0 2.0511-.2762 3.6291-.8287 4.734-1.0142 2.0132-2.929 3.0198-5.7444 3.0198s-4.7265-1.0066-5.733-3.0198c-.5525-1.1049-.8288-2.6829-.8288-4.734v-9.3658z"/><path d="m70.3729 23.9233c1.0596 0 1.8959-.2119 2.5089-.6357.6206-.4238.9309-1.1882.9309-2.2932 0-1.1882-.4314-1.9981-1.2941-2.4295-.4617-.227-1.0785-.3405-1.8505-.3405h-5.5173v5.6989zm-7.4813-7.6402h7.7197c1.2715 0 2.3197.1854 3.1447.5563 1.5666.7114 2.35 2.0245 2.35 3.9393 0 .999-.2082 1.8164-.6244 2.4521-.4087.6358-.9839 1.1466-1.7256 1.5326.6509.2649 1.139.6131 1.4645 1.0445.333.4314.5184 1.1314.5562 2.1002l.0795 2.2364c.0227.6358.0757 1.1088.1589 1.4191.1363.5298.3785.8704.7266 1.0217v.3747h-2.77c-.0757-.1438-.1363-.3293-.1817-.5563-.0454-.2271-.0832-.666-.1135-1.3169l-.1362-2.7814c-.053-1.0898-.4579-1.8202-1.2147-2.191-.4314-.2044-1.1088-.3065-2.0321-.3065h-5.1427v7.1521h-2.2592z"/><path d="m79.4209 16.2831h2.2592v14.6902h8.4462v1.9867h-10.7054z"/><path d="m109.585 27.182c0-1.62-.648-3.132-1.971-4.509-1.026-1.107-2.214-1.674-3.591-1.674-1.62 0-2.97.729-4.0772 2.187-.999 1.323-1.512 2.619-1.512 3.915s.513 2.592 1.512 3.915c1.1072 1.458 2.4572 2.187 4.0772 2.187 1.566 0 2.916-.729 4.05-2.187.999-1.323 1.512-2.592 1.512-3.834zm-8.802 0c0-1.431.189-2.619.567-3.591.54-1.377 1.404-2.079 2.619-2.079s2.106.675 2.673 2.025c.405.999.594 2.187.594 3.564 0 1.431-.216 2.619-.594 3.564-.567 1.35-1.431 2.025-2.646 2.025-1.161 0-2.025-.675-2.592-1.998-.405-.945-.594-2.106-.594-3.483z"/><path d="m115.509 24.725v-3.51c-1.458.27-2.781.405-3.942.405h-.783l-.027.513.648.027c.351.027.648.054.891.081s.432.081.567.162c.432.216.648.648.648 1.296v6.804c0 .783-.054 1.269-.189 1.458-.189.351-.405.513-.675.513h-1.647v.486l3.483-.054 3.564.054v-.54h-1.809c-.378 0-.621-.216-.729-.675-.027-.081-.027-.216-.027-.405v-3.429c0-1.161.243-2.376.675-3.645.594-1.674 1.323-2.511 2.268-2.511.135 0 .297.054.513.162.216.135.324.243.324.324 0 .054-.162.216-.486.513-.351.297-.513.756-.513 1.377 0 .351.135.648.378.891.27.243.567.351.891.351.459 0 .81-.189 1.053-.567s.351-.783.351-1.188c0-.702-.243-1.269-.702-1.701-.459-.405-1.053-.594-1.782-.594-.567 0-1.08.216-1.539.675s-.891 1.053-1.134 1.863z"/><path d="m132.327 25.184c0 6.588 0 6.75-1.053 6.912l-1.755.216v.648h7.344v-.648l-1.782-.189c-.999-.162-1.026-.297-1.026-7.614 0-6.534.054-6.777.945-6.885l1.863-.243v-.621h-7.344v.621l1.836.216c.945.108.972.27.972 7.587z"/><path d="m146.824 24.32c-1.242 0-2.214-.054-3.375-.189 0-4.32.054-5.805.108-6.48.756-.135 1.674-.216 2.565-.216 2.97 0 4.374 1.161 4.374 3.483 0 2.187-1.134 3.402-3.672 3.402zm-.027 7.992-2.241-.243c-1.053-.162-1.107-.243-1.107-7.398.972.27 2.133.405 2.97.405h.162c2.052 4.077 3.834 6.858 4.86 7.884h3.105v-.648l-1.026-.27c-.81-.297-2.997-2.781-5.292-7.155 2.592-.621 4.158-2.511 4.158-4.617 0-2.052-1.512-3.51-4.968-3.51h-8.505v.621l1.701.216c1.053.135 1.107.216 1.107 7.56 0 6.561-.027 6.75-1.026 6.912l-1.728.243v.648h7.83z"/><path d="m160.303 24.59c0-6.588.108-6.885.837-6.966l2.322-.243v-.621h-7.695v.621l1.809.216c.945.135.999.243.999 7.587 0 6.588-.027 6.804-1.026 6.939l-1.701.189v.648h11.691c.027-2.106.378-4.833.648-7.452h-.621l-.837 4.239c-.486 1.89-.837 2.349-6.318 2.511-.054-.729-.108-2.133-.108-7.668z"/><path clip-rule="evenodd" d="m180.399 33.163c3.975-2.8542 5.978-5.8565 5.978-8.8544 0-2.998-2.003-6.0002-5.978-8.8545-3.956-2.8414-9.73-5.4311-16.932-7.61861-14.395-4.3722-34.326-7.087534-56.373-7.087534-22.048 0-41.9791 2.715334-56.3737 7.087534-7.202 2.18751-12.9758 4.77721-16.9325 7.61861-3.9746 2.8543-5.9776 5.8565-5.9776 8.8545 0 2.9979 2.003 6.0002 5.9776 8.8544 3.9567 2.8414 9.7305 5.4311 16.9325 7.6187 14.3946 4.3722 34.3257 7.0875 56.3737 7.0875 22.047 0 41.978-2.7153 56.373-7.0875 7.202-2.1876 12.976-4.7773 16.932-7.6187zm-73.305 15.4541c44.2 0 80.031-10.8833 80.031-24.3085 0-13.4253-35.831-24.3086-80.031-24.3086-44.2005 0-80.0317 10.8833-80.0317 24.3086 0 13.4252 35.8312 24.3085 80.0317 24.3085z" fill-rule="evenodd"/></g></svg>