<svg fill="none" height="42" viewBox="0 0 214 42" width="214" xmlns="http://www.w3.org/2000/svg"><g fill="#150703"><path d="m26.0935 10.7217c.3573.0205.7097.0358 1.0573.0461.3476.0102.6952.0409 1.0428.092.1063.0205.2028.0614.2897.1228.0869.0512.1787.0972.2752.1381.0193.0102.0386.0102.0579 0 .0194-.0204.0387-.0307.058-.0307.1255-.0307.2462-.0614.3621-.092.1158-.041.2365-.0717.3621-.0921.3283-.0409.6517-.0716.9704-.0921.3283-.0307.6518-.0665.9704-.1074-.338.1944-.6807.3887-1.0283.5831-.338.1842-.676.3683-1.0139.5524-.1159.0205-.2318.0307-.3476.0307-.1159 0-.2318.0103-.3476.0307-.0966.4502-.2221.8901-.3766 1.3197-.1545.4297-.3235.8542-.507 1.2737-.1834.4194-.3717.8389-.5648 1.2583-.1931.4092-.3814.8235-.5649 1.243-.3379.7877-.6711 1.6266-.9994 2.5166-.3283.8798-.6566 1.7749-.9849 2.6854-.3186.9105-.6421 1.8107-.9704 2.7008-.3283.89-.6662 1.7238-1.0138 2.5012-.0966.2047-.1932.4093-.2897.6139-.0966.1943-.1883.3938-.2752.5984-.0869.1944-.169.3888-.2462.5831-.0773.1944-.1594.3786-.2463.5525s-.1931.3427-.3186.5064c-.1159.1534-.2607.2915-.4345.4143-.1642.133-.3476.2506-.5504.3529-.1931.0921-.3862.1791-.5794.2609l-.0289.0153c-.0483.0717-.0724.133-.0724.1842-.0387.1637-.0628.3325-.0725.5064v.5064l-2.5781.936c0-.3478.0242-.6342.0724-.8593.0483-.2251.1256-.4194.2318-.5831l-.1449.046c-.1062-.6138-.1979-1.2276-.2752-1.8414-.0675-.6138-.1255-1.2327-.1738-1.8568-.0675-.7673-.1448-1.5857-.2317-2.4552-.0772-.8798-.1593-1.7647-.2462-2.6548-.0869-.9002-.169-1.7851-.2462-2.6547-.0773-.8798-.1497-1.7033-.2173-2.4706-.0386-.3887-.0676-.7826-.0869-1.1816-.0193-.3989-.0531-.7928-.1014-1.1816l-.9559 2.1023c-.4538 1.0026-.898 2.0052-1.3325 3.0077-.4345.9923-.8787 1.9847-1.3325 2.977l-1.854 5.4169c-.0676.133-.1545.2864-.26068.4603-.10621.174-.22691.3427-.36209.5064-.13518.1535-.28002.2967-.43452.4297-.14483.1228-.28967.2046-.43451.2455-.01931.0205-.05311.0461-.10139.0768-.04828.0204-.0869.0409-.11587.0613-.0869.0614-.17863.1228-.27519.1842-.0869.0511-.17863.1023-.27519.1534-.02897.1944-.05794.3837-.0869.5678-.02897.1841-.06277.3734-.10139.5678l-2.57812.936.23174-1.3964c-.07724-.0614-.13035-.1585-.15932-.2915-.01931-.1433-.03379-.2967-.04345-.4604 0-.1637.00483-.3222.01448-.4757.00966-.1535.01449-.2711.01449-.3529l-.07242-1.5346c-.01931-.2046-.03862-.4092-.05794-.6138-.01931-.2046-.03862-.4092-.05793-.6138-.03862-.399-.08208-.8542-.13036-1.3657-.03862-.5115-.07724-1.0333-.11587-1.5652-.02896-.532-.06276-1.0537-.10138-1.5653-.02897-.5115-.05311-.9667-.07242-1.3657-.0869-1.5141-.18829-3.0179-.30416-4.5115-.11587-1.5038-.20277-3.0179-.26071-4.5422-.38623-.358-.79178-.6036-1.21664-.7366-.4152-.1432-.87385-.2148-1.37596-.2148l2.04222-1.1355c.40554 0 .81592.0255 1.23112.0767.4152.0511.80144.1944 1.1587.4296l.21726.1382c.59866-.266 1.20216-.4348 1.81047-.5064.61798-.0819 1.24561-.1228 1.8829-.1228-.33796.1944-.68074.3887-1.02835.5831-.33796.1842-.67591.3683-1.01387.5524-.19311 0-.3814.0052-.56487.0154-.18346 0-.37175.0051-.56486.0153.06759 1.5141.15449 3.0179.2607 4.5115.11588 1.4937.21726 2.9975.30416 4.5116.02897.3989.05794.8542.08691 1.3657.03862.5115.07242 1.0332.10138 1.5652.03863.532.07725 1.0537.11587 1.5652.03863.5115.07725.9668.11587 1.3657.04828.4911.08691.9821.11588 1.4732.03862.491.06276.9923.07241 1.5038.09656-.2046.18347-.4143.26071-.6291.0869-.2251.18346-.445.28968-.6599.33795-.7263.66143-1.5038.97041-2.3325.31865-.8388.63246-1.6879.9415-2.5473.3089-.8593.6179-1.7084.9269-2.5473.3187-.8389.6421-1.6215.9704-2.3478l1.0284-2.2711c.1545-.3376.2897-.6087.4055-.8133.1159-.2148.2511-.3939.4056-.5371s.3379-.2711.5504-.3836c.222-.1228.5069-.2558.8545-.399.0579-.1023.0917-.2046.1014-.3069.0193-.1125.0338-.2251.0434-.3376.0097-.1125.0193-.2251.029-.3376s.029-.2251.0579-.3376l2.5782-.9361c-.0483.1637-.0821.3121-.1014.4451-.0097.1329-.0242.2608-.0435.3836-.0096.1228-.0241.2353-.0434.3376s-.0628.2046-.1304.3069l.0869-.0307c.0483.2046.0966.4092.1449.6138.0482.1944.082.399.1013.6138.0483.4092.0821.8236.1014 1.243.029.4092.0628.8235.1014 1.243l.9415 10.2352c.0289.3683.0579.7366.0869 1.1049.0386.3581.082.7212.1303 1.0895l.0724-.1534c.0869-.2046.1787-.4041.2752-.5985.0966-.2046.1931-.4092.2897-.6138l1.2601-4.1432c.4442-1.0128.898-2.0614 1.3615-3.1458.4731-1.0946.9221-2.133 1.347-3.1151.1931-.4501.3959-.8951.6083-1.335s.4104-.8798.5938-1.3197c.1931-.4502.3669-.9054.5214-1.3658.1545-.4705.2752-.9514.3621-1.4424l.1883-.0614c-.0193 0-.0338 0-.0434 0 0-.0102-.0049-.0153-.0145-.0153-.1159-.0205-.2269-.0717-.3331-.1535-.0966-.0818-.2076-.133-.3332-.1534-.3283-.0614-.6566-.0921-.9849-.0921-.3283-.0102-.6566-.0256-.9849-.0461zm-17.36608 20.1637c0-.0102.02414-.0307.07241-.0614.04828-.0306.08208-.0613.10139-.092l-.36209.2762zm-.31865.2149s.00966-.0103.02897-.0307c-.00966.0102-.02414.0204-.04345.0307z"/><path d="m30.2214 28.8138c-.0676.2762-.1497.5882-.2463.9361-.0965.3376-.1834.6854-.2607 1.0435-.0772.358-.1351.7109-.1738 1.0588-.0289.3478-.0144.6649.0435.9514.0579.2967.1738.5166.3476.6598.1835.1433.3911.2353.6228.2762.2414.041.4876.041.7387 0 .2607-.0306.4973-.0767.7097-.1381.5504-.1432 1.0959-.3478 1.6366-.6138.5408-.266 1.0187-.6138 1.4339-1.0435.1739-.1841.3283-.3785.4635-.5831.1352-.2148.2656-.4348.3911-.6598.1255-.2251.2462-.445.3621-.6599.1159-.225.2414-.445.3766-.6598l-2.5492.8286c-.1062.1739-.2124.3632-.3186.5678s-.2173.4143-.3332.6292c-.1062.2148-.222.4245-.3476.6291-.1255.1944-.2607.3734-.4055.5371-.1931-.0614-.3428-.1944-.449-.399-.0773-.1534-.1255-.3376-.1448-.5524-.0097-.2251-.0049-.4501.0144-.6752.029-.2353.0628-.4604.1014-.6752.0386-.2251.0773-.4194.1159-.5831.1931-.8389.4055-1.6726.6373-2.5013.2414-.8389.4731-1.6726.6952-2.5013.2317-.8286.4393-1.6624.6228-2.5012.1835-.8389.3186-1.688.4055-2.5474.1256-.1636.1497-.3427.0725-.537l.9994-.9361-1.4484.4143-.1883-.1381c-.2221-.133-.4538-.2097-.6952-.2302-.2414-.0307-.4925-.0358-.7532-.0153-.251.0102-.5021.0358-.7532.0767-.251.0307-.4972.046-.7386.046-.338.1944-.6808.3888-1.0284.5832-.3379.1841-.6759.3683-1.0138.5524h.1303c.0579 0 .1207-.0051.1883-.0153h.0724.0145.0435c.0193-.0103.0386-.0154.0579-.0154h.1159c.0193-.0102.0144-.0102-.0145 0l.1158-.0153h.029.0145c.0097-.0103.0241-.0154.0434-.0154l.1449-.0153h.1014l.449-.0461c.3283-.0102.5842.0256.7676.1075.1835.0818.3766.2199.5794.4143-.0676.0818-.0338.133.1014.1534.0096 0 .0144.0051.0144.0154h.029c.0097.0102.0145.0153.0145.0153-.0483.7571-.1448 1.5039-.2897 2.2404-.1448.7366-.309 1.4681-.4924 2.1944-.1835.7263-.3814 1.4527-.5939 2.179-.2027.7161-.3959 1.4374-.5793 2.1637zm2.1725-14.9309 4.4321-4.08187-2.3898 6.15347h-1.9843zm-2.7229 5.5396h.0145c-.0483 0-.0869.0051-.1159.0154h.0435c.0193-.0103.0386-.0154.0579-.0154zm.3911-.046-.087.0153h.0435c.0097-.0102.0241-.0153.0435-.0153z"/><path d="m45.4728 11.2128c.029.1228.0386.2404.029.3529-.0097.1433-.0338.2814-.0724.4144-.029.1329-.0531.2711-.0725.4143-.1062.9105-.2703 1.8056-.4924 2.6854s-.4393 1.7698-.6518 2.6701c-.3476 1.4936-.6855 2.9872-1.0138 4.4808s-.6663 2.9923-1.0139 4.4962c-.1642.7058-.3524 1.4168-.5649 2.1329-.2027.7059-.3138 1.4272-.3331 2.1637 0 .1228.0048.266.0145.4297.0096.1535.0289.3069.0579.4604.0386.1534.0966.2915.1738.4143.0773.1125.1787.1944.3042.2455.0965-.0921.1738-.1739.2317-.2455.0676-.0716.14-.1637.2173-.2762.2124-.2865.4007-.578.5648-.8747.1739-.3069.3332-.6241.478-.9514l2.5492-.8287c-.2511.5729-.5215 1.0742-.8111 1.5039-.2897.4296-.618.8082-.9849 1.1355-.367.3172-.7773.5934-1.2312.8287-.4441.2353-.9462.4399-1.5063.6138-.309.092-.6179.1637-.9269.2148-.2994.0614-.5746.0614-.8256 0-.2414-.0614-.4442-.1995-.6083-.4143-.1545-.2046-.2462-.5269-.2752-.9668-.0193-.3376-.0097-.6752.029-1.0128.0482-.3375.111-.6751.1882-1.0127.0773-.3376.1642-.6701.2607-.9975.0966-.3273.1883-.6547.2752-.9821l.4201-1.8261c.2993-1.3094.589-2.6087.869-3.8977s.5745-2.5882.8835-3.8977c.1352-.5831.2752-1.1662.42-1.7493.1545-.5831.2994-1.1714.4346-1.7647l.1158-.5985c.0097-.0716.0338-.2097.0724-.4143.0387-.2149.0773-.445.1159-.6906.0386-.2455.0724-.4808.1014-.7058.029-.2251.0386-.3837.029-.4757-.0097-.0921-.0242-.1586-.0435-.1995-.0193-.0512-.0676-.1177-.1448-.1995-.1159-.1228-.2511-.2149-.4056-.2762-.1545-.0614-.3138-.1023-.4779-.1228-.1642-.0205-.3332-.0307-.507-.0307s-.3331.0051-.4779.0154c-.1159.0102-.2318.0255-.3476.046-.1063.0102-.2125.0205-.3187.0307-.0386 0-.0869.0051-.1448.0153-.058 0-.0724-.0051-.0435-.0153.0773-.0205.1883-.0409.3332-.0614.1448-.0307.2413-.046.2896-.046l1.0573-.9514.5359-.0768.0869-.0153c.1545-.0205.309-.0358.4635-.046.1545-.0103.3042-.0205.449-.0307.1449 0 .3138.0051.507.0153.1931 0 .3862.0205.5793.0614.2028.0409.3911.1023.5649.1841.1738.0716.3138.1739.42.3069l.7387-.1841zm-3.563-.7366c-.0193.0102-.0241.0154-.0145.0154.0193 0 .0386-.0052.058-.0154zm-.4924 22.4195c-.0097.0102-.0097.0153 0 .0153.0193-.0102.0386-.0205.0579-.0307z"/><path d="m54.9452 11.2128c.029.1228.0386.2404.029.3529-.0097.1433-.0338.2814-.0724.4144-.029.1329-.0531.2711-.0724.4143-.1063.9105-.2704 1.8056-.4925 2.6854s-.4393 1.7698-.6518 2.6701c-.3476 1.4936-.6855 2.9872-1.0138 4.4808s-.6663 2.9923-1.0139 4.4962c-.1641.7058-.3524 1.4168-.5649 2.1329-.2027.7059-.3138 1.4272-.3331 2.1637 0 .1228.0048.266.0145.4297.0096.1535.029.3069.0579.4604.0386.1534.0966.2915.1738.4143.0773.1125.1787.1944.3042.2455.0965-.0921.1738-.1739.2317-.2455.0676-.0716.14-.1637.2173-.2762.2124-.2865.4007-.578.5649-.8747.1738-.3069.3331-.6241.4779-.9514l2.5492-.8287c-.2511.5729-.5214 1.0742-.8111 1.5039-.2897.4296-.618.8082-.9849 1.1355-.3669.3172-.7773.5934-1.2311.8287-.4442.2353-.9463.4399-1.5064.6138-.3089.092-.6179.1637-.9269.2148-.2994.0614-.5745.0614-.8256 0-.2414-.0614-.4442-.1995-.6083-.4143-.1545-.2046-.2462-.5269-.2752-.9668-.0193-.3376-.0097-.6752.029-1.0128.0482-.3375.111-.6751.1882-1.0127.0773-.3376.1642-.6701.2608-.9975.0965-.3273.1882-.6547.2751-.9821l.4201-1.8261c.2993-1.3094.589-2.6087.869-3.8977s.5745-2.5882.8835-3.8977c.1352-.5831.2752-1.1662.42-1.7493.1545-.5831.2994-1.1714.4346-1.7647l.1158-.5985c.0097-.0716.0338-.2097.0724-.4143.0387-.2149.0773-.445.1159-.6906.0386-.2455.0724-.4808.1014-.7058.029-.2251.0386-.3837.029-.4757-.0097-.0921-.0242-.1586-.0435-.1995-.0193-.0512-.0676-.1177-.1448-.1995-.1159-.1228-.2511-.2149-.4056-.2762-.1545-.0614-.3138-.1023-.4779-.1228-.1642-.0205-.3332-.0307-.507-.0307s-.3331.0051-.4779.0154c-.1159.0102-.2318.0255-.3476.046-.1063.0102-.2125.0205-.3187.0307-.0386 0-.0869.0051-.1448.0153-.058 0-.0724-.0051-.0435-.0153.0773-.0205.1883-.0409.3332-.0614.1448-.0307.2414-.046.2896-.046l1.0574-.9514.5359-.0768.0869-.0153c.1544-.0205.3089-.0358.4634-.046.1545-.0103.3042-.0205.449-.0307.1449 0 .3138.0051.507.0153.1931 0 .3862.0205.5793.0614.2028.0409.3911.1023.5649.1841.1738.0716.3138.1739.42.3069l.7387-.1841zm-3.563-.7366c-.0193.0102-.0241.0154-.0145.0154.0193 0 .0386-.0052.058-.0154zm-.4924 22.4195c-.0097.0102-.0097.0153 0 .0153.0193-.0102.0386-.0205.0579-.0307z"/><path d="m71.5002 12.0721c.3283-.1943.6807-.3683 1.0573-.5217.3766-.1535.758-.2916 1.1442-.4143.3959-.1228.787-.2353 1.1732-.3376.3959-.1023.7725-.1944 1.1298-.2762.5503-.041 1.0959-.0563 1.6366-.0461.5504.0102 1.096.0972 1.6367.2609.618.1739 1.2166.4399 1.796.7979.5794.3479 1.0718.7929 1.4773 1.3351.3766.491.6856 1.0946.927 1.8107.2414.7059.4152 1.4476.5214 2.2251.1159.7672.169 1.5345.1593 2.3018 0 .7672-.0531 1.4527-.1593 2.0562-.1738 1.0435-.4055 2.0717-.6952 3.0844-.2897 1.0026-.6614 1.9591-1.1153 2.8696-.4441.9105-.9848 1.7596-1.6221 2.5473-.6277.7775-1.3808 1.4629-2.2595 2.0563-.6856.4706-1.4291.844-2.2305 1.1202-.7918.2762-1.5884.4859-2.3898.6291-.5408.1023-1.1056.1586-1.6946.1688-.5794.0205-1.1539-.0255-1.7236-.1381-.5601-.1023-1.1056-.2762-1.6367-.5217-.5214-.2455-.9945-.5729-1.4194-.9821-.5407-.5217-.9849-1.156-1.3325-1.9028-.3476-.757-.6083-1.555-.7821-2.3939-.1738-.8491-.2656-1.7033-.2752-2.5626-.0097-.8594.0483-1.6522.1738-2.3786.1931-1.115.4586-2.1994.7966-3.2531.3476-1.0538.7821-2.041 1.3035-2.9617.5214-.9309 1.1442-1.78 1.8684-2.5473.7242-.7775 1.5691-1.4527 2.5347-2.0256zm5.33-.2455c-.4538-.133-.9076-.2046-1.3614-.2148-.4442-.0103-.898 0-1.3615.0307-.1642.0409-.338.0869-.5214.1381-.1835.0511-.3283.1074-.4345.1688-.6953.3989-1.3084.8951-1.8395 1.4885-.5214.5933-.9945 1.2327-1.4194 1.9181-.3186.5115-.6228 1.0998-.9125 1.7647-.2897.6547-.5504 1.3402-.7821 2.0563-.2221.7161-.4055 1.4373-.5504 2.1637-.1448.7161-.2269 1.3913-.2462 2.0255-.0097.4399 0 .8798.029 1.3197.0386.4399.0869.8798.1448 1.3197.1159.7775.2897 1.5448.5214 2.3018.2414.7468.5987 1.4374 1.0718 2.0716.3476.4604.758.8542 1.2311 1.1816.4828.3172.9946.5678 1.5353.7519.5504.1842 1.1104.2916 1.6801.3223.5794.0307 1.1394-.0154 1.6802-.1381.1062-.0307.2172-.0563.3331-.0767.1159-.0205.2269-.0512.3331-.0921.0966-.0307.2028-.0819.3187-.1535.1255-.0716.2414-.1483.3476-.2302.1158-.0818.2221-.1585.3186-.2301.0966-.0819.1738-.1535.2318-.2149.7145-.6547 1.3228-1.3964 1.8249-2.225.5118-.8389.9415-1.7238 1.2891-2.6548.1641-.4501.3186-.936.4635-1.4578.1545-.5319.2848-1.0332.391-1.5038.1255-.5627.2221-1.1662.2897-1.8107.0772-.6548.1159-1.3197.1159-1.9949 0-.6854-.0435-1.3658-.1304-2.0409-.0869-.6855-.2366-1.3351-.449-1.9489-.2028-.6138-.478-1.1816-.8256-1.7033-.3379-.5218-.758-.9668-1.2601-1.3351-.3089-.2353-.6372-.4296-.9849-.5831-.3476-.1637-.7048-.3018-1.0718-.4143z"/><path d="m101.728 17.7345c-.068.0512-.13.1074-.188.1688-.049.0512-.111.0972-.189.1381l-.072.0461c.048-.0307.067-.0358.058-.0154-.01.0103-.034.0307-.073.0614-.038.0307-.086.0716-.144.1228-.049.0409-.097.0767-.145.1074-.049.0409-.092.0921-.131.1534-.067.0819-.12.1586-.159.2302-.029.0716-.063.1535-.101.2455-.097.2353-.164.486-.203.752-.029.2557-.082.5115-.159.7672-.2322.8491-.4494 1.6931-.6522 2.532-.1931.8389-.4538 1.6624-.7821 2.4706-.0193.6752-.0869 1.3555-.2028 2.0409-.1062.6854-.2655 1.3453-.478 1.9795-.0386.2046-.0869.4144-.1448.6292-.0483.2046-.0869.4143-.1159.6292-.0289.2148-.0434.4296-.0434.6445.0096.2046.0579.4092.1448.6138.1062.2353.2511.3887.4345.4603.0387-.0409.1062-.1279.2028-.2608.1062-.133.1786-.2251.2173-.2763.2027-.2864.3862-.5831.5504-.89.1738-.3069.3379-.624.4924-.9514l2.549-.8286c-.261.5524-.531 1.0486-.811 1.4885-.28.4398-.599.8286-.956 1.1662-.347.3376-.7434.6291-1.1875.8747-.4346.2353-.9415.4348-1.5208.5984-.1932.0614-.4104.1177-.6518.1688-.2414.0614-.4828.0921-.7242.0921-.2317 0-.4538-.046-.6663-.1381-.2027-.0818-.3621-.2404-.4779-.4757-.0773-.1535-.1304-.3223-.1593-.5064-.0194-.1841-.0242-.3683-.0145-.5524.0193-.1842.0434-.3683.0724-.5525.0386-.1841.0772-.358.1159-.5217.0772-.3785.1593-.757.2462-1.1355.0965-.3786.1834-.7571.2607-1.1356l-.2318.3683c-.3476.5422-.7386 1.0588-1.1731 1.5499-.4249.4808-.8884.9207-1.3905 1.3197-.4924.3887-1.0235.7212-1.5932.9974s-1.1684.4706-1.796.5831l.2028-.0921c-.1159.0512-.2221.0921-.3187.1228-.0965.0307-.2124.0563-.3476.0767-.1062.0512-.2365.0819-.391.0921-.1545.0205-.2897.0409-.4056.0614-.2607.0307-.5021.0307-.7242 0s-.42-.1023-.5938-.2148c-.1642-.1023-.3042-.2507-.42-.4451-.1159-.2046-.1932-.4654-.2318-.7826-.0676-.4706-.0676-.9411 0-1.4117.0773-.4808.1593-.9514.2462-1.4118.1932-1.0435.4201-2.0665.6808-3.069.2607-1.0128.5166-2.0307.7676-3.0538.1062-.4399.2028-.8695.2897-1.289.0869-.4296.1545-.8695.2028-1.3197.0193-.1227.0434-.2762.0724-.4603.0386-.1944.0193-.3427-.0579-.445-.1835-.2251-.3911-.3734-.6228-.445-.2318-.0819-.478-.1228-.7387-.1228-.2511 0-.507.0205-.7677.0614-.2607.0307-.5117.046-.7531.046.3379-.1841.6759-.3683 1.0138-.5524.3477-.1944.6904-.3888 1.0284-.5831h.3331c.1062 0 .2125-.0051.3187-.0154.1834-.0307.3814-.0562.5938-.0767.2124-.0307.4249-.0358.6373-.0153.2221.0102.4345.046.6373.1074.2124.0613.4007.1534.5649.2762l1.3469-.3836c-.1641.1432-.3234.2864-.4779.4296s-.309.2865-.4635.4297l-.0435.0153c.0194.1228.0194.2762 0 .4604-.0096.1739-.0241.3478-.0434.5217s-.0435.3376-.0724.4911c-.0193.1432-.0338.2353-.0435.2762-.1641 1.0025-.391 1.9949-.6807 2.977-.28.9821-.5359 1.9693-.7677 2.9616-.1062.4706-.2076.9463-.3041 1.4271-.0966.4808-.1787.9668-.2462 1.4578-.029.2251-.058.4655-.0869.7212-.029.2456-.0387.4962-.029.752.0193.2557.0627.5012.1303.7365.0773.2251.2028.4246.3766.5985.1062.1023.2269.1688.3621.1995s.2462.0511.3331.0614l.4056-.0921h.0434.0145c0-.0102.0048-.0153.0145-.0153.589-.4195 1.1056-.9105 1.5498-1.4732.4538-.5729.869-1.1765 1.2456-1.8107.1255-.2149.2462-.4348.3621-.6599.1158-.2353.2365-.4603.3621-.6752.1255-.225.2607-.4347.4055-.6291.1545-.2046.3283-.3837.5214-.5371.338-.2558.7049-.4757 1.1008-.6599.0483-.0716.0917-.1381.1304-.1994.0482-.0717.082-.133.1013-.1842.1159-.2864.2173-.5831.3042-.89.0869-.3171.169-.6241.2462-.9207.0676-.266.1255-.5269.1738-.7826.058-.2558.1207-.5167.1883-.7826.0483-.1944.1014-.3837.1593-.5678.058-.1944.1063-.3888.1449-.5831.0483-.2353.0917-.4655.1303-.6906.0387-.2353.1014-.4655.1883-.6905.0676-.1739.1593-.3376.2752-.4911.1159-.1636.2414-.3069.3766-.4296.029-.0205.0772-.0563.1448-.1074.0773-.0614.1449-.1177.2028-.1688.0676-.0512.1207-.0921.1593-.1228.0483-.0307.058-.0358.029-.0154l.0579-.0613zm-2.5348.7673s.0097-.0051.029-.0154c-.0097 0-.0145.0052-.0145.0154 0 0-.0048 0-.0145 0zm-.1303 13.9642c-.0097 0-.0145.0051-.0145.0153 0 0-.0048 0-.0145 0 .0097 0 .0193-.0051.029-.0153z"/><path d="m112.156 14.0363c-.28.5115-.584 1.0077-.912 1.4885-.319.4808-.584 1.0026-.797 1.5652l-.159.445.159-.0613c.106.092.198.1943.275.3069.087.1125.193.1943.319.2455.145.0511.299.0665.463.046.165-.0204.324-.0307.478-.0307.358.0103.71.0154 1.058.0154.357-.0103.714-.0154 1.072-.0154-.338.1944-.681.3888-1.029.5832-.338.1841-.676.3682-1.014.5524-.367 0-.738.0051-1.115.0153-.367 0-.734-.0051-1.101-.0153l-.304 1.3811c-.28 1.2071-.55 2.4143-.811 3.6214-.251 1.197-.517 2.399-.797 3.6062l-.304 1.4271c-.048.266-.091.5371-.13.8133s-.072.5524-.101.8286c-.02.1535-.039.3274-.058.5218-.01.1841 0 .3631.029.5371.029.1739.086.3273.173.4603.097.133.247.22.449.2609.174-.1432.338-.312.493-.5064.164-.2046.314-.4143.449-.6292.145-.2148.28-.4245.405-.6291.136-.2149.266-.4143.391-.5985l2.55-.8286c-.251.358-.488.7059-.71 1.0434-.222.3274-.459.6445-.71.9515-.251.2966-.526.5728-.825.8286-.3.2455-.652.4604-1.058.6445-.521.2558-1.014.4501-1.477.5831-.454.1432-.913.2353-1.376.2762-.348.0307-.618 0-.811-.092-.193-.0921-.328-.2302-.406-.4144-.077-.1841-.12-.4041-.13-.6598 0-.2558.014-.5269.043-.8133.02-.2762.049-.5524.087-.8286.039-.2763.087-.5474.145-.8133.048-.2353.097-.4706.145-.7059.048-.2456.101-.486.159-.7213.28-1.2071.546-2.4092.797-3.6061.261-1.2072.531-2.4143.811-3.6215l.377-1.6726-.058.0153c-.116-.1125-.222-.2353-.319-.3683-.097-.1329-.222-.2199-.377-.2608-.309-.0819-.627-.1023-.955-.0614-.329.0307-.652.0409-.971.0307l2.274-1.1202c.193.0102.362.0153.507.0153.145-.0102.275-.0153.391-.0153l.058-.1381c.106-.2762.227-.5422.362-.798.135-.2557.28-.5064.435-.7519.154-.2455.309-.491.463-.7366.155-.2455.304-.5013.449-.7672z"/><path d="m121.194 11.2128c.029.1228.039.2404.029.3529-.01.1433-.034.2814-.072.4144-.029.1329-.053.2711-.073.4143-.106.9105-.27 1.8056-.492 2.6854s-.44 1.7698-.652 2.6701c-.348 1.4936-.686 2.9872-1.014 4.4808s-.666 2.9923-1.014 4.4962c-.164.7058-.352 1.4168-.565 2.1329-.202.7059-.313 1.4272-.333 2.1637 0 .1228.005.266.015.4297.009.1535.029.3069.058.4604.038.1534.096.2915.174.4143.077.1125.178.1944.304.2455.096-.0921.173-.1739.231-.2455.068-.0716.14-.1637.218-.2762.212-.2865.4-.578.565-.8747.173-.3069.333-.6241.478-.9514l2.549-.8287c-.251.5729-.522 1.0742-.811 1.5039-.29.4296-.618.8082-.985 1.1355-.367.3172-.778.5934-1.231.8287-.445.2353-.947.4399-1.507.6138-.309.092-.618.1637-.927.2148-.299.0614-.574.0614-.825 0-.242-.0614-.444-.1995-.609-.4143-.154-.2046-.246-.5269-.275-.9668-.019-.3376-.009-.6752.029-1.0128.048-.3375.111-.6751.188-1.0127.078-.3376.165-.6701.261-.9975.097-.3273.188-.6547.275-.9821l.42-1.8261c.3-1.3094.589-2.6087.869-3.8977s.575-2.5882.884-3.8977c.135-.5831.275-1.1662.42-1.7493.154-.5831.299-1.1714.434-1.7647l.116-.5985c.01-.0716.034-.2097.073-.4143.038-.2149.077-.445.116-.6906.038-.2455.072-.4808.101-.7058.029-.2251.039-.3837.029-.4757-.01-.0921-.024-.1586-.043-.1995-.02-.0512-.068-.1177-.145-.1995-.116-.1228-.251-.2149-.406-.2762-.154-.0614-.314-.1023-.478-.1228s-.333-.0307-.507-.0307-.333.0051-.478.0154c-.116.0102-.231.0255-.347.046-.107.0102-.213.0205-.319.0307-.039 0-.087.0051-.145.0153-.058 0-.072-.0051-.043-.0153.077-.0205.188-.0409.333-.0614.145-.0307.241-.046.29-.046l1.057-.9514.536-.0768.087-.0153c.154-.0205.309-.0358.463-.046.155-.0103.304-.0205.449-.0307.145 0 .314.0051.507.0153.193 0 .386.0205.579.0614.203.0409.391.1023.565.1841.174.0716.314.1739.42.3069l.739-.1841zm-3.563-.7366c-.019.0102-.024.0154-.014.0154.019 0 .038-.0052.058-.0154zm-.492 22.4195c-.01.0102-.01.0153 0 .0153.019-.0102.038-.0205.058-.0307z"/><path d="m124.83 28.8138c-.068.2762-.15.5882-.247.9361-.096.3376-.183.6854-.26 1.0435-.078.358-.136.7109-.174 1.0588-.029.3478-.015.6649.043.9514.058.2967.174.5166.348.6598.183.1433.391.2353.623.2762.241.041.487.041.738 0 .261-.0306.498-.0767.71-.1381.55-.1432 1.096-.3478 1.637-.6138.54-.266 1.018-.6138 1.434-1.0435.173-.1841.328-.3785.463-.5831.135-.2148.266-.4348.391-.6598.126-.2251.246-.445.362-.6599.116-.225.242-.445.377-.6598l-2.549.8286c-.107.1739-.213.3632-.319.5678s-.217.4143-.333.6292c-.106.2148-.222.4245-.348.6291-.125.1944-.26.3734-.405.5371-.193-.0614-.343-.1944-.449-.399-.077-.1534-.126-.3376-.145-.5524-.01-.2251-.005-.4501.014-.6752.029-.2353.063-.4604.102-.6752.038-.2251.077-.4194.116-.5831.193-.8389.405-1.6726.637-2.5013.241-.8389.473-1.6726.695-2.5013.232-.8286.44-1.6624.623-2.5012.183-.8389.319-1.688.406-2.5474.125-.1636.149-.3427.072-.537l.999-.9361-1.448.4143-.188-.1381c-.222-.133-.454-.2097-.696-.2302-.241-.0307-.492-.0358-.753-.0153-.251.0102-.502.0358-.753.0767-.251.0307-.497.046-.739.046-.337.1944-.68.3888-1.028.5832-.338.1841-.676.3683-1.014.5524h.131c.058 0 .12-.0051.188-.0153h.072.015.043c.02-.0103.039-.0154.058-.0154h.116c.019-.0102.015-.0102-.014 0l.115-.0153h.029.015c.01-.0103.024-.0154.043-.0154l.145-.0153h.102l.449-.0461c.328-.0102.584.0256.767.1075.184.0818.377.2199.58.4143-.068.0818-.034.133.101.1534.01 0 .014.0051.014.0154h.029c.01.0102.015.0153.015.0153-.048.7571-.145 1.5039-.29 2.2404-.145.7366-.309 1.4681-.492 2.1944-.184.7263-.382 1.4527-.594 2.179-.203.7161-.396 1.4374-.579 2.1637zm2.172-14.9309 4.432-4.08187-2.39 6.15347h-1.984zm-2.723 5.5396h.015c-.049 0-.087.0051-.116.0154h.043c.02-.0103.039-.0154.058-.0154zm.391-.046-.087.0153h.044c.009-.0102.024-.0153.043-.0153z"/><path d="m146.396 18.824c.01.2763.019.5167.029.7213s.014.3989.014.5831c0 .1841-.004.3785-.014.5831s-.034.445-.073.7212c-.164 1.3504-.516 2.6548-1.057 3.9131-.531 1.2583-1.173 2.4296-1.926 3.514-.415.5832-.869 1.1612-1.362 1.7341-.482.5729-1.023 1.0588-1.622 1.4578-.656.4501-1.352.8184-2.086 1.1048-.724.2865-1.472.486-2.244.5985-.194.0307-.382.046-.565.046-.174 0-.343-.0256-.507-.0767-.164-.0409-.319-.1176-.464-.2302-.135-.1125-.251-.2711-.347-.4757-.155-.3171-.247-.6701-.276-1.0588-.019-.3888-.004-.7826.044-1.1816.058-.399.13-.7928.217-1.1816.087-.3887.159-.7468.217-1.0741.155-.8287.319-1.6471.493-2.4553s.343-1.6266.507-2.4552c.106-.6138.212-1.2174.318-1.8108.116-.6036.194-1.2276.232-1.8721-.145-.133-.347-.2353-.608-.3069-.251-.0716-.502-.1228-.753-.1535-.251-.0306-.473-.046-.667-.046-.183-.0102-.275-.0153-.275-.0153-.116 0-.203 0-.26 0-.058 0-.102.0051-.131.0153-.029 0-.058 0-.087 0s-.077 0-.145 0c.338-.1841.676-.3683 1.014-.5524.348-.1944.691-.3888 1.029-.5831.415 0 .83-.0205 1.245-.0614.415-.0512.826-.0154 1.231.1074.097.0307.203.0716.319.1228l1.782-.5064-1.058.9974v.0154l-.072.0613c-.039.9105-.15 1.8057-.333 2.6855-.184.8695-.367 1.7544-.551 2.6547-.164.7775-.323 1.555-.478 2.3325-.154.7775-.309 1.5652-.463 2.3631-.039.2046-.077.4451-.116.7213-.029.2762-.048.5575-.058.844 0 .2864.024.5626.072.8286.049.266.131.4962.247.6905.116.1944.275.3376.478.4297.202.0921.463.1023.782.0307.56-.3478 1.062-.7826 1.506-1.3044.444-.5217.859-1.0588 1.246-1.6112.753-1.0742 1.39-2.2251 1.912-3.4527.531-1.2378.878-2.5268 1.042-3.867.029-.2762.049-.5166.058-.7212.02-.2046.029-.399.029-.5831 0-.1842-.005-.3786-.014-.5832-.01-.2046-.02-.445-.029-.7212z"/><path d="m147.12 26.5427c.019-.4501.087-.8798.203-1.289.116-.4194.256-.8389.42-1.2583.55-1.4834 1.323-2.7621 2.317-3.8363.995-1.0742 2.221-1.8466 3.679-2.3172.309-.1023.623-.1892.942-.2608.318-.0819.637-.1381.956-.1688.328-.0307.651-.0256.97.0153.328.0307.647.1074.956.2302.319.1228.579.3223.782.5985.212.266.367.5677.464.9053.106.3376.159.6906.159 1.0589.01.3682-.034.7058-.13 1.0127-.165.5218-.396.9975-.696 1.4272-.299.4194-.642.803-1.028 1.1509-.386.3478-.806.6598-1.26.936-.444.266-.888.5064-1.333.7212-.347.174-.7.3376-1.057.4911-.357.1432-.719.2864-1.086.4297-.049.0204-.155.0562-.319.1074-.154.0511-.304.0972-.449.1381 0 .0102-.01.0153-.029.0153s-.034.0051-.043.0154c-.28.1125-.604.2353-.971.3683-.357.1227-.719.2199-1.086.2915-.01.4604.005.9668.043 1.5192.049.5422.15 1.0639.305 1.5652.164.5013.395.9463.695 1.3351.299.3785.7.6393 1.202.7826.251.0716.502.1023.753.092.261-.0102.517-.0358.768-.0767.038-.0102.096-.0358.174-.0767.077-.0409.154-.087.231-.1381.078-.0614.15-.1177.218-.1688.067-.0614.115-.1074.144-.1381.367-.3069.7-.6343 1-.9821.309-.3581.603-.7315.883-1.1202l2.549-.8287c-.395.5422-.801 1.0333-1.216 1.4732-.415.4296-.855.8184-1.318 1.1662-.454.3478-.946.6547-1.478.9207-.521.266-1.091.4962-1.709.6906-.405.1227-.825.225-1.26.3069-.434.092-.869.1278-1.303.1074-.483-.0205-.903-.1228-1.26-.3069-.348-.1739-.647-.4041-.898-.6906-.242-.2966-.44-.6342-.594-1.0127-.145-.3786-.261-.7775-.348-1.197-.077-.4194-.125-.844-.145-1.2736-.019-.4399-.019-.8645 0-1.2737.02-.2557.034-.5013.044-.7366.019-.2353.072-.4757.159-.7212zm2.578-.936c.077.0818.15.1687.217.2608.078.0921.16.179.247.2609l.116.0921v.0153c-.02-.0205-.029-.0307-.029-.0307.009 0 .019.0051.029.0154.009.0102.019.0153.029.0153.057.0205.125.0358.202.046.078.0103.14.0103.189 0h.058c.029 0 .057-.0051.086-.0153h.015.058c.019-.0102.039-.0153.058-.0153.058-.0205.116-.041.174-.0614.058-.0205.115-.0409.173-.0614.107-.0409.227-.087.363-.1381.144-.0512.371-.1279.68-.2302l.406-.1534c.164-.0717.323-.1382.478-.1995.164-.0716.323-.1535.478-.2456.54-.3171 1.018-.6956 1.434-1.1355.424-.4501.762-.9821 1.014-1.5959.125-.3069.197-.6189.217-.9361.019-.3171-.005-.6394-.073-.9667-.164-.7468-.482-1.2942-.956-1.642-.473-.358-1.091-.4654-1.854-.3222-.482.3171-.946.7519-1.39 1.3043-.434.5422-.826 1.1407-1.173 1.7954-.348.6445-.633 1.3146-.855 2.0102-.222.6855-.352 1.33-.391 1.9336zm.551.5831v.0153c0-.0102 0-.0153 0-.0153z"/><path d="m180.114 10.7524c.464 0 .908.0103 1.333.0307.425.0205.825.1535 1.202.399.531-.1637 1.072-.2762 1.622-.3376s1.101-.0921 1.651-.0921c-.338.1944-.681.3888-1.028.5832-.338.1841-.676.3682-1.014.5524-.174 0-.348 0-.521 0-.174 0-.348.0051-.522.0153-.019.0921-.038.1893-.058.2916-.019.0921-.043.179-.072.2609l-.058.1227c-.01.0205-.015.0409-.015.0614 0 .0102-.004.0256-.014.046-.01.0205-.015.0358-.015.0461-.125.266-.255.5064-.391.7212-.772 1.1253-1.525 2.2558-2.259 3.3913-.734 1.1356-1.477 2.2711-2.231 3.4067-.193.2864-.381.578-.564.8746-.184.2967-.372.5832-.565.8594s-.406.5371-.638.7826c-.231.2455-.497.4603-.796.6445-.029.0204-.058.0409-.087.0614-.019.0204-.048.0409-.087.0613-.068.0512-.145.1075-.232.1688-.077.0614-.159.1177-.246.1688-.029.5525-.087 1.0896-.174 1.6113s-.188 1.0486-.304 1.5806c-.077.3682-.164.7365-.261 1.1048-.096.3683-.169.7468-.217 1.1356-.019.1432-.029.3018-.029.4757 0 .1636-.005.3324-.014.5064 0 .1636-.02.3273-.058.491-.029.1535-.082.2967-.16.4297l.073-.0307c.145.1125.28.2506.405.4143.135.1535.29.2558.464.3069.454.1228.917.1893 1.39.1995.483 0 .956.0205 1.42.0614l-2.274 1.1202c-.676-.0614-1.188-.087-1.536-.0767-.347 0-.622-.0052-.825-.0154-.193-.0204-.367-.0665-.522-.1381-.144-.0818-.352-.2353-.622-.4604-.367.1433-.739.2609-1.116.353-.376.0818-.748.1483-1.115.1995-.251.0307-.502.0511-.753.0614-.251.0102-.502.0204-.753.0306-.106 0-.208 0-.304 0-.087 0-.179.0052-.276.0154h-.072l1.767-1.1049c.251-.0307.502-.046.753-.046s.502-.0102.753-.0307h.276c.096 0 .197-.0051.304-.0153.077-.133.13-.2916.159-.4757.039-.1944.063-.3939.072-.5985.02-.2046.029-.4092.029-.6138.01-.2046.029-.3836.058-.5371.165-.8798.343-1.7442.536-2.5933.203-.8492.324-1.7238.362-2.6241h.015c-.106-.0818-.174-.2097-.203-.3836-.019-.1842-.039-.3888-.058-.6138-.019-.2353-.063-.4604-.13-.6752-.068-.2149-.126-.4348-.174-.6599-.077-.3273-.164-.6445-.261-.9514-.087-.3171-.178-.6342-.275-.9514-.28-.9412-.55-1.8772-.811-2.8082-.261-.9411-.512-1.8874-.753-2.8388-.039-.1535-.063-.3172-.073-.4911-.009-.1841-.024-.3632-.043-.5371-.01-.1841-.039-.358-.087-.5217-.039-.1637-.111-.3069-.217-.4297-.193-.2148-.415-.3785-.666-.491-.252-.1228-.517-.2098-.797-.2609-.27-.0614-.546-.0921-.826-.0921-.28-.0102-.55-.0153-.811-.0153l2.042-1.1356c.252 0 .512.0051.783.0154.28 0 .555.0153.825.046.28.0307.551.087.811.1688.271.0819.517.1995.739.353.531-.2047 1.077-.353 1.637-.4451.56-.092 1.12-.1381 1.68-.1381-.338.1944-.681.3888-1.029.5832-.338.1841-.676.3682-1.013.5524h-.71c.067.1227.116.2609.145.4143.038.1432.062.2967.072.4604.019.1534.029.312.029.4757.01.1534.029.2966.058.4296.029.1433.063.2865.101.4297.039.133.078.2711.116.4143.28 1.0333.57 2.0614.869 3.0844.3 1.023.589 2.0563.869 3.0998.078.266.164.5729.261.9207.106.3478.174.6598.203.936l.376-.5984c.377-.6138.763-1.2123 1.159-1.7954.396-.5934.797-1.1969 1.202-1.8108l2.028-3.115c.125-.1944.256-.3888.391-.5832.145-.1943.275-.3938.391-.5984.058-.0921.111-.2098.159-.353.049-.1432.097-.2915.145-.445.048-.1534.102-.3018.16-.445.057-.1432.115-.2711.173-.3836l-.029.0153c-.173-.1637-.352-.2813-.536-.3529-.183-.0819-.376-.1381-.579-.1688-.193-.0307-.391-.0409-.594-.0307-.202 0-.415 0-.637 0zm-13.339 22.4962-.102.0153c-.029 0-.034 0-.014 0 .029 0 .067-.0051.116-.0153z"/><path d="m186.748 18.3637c-.164.0921-.324.2046-.478.3376-.222.1841-.435.3938-.637.6291-.203.2251-.387.4553-.551.6906-.318.4296-.613.9053-.883 1.4271-.261.5217-.498 1.0639-.71 1.6266-.203.5626-.377 1.1355-.521 1.7187-.136.5728-.232 1.1355-.29 1.6879-.058.5832-.063 1.2123-.015 1.8875.049.6752.179 1.3146.391 1.9182.223.5933.536 1.1048.942 1.5345.415.4297.956.6854 1.622.7672.251.0205.483.0359.695.0461.222.0102.454-.0154.696-.0767.444-.3376.835-.7162 1.173-1.1356.347-.4297.656-.8849.927-1.3657.27-.4808.507-.9821.709-1.5039.203-.5319.387-1.069.551-1.6112.212-.7059.386-1.4118.521-2.1177.145-.7058.184-1.4322.116-2.179-.058-.6445-.174-1.2532-.348-1.8261-.173-.5729-.42-1.0588-.738-1.4578-.319-.4092-.724-.711-1.217-.9053-.483-.2046-1.067-.2558-1.752-.1535zm1.97-1.1663c.241-.0306.497-.0511.767-.0613.271-.0103.541 0 .811.0307.28.0306.551.0869.811.1688.261.0818.493.1994.696.3529.405.3069.738.6956.999 1.1662.27.4706.473.9821.608 1.5346.145.5422.222 1.0997.232 1.6726.019.5729-.019 1.11-.116 1.6112-.116.6139-.256 1.243-.42 1.8875-.164.6343-.367 1.2583-.608 1.8721-.232.6139-.502 1.2072-.811 1.7801s-.662 1.0946-1.058 1.5652c-.26.3069-.526.5729-.796.798-.261.2148-.551.4399-.869.6752-.493.358-1.029.6445-1.608.8593-.579.2046-1.159.3632-1.738.4757-.396.0818-.777.133-1.144.1534-.357.0307-.734.0205-1.13-.0306-.55-.0614-1.023-.2251-1.419-.4911s-.724-.5985-.985-.9974c-.251-.399-.449-.844-.594-1.3351-.135-.5013-.222-1.0179-.261-1.5498-.038-.532-.038-1.0589 0-1.5806.039-.5218.106-1.0128.203-1.4732.164-.7877.377-1.5498.637-2.2864.261-.7468.58-1.4476.956-2.1023.386-.665.831-1.2788 1.333-1.8414.512-.5627 1.101-1.064 1.767-1.5039.512-.3376 1.062-.5984 1.651-.7826.589-.1944 1.173-.3632 1.752-.5064z"/><path d="m211.834 17.7345c-.068.0512-.131.1074-.189.1688-.048.0512-.111.0972-.188.1381l-.072.0461c.048-.0307.067-.0358.058-.0154-.01.0103-.034.0307-.073.0614-.038.0307-.087.0716-.145.1228-.048.0409-.096.0767-.144.1074-.049.0409-.092.0921-.131.1534-.067.0819-.12.1586-.159.2302-.029.0716-.063.1535-.101.2455-.097.2353-.165.486-.203.752-.029.2557-.082.5115-.16.7672-.231.8491-.449 1.6931-.651 2.532-.193.8389-.454 1.6624-.782 2.4706-.02.6752-.087 1.3555-.203 2.0409-.106.6854-.266 1.3453-.478 1.9795-.039.2046-.087.4144-.145.6292-.048.2046-.087.4143-.116.6292-.029.2148-.043.4296-.043.6445.009.2046.058.4092.144.6138.107.2353.252.3887.435.4603.039-.0409.106-.1279.203-.2608.106-.133.178-.2251.217-.2763.203-.2864.386-.5831.55-.89.174-.3069.338-.624.493-.9514l2.549-.8286c-.261.5524-.531 1.0486-.811 1.4885-.28.4398-.599.8286-.956 1.1662-.348.3376-.744.6291-1.188.8747-.434.2353-.941.4348-1.52.5984-.194.0614-.411.1177-.652.1688-.242.0614-.483.0921-.724.0921-.232 0-.454-.046-.667-.1381-.202-.0818-.362-.2404-.478-.4757-.077-.1535-.13-.3223-.159-.5064-.019-.1841-.024-.3683-.014-.5524.019-.1842.043-.3683.072-.5525.039-.1841.077-.358.116-.5217.077-.3785.159-.757.246-1.1355.097-.3786.183-.7571.261-1.1356l-.232.3683c-.348.5422-.739 1.0588-1.173 1.5499-.425.4808-.889.9207-1.391 1.3197-.492.3887-1.023.7212-1.593.9974s-1.168.4706-1.796.5831l.203-.0921c-.116.0512-.222.0921-.319.1228-.096.0307-.212.0563-.347.0767-.107.0512-.237.0819-.391.0921-.155.0205-.29.0409-.406.0614-.261.0307-.502.0307-.724 0s-.42-.1023-.594-.2148c-.164-.1023-.304-.2507-.42-.4451-.116-.2046-.193-.4654-.232-.7826-.067-.4706-.067-.9411 0-1.4117.078-.4808.16-.9514.246-1.4118.194-1.0435.421-2.0665.681-3.069.261-1.0128.517-2.0307.768-3.0538.106-.4399.203-.8695.29-1.289.086-.4296.154-.8695.202-1.3197.02-.1227.044-.2762.073-.4603.038-.1944.019-.3427-.058-.445-.184-.2251-.391-.3734-.623-.445-.232-.0819-.478-.1228-.739-.1228-.251 0-.507.0205-.767.0614-.261.0307-.512.046-.753.046.337-.1841.675-.3683 1.013-.5524.348-.1944.691-.3888 1.029-.5831h.333c.106 0 .212-.0051.319-.0154.183-.0307.381-.0562.593-.0767.213-.0307.425-.0358.638-.0153.222.0102.434.046.637.1074.212.0613.401.1534.565.2762l1.347-.3836c-.164.1432-.324.2864-.478.4296-.155.1432-.309.2865-.464.4297l-.043.0153c.019.1228.019.2762 0 .4604-.01.1739-.024.3478-.044.5217-.019.1739-.043.3376-.072.4911-.019.1432-.034.2353-.043.2762-.165 1.0025-.392 1.9949-.681 2.977-.28.9821-.536 1.9693-.768 2.9616-.106.4706-.207.9463-.304 1.4271s-.179.9668-.246 1.4578c-.029.2251-.058.4655-.087.7212-.029.2456-.039.4962-.029.752.019.2557.063.5012.13.7365.078.2251.203.4246.377.5985.106.1023.227.1688.362.1995s.246.0511.333.0614l.406-.0921h.043.015c0-.0102.004-.0153.014-.0153.589-.4195 1.106-.9105 1.55-1.4732.454-.5729.869-1.1765 1.245-1.8107.126-.2149.247-.4348.363-.6599.115-.2353.236-.4603.362-.6752.125-.225.26-.4347.405-.6291.155-.2046.328-.3837.522-.5371.338-.2558.704-.4757 1.1-.6599.049-.0716.092-.1381.131-.1994.048-.0717.082-.133.101-.1842.116-.2864.217-.5831.304-.89.087-.3171.169-.6241.246-.9207.068-.266.126-.5269.174-.7826.058-.2558.121-.5167.189-.7826.048-.1944.101-.3837.159-.5678.058-.1944.106-.3888.145-.5831.048-.2353.091-.4655.13-.6906.039-.2353.101-.4655.188-.6905.068-.1739.16-.3376.276-.4911.115-.1636.241-.3069.376-.4296.029-.0205.077-.0563.145-.1074.077-.0614.145-.1177.203-.1688.067-.0512.12-.0921.159-.1228.048-.0307.058-.0358.029-.0154l.058-.0613zm-2.535.7673s.01-.0051.029-.0154c-.01 0-.014.0052-.014.0154 0 0-.005 0-.015 0zm-.13 13.9642c-.01 0-.015.0051-.015.0153 0 0-.005 0-.014 0 .009 0 .019-.0051.029-.0153z"/></g></svg>