<svg width="384" height="126" viewBox="0 0 384 126" fill="none" xmlns="http://www.w3.org/2000/svg">
    <path d="M26.3653 68.8562C10.3863 68.8562 1.79763 63.6964 1.79763 48.5144C1.79763 33.1341 12.7832 32.1418 25.1669 32.1418C35.9527 32.1418 41.3456 33.3325 45.2405 40.7747L41.2457 15.273H28.3627C16.6781 15.273 0 21.2267 0 50.9951C0 81.1605 15.2799 85.725 25.9658 85.725C34.8541 85.725 46.0394 81.4582 46.0394 67.3678V58.2388C44.9409 65.5817 36.9514 68.8562 26.3653 68.8562Z" fill="#150703"/>
    <path d="M89.1748 67.467V32.5387C89.1748 22.3182 90.3733 17.9522 97.8634 15.273H78.4889C85.979 17.9522 87.1775 22.3182 87.1775 32.5387V39.9808H52.5231V32.5387C52.5231 22.3182 53.7215 17.9522 61.2116 15.273H41.8371C49.3273 17.9522 50.5257 22.3182 50.5257 32.5387V67.467C50.5257 77.6875 49.3273 82.0536 41.8371 84.7327H61.2116C53.7215 82.0536 52.5231 77.6875 52.5231 67.467V59.8265H87.1775V67.467C87.1775 77.6875 85.979 82.0536 78.4889 84.7327H97.8634C90.3733 82.0536 89.1748 77.6875 89.1748 67.467Z" fill="#150703"/>
    <path d="M117.819 14.2807C108.132 14.2807 91.4539 20.1352 91.4539 50.0029C91.4539 79.9698 108.132 85.725 117.819 85.725C127.506 85.725 144.184 79.9698 144.184 50.0029C144.184 20.1352 127.506 14.2807 117.819 14.2807ZM116.621 67.3678C104.237 67.3678 93.1516 66.4747 93.1516 52.4836C93.1516 35.8132 102.539 32.6379 119.018 32.6379C131.401 32.6379 142.487 33.531 142.487 47.5222C142.487 64.1925 133.099 67.3678 116.621 67.3678Z" fill="#150703"/>
    <path d="M184.815 36.5078C184.716 18.4483 170.834 15.273 164.442 15.273H137.777C145.267 17.9522 146.466 22.3182 146.466 32.5387V67.467C146.466 77.6875 145.267 82.0536 137.777 84.7327H157.152C149.662 82.0536 148.463 77.6875 148.463 67.467V62.8033H158.55C172.532 62.8033 184.815 53.6743 184.815 36.5078ZM182.818 37.9963C182.818 45.6368 176.327 49.0106 166.839 49.0106C160.447 49.0106 155.154 47.9191 148.463 46.0337V31.1495H172.232C179.522 31.1495 182.818 32.1418 182.818 37.9963Z" fill="#150703"/>
    <path d="M215.55 68.8562C199.571 68.8562 190.982 63.6964 190.982 48.5144C190.982 33.1341 201.968 32.1418 214.352 32.1418C225.137 32.1418 230.53 33.3325 234.425 40.7747L230.43 15.273H217.547C205.863 15.273 189.185 21.2267 189.185 50.9951C189.185 81.1605 204.465 85.725 215.15 85.725C224.039 85.725 235.224 81.4582 235.224 67.3678V58.2388C234.126 65.5817 226.136 68.8562 215.55 68.8562Z" fill="#150703"/>
    <path d="M278.359 67.467V32.5387C278.359 22.3182 279.558 17.9522 287.048 15.273H267.674C275.164 17.9522 276.362 22.3182 276.362 32.5387V39.9808H241.708V32.5387C241.708 22.3182 242.906 17.9522 250.396 15.273H231.022C238.512 17.9522 239.71 22.3182 239.71 32.5387V67.467C239.71 77.6875 238.512 82.0536 231.022 84.7327H250.396C242.906 82.0536 241.708 77.6875 241.708 67.467V59.8265H276.362V67.467C276.362 77.6875 275.164 82.0536 267.674 84.7327H287.048C279.558 82.0536 278.359 77.6875 278.359 67.467Z" fill="#150703"/>
    <path d="M307.004 14.2807C297.317 14.2807 280.639 20.1352 280.639 50.0029C280.639 79.9698 297.317 85.725 307.004 85.725C316.691 85.725 333.369 79.9698 333.369 50.0029C333.369 20.1352 316.691 14.2807 307.004 14.2807ZM305.805 67.3678C293.422 67.3678 282.336 66.4747 282.336 52.4836C282.336 35.8132 291.724 32.6379 308.202 32.6379C320.586 32.6379 331.671 33.531 331.671 47.5222C331.671 64.1925 322.284 67.3678 305.805 67.3678Z" fill="#150703"/>
    <path d="M374 36.5078C373.9 18.4483 360.018 15.273 353.627 15.273H326.962C334.452 17.9522 335.65 22.3182 335.65 32.5387V67.467C335.65 77.6875 334.452 82.0536 326.962 84.7327H346.336C338.846 82.0536 337.648 77.6875 337.648 67.467V62.8033H347.735C361.716 62.8033 374 53.6743 374 36.5078ZM372.003 37.9963C372.003 45.6368 365.511 49.0106 356.024 49.0106C349.632 49.0106 344.339 47.9191 337.648 46.0337V31.1495H361.417C368.707 31.1495 372.003 32.1418 372.003 37.9963Z" fill="#150703"/>
    <rect x="296.183" y="6.68301" width="105" height="57" rx="7.5" transform="rotate(30 296.183 6.68301)" fill="#FFCE70" stroke="black"/>
    <path d="M294.864 37.9758C296.485 38.9118 299.6 38.2485 302.025 36.8564L300.924 37.9319C299.612 39.216 299.592 40.7058 300.943 41.4858C302.452 42.3568 304.701 41.3736 307.094 40.5038L306.837 39.5449L302.799 40.4557C302.173 40.6045 301.779 39.9867 302.306 39.5408L317.31 26.9175L316.945 26.4064L310.955 24.5092L310.331 25.59L312.965 27.111L307.898 31.7807C307.351 30.0239 306.915 29.3222 305.744 28.6462C302.524 26.7872 296.271 29.6618 294.087 33.4446C292.891 35.5161 293.603 37.2478 294.864 37.9758ZM297.118 36.5153C296.285 36.0343 296.076 35.2529 296.622 34.3072C297.909 32.0781 302.462 28.6122 304.668 29.8862C305.456 30.3412 306.168 31.2925 306.77 32.9012C302.477 36.6972 298.874 37.5293 297.118 36.5153Z" fill="black"/>
    <path d="M309.213 46.2604C312.973 48.4314 318.679 46.7121 320.98 42.7267C322.384 40.2949 321.872 37.9577 319.215 36.4237C315.77 34.4347 310.036 36.0475 307.722 40.0554C306.279 42.5548 306.849 44.8954 309.213 46.2604ZM310.356 45.269C308.96 44.463 308.671 43.4555 309.438 42.127C311.024 39.38 315.712 35.9921 318.076 37.3571C319.45 38.1501 319.912 39.3777 319.015 40.9313C317.416 43.7009 312.945 46.764 310.356 45.269Z" fill="black"/>
    <path d="M320.981 53.0547C322.783 54.0947 325.164 54.3891 328.618 52.9307L328.191 51.9033C326.304 52.6753 324.217 52.7015 322.641 51.7915C320.998 50.8425 320.647 49.1091 321.765 47.1727C326.32 49.8923 330.701 50.2601 332.118 47.8057C333.21 45.9144 332.38 44.0241 330.308 42.8281C326.615 40.6961 321.719 42.3125 319.483 46.1854C317.78 49.1351 318.572 51.6637 320.981 53.0547ZM322.272 46.2946C323.565 44.159 326.843 42.5385 328.937 43.7475C329.927 44.3195 330.403 45.3149 329.675 46.5758C328.531 48.5573 325.899 47.9683 322.272 46.2946Z" fill="black"/>
    <path d="M331.906 59.3624C334.834 61.0524 337.618 60.8584 338.736 58.9219C339.659 57.3233 338.654 55.4225 337.662 53.7089C336.757 52.1053 335.844 50.6178 336.377 49.6946C336.845 48.884 338.093 48.8541 339.557 49.6991C340.39 50.1801 340.626 50.7068 340.75 51.9489C340.855 52.9104 340.925 53.8814 341.781 54.3754C342.411 54.7394 343.077 54.5231 343.493 53.8026C344.325 52.3615 342.967 50.1367 340.535 48.7327C337.788 47.1467 335.085 47.3572 334.045 49.1585C333.33 50.3969 334.026 51.9996 334.828 53.5737C335.829 55.5325 337.03 57.4567 336.406 58.5375C335.886 59.4381 334.586 59.3485 333.078 58.4775C331.839 57.7625 331.682 56.8911 331.547 56.0326C331.406 55.0807 331.265 54.1287 330.477 53.6737C329.712 53.2317 329.027 53.377 328.637 54.0525C327.831 55.4485 329.227 57.8154 331.906 59.3624Z" fill="black"/>
    <path d="M349.063 69.2677C350.571 70.1387 352.82 69.1554 355.214 68.2856L354.957 67.3267L350.919 68.2375C350.292 68.3863 349.943 67.7946 350.448 67.3356L356.665 61.7681C358.168 60.4138 358.165 58.911 356.701 58.066C355.395 57.312 354.069 57.477 347.861 60.3776L343.463 62.4317L349.392 57.5691C350.901 56.3084 350.937 54.738 349.428 53.867C347.784 52.918 345.925 53.2258 342.97 54.9121L343.444 55.756C345.274 54.7708 346.949 54.4171 347.782 54.8981C348.165 55.1191 348.26 55.4743 347.842 55.8336L340.567 62.351C339.903 62.9286 340.009 63.8901 340.774 64.3321C341.202 64.5791 341.612 64.5454 342.413 64.1975L353.951 59.2405C354.549 58.9852 354.794 58.9766 355.042 59.1196C355.357 59.3016 355.484 59.7053 355.089 60.0776L349.106 65.4495C347.603 66.8038 347.599 68.4227 349.063 69.2677Z" fill="black"/>
    <path d="M359.685 63.0914C362.873 62.7702 366.242 62.3434 367.802 59.6414C368.53 58.3805 368.061 57.269 367.182 56.762C366.102 56.138 364.507 56.5082 363.857 57.6341C363.363 58.4897 363.529 59.6063 364.7 60.2823C363.422 61.7665 361.92 61.7695 359.58 62.1299L359.685 63.0914Z" fill="black"/>
    <path d="M360.205 75.7006C361.714 76.5716 363.963 75.5884 366.356 74.7186L366.099 73.7597L362.061 74.6705C361.434 74.8192 361.086 74.2275 361.591 73.7686L368.895 67.3577L371.889 69.0867L373.14 67.8571L370.213 66.1671L374.694 62.1495L372.555 60.9145L368.073 64.9321L365.371 63.3721L364.121 64.6017L366.756 66.1227L360.225 71.8695C358.7 73.2107 358.741 74.8556 360.205 75.7006Z" fill="black"/>
    <path d="M285.895 57.0464C287.696 58.0864 290.078 58.3808 293.532 56.9224L293.105 55.8949C291.218 56.667 289.131 56.6931 287.555 55.7831C285.911 54.8341 285.561 53.1008 286.679 51.1644C291.233 53.8839 295.614 54.2517 297.031 51.7974C298.123 49.906 297.293 48.0157 295.222 46.8197C291.529 44.6877 286.633 46.3042 284.397 50.177C282.694 53.1267 283.486 55.6554 285.895 57.0464ZM287.186 50.2862C288.479 48.1506 291.756 46.5302 293.85 47.7392C294.841 48.3112 295.317 49.3066 294.589 50.5675C293.445 52.549 290.813 51.96 287.186 50.2862Z" fill="black"/>
    <path d="M312.857 57.0014C311.348 56.1304 309.237 56.5628 304.922 58.0045L305.875 55.5223C306.192 54.7142 306.575 53.3744 305.066 52.5034C303.422 51.5544 301.564 51.8621 298.608 53.5485L299.082 54.3923C300.912 53.4072 302.587 53.0535 303.42 53.5345C303.758 53.7295 303.879 54.0396 303.713 54.4839L302.062 58.6948C297.483 60.074 296.197 59.9618 295.206 59.3898C294.756 59.1298 294.427 58.3995 293.774 58.0225C292.851 57.4895 292.007 57.9631 291.682 58.526C291.279 59.224 291.371 60.208 292.7 60.975C294.501 62.015 296.78 61.4995 301.609 59.844L300.604 62.4163C299.971 64.0324 299.905 65.135 301.323 65.954C302.967 66.903 305.149 65.8808 307.542 65.011L307.285 64.0521L303.518 64.9092C302.798 65.0641 302.388 64.5269 302.662 63.8444L304.456 59.1763C308.45 58.0298 309.653 58.1835 310.576 58.7165C311.026 58.9765 311.459 59.5267 312.112 59.9037C312.9 60.3587 313.654 59.8332 313.914 59.3828C314.278 58.7524 314.276 57.8204 312.857 57.0014Z" fill="black"/>
    <path d="M320.783 58.6653C321.841 59.2763 323.401 58.9156 324.038 57.8123C324.532 56.9567 324.291 55.9172 323.39 55.3972C322.332 54.7862 320.76 55.1694 320.149 56.2277C319.642 57.1058 319.882 58.1453 320.783 58.6653ZM310.173 71.0631C311.681 71.9341 313.93 70.9509 316.324 70.0811L316.067 69.1222L312.028 70.033C311.402 70.1817 311.053 69.59 311.558 69.1311L318 63.6935C318.356 63.3887 318.645 63.045 318.84 62.7072C319.425 61.694 319.184 60.6545 318.036 59.9915C316.392 59.0425 314.533 59.3502 311.578 61.0366L312.052 61.8804C313.881 60.8953 315.557 60.5416 316.39 61.0226C316.773 61.2436 316.868 61.5987 316.45 61.9581L310.306 67.297C309.936 67.6243 309.648 67.9681 309.453 68.3058C308.842 69.3641 309.069 70.4261 310.173 71.0631Z" fill="black"/>
    <path d="M319.076 76.2032C322.003 77.8932 324.787 77.6992 325.905 75.7628C326.828 74.1641 325.824 72.2634 324.831 70.5497C323.926 68.9461 323.013 67.4586 323.546 66.5354C324.014 65.7248 325.263 65.6949 326.726 66.5399C327.559 67.0209 327.796 67.5476 327.919 68.7898C328.024 69.7513 328.094 70.7223 328.95 71.2163C329.58 71.5803 330.246 71.3639 330.662 70.6434C331.494 69.2023 330.136 66.9775 327.704 65.5735C324.957 63.9875 322.254 64.198 321.214 65.9994C320.499 67.2378 321.195 68.8404 321.997 70.4146C322.998 72.3733 324.199 74.2975 323.575 75.3783C323.055 76.279 321.756 76.1893 320.247 75.3183C319.008 74.6033 318.851 73.7319 318.716 72.8735C318.575 71.9215 318.435 70.9695 317.646 70.5145C316.881 70.0725 316.197 70.2178 315.807 70.8933C315.001 72.2893 316.396 74.6562 319.076 76.2032Z" fill="black"/>
    <path d="M328.131 81.4315C329.64 82.3025 331.889 81.3193 334.282 80.4495L334.025 79.4906L329.987 80.4014C329.361 80.5502 329.012 79.9584 329.517 79.4995L336.821 73.0886L339.816 74.8176L341.066 73.588L338.139 71.898L342.62 67.8804L340.481 66.6454L336 70.663L333.298 69.103L332.047 70.3326L334.682 71.8536L328.152 77.6004C326.627 78.9416 326.668 80.5865 328.131 81.4315Z" fill="black"/>
    <path d="M340.32 80.483L341.311 81.055L349.624 72.5846C350.505 71.6823 350.103 70.8195 349.247 70.3255C348.391 69.8315 347.33 69.8493 346.652 70.8686L340.32 80.483ZM336.477 86.0998C337.558 86.7238 339.153 86.3536 339.803 85.2278C340.297 84.3721 340.043 83.3551 339.142 82.8351C338.062 82.2111 336.467 82.5814 335.817 83.7072C335.323 84.5628 335.576 85.5798 336.477 86.0998Z" fill="black"/>
</svg>
